<svg id="Layer_1" data-name="Layer 1" xmlns="http://www.w3.org/2000/svg" viewBox="0 0 227 47"><defs><style>.cls-1{fill:#226c93;}.cls-2{fill:#55bff0;}.cls-3{fill:#4583a9;}</style></defs><title>Artboard 1</title><path class="cls-1" d="M58.19,38.64V7.49a.7.7,0,0,1,.7-.7h5.56a.7.7,0,0,1,.7.7V17.3a7.23,7.23,0,0,1,2.19-1.11A11.75,11.75,0,0,1,71,15.73a10.29,10.29,0,0,1,6.46,1.81c1.57,1.22,2.35,3.18,2.35,5.9v15.2a.7.7,0,0,1-.7.7H73.56a.7.7,0,0,1-.7-.7V24.88a7.88,7.88,0,0,0-.13-1.57,2.23,2.23,0,0,0-.53-1.1,2.32,2.32,0,0,0-1.11-.64,7.6,7.6,0,0,0-1.91-.19,7.33,7.33,0,0,0-2,.22,2.63,2.63,0,0,0-1.25.7,2.53,2.53,0,0,0-.63,1.29,9.32,9.32,0,0,0-.18,2V38.64a.7.7,0,0,1-.7.7H58.89A.7.7,0,0,1,58.19,38.64Z"/><path class="cls-1" d="M90.33,11.39a3.14,3.14,0,0,1-.77,2.37,4.17,4.17,0,0,1-2.86.73,4.26,4.26,0,0,1-2.9-.73A3.14,3.14,0,0,1,83,11.39a3.12,3.12,0,0,1,.76-2.32,4.19,4.19,0,0,1,2.9-.75,4.11,4.11,0,0,1,2.86.75A3.12,3.12,0,0,1,90.33,11.39Zm-6.43,5h5.56a.7.7,0,0,1,.71.7V38.64a.7.7,0,0,1-.71.7H83.9a.7.7,0,0,1-.7-.7V17.13A.7.7,0,0,1,83.9,16.43Z"/><path class="cls-1" d="M100.11,30.23a8.32,8.32,0,0,0,.24,1.84,2.39,2.39,0,0,0,.7,1.14,2.76,2.76,0,0,0,1.34.59,12.17,12.17,0,0,0,2.1.15h3.88l3.81,0a.7.7,0,0,1,.7.83l-.75,4a.7.7,0,0,1-.67.57c-1.24,0-2.41.07-3.51.07h-4.11a17.54,17.54,0,0,1-5.17-.64,7.33,7.33,0,0,1-3.29-1.93,7.14,7.14,0,0,1-1.73-3.24,18.23,18.23,0,0,1-.5-4.58V26.63a18.81,18.81,0,0,1,.54-4.79,7.84,7.84,0,0,1,1.84-3.4,8.09,8.09,0,0,1,3.38-2,16.83,16.83,0,0,1,5.14-.67c3.68,0,6.31.76,7.89,2.3a8.51,8.51,0,0,1,2.37,6.41v.92a12.69,12.69,0,0,1-.18,2.37,3.45,3.45,0,0,1-.63,1.49,2.4,2.4,0,0,1-1.21.79,6.86,6.86,0,0,1-1.84.22Zm3.77-9.38a7.59,7.59,0,0,0-1.91.2,2.15,2.15,0,0,0-1.14.7,3.13,3.13,0,0,0-.57,1.38,13.94,13.94,0,0,0-.15,2.28h7.58a13.94,13.94,0,0,0-.15-2.28,2.92,2.92,0,0,0-.59-1.38,2.29,2.29,0,0,0-1.16-.7A7.59,7.59,0,0,0,103.88,20.85Z"/><path class="cls-1" d="M117.81,6.79h5.56a.7.7,0,0,1,.71.7V38.64a.7.7,0,0,1-.71.7h-5.56a.7.7,0,0,1-.7-.7V7.49A.7.7,0,0,1,117.81,6.79Z"/><path class="cls-1" d="M138.36,15.73a22.28,22.28,0,0,1,5.21.52,7.51,7.51,0,0,1,3.48,1.8A7.43,7.43,0,0,1,149,21.42a19,19,0,0,1,.62,5.26v2.41A18.82,18.82,0,0,1,149,34.3a7.46,7.46,0,0,1-1.95,3.38,7.71,7.71,0,0,1-3.48,1.81,25,25,0,0,1-10.43,0,7.84,7.84,0,0,1-3.5-1.81,7.32,7.32,0,0,1-2-3.38,18.82,18.82,0,0,1-.62-5.21V26.68a19,19,0,0,1,.62-5.26,7.28,7.28,0,0,1,2-3.37,7.63,7.63,0,0,1,3.5-1.8A22.31,22.31,0,0,1,138.36,15.73Zm4.2,10.73a18,18,0,0,0-.17-2.74,3.25,3.25,0,0,0-.66-1.58,2.44,2.44,0,0,0-1.29-.74,10.92,10.92,0,0,0-4.16,0,2.51,2.51,0,0,0-1.3.74,3.35,3.35,0,0,0-.67,1.58,14.42,14.42,0,0,0-.2,2.74v2.8a14.72,14.72,0,0,0,.2,2.76,3.29,3.29,0,0,0,.67,1.6,2.46,2.46,0,0,0,1.3.75,11.48,11.48,0,0,0,4.16,0,2.39,2.39,0,0,0,1.29-.75,3.2,3.2,0,0,0,.66-1.6,18.4,18.4,0,0,0,.17-2.76Z"/><path class="cls-1" d="M172,12.18c-1.69,0-2.86.31-3.48.94a4.61,4.61,0,0,0-.95,3.31h6.87a.7.7,0,0,1,.69.83l-.79,4.07a.7.7,0,0,1-.69.57h-6.08V38.64a.7.7,0,0,1-.7.7h-5.56a.7.7,0,0,1-.7-.7V17.35a18.27,18.27,0,0,1,.59-5,7.13,7.13,0,0,1,1.91-3.28,7.83,7.83,0,0,1,3.46-1.82,21,21,0,0,1,5.3-.57h1.27l1.38,0,1.29,0H176a.71.71,0,0,1,.67.84l-.78,4.05a.68.68,0,0,1-.71.57l-1.18,0C173.21,12.18,172.54,12.18,172,12.18Z"/><path class="cls-1" d="M182.43,39.34h-5.56a.7.7,0,0,1-.7-.7V24.93a12,12,0,0,1,.61-4.12,6,6,0,0,1,1.86-2.67,7.39,7.39,0,0,1,3.11-1.43,19.81,19.81,0,0,1,4.32-.41h2.47c.59,0,1.25,0,2,0a.71.71,0,0,1,.66.83l-.79,4.25a.69.69,0,0,1-.72.57l-.84,0c-.7,0-1.39,0-2.06,0a6.63,6.63,0,0,0-1.91.22,2.41,2.41,0,0,0-1.12.65,2.2,2.2,0,0,0-.5,1.16,12,12,0,0,0-.11,1.69v13A.7.7,0,0,1,182.43,39.34Z"/><path class="cls-1" d="M195.36,8.32l6.09,0a.28.28,0,0,1,.27.36L200,14.05a.7.7,0,0,1-.67.49l-4.8,0a.71.71,0,0,1-.7-.82l.8-4.84A.71.71,0,0,1,195.36,8.32Zm-1.2,8.11h5.56a.7.7,0,0,1,.7.7V38.64a.7.7,0,0,1-.7.7h-5.56a.7.7,0,0,1-.7-.7V17.13A.7.7,0,0,1,194.16,16.43Z"/><path class="cls-1" d="M214.74,15.73a22.28,22.28,0,0,1,5.21.52,7.51,7.51,0,0,1,3.48,1.8,7.43,7.43,0,0,1,1.95,3.37,19,19,0,0,1,.62,5.26v2.41a18.82,18.82,0,0,1-.62,5.21,7.46,7.46,0,0,1-1.95,3.38A7.71,7.71,0,0,1,220,39.49a25,25,0,0,1-10.43,0,7.84,7.84,0,0,1-3.5-1.81,7.32,7.32,0,0,1-2-3.38,18.82,18.82,0,0,1-.62-5.21V26.68a19,19,0,0,1,.62-5.26,7.28,7.28,0,0,1,2-3.37,7.63,7.63,0,0,1,3.5-1.8A22.31,22.31,0,0,1,214.74,15.73Zm4.2,10.73a18,18,0,0,0-.17-2.74,3.25,3.25,0,0,0-.66-1.58,2.44,2.44,0,0,0-1.29-.74,10.92,10.92,0,0,0-4.16,0,2.43,2.43,0,0,0-1.3.74,3.45,3.45,0,0,0-.68,1.58,15.44,15.44,0,0,0-.19,2.74v2.8a15.77,15.77,0,0,0,.19,2.76,3.39,3.39,0,0,0,.68,1.6,2.38,2.38,0,0,0,1.3.75,11.48,11.48,0,0,0,4.16,0,2.39,2.39,0,0,0,1.29-.75,3.2,3.2,0,0,0,.66-1.6,18.4,18.4,0,0,0,.17-2.76Z"/><path class="cls-2" d="M39.24,34.4,22.49,25.6,22,39.69H21l-.51-14.08L3.75,34.41a1.08,1.08,0,0,0,0,1.9L21,45.68a1.1,1.1,0,0,0,1,0l17.24-9.39A1.07,1.07,0,0,0,39.24,34.4Z"/><path class="cls-1" d="M41.42,10.84,24,1.33a1.07,1.07,0,0,0-1.59.94V22l14.07-8,.5.83L23.05,24l17.36,9.11a1.07,1.07,0,0,0,1.57-1V11.78A1.05,1.05,0,0,0,41.42,10.84Z"/><path class="cls-3" d="M5.32,14.83l.5-.83,14.82,8.07V2.27a1.07,1.07,0,0,0-1.59-.94L1.56,10.84a1.07,1.07,0,0,0-.56.94V32.11a1.08,1.08,0,0,0,1.58,1L19.87,24Z"/></svg>