<svg width="440" height="562" viewBox="0 0 440 562" fill="none" xmlns="http://www.w3.org/2000/svg">
<g clip-path="url(#clip0)">
<path d="M62.3 437.8H50.8L52.7 0H64.2V1.5H54.2L52.3 436.3H62.3V437.8Z" fill="#55BFF0"/>
<path d="M141.7 512.9V501.4H143.2V511.4L438.4 507.1V497.1H439.9V508.6L141.7 512.9Z" fill="#55BFF0"/>
<path d="M51.7361 436.655L50.7818 437.812L141.819 512.884L142.773 511.726L51.7361 436.655Z" fill="#55BFF0"/>
<path d="M64 1H53.5L51.5 437.5L142 512L439 507.848V497" stroke="#55BFF0" stroke-width="1.5"/>
<path d="M142 512V501.5" stroke="#55BFF0" stroke-width="1.5"/>
<path d="M52 437H62" stroke="#55BFF0" stroke-width="1.5"/>
</g>
<path d="M14.3125 227.188C15.1875 227.188 16.0125 226.95 16.4 226.762L16.6375 225.137C16.1875 225.375 15.3 225.687 14.4375 225.687C12.95 225.687 12.3 224.862 12.3 222.625C12.3 220.387 12.95 219.562 14.4375 219.562C15.2375 219.562 16.0625 219.837 16.4625 220.05L16.375 218.5C15.9875 218.312 15.175 218.062 14.3125 218.062C11.8 218.062 10.575 219.5 10.575 222.625C10.575 225.75 11.8 227.188 14.3125 227.188ZM24.6676 218.25L21.9051 222.225L19.1426 218.25H17.7176V227H19.2926V221.05L21.8926 224.75L24.4676 221.05V227H26.0801V218.25H24.6676ZM30.4058 227.188C32.7683 227.188 33.8058 226.125 33.8058 224.537C33.8058 223.05 33.0058 222.387 31.7058 222.062L30.2183 221.687C29.2933 221.462 28.9558 221.162 28.9558 220.55C28.9558 219.962 29.3683 219.562 30.6058 219.562C31.6558 219.562 32.7683 219.812 33.3183 220L33.2433 218.45C32.7808 218.287 31.7058 218.062 30.4683 218.062C28.2558 218.062 27.2433 219.1 27.2433 220.6C27.2433 222.012 27.9933 222.762 29.2558 223.075L30.7933 223.462C31.7183 223.687 32.0808 223.975 32.0808 224.575C32.0808 225.262 31.6183 225.687 30.3183 225.687C29.1808 225.687 27.9183 225.362 27.2808 225.125L27.5183 226.75C28.0433 226.937 29.1808 227.188 30.4058 227.188Z" fill="#9FB1C8"/>
<path d="M6.064 210.144L8.44 207.936C11.8 204.744 12.616 203.04 12.616 200.76C12.616 197.784 10.624 195.84 7.024 195.84C5.056 195.84 3.232 196.464 2.392 196.92L2.2 199.824C3.088 199.32 4.912 198.672 6.616 198.672C8.584 198.672 9.352 199.704 9.352 201.048C9.352 202.488 8.896 203.568 6.712 205.776L1.84 210.648V213H12.664V210.144H6.064ZM20.4203 213.36C24.7883 213.36 26.5643 210.792 26.5643 204.6C26.5643 198.408 24.7883 195.84 20.4203 195.84C16.0283 195.84 14.2523 198.408 14.2523 204.6C14.2523 210.792 16.0283 213.36 20.4203 213.36ZM20.4203 210.552C18.1883 210.552 17.4683 209.184 17.4683 204.6C17.4683 199.992 18.1883 198.648 20.4203 198.648C22.6523 198.648 23.3483 199.992 23.3483 204.6C23.3483 209.184 22.6523 210.552 20.4203 210.552ZM37.2528 204.264C38.7887 203.544 40.0848 202.224 40.0848 200.184C40.0848 197.472 37.9728 195.84 34.3247 195.84C30.7007 195.84 28.5167 197.496 28.5167 200.352C28.5167 202.488 29.4287 203.664 31.2767 204.6C29.5487 205.296 28.0607 206.688 28.0607 208.872C28.0607 211.656 30.3407 213.36 34.3247 213.36C38.1888 213.36 40.5408 211.632 40.5408 208.728C40.5408 206.352 39.4128 205.248 37.2528 204.264ZM34.2767 198.504C35.8367 198.504 36.8447 199.344 36.8447 200.568C36.8447 202.008 35.7887 202.824 34.9487 203.256L33.9887 202.824C32.2847 202.104 31.6847 201.552 31.6847 200.4C31.6847 199.248 32.6927 198.504 34.2767 198.504ZM34.3007 210.648C32.5727 210.648 31.4447 209.76 31.4447 208.44C31.4447 206.88 32.6927 206.016 33.6047 205.608L34.6847 206.064C36.4607 206.832 37.1087 207.36 37.1087 208.608C37.1087 209.784 36.0047 210.648 34.2767 210.648H34.3007Z" fill="#226C93"/>
<path d="M64.3125 510.188C65.1875 510.188 66.0125 509.95 66.4 509.762L66.6375 508.137C66.1875 508.375 65.3 508.687 64.4375 508.687C62.95 508.687 62.3 507.862 62.3 505.625C62.3 503.387 62.95 502.562 64.4375 502.562C65.2375 502.562 66.0625 502.837 66.4625 503.05L66.375 501.5C65.9875 501.312 65.175 501.062 64.3125 501.062C61.8 501.062 60.575 502.5 60.575 505.625C60.575 508.75 61.8 510.188 64.3125 510.188ZM74.6676 501.25L71.9051 505.225L69.1426 501.25H67.7176V510H69.2926V504.05L71.8926 507.75L74.4676 504.05V510H76.0801V501.25H74.6676ZM80.4058 510.188C82.7683 510.188 83.8058 509.125 83.8058 507.537C83.8058 506.05 83.0058 505.387 81.7058 505.062L80.2183 504.687C79.2933 504.462 78.9558 504.162 78.9558 503.55C78.9558 502.962 79.3683 502.562 80.6058 502.562C81.6558 502.562 82.7683 502.812 83.3183 503L83.2433 501.45C82.7808 501.287 81.7058 501.062 80.4683 501.062C78.2558 501.062 77.2433 502.1 77.2433 503.6C77.2433 505.012 77.9933 505.762 79.2558 506.075L80.7933 506.462C81.7183 506.687 82.0808 506.975 82.0808 507.575C82.0808 508.262 81.6183 508.687 80.3183 508.687C79.1808 508.687 77.9183 508.362 77.2808 508.125L77.5183 509.75C78.0433 509.937 79.1808 510.188 80.4058 510.188Z" fill="#9FB1C8"/>
<path d="M71.224 487.264C72.76 486.544 74.056 485.224 74.056 483.184C74.056 480.472 71.944 478.84 68.296 478.84C64.672 478.84 62.488 480.496 62.488 483.352C62.488 485.488 63.4 486.664 65.248 487.6C63.52 488.296 62.032 489.688 62.032 491.872C62.032 494.656 64.312 496.36 68.296 496.36C72.16 496.36 74.512 494.632 74.512 491.728C74.512 489.352 73.384 488.248 71.224 487.264ZM68.248 481.504C69.808 481.504 70.816 482.344 70.816 483.568C70.816 485.008 69.76 485.824 68.92 486.256L67.96 485.824C66.256 485.104 65.656 484.552 65.656 483.4C65.656 482.248 66.664 481.504 68.248 481.504ZM68.272 493.648C66.544 493.648 65.416 492.76 65.416 491.44C65.416 489.88 66.664 489.016 67.576 488.608L68.656 489.064C70.432 489.832 71.08 490.36 71.08 491.608C71.08 492.784 69.976 493.648 68.248 493.648H68.272ZM75.3381 481.336V484.288L78.6021 482.992V496H81.7461V478.84L75.3381 481.336Z" fill="#226C93"/>
<path d="M284.313 557.188C285.188 557.188 286.013 556.95 286.4 556.762L286.638 555.137C286.188 555.375 285.3 555.687 284.438 555.687C282.95 555.687 282.3 554.862 282.3 552.625C282.3 550.387 282.95 549.562 284.438 549.562C285.238 549.562 286.063 549.837 286.463 550.05L286.375 548.5C285.988 548.312 285.175 548.062 284.313 548.062C281.8 548.062 280.575 549.5 280.575 552.625C280.575 555.75 281.8 557.188 284.313 557.188ZM294.668 548.25L291.905 552.225L289.143 548.25H287.718V557H289.293V551.05L291.893 554.75L294.468 551.05V557H296.08V548.25H294.668ZM300.406 557.188C302.768 557.188 303.806 556.125 303.806 554.537C303.806 553.05 303.006 552.387 301.706 552.062L300.218 551.687C299.293 551.462 298.956 551.162 298.956 550.55C298.956 549.962 299.368 549.562 300.606 549.562C301.656 549.562 302.768 549.812 303.318 550L303.243 548.45C302.781 548.287 301.706 548.062 300.468 548.062C298.256 548.062 297.243 549.1 297.243 550.6C297.243 552.012 297.993 552.762 299.256 553.075L300.793 553.462C301.718 553.687 302.081 553.975 302.081 554.575C302.081 555.262 301.618 555.687 300.318 555.687C299.181 555.687 297.918 555.362 297.281 555.125L297.518 556.75C298.043 556.937 299.181 557.188 300.406 557.188Z" fill="#9FB1C8"/>
<path d="M275.48 528.336V531.288L278.744 529.992V543H281.888V525.84L275.48 528.336ZM295.068 538.512C295.044 536.4 294.276 535.008 292.524 534.36C293.988 533.64 294.636 532.296 294.636 530.448C294.636 527.376 292.716 525.84 289.308 525.84C286.26 525.84 284.532 526.752 284.532 526.752L284.34 529.656C284.34 529.656 285.972 528.6 288.516 528.6C290.484 528.6 291.396 529.368 291.396 530.832C291.396 532.296 290.772 533.16 288.972 533.16H286.188V535.872H289.212C291.084 535.872 291.804 536.736 291.804 538.248C291.828 539.736 290.748 540.528 288.636 540.528C285.876 540.528 283.98 539.616 283.98 539.616L284.46 542.496C284.46 542.496 286.236 543.336 289.26 543.336C292.98 543.336 295.092 541.68 295.068 538.512ZM300.491 540.144L302.867 537.936C306.227 534.744 307.043 533.04 307.043 530.76C307.043 527.784 305.051 525.84 301.451 525.84C299.483 525.84 297.659 526.464 296.819 526.92L296.627 529.824C297.515 529.32 299.339 528.672 301.043 528.672C303.011 528.672 303.779 529.704 303.779 531.048C303.779 532.488 303.323 533.568 301.139 535.776L296.267 540.648V543H307.091V540.144H300.491Z" fill="#226C93"/>
<defs>
<clipPath id="clip0">
<rect width="439.9" height="561.2" fill="white"/>
</clipPath>
</defs>
</svg>
