<svg width="317" height="591" viewBox="0 0 317 591" fill="none" xmlns="http://www.w3.org/2000/svg">
<g clip-path="url(#clip0)">
<path d="M62 1H51V471L143.5 547L316 537V526" stroke="#55BFF0" stroke-width="1.5"/>
<path d="M51 471H61.5" stroke="#55BFF0" stroke-width="1.5"/>
<path d="M144 547V536" stroke="#55BFF0" stroke-width="1.5"/>
<path d="M13.3125 251.188C14.1875 251.188 15.0125 250.95 15.4 250.762L15.6375 249.137C15.1875 249.375 14.3 249.687 13.4375 249.687C11.95 249.687 11.3 248.862 11.3 246.625C11.3 244.387 11.95 243.562 13.4375 243.562C14.2375 243.562 15.0625 243.837 15.4625 244.05L15.375 242.5C14.9875 242.312 14.175 242.062 13.3125 242.062C10.8 242.062 9.575 243.5 9.575 246.625C9.575 249.75 10.8 251.188 13.3125 251.188ZM23.6676 242.25L20.9051 246.225L18.1426 242.25H16.7176V251H18.2926V245.05L20.8926 248.75L23.4676 245.05V251H25.0801V242.25H23.6676ZM29.4058 251.188C31.7683 251.188 32.8058 250.125 32.8058 248.537C32.8058 247.05 32.0058 246.387 30.7058 246.062L29.2183 245.687C28.2933 245.462 27.9558 245.162 27.9558 244.55C27.9558 243.962 28.3683 243.562 29.6058 243.562C30.6558 243.562 31.7683 243.812 32.3183 244L32.2433 242.45C31.7808 242.287 30.7058 242.062 29.4683 242.062C27.2558 242.062 26.2433 243.1 26.2433 244.6C26.2433 246.012 26.9933 246.762 28.2558 247.075L29.7933 247.462C30.7183 247.687 31.0808 247.975 31.0808 248.575C31.0808 249.262 30.6183 249.687 29.3183 249.687C28.1808 249.687 26.9183 249.362 26.2808 249.125L26.5183 250.75C27.0433 250.937 28.1808 251.188 29.4058 251.188Z" fill="#9FB1C8"/>
<path d="M0.48 222.336V225.288L3.744 223.992V237H6.888V219.84L0.48 222.336ZM14.6439 219.84C11.0199 219.84 8.85994 222.168 8.85994 225.552C8.85994 229.296 11.1879 231.072 14.0439 231.072C15.7239 231.072 17.0199 230.448 17.7399 229.824C17.2839 233.304 15.5559 234.576 13.2039 234.576C11.9319 234.576 10.8039 234.192 10.2999 233.904L10.7319 236.952C11.2359 237.12 12.3399 237.36 13.4919 237.36C18.0999 237.36 21.0279 234.312 21.0279 227.88C21.0279 222.432 18.6999 219.84 14.6439 219.84ZM12.0759 225.552C12.0759 223.728 13.0599 222.648 14.6439 222.648C16.4679 222.648 17.7159 223.968 17.8359 227.304C17.1399 227.832 16.0599 228.312 14.7399 228.312C13.0359 228.312 12.0759 227.28 12.0759 225.552ZM33.3636 232.512C33.3396 230.4 32.5716 229.008 30.8196 228.36C32.2836 227.64 32.9316 226.296 32.9316 224.448C32.9316 221.376 31.0116 219.84 27.6036 219.84C24.5556 219.84 22.8276 220.752 22.8276 220.752L22.6356 223.656C22.6356 223.656 24.2676 222.6 26.8116 222.6C28.7796 222.6 29.6916 223.368 29.6916 224.832C29.6916 226.296 29.0676 227.16 27.2676 227.16H24.4836V229.872H27.5076C29.3796 229.872 30.0996 230.736 30.0996 232.248C30.1236 233.736 29.0436 234.528 26.9316 234.528C24.1716 234.528 22.2756 233.616 22.2756 233.616L22.7556 236.496C22.7556 236.496 24.5316 237.336 27.5556 237.336C31.2756 237.336 33.3876 235.68 33.3636 232.512Z" fill="#4583A9"/>
<path d="M52.3125 543.188C53.1875 543.188 54.0125 542.95 54.4 542.762L54.6375 541.137C54.1875 541.375 53.3 541.687 52.4375 541.687C50.95 541.687 50.3 540.862 50.3 538.625C50.3 536.387 50.95 535.562 52.4375 535.562C53.2375 535.562 54.0625 535.837 54.4625 536.05L54.375 534.5C53.9875 534.312 53.175 534.062 52.3125 534.062C49.8 534.062 48.575 535.5 48.575 538.625C48.575 541.75 49.8 543.188 52.3125 543.188ZM62.6676 534.25L59.9051 538.225L57.1426 534.25H55.7176V543H57.2926V537.05L59.8926 540.75L62.4676 537.05V543H64.0801V534.25H62.6676ZM68.4058 543.188C70.7683 543.188 71.8058 542.125 71.8058 540.537C71.8058 539.05 71.0058 538.387 69.7058 538.062L68.2183 537.687C67.2933 537.462 66.9558 537.162 66.9558 536.55C66.9558 535.962 67.3683 535.562 68.6058 535.562C69.6558 535.562 70.7683 535.812 71.3183 536L71.2433 534.45C70.7808 534.287 69.7058 534.062 68.4683 534.062C66.2558 534.062 65.2433 535.1 65.2433 536.6C65.2433 538.012 65.9933 538.762 67.2558 539.075L68.7933 539.462C69.7183 539.687 70.0808 539.975 70.0808 540.575C70.0808 541.262 69.6183 541.687 68.3183 541.687C67.1808 541.687 65.9183 541.362 65.2808 541.125L65.5183 542.75C66.0433 542.937 67.1808 543.188 68.4058 543.188Z" fill="#9FB1C8"/>
<path d="M55.088 518.128C53.168 518.128 51.992 518.896 51.368 519.448C51.824 515.92 53.552 514.672 55.928 514.672C57.608 514.672 58.736 515.344 58.736 515.344L58.544 512.392C58.544 512.392 57.296 511.888 55.64 511.888C51.032 511.888 48.104 514.888 48.104 521.32C48.104 526.768 50.432 529.312 54.512 529.312C58.112 529.312 60.272 527.032 60.272 523.648C60.272 519.904 57.944 518.128 55.088 518.128ZM54.512 526.504C52.664 526.504 51.392 525.256 51.272 521.92C51.872 521.44 52.904 520.888 54.416 520.888C56.12 520.888 57.056 521.896 57.056 523.648C57.056 525.472 56.096 526.504 54.512 526.504ZM66.8236 511.84C63.1996 511.84 61.0396 514.168 61.0396 517.552C61.0396 521.296 63.3676 523.072 66.2236 523.072C67.9036 523.072 69.1996 522.448 69.9196 521.824C69.4636 525.304 67.7356 526.576 65.3836 526.576C64.1116 526.576 62.9836 526.192 62.4796 525.904L62.9116 528.952C63.4156 529.12 64.5196 529.36 65.6716 529.36C70.2796 529.36 73.2076 526.312 73.2076 519.88C73.2076 514.432 70.8796 511.84 66.8236 511.84ZM64.2556 517.552C64.2556 515.728 65.2396 514.648 66.8236 514.648C68.6476 514.648 69.8956 515.968 70.0156 519.304C69.3196 519.832 68.2396 520.312 66.9196 520.312C65.2156 520.312 64.2556 519.28 64.2556 517.552Z" fill="#4583A9"/>
<path d="M223.313 586.188C224.188 586.188 225.013 585.95 225.4 585.762L225.638 584.137C225.188 584.375 224.3 584.687 223.438 584.687C221.95 584.687 221.3 583.862 221.3 581.625C221.3 579.387 221.95 578.562 223.438 578.562C224.238 578.562 225.063 578.837 225.463 579.05L225.375 577.5C224.988 577.312 224.175 577.062 223.313 577.062C220.8 577.062 219.575 578.5 219.575 581.625C219.575 584.75 220.8 586.188 223.313 586.188ZM233.668 577.25L230.905 581.225L228.143 577.25H226.718V586H228.293V580.05L230.893 583.75L233.468 580.05V586H235.08V577.25H233.668ZM239.406 586.188C241.768 586.188 242.806 585.125 242.806 583.537C242.806 582.05 242.006 581.387 240.706 581.062L239.218 580.687C238.293 580.462 237.956 580.162 237.956 579.55C237.956 578.962 238.368 578.562 239.606 578.562C240.656 578.562 241.768 578.812 242.318 579L242.243 577.45C241.781 577.287 240.706 577.062 239.468 577.062C237.256 577.062 236.243 578.1 236.243 579.6C236.243 581.012 236.993 581.762 238.256 582.075L239.793 582.462C240.718 582.687 241.081 582.975 241.081 583.575C241.081 584.262 240.618 584.687 239.318 584.687C238.181 584.687 236.918 584.362 236.281 584.125L236.518 585.75C237.043 585.937 238.181 586.188 239.406 586.188Z" fill="#9FB1C8"/>
<path d="M229.088 561.128C227.168 561.128 225.992 561.896 225.368 562.448C225.824 558.92 227.552 557.672 229.928 557.672C231.608 557.672 232.736 558.344 232.736 558.344L232.544 555.392C232.544 555.392 231.296 554.888 229.64 554.888C225.032 554.888 222.104 557.888 222.104 564.32C222.104 569.768 224.432 572.312 228.512 572.312C232.112 572.312 234.272 570.032 234.272 566.648C234.272 562.904 231.944 561.128 229.088 561.128ZM228.512 569.504C226.664 569.504 225.392 568.256 225.272 564.92C225.872 564.44 226.904 563.888 228.416 563.888C230.12 563.888 231.056 564.896 231.056 566.648C231.056 568.472 230.096 569.504 228.512 569.504ZM234.776 557.336V560.288L238.04 558.992V572H241.184V554.84L234.776 557.336Z" fill="#4583A9"/>
</g>
<defs>
<clipPath id="clip0">
<rect width="316.9" height="590.9" fill="white"/>
</clipPath>
</defs>
</svg>
