<?xml version="1.0" standalone="no"?>
<!DOCTYPE svg PUBLIC "-//W3C//DTD SVG 1.1//EN" "http://www.w3.org/Graphics/SVG/1.1/DTD/svg11.dtd" >
<svg xmlns="http://www.w3.org/2000/svg" xmlns:xlink="http://www.w3.org/1999/xlink" version="1.1">
<metadata>
Created by FontForge 20170924 at Wed Feb 14 13:30:57 2018
 By www-data
Copyright \(c\) 2018 by Fontfabric. All rights reserved.
</metadata>
<defs>
<font id="Gilam-Heavy" horiz-adv-x="620" >
  <font-face 
    font-family="Gilam Heavy"
    font-weight="800"
    font-stretch="normal"
    units-per-em="1000"
    panose-1="0 0 9 0 0 0 0 0 0 0"
    ascent="800"
    descent="-200"
    x-height="516.92"
    cap-height="700"
    bbox="-454.54 -302 1253.46 1089.38"
    underline-thickness="0"
    underline-position="0"
    stemh="105"
    stemv="191"
    unicode-range="U+0020-25CA"
  />
<missing-glyph horiz-adv-x="500" 
d="M410 770v-1000h-317v1000h317zM333 703h-165v-33h65v-37h-66v-33h166v33h-66v37h66v33zM267 574h-100v-104h166v34h-66v70zM233 540v-36h-33v36h33zM333 443h-166v-33h66v-37h-66v-33h100v70h66v33zM333 383h-33v-66h-133v-34h166v100zM333 261h-100v-56h34v23h33v-47
h-100v80h-33v-113h166v113zM333 88h-166v-113h166v113zM300 55v-47h-100v47h100zM333 -48h-166v-33h70l-70 -47v-33h166v33h-102l70 47h32v33z" />
    <glyph glyph-name="f_f" unicode="ff" horiz-adv-x="785" 
d="M651.08 517.23l-0.0107422 -0.318359h125.39v-132.39h-125.39v-384.54h-189v384.54h-178.39v-384.54h-189v384.54h-76.54v132.39h76.54v0.30957c0 137.61 75.2305 196.23 198.62 196.23c44 0 88.6904 -9 109.54 -15l8.37988 -128.69
c-13 5.91992 -40.2305 13.46 -66.6904 13.46c-39.3799 0 -60.8398 -15.3896 -60.8398 -66.0098v-0.30957h178.39v0.30957c0 138.31 78.6201 197.619 206.771 197.619c47.3896 0 95.4697 -9.69043 118.319 -16.3809l8.37988 -128.69
c-15.7695 6.62012 -49.8496 14.8506 -82.6992 14.8506c-40.9199 0 -61.7695 -15.3799 -61.7695 -67.3799z" />
    <glyph glyph-name="f_i" unicode="fi" horiz-adv-x="700" 
d="M283.69 517.23l-0.000976562 -0.30957h367.39v-516.92h-189v384.54h-178.39v-384.54h-189v384.54h-76.54v132.39h76.54v0.30957c0 137.61 75.2305 196.23 198.62 196.23c44 0 88.6904 -9 109.54 -15l8.37988 -128.69c-13.3799 5.91992 -42.6895 13.46 -71.459 13.46
c-36.6201 0 -56.0801 -15.3896 -56.0801 -66.0098zM462.079 699.69h189v-119.38h-189v119.38z" />
    <glyph glyph-name="f_j" unicode="fj" horiz-adv-x="700" 
d="M283.69 517.23v-0.310547h367.39v-484.15c0 -163.38 -78.3096 -234.149 -205.54 -234.149c-46.9199 0 -87.6104 18 -92.2305 20.1504l-25.9199 147.15c4.61035 -2.76953 35.6104 -16.1494 66.3799 -16.1494c44.46 0 68.3096 20.3799 68.3096 83v351.77h-178.39v-384.54
h-189v384.54h-76.54v132.39h76.54v0.30957c0 137.61 75.2305 196.23 198.62 196.23c44 0 88.6904 -9 109.54 -15l8.37988 -128.69c-13.3799 5.91992 -42.6895 13.46 -71.459 13.46c-36.6201 0 -56.0801 -15.3896 -56.0801 -66.0098zM462.08 699.689h189v-119.38h-189v119.38
z" />
    <glyph glyph-name=".notdef" horiz-adv-x="500" 
d="M410 770v-1000h-317v1000h317zM333 703h-165v-33h65v-37h-66v-33h166v33h-66v37h66v33zM267 574h-100v-104h166v34h-66v70zM233 540v-36h-33v36h33zM333 443h-166v-33h66v-37h-66v-33h100v70h66v33zM333 383h-33v-66h-133v-34h166v100zM333 261h-100v-56h34v23h33v-47
h-100v80h-33v-113h166v113zM333 88h-166v-113h166v113zM300 55v-47h-100v47h100zM333 -48h-166v-33h70l-70 -47v-33h166v33h-102l70 47h32v33z" />
    <glyph glyph-name="A" unicode="A" horiz-adv-x="696" 
d="M489.38 0l-36.6504 124.84h-213.72l-36.4697 -124.84h-208.23l252 700h201.92l253 -700h-211.85zM281.789 271.31h127.95l-64.1299 218.46z" />
    <glyph glyph-name="Aacute" unicode="&#xc1;" horiz-adv-x="696" 
d="M526.38 909.77l-175.459 -149.77l-119.08 26.9199l94.7695 122.85h199.77zM489.381 0l-36.6504 124.84h-213.72l-36.4697 -124.84h-208.23l252 700h201.92l253 -700h-211.85zM281.79 271.31h127.95l-64.1299 218.46z" />
    <glyph glyph-name="Abreve" unicode="&#x102;" horiz-adv-x="696" 
d="M348.61 755c-120.3 0 -170.609 61.7695 -179.77 141l131.47 22.7695c1.2998 -46.8496 15.5303 -75.0801 48.2998 -75.0801c31.0801 0 45.3105 28.2305 46.6201 75.0801l131.46 -22.7695c-9.15039 -79.2305 -59.46 -141 -178.08 -141zM489.38 0l-36.6504 124.84h-213.72
l-36.4697 -124.84h-208.23l252 700h201.92l253 -700h-211.85zM281.789 271.31h127.95l-64.1299 218.46z" />
    <glyph glyph-name="Acircumflex" unicode="&#xc2;" horiz-adv-x="696" 
d="M345.61 827.23l-103.15 -67.2305l-96.1504 26.9199l117.23 122.85h166.92l117.23 -122.85l-96.1504 -26.9199zM489.38 0l-36.6504 124.84h-213.72l-36.4697 -124.84h-208.23l252 700h201.92l253 -700h-211.85zM281.789 271.31h127.95l-64.1299 218.46z" />
    <glyph glyph-name="Adieresis" unicode="&#xc4;" horiz-adv-x="696" 
d="M314.61 889.69v-119.69h-146.46v119.69h146.46zM525.07 889.69v-119.69h-146.46v119.69h146.46zM489.38 0l-36.6504 124.84h-213.72l-36.4697 -124.84h-208.23l252 700h201.92l253 -700h-211.85zM281.789 271.31h127.95l-64.1299 218.46z" />
    <glyph glyph-name="Agrave" unicode="&#xc0;" horiz-adv-x="696" 
d="M449.31 784.15l-119.079 -26.9199l-175.46 149.77h199.77zM489.381 0l-36.6504 124.84h-213.72l-36.4697 -124.84h-208.23l252 700h201.92l253 -700h-211.85zM281.79 271.31h127.95l-64.1299 218.46z" />
    <glyph glyph-name="Amacron" unicode="&#x100;" horiz-adv-x="696" 
d="M513.92 877.84v-94.9199h-330.15v94.9199h330.15zM489.38 -0l-36.6504 124.84h-213.72l-36.4697 -124.84h-208.23l252 700h201.92l253 -700h-211.85zM281.789 271.31h127.95l-64.1299 218.46z" />
    <glyph glyph-name="Aogonek" unicode="&#x104;" horiz-adv-x="696" 
d="M631.77 -80.3896c0 -22.2305 15.999 -29.8398 34.6895 -29.8398c23.0801 0 34.7705 6.2998 34.7705 6.2998v-84.0703s-30.6201 -12 -81.3896 -12c-77.9199 0 -116.229 33 -116.229 84c0 43 31.7695 87 90 116h-104.23l-36.6504 124.84h-213.72l-36.4697 -124.84h-208.23
l252 700h201.92l253 -700c-52.6904 -33.46 -69.46 -56.8496 -69.46 -80.3896zM281.788 271.312h127.95l-64.1299 218.46z" />
    <glyph glyph-name="Aring" unicode="&#xc5;" horiz-adv-x="696" 
d="M348.31 755c-75.2402 0 -132.08 45.3799 -132.08 119.84c0 74.7695 56.8398 120.159 132.08 120.159c74.9199 0 131.76 -45.3896 131.76 -120.159c0 -74.46 -56.8398 -119.84 -131.76 -119.84zM348.31 919.92c-29.2402 0 -46.1602 -17.2305 -46.1602 -45.0801
c0 -27.5303 16.9199 -44.7705 46.1602 -44.7705c28.9199 0 45.8398 17.2402 45.8398 44.7705c0 27.8496 -16.9199 45.0801 -45.8398 45.0801zM489.38 -0l-36.6504 124.84h-213.72l-36.4697 -124.84h-208.23l252 700h201.92l253 -700h-211.85zM281.789 271.31h127.95
l-64.1299 218.46z" />
    <glyph glyph-name="Aringacute" unicode="&#x1fa;" horiz-adv-x="696" 
d="M547.23 1089.38l-174.46 -137l-119.39 26.9297l94.0801 110.07h199.77zM347.69 717.07c-76.1504 0 -133.62 42 -133.62 112c0 69 57.4697 111 133.62 111s133.62 -42 133.62 -111c0 -70 -57.4697 -112 -133.62 -112zM347.69 871.38
c-30.1504 0 -47.6904 -16.54 -47.6904 -42.3096c0 -26.46 17.54 -43 47.6904 -43s47.6904 16.54 47.6904 43c0 25.7695 -17.54 42.3096 -47.6904 42.3096zM489.381 -0l-36.6504 124.84h-213.72l-36.4697 -124.84h-208.23l252 700h201.92l253 -700h-211.85zM281.79 271.31
h127.95l-64.1299 218.46z" />
    <glyph glyph-name="Atilde" unicode="&#xc3;" horiz-adv-x="696" 
d="M294.54 802.23c-18.7002 0 -28.6992 -9 -61.3896 -49.6904l-77.1504 57.3799c59.1504 78.6201 90.9199 97 133.689 97c49.8496 0 83.6191 -48.6904 113.689 -48.6904c17.6904 0 27.6904 10 60.3906 48.6904l77.1504 -57.0801
c-58.8496 -78.9199 -90.9199 -97.2998 -132.689 -97.2998c-50.1602 0 -83.6201 49.6904 -113.69 49.6904zM489.381 0l-36.6504 124.84h-213.72l-36.4697 -124.84h-208.23l252 700h201.92l253 -700h-211.85zM281.79 271.31h127.95l-64.1299 218.46z" />
    <glyph glyph-name="AE" unicode="&#xc6;" horiz-adv-x="1006" 
d="M658.15 161.54l317.931 0.000976562l-26.6201 -161.54h-493.77v141.92h-195.6l-72.9404 -141.92h-203.69l373.31 700h596.46l9.76953 -161.54h-304.85v-104.69h264.77v-161.54h-264.77v-110.69zM341.071 299.461h114.63v223.03z" />
    <glyph glyph-name="AEacute" unicode="&#x1fc;" horiz-adv-x="1006" 
d="M794.15 909.77l-175.459 -149.77l-119.08 26.9199l94.7695 122.85h199.77zM658.151 161.54l317.931 0.000976562l-26.6201 -161.54h-493.77v141.92h-195.6l-72.9404 -141.92h-203.69l373.31 700h596.46l9.76953 -161.54h-304.85v-104.69h264.77v-161.54h-264.77v-110.69z
M341.072 299.461h114.63v223.03z" />
    <glyph glyph-name="B" unicode="B" horiz-adv-x="668" 
d="M61.6201 0v700.001h315.46c161.38 0 239.46 -61.6104 239.46 -188.23c0 -66.3096 -23.3096 -117.31 -71.46 -148c64.6104 -28.6201 89.46 -87.0801 90.46 -164.08c1 -130.23 -79 -199.69 -247.46 -199.69h-326.46zM261.311 424.231l93.6201 0.000976562
c42.7695 0 66.0791 19.46 66.0791 64.8496c0 45 -23.3096 63.7695 -66.0791 63.7695h-93.6201v-128.62zM261.311 147.152l98.3799 0.000976562c48.46 0 74.0801 19.7695 74.0801 67.7695c0 46.3896 -25.6201 66.8496 -74.0801 66.8496h-98.3799v-134.62z" />
    <glyph glyph-name="C" unicode="C" horiz-adv-x="569" 
d="M348.46 -16.3896c-212.08 0 -315.619 122.621 -315.619 366.391s103.54 366.38 315.62 366.38c72.46 0 140.92 -20.6904 171.92 -35.6904l10.46 -175.92c-27.1504 16.2998 -84.8408 37.6094 -146.771 37.6094c-101.69 0 -144 -52.1504 -144 -192.381
c0 -139.54 42.3096 -191 144 -191c66.9297 0 131 21.54 161.47 37.7705l-27.3096 -180.54c-31 -14.3096 -97.6904 -32.6191 -169.771 -32.6191z" />
    <glyph glyph-name="Cacute" unicode="&#x106;" horiz-adv-x="569" 
d="M326.92 760l-119.079 26.9199l94.7695 122.85h199.77zM348.461 -16.3896c-212.08 0 -315.619 122.621 -315.619 366.391s103.54 366.38 315.62 366.38c72.46 0 140.92 -20.6904 171.92 -35.6904l10.46 -175.92c-27.1504 16.2998 -84.8408 37.6094 -146.771 37.6094
c-101.69 0 -144 -52.1504 -144 -192.381c0 -139.54 42.3096 -191 144 -191c66.9297 0 131 21.54 161.47 37.7705l-27.3096 -180.54c-31 -14.3096 -97.6904 -32.6191 -169.771 -32.6191z" />
    <glyph glyph-name="Ccaron" unicode="&#x10c;" horiz-adv-x="569" 
d="M221.46 909.77l103.15 -67.2305l105.93 67.2305l96.1504 -26.9297l-117.23 -122.84h-166.92l-117.23 122.84zM348.46 -16.3906c-212.08 0 -315.619 122.621 -315.619 366.391s103.54 366.38 315.62 366.38c72.46 0 140.92 -20.6904 171.92 -35.6904l10.46 -175.92
c-27.1504 16.2998 -84.8408 37.6094 -146.771 37.6094c-101.69 0 -144 -52.1504 -144 -192.381c0 -139.54 42.3096 -191 144 -191c66.9297 0 131 21.54 161.47 37.7705l-27.3096 -180.54c-31 -14.3096 -97.6904 -32.6191 -169.771 -32.6191z" />
    <glyph glyph-name="Ccedilla" unicode="&#xc7;" horiz-adv-x="569" 
d="M518.23 16.2305c-29.6104 -13.6699 -91.7598 -30.9785 -160.069 -32.5088l-8.07031 -19.25c65.6699 -1.25 92.2197 -28.1904 92.2197 -72.7002c0 -54.9697 -44.7402 -94.79 -134.38 -94.79c-46.54 0 -79.3301 10.1504 -79.3301 10.1504v74.4902
c13.3496 -6.32031 31.3896 -12.2607 53.0898 -12.2607c24.5996 0 42.1699 7.74023 42.1699 25.2305c0 15.46 -12.8799 23.5 -39.5898 23.5h-31.4697l26.8896 70.3701c-165.72 24.9102 -246.85 145.76 -246.85 361.54c0 243.77 103.54 366.38 315.62 366.38
c72.46 0 140.92 -20.6904 171.92 -35.6904l10.46 -175.92c-27.1504 16.2998 -84.8408 37.6094 -146.771 37.6094c-101.69 0 -144 -52.1504 -144 -192.381c0 -139.54 42.3096 -191 144 -191c66.9297 0 131 21.54 161.47 37.7705z" />
    <glyph glyph-name="Ccircumflex" unicode="&#x108;" horiz-adv-x="569" 
d="M218.46 760l-96.1504 26.9199l117.23 122.85h166.92l117.23 -122.85l-96.1504 -26.9199l-105.93 67.2305zM348.46 -16.3896c-212.08 0 -315.619 122.621 -315.619 366.391s103.54 366.38 315.62 366.38c72.46 0 140.92 -20.6904 171.92 -35.6904l10.46 -175.92
c-27.1504 16.2998 -84.8408 37.6094 -146.771 37.6094c-101.69 0 -144 -52.1504 -144 -192.381c0 -139.54 42.3096 -191 144 -191c66.9297 0 131 21.54 161.47 37.7705l-27.3096 -180.54c-31 -14.3096 -97.6904 -32.6191 -169.771 -32.6191z" />
    <glyph glyph-name="Cdotaccent" unicode="&#x10a;" horiz-adv-x="569" 
d="M232.92 768.31v123.84h180.69v-123.84h-180.69zM348.46 -16.3906c-212.08 0 -315.619 122.621 -315.619 366.391s103.54 366.38 315.62 366.38c72.46 0 140.92 -20.6904 171.92 -35.6904l10.46 -175.92c-27.1504 16.2998 -84.8408 37.6094 -146.771 37.6094
c-101.69 0 -144 -52.1504 -144 -192.381c0 -139.54 42.3096 -191 144 -191c66.9297 0 131 21.54 161.47 37.7705l-27.3096 -180.54c-31 -14.3096 -97.6904 -32.6191 -169.771 -32.6191z" />
    <glyph glyph-name="D" unicode="D" horiz-adv-x="681" 
d="M61.6104 0v700h276.93c206.84 0 307.53 -97.6904 307.53 -350s-100.69 -350 -307.53 -350h-276.93zM264.07 167.07h74.4697c67.1504 0 100.61 37.3096 100.61 182.93c0 146.31 -33.46 182.92 -100.61 182.92h-74.4697v-365.85z" />
    <glyph glyph-name="Eth" unicode="&#xd0;" horiz-adv-x="695" 
d="M353.07 700c206.85 0 307.85 -97.6904 307.85 -350s-101 -350 -307.85 -350h-276.61v305.46h-66.8496v99.0801h66.8496v295.46h276.61zM353.07 167.07c67.1602 0 100.62 37.3096 100.62 182.93c0 146.31 -33.46 182.92 -100.62 182.92h-74.46v-128.38h103.23v-99.0801
h-103.23v-138.39h74.46z" />
    <glyph glyph-name="Dcaron" unicode="&#x10e;" horiz-adv-x="681" 
d="M217.84 909.77l103.16 -67.2305l105.92 67.2305l96.1504 -26.9297l-117.23 -122.84h-166.92l-117.23 122.84zM61.6104 -0.000976562v700h276.93c206.84 0 307.53 -97.6904 307.53 -350s-100.69 -350 -307.53 -350h-276.93zM264.07 167.069h74.4697
c67.1504 0 100.61 37.3096 100.61 182.93c0 146.31 -33.46 182.92 -100.61 182.92h-74.4697v-365.85z" />
    <glyph glyph-name="Dcroat" unicode="&#x110;" horiz-adv-x="695" 
d="M353.07 700c206.85 0 307.85 -97.6904 307.85 -350s-101 -350 -307.85 -350h-276.61v305.46h-66.8496v99.0801h66.8496v295.46h276.61zM353.07 167.07c67.1602 0 100.62 37.3096 100.62 182.93c0 146.31 -33.46 182.92 -100.62 182.92h-74.46v-128.38h103.23v-99.0801
h-103.23v-138.39h74.46z" />
    <glyph glyph-name="E" unicode="E" horiz-adv-x="612" 
d="M61.6201 0l0.00976562 700.001h497.54l9.76953 -161.54h-304.85v-104.69h264.77v-161.54h-264.77v-110.69h317.92l-26.6201 -161.54h-493.77z" />
    <glyph glyph-name="Eacute" unicode="&#xc9;" horiz-adv-x="612" 
d="M312.77 760l-119.079 26.9199l94.7695 122.85h199.77zM61.6104 -0l0.00976562 700.001h497.54l9.76953 -161.54h-304.85v-104.69h264.77v-161.54h-264.77v-110.69h317.92l-26.6201 -161.54h-493.77z" />
    <glyph glyph-name="Ebreve" unicode="&#x114;" horiz-adv-x="612" 
d="M310.46 755c-120.31 0 -170.619 61.7695 -179.77 141l131.46 22.7695c1.30957 -46.8496 15.54 -75.0801 48.3096 -75.0801c31.0801 0 45.3105 28.2305 46.6201 75.0801l131.46 -22.7695c-9.15039 -79.2305 -59.46 -141 -178.08 -141zM61.6104 0l0.00976562 700.001
h497.54l9.76953 -161.54h-304.85v-104.69h264.77v-161.54h-264.77v-110.69h317.92l-26.6201 -161.54h-493.77z" />
    <glyph glyph-name="Ecaron" unicode="&#x11a;" horiz-adv-x="612" 
d="M207.31 909.77l103.16 -67.2305l105.92 67.2305l96.1504 -26.9199l-117.23 -122.85h-166.92l-117.23 122.85zM61.6201 -0.000976562l0.00976562 700.001h497.54l9.76953 -161.54h-304.85v-104.69h264.77v-161.54h-264.77v-110.69h317.92l-26.6201 -161.54h-493.77z" />
    <glyph glyph-name="Ecircumflex" unicode="&#xca;" horiz-adv-x="612" 
d="M204.31 760l-96.1602 26.9199l117.23 122.85h166.92l117.23 -122.85l-96.1504 -26.9199l-105.92 67.2305zM61.6094 -0l0.00976562 700.001h497.54l9.76953 -161.54h-304.85v-104.69h264.77v-161.54h-264.77v-110.69h317.92l-26.6201 -161.54h-493.77z" />
    <glyph glyph-name="Edieresis" unicode="&#xcb;" horiz-adv-x="612" 
d="M130 770v119.69h146.46v-119.69h-146.46zM340.46 770v119.69h146.46v-119.69h-146.46zM61.6104 0l0.00976562 700.001h497.54l9.76953 -161.54h-304.85v-104.69h264.77v-161.54h-264.77v-110.69h317.92l-26.6201 -161.54h-493.77z" />
    <glyph glyph-name="Edotaccent" unicode="&#x116;" horiz-adv-x="612" 
d="M218.77 768.31v123.85h180.69v-123.85h-180.69zM61.6191 0.00878906l0.00976562 700.001h497.54l9.76953 -161.54h-304.85v-104.69h264.77v-161.54h-264.77v-110.69h317.92l-26.6201 -161.54h-493.77z" />
    <glyph glyph-name="Egrave" unicode="&#xc8;" horiz-adv-x="612" 
d="M292.08 757.23l-175.459 149.77h199.77l94.7695 -122.85zM61.6211 0l0.00976562 700.001h497.54l9.76953 -161.54h-304.85v-104.69h264.77v-161.54h-264.77v-110.69h317.92l-26.6201 -161.54h-493.77z" />
    <glyph glyph-name="Emacron" unicode="&#x112;" horiz-adv-x="612" 
d="M145.62 782.92v94.9199h330.15v-94.9199h-330.15zM61.6201 -0.00976562l0.00976562 700.001h497.54l9.76953 -161.54h-304.85v-104.69h264.77v-161.54h-264.77v-110.69h317.92l-26.6201 -161.54h-493.77z" />
    <glyph glyph-name="Eogonek" unicode="&#x118;" horiz-adv-x="612" 
d="M555.38 0c-53 -33.46 -69.7715 -56.8477 -69.7715 -80.3877c0 -22.2305 16 -29.8408 35 -29.8408c23.0801 0 34.7705 6.2998 34.7705 6.2998v-84.0703s-30.9199 -12 -81.6895 -12c-77.9199 0 -116.229 33 -116.229 84c0 43 32.0801 87 90.3105 116h-386.16v700h497.54
l9.76953 -161.54h-304.85v-104.69h264.77v-161.54h-264.77v-110.69h317.93z" />
    <glyph glyph-name="F" unicode="F" horiz-adv-x="597" 
d="M61.6104 0l-0.000976562 700h498.16l9.07031 -161.54h-303.38v-111.08h263.38v-161.54h-263.38v-265.84h-203.85z" />
    <glyph glyph-name="G" unicode="G" horiz-adv-x="630" 
d="M360 -16.3896c-220.31 0 -327.459 122.619 -327.459 366.389s107.15 366.38 327.46 366.38c83.8398 0 160.77 -20.3799 195.229 -36.0703l10.46 -174.16c-30.8496 17 -99.9199 39 -173.15 39c-107.77 0 -152.77 -52.8398 -152.77 -195.149
c0 -143 40.1504 -195.85 132 -195.85c10.54 0 20.6904 0.620117 31.54 2.16016v226.84h182.07v-359.84c-33.2305 -11.7695 -127.15 -39.6992 -225.381 -39.6992z" />
    <glyph glyph-name="Gbreve" unicode="&#x11e;" horiz-adv-x="630" 
d="M333.07 755c-120.3 0 -170.609 61.7695 -179.76 141l131.46 22.7695c1.2998 -46.8496 15.54 -75.0801 48.2998 -75.0801c31.0801 0 45.3105 28.2305 46.6201 75.0801l131.46 -22.7695c-9.15039 -79.2305 -59.46 -141 -178.08 -141zM360 -16.3896
c-220.31 0 -327.459 122.619 -327.459 366.389s107.15 366.38 327.46 366.38c83.8398 0 160.77 -20.3799 195.229 -36.0703l10.46 -174.16c-30.8496 17 -99.9199 39 -173.15 39c-107.77 0 -152.77 -52.8398 -152.77 -195.149c0 -143 40.1504 -195.85 132 -195.85
c10.54 0 20.6904 0.620117 31.54 2.16016v226.84h182.07v-359.84c-33.2305 -11.7695 -127.15 -39.6992 -225.381 -39.6992z" />
    <glyph glyph-name="Gcircumflex" unicode="&#x11c;" horiz-adv-x="630" 
d="M226.92 760l-96.1504 26.9199l117.23 122.85h166.92l117.23 -122.85l-96.1504 -26.9199l-105.93 67.2305zM360 -16.3896c-220.31 0 -327.459 122.619 -327.459 366.389s107.15 366.38 327.46 366.38c83.8398 0 160.77 -20.3799 195.229 -36.0703l10.46 -174.16
c-30.8496 17 -99.9199 39 -173.15 39c-107.77 0 -152.77 -52.8398 -152.77 -195.149c0 -143 40.1504 -195.85 132 -195.85c10.54 0 20.6904 0.620117 31.54 2.16016v226.84h182.07v-359.84c-33.2305 -11.7695 -127.15 -39.6992 -225.381 -39.6992z" />
    <glyph glyph-name="uni0122" unicode="&#x122;" horiz-adv-x="630" 
d="M360 -16.3896c-220.31 0 -327.459 122.619 -327.459 366.389s107.15 366.38 327.46 366.38c83.8398 0 160.77 -20.3799 195.229 -36.0703l10.46 -174.16c-30.8496 17 -99.9199 39 -173.15 39c-107.77 0 -152.77 -52.8398 -152.77 -195.149
c0 -143 40.1504 -195.85 132 -195.85c10.54 0 20.6904 0.620117 31.54 2.16016v226.84h182.07v-359.84c-33.2305 -11.7695 -127.15 -39.6992 -225.381 -39.6992zM246.001 -245.931l20.7695 192.85h179.46l-113.39 -192.85h-86.8398z" />
    <glyph glyph-name="Gdotaccent" unicode="&#x120;" horiz-adv-x="630" 
d="M241.38 768.31v123.84h180.69v-123.84h-180.69zM360 -16.3906c-220.31 0 -327.459 122.619 -327.459 366.389s107.15 366.38 327.46 366.38c83.8398 0 160.77 -20.3799 195.229 -36.0703l10.46 -174.16c-30.8496 17 -99.9199 39 -173.15 39
c-107.77 0 -152.77 -52.8398 -152.77 -195.149c0 -143 40.1504 -195.85 132 -195.85c10.54 0 20.6904 0.620117 31.54 2.16016v226.84h182.07v-359.84c-33.2305 -11.7695 -127.15 -39.6992 -225.381 -39.6992z" />
    <glyph glyph-name="H" unicode="H" horiz-adv-x="700" 
d="M436.46 700h202.15v-700h-202.15v269.15h-172.39v-269.15h-202.46v700h202.46v-263.16h172.39v263.16z" />
    <glyph glyph-name="Hbar" unicode="&#x126;" horiz-adv-x="742" 
d="M731 618.54v-93.2305h-71.8496v-525.31h-202.15v269.15h-172.39v-269.15h-202.15v525.31h-71.8496v93.2305h71.8496v81.46h202.15v-81.46h172.39v81.46h202.15v-81.46h71.8496zM457 436.84v88.4697h-172.39v-88.4697h172.39z" />
    <glyph glyph-name="Hcircumflex" unicode="&#x124;" horiz-adv-x="700" 
d="M246.07 759.31l-96.1504 26.9199l117.23 122.84h166.92l117.24 -122.84l-96.1602 -26.9199l-105.92 67.2305zM436.46 699.999h202.15v-700h-202.15v269.15h-172.39v-269.15h-202.46v700h202.46v-263.16h172.39v263.16z" />
    <glyph glyph-name="I" unicode="I" horiz-adv-x="327" 
d="M61.6104 0v700h203.85v-700h-203.85z" />
    <glyph glyph-name="IJ" unicode="&#x132;" horiz-adv-x="852" 
d="M61.6104 0v700h203.85v-700h-203.85zM521.311 -15c-67.1602 0 -127.312 13.999 -153.701 24.3086l-28.2998 182.69c27.6104 -13.3896 84.7607 -31.7695 142.53 -31.7695c76.1602 0 113.23 36 113.23 130.54v409.23h202.47v-409.23
c0 -200.85 -90.8496 -305.77 -276.229 -305.77z" />
    <glyph glyph-name="Iacute" unicode="&#xcd;" horiz-adv-x="327" 
d="M165.46 760l-119.079 26.9199l94.7695 122.85h199.77zM61.6113 -0v700h203.85v-700h-203.85z" />
    <glyph glyph-name="Ibreve" unicode="&#x12c;" horiz-adv-x="327" 
d="M163.15 755c-119.38 0 -167.079 61.7695 -173.379 141l128 22.7695c1.2998 -46.8496 12.9199 -75.0801 45.3799 -75.0801c30.7695 0 42.3896 28.2305 43.6895 75.0801l128 -22.7695c-6.2998 -79.2305 -54 -141 -171.69 -141zM61.6113 0v700h203.85v-700h-203.85z" />
    <glyph glyph-name="Icircumflex" unicode="&#xce;" horiz-adv-x="327" 
d="M72.3096 760l-93.2393 26.9199l105.62 122.85h154.92l105.62 -122.85l-93.2305 -26.9199l-91.2305 67.8398zM61.6104 -0v700h203.85v-700h-203.85z" />
    <glyph glyph-name="Idieresis" unicode="&#xcf;" horiz-adv-x="327" 
d="M-6.69043 770v119.69h140.07v-119.69h-140.07zM190.609 770v119.69h140.39v-119.69h-140.39zM61.6094 0v700h203.85v-700h-203.85z" />
    <glyph glyph-name="Idotaccent" unicode="&#x130;" horiz-adv-x="327" 
d="M71.46 768.31v123.84h180.69v-123.84h-180.69zM61.6104 -0.000976562v700h203.85v-700h-203.85z" />
    <glyph glyph-name="Igrave" unicode="&#xcc;" horiz-adv-x="327" 
d="M144.77 757.23l-175.459 149.77h199.76l94.7695 -122.85zM61.6104 0v700h203.85v-700h-203.85z" />
    <glyph glyph-name="Imacron" unicode="&#x12a;" horiz-adv-x="327" 
d="M8.61035 782.92v94.9199h309.54v-94.9199h-309.54zM61.6104 -0v700h203.85v-700h-203.85z" />
    <glyph glyph-name="Iogonek" unicode="&#x12e;" horiz-adv-x="327" 
d="M230.69 -110.23c23.0801 0 34.7686 6.30078 34.7686 6.30078v-84.0703s-30.9199 -12 -81.6895 -12c-77.9297 0 -115.93 33 -115.93 84c0 43 31.4697 87 89.7002 116h-95.9297v700h203.54v-700c-52.6904 -33.46 -69.46 -56.8496 -69.46 -80.3896
c0 -22.2305 16 -29.8408 35 -29.8408z" />
    <glyph glyph-name="Itilde" unicode="&#x128;" horiz-adv-x="327" 
d="M56.6104 752.54l-74.7715 57.3799c51.3896 78.6201 83.54 97 123.7 97c48.9199 0 78 -48.6904 108.77 -48.6904c16.6904 0 26.6904 10 52.7607 48.6904l74.7695 -57.0801c-51.0703 -78.9199 -82.9199 -97.2998 -122.689 -97.2998c-48.2305 0 -78 49.6904 -108.77 49.6904
c-17.3799 0 -27.3799 -9 -53.7695 -49.6904zM61.6084 -0v700h203.85v-700h-203.85z" />
    <glyph glyph-name="J" unicode="J" horiz-adv-x="525" 
d="M194.23 -15c-67.1602 0 -127.312 13.999 -153.691 24.3086l-28.3096 182.69c27.6104 -13.3896 84.7705 -31.7695 142.54 -31.7695c76.1504 0 113.23 36 113.23 130.54v409.23h202.46v-409.23c0 -200.85 -90.8496 -305.77 -276.229 -305.77z" />
    <glyph glyph-name="Jcircumflex" unicode="&#x134;" horiz-adv-x="525" 
d="M280.15 760l-93.2295 26.9199l105.62 122.85h154.92l105.61 -122.85l-93.2305 -26.9199l-91.2305 67.8398zM194.23 -15c-67.1602 0 -127.312 13.999 -153.691 24.3086l-28.3096 182.69c27.6104 -13.3896 84.7705 -31.7695 142.54 -31.7695
c76.1504 0 113.23 36 113.23 130.54v409.23h202.46v-409.23c0 -200.85 -90.8496 -305.77 -276.229 -305.77z" />
    <glyph glyph-name="K" unicode="K" horiz-adv-x="675" 
d="M452.31 0l-141.77 274.92h-46.4697v-274.92h-202.46v700h202.46v-268.93h45.7695l132.54 268.93h218.77l-186.77 -335.46l204.85 -364.54h-226.92z" />
    <glyph glyph-name="uni0136" unicode="&#x136;" horiz-adv-x="675" 
d="M452.31 0l-141.77 274.92h-46.4697v-274.92h-202.46v700h202.46v-268.93h45.7695l132.54 268.93h218.77l-186.77 -335.46l204.85 -364.54h-226.92zM243.84 -242.85l20.7695 192.85h179.46l-113.38 -192.85h-86.8496z" />
    <glyph glyph-name="L" unicode="L" horiz-adv-x="576" 
d="M61.6104 0l0.000976562 700h202.46v-525.39h299.31l-28.6904 -174.61h-473.08z" />
    <glyph glyph-name="Lacute" unicode="&#x139;" horiz-adv-x="576" 
d="M166.07 760l-119.069 26.9199l94.7695 122.85h199.77zM61.6113 -0l0.000976562 700h202.46v-525.39h299.31l-28.6904 -174.61h-473.08z" />
    <glyph glyph-name="Lcaron" unicode="&#x13d;" horiz-adv-x="581" 
d="M61.6104 0l0.000976562 700h202.46v-525.39h299.31l-28.6904 -174.61h-473.08zM335.461 507.15l20.7695 192.85h179.46l-113.38 -192.85h-86.8496z" />
    <glyph glyph-name="uni013B" unicode="&#x13b;" horiz-adv-x="576" 
d="M61.6104 0l0.000976562 700h202.46v-525.39h299.31l-28.6904 -174.61h-473.08zM197.312 -242.85l20.7598 192.85h179.47l-113.39 -192.85h-86.8398z" />
    <glyph glyph-name="Ldot" unicode="&#x13f;" horiz-adv-x="582" 
d="M61.6104 0l0.000976562 700h202.46v-525.39h299.31l-28.6904 -174.61h-473.08zM343.691 310.77v180.38h186.46v-180.38h-186.46z" />
    <glyph glyph-name="Lslash" unicode="&#x141;" horiz-adv-x="606" 
d="M294.31 174.61l299.301 0.000976562l-28.6904 -174.61h-473.08v264.49l-74.3799 -41.6504v132.31l74.3799 42.3799v302.47h202.47v-203.99l151.38 86.5303v-132.31l-151.38 -87.4004v-188.22z" />
    <glyph glyph-name="M" unicode="M" horiz-adv-x="851" 
d="M616.92 700l172.54 -0.000976562v-700h-191.31v393.61l-174.15 -246.84l-176.16 247.54v-394.31h-186.23v700h168.7l194 -275.77z" />
    <glyph glyph-name="N" unicode="N" horiz-adv-x="716" 
d="M474.15 700h180.69v-700h-174.15l-238.08 387.07v-387.07h-181v700h174.46l238.08 -386.77v386.77z" />
    <glyph glyph-name="Nacute" unicode="&#x143;" horiz-adv-x="716" 
d="M360.69 760l-119.079 26.9199l94.7695 122.85h199.77zM474.151 700h180.69v-700h-174.15l-238.08 387.07v-387.07h-181v700h174.46l238.08 -386.77v386.77z" />
    <glyph glyph-name="Ncaron" unicode="&#x147;" horiz-adv-x="716" 
d="M255.23 909.77l103.15 -67.2305l105.93 67.2305l96.1504 -26.9297l-117.23 -122.84h-166.92l-117.24 122.84zM474.15 699.999h180.69v-700h-174.15l-238.08 387.07v-387.07h-181v700h174.46l238.08 -386.77v386.77z" />
    <glyph glyph-name="uni0145" unicode="&#x145;" horiz-adv-x="716" 
d="M474.15 700h180.69v-700h-174.15l-238.08 387.07v-387.07h-181v700h174.46l238.08 -386.77v386.77zM258.381 -242.85l20.7695 192.85h179.46l-113.38 -192.85h-86.8496z" />
    <glyph glyph-name="Eng" unicode="&#x14a;" horiz-adv-x="716" 
d="M474.15 700l180.69 -0.000976562v-700c0 -139.69 -66.1504 -200 -174.771 -200c-34.5303 0 -67.6104 11.2305 -78.6904 16.7705l-22.1504 131.92c6.23047 -2.76953 28.2305 -12.0791 49.4609 -12.0791c33.9199 0 52 15.3096 52 63.3896l-238.08 387.07v-387.07h-181v700
h174.46l238.08 -386.77v386.77z" />
    <glyph glyph-name="Ntilde" unicode="&#xd1;" horiz-adv-x="716" 
d="M242.92 752.54l-77.1494 57.3799c59.1504 78.6201 90.9199 97 133.689 97c49.8496 0 83.6094 -48.6904 113.689 -48.6904c17.6904 0 27.6904 10 60.3906 48.6904l77.1504 -57.0801c-58.8496 -78.9199 -90.9199 -97.2998 -132.689 -97.2998
c-50.1602 0 -83.6201 49.6904 -113.69 49.6904c-18.7002 0 -28.7002 -9 -61.3906 -49.6904zM474.15 700h180.69v-700h-174.15l-238.08 387.07v-387.07h-181v700h174.46l238.08 -386.77v386.77z" />
    <glyph glyph-name="O" unicode="O" horiz-adv-x="680" 
d="M340.31 -16.3896c-205.16 0 -305.771 102.7 -305.771 366.391s100.61 366.381 305.771 366.381c205.15 0 305.46 -102.69 305.46 -366.381s-100.31 -366.391 -305.46 -366.391zM340.31 154.841c65.46 0 98.5303 39.9297 98.5303 195.16
c0 156.23 -33.0703 195.15 -98.5303 195.15c-65.4697 0 -98.54 -38.9199 -98.54 -195.15c0 -155.23 33.0703 -195.16 98.54 -195.16z" />
    <glyph glyph-name="Oacute" unicode="&#xd3;" horiz-adv-x="680" 
d="M343.61 760l-119.069 26.9199l94.7695 122.85h199.76zM340.311 -16.3896c-205.16 0 -305.771 102.7 -305.771 366.391s100.61 366.381 305.771 366.381c205.15 0 305.46 -102.69 305.46 -366.381s-100.31 -366.391 -305.46 -366.391zM340.311 154.841
c65.46 0 98.5303 39.9297 98.5303 195.16c0 156.23 -33.0703 195.15 -98.5303 195.15c-65.4697 0 -98.54 -38.9199 -98.54 -195.15c0 -155.23 33.0703 -195.16 98.54 -195.16z" />
    <glyph glyph-name="Obreve" unicode="&#x14e;" horiz-adv-x="680" 
d="M341.3 755c-120.3 0 -170.609 61.7695 -179.76 141l131.46 22.7695c1.2998 -46.8496 15.54 -75.0801 48.2998 -75.0801c31.0801 0 45.3105 28.2305 46.6201 75.0801l131.46 -22.7695c-9.15039 -79.2305 -59.46 -141 -178.08 -141zM340.31 -16.3896
c-205.16 0 -305.771 102.7 -305.771 366.391s100.61 366.381 305.771 366.381c205.15 0 305.46 -102.69 305.46 -366.381s-100.31 -366.391 -305.46 -366.391zM340.31 154.841c65.46 0 98.5303 39.9297 98.5303 195.16c0 156.23 -33.0703 195.15 -98.5303 195.15
c-65.4697 0 -98.54 -38.9199 -98.54 -195.15c0 -155.23 33.0703 -195.16 98.54 -195.16z" />
    <glyph glyph-name="Ocircumflex" unicode="&#xd4;" horiz-adv-x="680" 
d="M235.15 760l-96.1504 26.9199l117.23 122.85h166.92l117.23 -122.85l-96.1504 -26.9199l-105.92 67.2305zM340.31 -16.3896c-205.16 0 -305.771 102.7 -305.771 366.391s100.61 366.381 305.771 366.381c205.15 0 305.46 -102.69 305.46 -366.381
s-100.31 -366.391 -305.46 -366.391zM340.31 154.841c65.46 0 98.5303 39.9297 98.5303 195.16c0 156.23 -33.0703 195.15 -98.5303 195.15c-65.4697 0 -98.54 -38.9199 -98.54 -195.15c0 -155.23 33.0703 -195.16 98.54 -195.16z" />
    <glyph glyph-name="Odieresis" unicode="&#xd6;" horiz-adv-x="680" 
d="M160.84 770v119.69h146.47v-119.69h-146.47zM371.31 770v119.69h146.46v-119.69h-146.46zM340.31 -16.3896c-205.16 0 -305.771 102.7 -305.771 366.391s100.61 366.381 305.771 366.381c205.15 0 305.46 -102.69 305.46 -366.381s-100.31 -366.391 -305.46 -366.391z
M340.31 154.841c65.46 0 98.5303 39.9297 98.5303 195.16c0 156.23 -33.0703 195.15 -98.5303 195.15c-65.4697 0 -98.54 -38.9199 -98.54 -195.15c0 -155.23 33.0703 -195.16 98.54 -195.16z" />
    <glyph glyph-name="Ograve" unicode="&#xd2;" horiz-adv-x="680" 
d="M322.92 757.23l-175.459 149.77h199.77l94.7695 -122.85zM340.311 -16.3896c-205.16 0 -305.771 102.7 -305.771 366.391s100.61 366.381 305.771 366.381c205.15 0 305.46 -102.69 305.46 -366.381s-100.31 -366.391 -305.46 -366.391zM340.311 154.841
c65.46 0 98.5303 39.9297 98.5303 195.16c0 156.23 -33.0703 195.15 -98.5303 195.15c-65.4697 0 -98.54 -38.9199 -98.54 -195.15c0 -155.23 33.0703 -195.16 98.54 -195.16z" />
    <glyph glyph-name="Ohungarumlaut" unicode="&#x150;" horiz-adv-x="680" 
d="M255.77 760l-90.3096 24.1494l86.2305 125.62h161.31zM443.46 759.999l-90.3096 24.1494l85.9199 125.62h161.62zM340.311 -16.3916c-205.16 0 -305.771 102.7 -305.771 366.391s100.61 366.381 305.771 366.381c205.15 0 305.46 -102.69 305.46 -366.381
s-100.31 -366.391 -305.46 -366.391zM340.311 154.839c65.46 0 98.5303 39.9297 98.5303 195.16c0 156.23 -33.0703 195.15 -98.5303 195.15c-65.4697 0 -98.54 -38.9199 -98.54 -195.15c0 -155.23 33.0703 -195.16 98.54 -195.16z" />
    <glyph glyph-name="Omacron" unicode="&#x14c;" horiz-adv-x="680" 
d="M176.46 782.92v94.9199h330.15v-94.9199h-330.15zM340.31 -16.3906c-205.16 0 -305.771 102.7 -305.771 366.391s100.61 366.381 305.771 366.381c205.15 0 305.46 -102.69 305.46 -366.381s-100.31 -366.391 -305.46 -366.391zM340.31 154.84
c65.46 0 98.5303 39.9297 98.5303 195.16c0 156.23 -33.0703 195.15 -98.5303 195.15c-65.4697 0 -98.54 -38.9199 -98.54 -195.15c0 -155.23 33.0703 -195.16 98.54 -195.16z" />
    <glyph glyph-name="Oslash" unicode="&#xd8;" horiz-adv-x="686" 
d="M658.77 711.07l-71.4795 -98.3594c40.7402 -58.75 60.9404 -144.57 60.9404 -262.71c0 -263.69 -100.62 -366.391 -305.771 -366.391c-71.8496 0 -130.869 12.6396 -177.229 40.4199l-26 -35.1104h-112.46l71.6201 97.6699
c-41.04 58.7695 -61.3896 144.8 -61.3896 263.41c0 263.69 100.61 366.381 305.46 366.381c72.0195 0 131.149 -12.6504 177.579 -40.4902l26.2695 35.1797h112.46zM342.46 545.151c-65.46 0 -98.5391 -38.9199 -98.5391 -195.15
c0 -32.7305 1.46973 -60.3301 4.39941 -83.5098l156.28 255.86c-15.6797 16.79 -36.4102 22.7998 -62.1406 22.7998zM342.461 154.842c65.46 0 98.54 39.9287 98.54 195.159c0 32.54 -1.44043 60 -4.30078 83.0703l-155.8 -255.76
c15.6104 -16.4502 36.1406 -22.4697 61.5605 -22.4697z" />
    <glyph glyph-name="Oslashacute" unicode="&#x1fe;" horiz-adv-x="686" 
d="M530.69 909.77l-175.459 -149.77l-119.08 26.9199l94.7695 122.85h199.77zM658.771 711.07l-71.4795 -98.3594c40.7402 -58.75 60.9404 -144.57 60.9404 -262.71c0 -263.69 -100.62 -366.391 -305.771 -366.391c-71.8496 0 -130.869 12.6396 -177.229 40.4199
l-26 -35.1104h-112.46l71.6201 97.6699c-41.04 58.7695 -61.3896 144.8 -61.3896 263.41c0 263.69 100.61 366.381 305.46 366.381c72.0195 0 131.149 -12.6504 177.579 -40.4902l26.2695 35.1797h112.46zM342.462 545.151c-65.46 0 -98.5391 -38.9199 -98.5391 -195.15
c0 -32.7305 1.46973 -60.3301 4.39941 -83.5098l156.28 255.86c-15.6797 16.79 -36.4102 22.7998 -62.1406 22.7998zM342.463 154.842c65.46 0 98.54 39.9287 98.54 195.159c0 32.54 -1.44043 60 -4.30078 83.0703l-155.8 -255.76
c15.6104 -16.4502 36.1406 -22.4697 61.5605 -22.4697z" />
    <glyph glyph-name="Otilde" unicode="&#xd5;" horiz-adv-x="680" 
d="M225.84 752.54l-77.1494 57.3799c59.1504 78.6201 90.9199 97 133.689 97c49.8496 0 83.6191 -48.6904 113.689 -48.6904c17.7002 0 27.7002 10 60.3906 48.6904l77.1504 -57.0801c-58.8398 -78.9199 -90.9199 -97.2998 -132.689 -97.2998
c-50.1504 0 -83.6104 49.6904 -113.69 49.6904c-18.6904 0 -28.6904 -9 -61.3906 -49.6904zM340.311 -16.3896c-205.16 0 -305.771 102.7 -305.771 366.391s100.61 366.381 305.771 366.381c205.15 0 305.46 -102.69 305.46 -366.381s-100.31 -366.391 -305.46 -366.391z
M340.311 154.841c65.46 0 98.5303 39.9297 98.5303 195.16c0 156.23 -33.0703 195.15 -98.5303 195.15c-65.4697 0 -98.54 -38.9199 -98.54 -195.15c0 -155.23 33.0703 -195.16 98.54 -195.16z" />
    <glyph glyph-name="OE" unicode="&#x152;" horiz-adv-x="960" 
d="M635.46 161.54l294.38 0.000976562l-26.9199 -161.54h-469.61v31.1904c-33.9697 -31.5303 -82.5996 -46.1904 -143.54 -46.1904c-170.54 0 -253.85 102 -253.85 365s83.3096 365 253.85 365c60.7002 0 109.351 -14.5596 143.541 -45.8496v30.8496h473.38l9.76953 -161.54
h-281v-104.69h240.92v-161.54h-240.92v-110.69zM338.229 156.231c63.3799 0 95.0801 39.9199 95.0801 193.77c0 154.84 -31.7002 193.77 -95.0801 193.77c-63.3896 0 -95.0801 -38.9297 -95.0801 -193.77c0 -153.85 31.6904 -193.77 95.0801 -193.77z" />
    <glyph glyph-name="P" unicode="P" horiz-adv-x="654" 
d="M61.6104 0l0.000976562 699.999h308.77c177.85 0 262.619 -88.8496 262.619 -239.159c0 -150 -84.7695 -238.84 -262.619 -238.84h-109.07v-222h-199.7zM261.312 382.309h95.9199c51.3096 0 75.7695 29.6104 75.7695 78.5303c0 48.9297 -24.46 78.8496 -75.7695 78.8496
h-95.9199v-157.38z" />
    <glyph glyph-name="Thorn" unicode="&#xde;" horiz-adv-x="652" 
d="M363.46 592.46c177.85 0 262.609 -88.8506 262.609 -239.15c0 -150.31 -84.7598 -239.159 -262.609 -239.159h-104.92v-114.15h-196.93v700h196.93v-107.54h104.92zM354.46 274.769c51.3096 0 75.7695 29.6104 75.7695 78.54c0 48.9199 -24.46 78.5303 -75.7695 78.5303
h-95.9199v-157.07h95.9199z" />
    <glyph glyph-name="Q" unicode="Q" horiz-adv-x="680" 
d="M562.07 -163.39l-194.46 147.999c-9 -1 -18.2998 -1 -27.2998 -1c-205.16 0 -305.771 102.7 -305.771 366.391s100.61 366.381 305.771 366.381c205.15 0 305.46 -102.69 305.46 -366.381c0 -156.23 -35.2305 -256.16 -106.7 -310.93l122.77 -53.2998zM340.311 154.84
c65.46 0 98.5303 39.9297 98.5303 195.16c0 156.23 -33.0703 195.15 -98.5303 195.15c-65.4697 0 -98.54 -38.9199 -98.54 -195.15c0 -155.23 33.0703 -195.16 98.54 -195.16z" />
    <glyph glyph-name="R" unicode="R" horiz-adv-x="678" 
d="M659.69 0l-217.078 0.000976562l-107.15 238h-74.1504v-238h-199.7v700h309.62c177.38 0 261.77 -85 261.77 -233.16c0 -94.3799 -35.6904 -161.38 -108.69 -197.61zM261.312 539.691v-147.539h95.3799c51.54 0 76.3096 24.7695 76.3096 73.6191
c0 49.1504 -24.7695 73.9199 -76.3096 73.9199h-95.3799z" />
    <glyph glyph-name="Racute" unicode="&#x154;" horiz-adv-x="678" 
d="M317.61 760l-119.069 26.9199l94.7695 122.85h199.76zM659.691 -0l-217.078 0.000976562l-107.15 238h-74.1504v-238h-199.7v700h309.62c177.38 0 261.77 -85 261.77 -233.16c0 -94.3799 -35.6904 -161.38 -108.69 -197.61zM261.313 539.691v-147.539h95.3799
c51.54 0 76.3096 24.7695 76.3096 73.6191c0 49.1504 -24.7695 73.9199 -76.3096 73.9199h-95.3799z" />
    <glyph glyph-name="Rcaron" unicode="&#x158;" horiz-adv-x="678" 
d="M212.15 909.77l103.16 -67.2305l105.92 67.2305l96.1504 -26.9297l-117.23 -122.84h-166.92l-117.23 122.84zM659.69 -0.000976562l-217.078 0.000976562l-107.15 238h-74.1504v-238h-199.7v700h309.62c177.38 0 261.77 -85 261.77 -233.16
c0 -94.3799 -35.6904 -161.38 -108.69 -197.61zM261.312 539.69v-147.539h95.3799c51.54 0 76.3096 24.7695 76.3096 73.6191c0 49.1504 -24.7695 73.9199 -76.3096 73.9199h-95.3799z" />
    <glyph glyph-name="uni0156" unicode="&#x156;" horiz-adv-x="678" 
d="M659.69 0l-217.078 0.000976562l-107.15 238h-74.1504v-238h-199.7v700h309.62c177.38 0 261.77 -85 261.77 -233.16c0 -94.3799 -35.6904 -161.38 -108.69 -197.61zM261.312 539.691v-147.539h95.3799c51.54 0 76.3096 24.7695 76.3096 73.6191
c0 49.1504 -24.7695 73.9199 -76.3096 73.9199h-95.3799zM241.772 -242.848l20.7695 192.85h179.46l-113.39 -192.85h-86.8398z" />
    <glyph glyph-name="S" unicode="S" horiz-adv-x="613" 
d="M304 -16.3896c-100.08 0 -198.688 20.6982 -244.848 36.3887l-25.9199 173.61c55.8398 -18.2998 164.46 -43.6094 256.84 -43.6094c67.3096 0 89.7695 21.54 89.7695 55.7705c0 29.2998 -17.2305 44 -70.4609 56.46l-102.23 24.0801
c-120.38 27.7598 -173.46 89.1494 -173.46 210.459c0 138 86.54 219.61 275.31 219.61c103.15 0 191.92 -19.3799 230.31 -33.7695l9.45996 -171.07c-45.3896 17.0703 -137.159 39.8398 -221.85 39.8398c-65.0801 0 -84.2305 -20.2305 -84.2305 -50.6104
c0 -32.3896 18.6904 -46.6992 72.6201 -59.1592l99.6104 -23.0703c117.85 -26.7002 173.54 -84.54 173.54 -209.08c0 -142.92 -86.46 -225.85 -284.46 -225.85z" />
    <glyph glyph-name="Sacute" unicode="&#x15a;" horiz-adv-x="613" 
d="M313 760l-119.079 26.9199l94.7695 122.85h199.77zM304.001 -16.3896c-100.08 0 -198.688 20.6982 -244.848 36.3887l-25.9199 173.61c55.8398 -18.2998 164.46 -43.6094 256.84 -43.6094c67.3096 0 89.7695 21.54 89.7695 55.7705c0 29.2998 -17.2305 44 -70.4609 56.46
l-102.23 24.0801c-120.38 27.7598 -173.46 89.1494 -173.46 210.459c0 138 86.54 219.61 275.31 219.61c103.15 0 191.92 -19.3799 230.31 -33.7695l9.45996 -171.07c-45.3896 17.0703 -137.159 39.8398 -221.85 39.8398c-65.0801 0 -84.2305 -20.2305 -84.2305 -50.6104
c0 -32.3896 18.6904 -46.6992 72.6201 -59.1592l99.6104 -23.0703c117.85 -26.7002 173.54 -84.54 173.54 -209.08c0 -142.92 -86.46 -225.85 -284.46 -225.85z" />
    <glyph glyph-name="Scaron" unicode="&#x160;" horiz-adv-x="613" 
d="M207.54 909.77l103.15 -67.2305l105.92 67.2305l96.1602 -26.9297l-117.23 -122.84h-166.93l-117.23 122.84zM304 -16.3906c-100.08 0 -198.688 20.6982 -244.848 36.3887l-25.9199 173.61c55.8398 -18.2998 164.46 -43.6094 256.84 -43.6094
c67.3096 0 89.7695 21.54 89.7695 55.7705c0 29.2998 -17.2305 44 -70.4609 56.46l-102.23 24.0801c-120.38 27.7598 -173.46 89.1494 -173.46 210.459c0 138 86.54 219.61 275.31 219.61c103.15 0 191.92 -19.3799 230.31 -33.7695l9.45996 -171.07
c-45.3896 17.0703 -137.159 39.8398 -221.85 39.8398c-65.0801 0 -84.2305 -20.2305 -84.2305 -50.6104c0 -32.3896 18.6904 -46.6992 72.6201 -59.1592l99.6104 -23.0703c117.85 -26.7002 173.54 -84.54 173.54 -209.08c0 -142.92 -86.46 -225.85 -284.46 -225.85z" />
    <glyph glyph-name="Scedilla" unicode="&#x15e;" horiz-adv-x="613" 
d="M588.46 209.46c0 -134.32 -76.3594 -215.642 -249.899 -224.951l-8.17969 -19.5098c64.6904 -1.23047 90.8506 -27.7705 90.8506 -71.6201c0 -54.1504 -44.0801 -93.3809 -132.39 -93.3809c-45.8398 0 -78.1494 10 -78.1494 10v73.3799
c13.1504 -6.23047 30.9199 -12.0703 52.3096 -12.0703c24.2305 0 41.54 7.61035 41.54 24.8408c0 15.2305 -12.7002 23.1602 -39 23.1602h-31l25.0498 65.5898c-83.8496 4.75977 -161.149 21.7402 -200.439 35.1006l-25.9199 173.61
c55.8398 -18.2998 164.46 -43.6094 256.84 -43.6094c67.3096 0 89.7695 21.54 89.7695 55.7705c0 29.2998 -17.2305 44 -70.4609 56.46l-102.23 24.0801c-120.38 27.7598 -173.46 89.1494 -173.46 210.459c0 138 86.54 219.61 275.31 219.61
c103.15 0 191.92 -19.3799 230.31 -33.7695l9.45996 -171.07c-45.3896 17.0703 -137.159 39.8398 -221.85 39.8398c-65.0801 0 -84.2305 -20.2305 -84.2305 -50.6104c0 -32.3896 18.6904 -46.6992 72.6201 -59.1592l99.6104 -23.0703
c117.85 -26.7002 173.54 -84.54 173.54 -209.08z" />
    <glyph glyph-name="Scircumflex" unicode="&#x15c;" horiz-adv-x="613" 
d="M204.54 760l-96.1602 26.9199l117.23 122.85h166.93l117.23 -122.85l-96.1602 -26.9199l-105.92 67.2305zM304 -16.3896c-100.08 0 -198.688 20.6982 -244.848 36.3887l-25.9199 173.61c55.8398 -18.2998 164.46 -43.6094 256.84 -43.6094
c67.3096 0 89.7695 21.54 89.7695 55.7705c0 29.2998 -17.2305 44 -70.4609 56.46l-102.23 24.0801c-120.38 27.7598 -173.46 89.1494 -173.46 210.459c0 138 86.54 219.61 275.31 219.61c103.15 0 191.92 -19.3799 230.31 -33.7695l9.45996 -171.07
c-45.3896 17.0703 -137.159 39.8398 -221.85 39.8398c-65.0801 0 -84.2305 -20.2305 -84.2305 -50.6104c0 -32.3896 18.6904 -46.6992 72.6201 -59.1592l99.6104 -23.0703c117.85 -26.7002 173.54 -84.54 173.54 -209.08c0 -142.92 -86.46 -225.85 -284.46 -225.85z" />
    <glyph glyph-name="uni0218" unicode="&#x218;" horiz-adv-x="613" 
d="M304 -16.3896c-100.08 0 -198.688 20.6982 -244.848 36.3887l-25.9199 173.61c55.8398 -18.2998 164.46 -43.6094 256.84 -43.6094c67.3096 0 89.7695 21.54 89.7695 55.7705c0 29.2998 -17.2305 44 -70.4609 56.46l-102.23 24.0801
c-120.38 27.7598 -173.46 89.1494 -173.46 210.459c0 138 86.54 219.61 275.31 219.61c103.15 0 191.92 -19.3799 230.31 -33.7695l9.45996 -171.07c-45.3896 17.0703 -137.159 39.8398 -221.85 39.8398c-65.0801 0 -84.2305 -20.2305 -84.2305 -50.6104
c0 -32.3896 18.6904 -46.6992 72.6201 -59.1592l99.6104 -23.0703c117.85 -26.7002 173.54 -84.54 173.54 -209.08c0 -142.92 -86.46 -225.85 -284.46 -225.85zM200.233 -242.852l20.7695 192.85h179.46l-113.39 -192.85h-86.8398z" />
    <glyph glyph-name="uni1E9E" unicode="&#x1e9e;" horiz-adv-x="667" 
d="M528.7 413.33c69.7197 -25.6299 103.942 -85.7305 103.452 -194.561c0.69043 -164 -84.46 -228.77 -226.77 -228.77c-34 0 -64.2305 6.61035 -87.2305 14.6104v129.31c11.3896 -4.23047 31.46 -9.38086 54.54 -9.38086c37.46 0 57.7695 15.2305 57.7695 96.3809
c0 74.46 -21.2305 94 -68.9209 94h-25.0801v62.6201l88.3604 184.9c-19.9102 7.99023 -45.6104 12.79 -76.8203 12.79c-61.6904 0 -90.3105 -29.1602 -90.3105 -88.46v-486.77h-201.08v482.31c0 157.23 95.0801 234.07 283.62 234.07
c146.38 0 236.46 -55.6104 281.92 -104.771z" />
    <glyph glyph-name="T" unicode="T" horiz-adv-x="597" 
d="M578.92 700l0.000976562 -174.62h-179.23v-525.38h-202.46v525.38h-179.23v174.62h560.92z" />
    <glyph glyph-name="Tbar" unicode="&#x166;" horiz-adv-x="604" 
d="M582.54 525.38h-179.229v-146.46h94.9199v-110.15h-94.9199v-268.77h-202.47v268.77h-94.9199v110.15h94.9199v146.46h-179.23v174.62h560.93v-174.62z" />
    <glyph glyph-name="Tcaron" unicode="&#x164;" horiz-adv-x="597" 
d="M196.31 909.77l103.15 -67.2305l105.92 67.2305l96.1602 -26.9297l-117.23 -122.84h-166.93l-117.23 122.84zM578.92 699.999l0.000976562 -174.62h-179.23v-525.38h-202.46v525.38h-179.23v174.62h560.92z" />
    <glyph glyph-name="U" unicode="U" horiz-adv-x="684" 
d="M342.31 -16.3896c-193.7 0 -287.391 88.54 -287.391 281.62v434.77h203.54v-434.77c0 -72.3896 28.1504 -103.46 83.8506 -103.46c53.6904 0 82.8408 31.0703 82.8408 103.46v434.77h203.85v-434.77c0 -193.08 -94 -281.62 -286.69 -281.62z" />
    <glyph glyph-name="Uacute" unicode="&#xda;" horiz-adv-x="684" 
d="M345.61 760l-119.069 26.9199l94.7695 122.85h199.76zM342.311 -16.3896c-193.7 0 -287.391 88.54 -287.391 281.62v434.77h203.54v-434.77c0 -72.3896 28.1504 -103.46 83.8506 -103.46c53.6904 0 82.8408 31.0703 82.8408 103.46v434.77h203.85v-434.77
c0 -193.08 -94 -281.62 -286.69 -281.62z" />
    <glyph glyph-name="Ucircumflex" unicode="&#xdb;" horiz-adv-x="684" 
d="M237.15 760l-96.1504 26.9199l117.23 122.85h166.92l117.23 -122.85l-96.1504 -26.9199l-105.92 67.2305zM342.31 -16.3896c-193.7 0 -287.391 88.54 -287.391 281.62v434.77h203.54v-434.77c0 -72.3896 28.1504 -103.46 83.8506 -103.46
c53.6904 0 82.8408 31.0703 82.8408 103.46v434.77h203.85v-434.77c0 -193.08 -94 -281.62 -286.69 -281.62z" />
    <glyph glyph-name="Udieresis" unicode="&#xdc;" horiz-adv-x="684" 
d="M162.84 770v119.69h146.47v-119.69h-146.47zM373.31 770v119.69h146.46v-119.69h-146.46zM342.31 -16.3896c-193.7 0 -287.391 88.54 -287.391 281.62v434.77h203.54v-434.77c0 -72.3896 28.1504 -103.46 83.8506 -103.46c53.6904 0 82.8408 31.0703 82.8408 103.46
v434.77h203.85v-434.77c0 -193.08 -94 -281.62 -286.69 -281.62z" />
    <glyph glyph-name="Ugrave" unicode="&#xd9;" horiz-adv-x="684" 
d="M324.92 757.23l-175.459 149.77h199.77l94.7695 -122.85zM342.311 -16.3896c-193.7 0 -287.391 88.54 -287.391 281.62v434.77h203.54v-434.77c0 -72.3896 28.1504 -103.46 83.8506 -103.46c53.6904 0 82.8408 31.0703 82.8408 103.46v434.77h203.85v-434.77
c0 -193.08 -94 -281.62 -286.69 -281.62z" />
    <glyph glyph-name="Uhungarumlaut" unicode="&#x170;" horiz-adv-x="684" 
d="M257.77 760l-90.3096 24.1494l86.2305 125.62h161.31zM445.46 759.999l-90.3096 24.1494l85.9199 125.62h161.62zM342.311 -16.3916c-193.7 0 -287.391 88.54 -287.391 281.62v434.77h203.54v-434.77c0 -72.3896 28.1504 -103.46 83.8506 -103.46
c53.6904 0 82.8408 31.0703 82.8408 103.46v434.77h203.85v-434.77c0 -193.08 -94 -281.62 -286.69 -281.62z" />
    <glyph glyph-name="Umacron" unicode="&#x16a;" horiz-adv-x="684" 
d="M178.46 782.92v94.9199h330.15v-94.9199h-330.15zM342.31 -16.3906c-193.7 0 -287.391 88.54 -287.391 281.62v434.77h203.54v-434.77c0 -72.3896 28.1504 -103.46 83.8506 -103.46c53.6904 0 82.8408 31.0703 82.8408 103.46v434.77h203.85v-434.77
c0 -193.08 -94 -281.62 -286.69 -281.62z" />
    <glyph glyph-name="Uogonek" unicode="&#x172;" horiz-adv-x="684" 
d="M425.15 700l203.848 0.00195312v-434.77c0 -146.96 -54.46 -233.36 -165.45 -266.25c-51.7402 -32.9199 -68.1699 -56.0703 -68.1699 -79.3701c0 -22.2305 16 -29.8408 35 -29.8408c23.0801 0 34.7705 6.2998 34.7705 6.2998v-84.0703s-30.9199 -12 -81.6895 -12
c-77.9199 0 -116.229 33 -116.229 84c0 35.5801 21.9697 71.8496 62.5498 99.7393c-185.21 3.78027 -274.86 92.6201 -274.86 281.49v434.77h203.54v-434.77c0 -72.3896 28.1504 -103.46 83.8506 -103.46c53.6904 0 82.8408 31.0703 82.8408 103.46v434.77z" />
    <glyph glyph-name="Uring" unicode="&#x16e;" horiz-adv-x="684" 
d="M343 755c-75.2305 0 -132.08 45.3799 -132.08 119.84c0 74.7695 56.8496 120.159 132.08 120.159c74.9199 0 131.77 -45.3896 131.77 -120.159c0 -74.46 -56.8496 -119.84 -131.77 -119.84zM343 830.07c28.9199 0 45.8398 17.2402 45.8398 44.7705
c0 27.8496 -16.9199 45.0801 -45.8398 45.0801c-29.2305 0 -46.1602 -17.2305 -46.1602 -45.0801c0 -27.5303 16.9297 -44.7705 46.1602 -44.7705zM342.31 -16.3896c-193.7 0 -287.391 88.54 -287.391 281.62v434.77h203.54v-434.77
c0 -72.3896 28.1504 -103.46 83.8506 -103.46c53.6904 0 82.8408 31.0703 82.8408 103.46v434.77h203.85v-434.77c0 -193.08 -94 -281.62 -286.69 -281.62z" />
    <glyph glyph-name="Utilde" unicode="&#x168;" horiz-adv-x="684" 
d="M227.84 752.54l-77.1494 57.3799c59.1504 78.6201 90.9199 97 133.689 97c49.8496 0 83.6191 -48.6904 113.689 -48.6904c17.7002 0 27.7002 10 60.3906 48.6904l77.1504 -57.0801c-58.8398 -78.9199 -90.9199 -97.2998 -132.689 -97.2998
c-50.1504 0 -83.6104 49.6904 -113.69 49.6904c-18.6904 0 -28.6904 -9 -61.3906 -49.6904zM342.311 -16.3896c-193.7 0 -287.391 88.54 -287.391 281.62v434.77h203.54v-434.77c0 -72.3896 28.1504 -103.46 83.8506 -103.46c53.6904 0 82.8408 31.0703 82.8408 103.46
v434.77h203.85v-434.77c0 -193.08 -94 -281.62 -286.69 -281.62z" />
    <glyph glyph-name="V" unicode="V" horiz-adv-x="662" 
d="M450.54 700h212.609l-232.61 -700h-197.93l-233.61 700h216.23l117.69 -431.85z" />
    <glyph glyph-name="W" unicode="W" horiz-adv-x="922" 
d="M709.54 700h199.148l-132.31 -700h-200.92l-113.77 317.92l-114.46 -317.92h-200.92l-133.31 700h204.23l61.9199 -431.54l160.31 431.54h49.8496l159 -429.77z" />
    <glyph glyph-name="Wacute" unicode="&#x1e82;" horiz-adv-x="922" 
d="M467.38 760l-119.069 26.9199l94.7598 122.85h199.77zM709.541 700h199.148l-132.31 -700h-200.92l-113.77 317.92l-114.46 -317.92h-200.92l-133.31 700h204.23l61.9199 -431.54l160.31 431.54h49.8496l159 -429.77z" />
    <glyph glyph-name="Wcircumflex" unicode="&#x174;" horiz-adv-x="922" 
d="M358.92 760l-96.1504 26.9199l117.23 122.85h166.92l117.23 -122.85l-96.1504 -26.9199l-105.93 67.2305zM709.539 700h199.148l-132.31 -700h-200.92l-113.77 317.92l-114.46 -317.92h-200.92l-133.31 700h204.23l61.9199 -431.54l160.31 431.54h49.8496l159 -429.77z
" />
    <glyph glyph-name="Wdieresis" unicode="&#x1e84;" horiz-adv-x="922" 
d="M284.61 770v119.69h146.46v-119.69h-146.46zM495.07 770v119.69h146.47v-119.69h-146.47zM709.54 700h199.148l-132.31 -700h-200.92l-113.77 317.92l-114.46 -317.92h-200.92l-133.31 700h204.23l61.9199 -431.54l160.31 431.54h49.8496l159 -429.77z" />
    <glyph glyph-name="Wgrave" unicode="&#x1e80;" horiz-adv-x="922" 
d="M446.69 757.23l-175.459 149.77h199.77l94.7695 -122.85zM709.541 700h199.148l-132.31 -700h-200.92l-113.77 317.92l-114.46 -317.92h-200.92l-133.31 700h204.23l61.9199 -431.54l160.31 431.54h49.8496l159 -429.77z" />
    <glyph glyph-name="X" unicode="X" horiz-adv-x="662" 
d="M665.92 0h-232.001l-105 221.61l-104.77 -221.61h-228.08l211.24 363.54l-198 336.46h231.69l92.3096 -190.62l90.8398 190.62h227.08l-194.54 -334.93z" />
    <glyph glyph-name="Y" unicode="Y" horiz-adv-x="643" 
d="M642.92 700l-219.54 -450.85v-249.15h-203.84v249.84l-220.85 450.16h221.31l103.46 -260.31l102.85 260.31h216.61z" />
    <glyph glyph-name="Yacute" unicode="&#xdd;" horiz-adv-x="643" 
d="M327.23 760l-119.079 26.9199l94.7695 122.85h199.77zM642.921 700l-219.54 -450.85v-249.15h-203.84v249.84l-220.85 450.16h221.31l103.46 -260.31l102.85 260.31h216.61z" />
    <glyph glyph-name="Ycircumflex" unicode="&#x176;" horiz-adv-x="643" 
d="M218.77 760l-96.1602 26.9199l117.23 122.85h166.93l117.23 -122.85l-96.1602 -26.9199l-105.92 67.2305zM642.919 700l-219.54 -450.85v-249.15h-203.84v249.84l-220.85 450.16h221.31l103.46 -260.31l102.85 260.31h216.61z" />
    <glyph glyph-name="Ydieresis" unicode="&#x178;" horiz-adv-x="643" 
d="M144.46 770v119.69h146.46v-119.69h-146.46zM354.92 770v119.69h146.46v-119.69h-146.46zM642.92 700l-219.54 -450.85v-249.15h-203.84v249.84l-220.85 450.16h221.31l103.46 -260.31l102.85 260.31h216.61z" />
    <glyph glyph-name="Ygrave" unicode="&#x1ef2;" horiz-adv-x="643" 
d="M306.54 757.23l-175.469 149.77h199.77l94.7695 -122.85zM642.921 700l-219.54 -450.85v-249.15h-203.84v249.84l-220.85 450.16h221.31l103.46 -260.31l102.85 260.31h216.61z" />
    <glyph glyph-name="Z" unicode="Z" horiz-adv-x="596" 
d="M275.38 170.46h293.689l-26.9199 -170.46h-509.69v148.07l278.08 381.47h-264.39v170.46h506.69v-148.08z" />
    <glyph glyph-name="Zacute" unicode="&#x179;" horiz-adv-x="596" 
d="M302.31 760l-119.079 26.9199l94.7695 122.85h199.77zM275.381 170.46h293.689l-26.9199 -170.46h-509.69v148.07l278.08 381.47h-264.39v170.46h506.69v-148.08z" />
    <glyph glyph-name="Zcaron" unicode="&#x17d;" horiz-adv-x="596" 
d="M196.84 909.77l103.16 -67.2305l105.92 67.2305l96.1504 -26.9297l-117.23 -122.84h-166.92l-117.23 122.84zM275.38 170.459h293.689l-26.9199 -170.46h-509.69v148.07l278.08 381.47h-264.39v170.46h506.69v-148.08z" />
    <glyph glyph-name="Zdotaccent" unicode="&#x17b;" horiz-adv-x="596" 
d="M208.31 768.31v123.84h180.69v-123.84h-180.69zM275.38 170.459h293.689l-26.9199 -170.46h-509.69v148.07l278.08 381.47h-264.39v170.46h506.69v-148.08z" />
    <glyph glyph-name="uni0162" unicode="&#x162;" horiz-adv-x="597" 
d="M399.69 0h-73.4102l-14.6699 -35c64.3896 -1.23047 90.54 -27.7705 90.54 -71.6201c0 -54.1504 -44.0801 -93.3809 -132.38 -93.3809c-49.2305 0 -84 10.6104 -84 10.6104v73.3896c13.1504 -6.23047 33.3809 -12.6904 58.1504 -12.6904
c24.2305 0 41.54 7.91992 41.54 25.1504c0 15.2305 -12.3896 22.8506 -39 22.8506h-31l30.8203 80.6904h-49.0498v525.38h-179.23v174.62h560.92v-174.62h-179.23v-525.38z" />
    <glyph glyph-name="uni021A" unicode="&#x21a;" horiz-adv-x="597" 
d="M578.92 700l0.000976562 -174.62h-179.23v-525.38h-202.46v525.38h-179.23v174.62h560.92zM190.771 -242.851l20.7695 192.85h179.46l-113.39 -192.85h-86.8398z" />
    <glyph glyph-name="a" unicode="a" horiz-adv-x="544" 
d="M182.62 -11.3896c-106.15 0 -161.002 62.3701 -161.002 164.83c0 101.31 63.6904 160.77 187.381 160.77h107.46v9.08008c0 43.0801 -24.3096 59.46 -93.6191 59.46c-60.3799 0 -125.92 -13.0801 -158.46 -23.46l25.54 149c31 7.69043 98.6904 17.6904 171.15 17.6904
c168.08 0 239.54 -74.46 239.54 -204.07v-321.92h-164.15l-20 51.6201c-15.7695 -31.9199 -60.1494 -63 -133.84 -63zM249.309 118.741c44.1504 0 67.1592 15.7686 67.1592 63.459v34.6201h-67.1504c-36.7695 0 -54.6191 -16.46 -54.6191 -49.2295
c0 -33.7695 19.2305 -48.8496 54.6104 -48.8496z" />
    <glyph glyph-name="aacute" unicode="&#xe1;" horiz-adv-x="544" 
d="M281.31 576.92l-119.079 26.9199l94.7695 122.85h199.77zM182.61 -11.3906c-106.15 0 -161.002 62.3701 -161.002 164.83c0 101.31 63.6904 160.77 187.381 160.77h107.46v9.08008c0 43.0801 -24.3096 59.46 -93.6191 59.46c-60.3799 0 -125.92 -13.0801 -158.46 -23.46
l25.54 149c31 7.69043 98.6904 17.6904 171.15 17.6904c168.08 0 239.54 -74.46 239.54 -204.07v-321.92h-164.15l-20 51.6201c-15.7695 -31.9199 -60.1494 -63 -133.84 -63zM249.299 118.74c44.1504 0 67.1592 15.7686 67.1592 63.459v34.6201h-67.1504
c-36.7695 0 -54.6191 -16.46 -54.6191 -49.2295c0 -33.7695 19.2305 -48.8496 54.6104 -48.8496z" />
    <glyph glyph-name="abreve" unicode="&#x103;" horiz-adv-x="544" 
d="M278.69 571.92c-120.31 0 -170.619 61.7695 -179.77 141l131.46 22.7695c1.30957 -46.8496 15.54 -75.0801 48.3096 -75.0801c31.0801 0 45.3105 28.2305 46.6201 75.0801l131.46 -22.7695c-9.15039 -79.2305 -59.46 -141 -178.08 -141zM182.61 -11.3896
c-106.15 0 -161.002 62.3701 -161.002 164.83c0 101.31 63.6904 160.77 187.381 160.77h107.46v9.08008c0 43.0801 -24.3096 59.46 -93.6191 59.46c-60.3799 0 -125.92 -13.0801 -158.46 -23.46l25.54 149c31 7.69043 98.6904 17.6904 171.15 17.6904
c168.08 0 239.54 -74.46 239.54 -204.07v-321.92h-164.15l-20 51.6201c-15.7695 -31.9199 -60.1494 -63 -133.84 -63zM249.299 118.741c44.1504 0 67.1592 15.7686 67.1592 63.459v34.6201h-67.1504c-36.7695 0 -54.6191 -16.46 -54.6191 -49.2295
c0 -33.7695 19.2305 -48.8496 54.6104 -48.8496z" />
    <glyph glyph-name="acircumflex" unicode="&#xe2;" horiz-adv-x="544" 
d="M172.85 576.92l-96.1602 26.9199l117.23 122.85h166.92l117.23 -122.85l-96.1504 -26.9199l-105.92 67.2305zM182.609 -11.3906c-106.15 0 -161.002 62.3701 -161.002 164.83c0 101.31 63.6904 160.77 187.381 160.77h107.46v9.08008
c0 43.0801 -24.3096 59.46 -93.6191 59.46c-60.3799 0 -125.92 -13.0801 -158.46 -23.46l25.54 149c31 7.69043 98.6904 17.6904 171.15 17.6904c168.08 0 239.54 -74.46 239.54 -204.07v-321.92h-164.15l-20 51.6201c-15.7695 -31.9199 -60.1494 -63 -133.84 -63z
M249.298 118.74c44.1504 0 67.1592 15.7686 67.1592 63.459v34.6201h-67.1504c-36.7695 0 -54.6191 -16.46 -54.6191 -49.2295c0 -33.7695 19.2305 -48.8496 54.6104 -48.8496z" />
    <glyph glyph-name="adieresis" unicode="&#xe4;" horiz-adv-x="544" 
d="M98.54 584.15v119.69h146.46v-119.69h-146.46zM309 584.15v119.69h146.46v-119.69h-146.46zM182.62 -11.3896c-106.15 0 -161.002 62.3701 -161.002 164.83c0 101.31 63.6904 160.77 187.381 160.77h107.46v9.08008c0 43.0801 -24.3096 59.46 -93.6191 59.46
c-60.3799 0 -125.92 -13.0801 -158.46 -23.46l25.54 149c31 7.69043 98.6904 17.6904 171.15 17.6904c168.08 0 239.54 -74.46 239.54 -204.07v-321.92h-164.15l-20 51.6201c-15.7695 -31.9199 -60.1494 -63 -133.84 -63zM249.309 118.741
c44.1504 0 67.1592 15.7686 67.1592 63.459v34.6201h-67.1504c-36.7695 0 -54.6191 -16.46 -54.6191 -49.2295c0 -33.7695 19.2305 -48.8496 54.6104 -48.8496z" />
    <glyph glyph-name="agrave" unicode="&#xe0;" horiz-adv-x="544" 
d="M260.62 576.92l-175.459 149.77h199.77l94.7695 -122.85zM182.621 -11.3906c-106.15 0 -161.002 62.3701 -161.002 164.83c0 101.31 63.6904 160.77 187.381 160.77h107.46v9.08008c0 43.0801 -24.3096 59.46 -93.6191 59.46c-60.3799 0 -125.92 -13.0801 -158.46 -23.46
l25.54 149c31 7.69043 98.6904 17.6904 171.15 17.6904c168.08 0 239.54 -74.46 239.54 -204.07v-321.92h-164.15l-20 51.6201c-15.7695 -31.9199 -60.1494 -63 -133.84 -63zM249.31 118.74c44.1504 0 67.1592 15.7686 67.1592 63.459v34.6201h-67.1504
c-36.7695 0 -54.6191 -16.46 -54.6191 -49.2295c0 -33.7695 19.2305 -48.8496 54.6104 -48.8496z" />
    <glyph glyph-name="amacron" unicode="&#x101;" horiz-adv-x="544" 
d="M112.77 599.85v94.9199h330.15v-94.9199h-330.15zM182.619 -11.3809c-106.15 0 -161.002 62.3701 -161.002 164.83c0 101.31 63.6904 160.77 187.381 160.77h107.46v9.08008c0 43.0801 -24.3096 59.46 -93.6191 59.46c-60.3799 0 -125.92 -13.0801 -158.46 -23.46
l25.54 149c31 7.69043 98.6904 17.6904 171.15 17.6904c168.08 0 239.54 -74.46 239.54 -204.07v-321.92h-164.15l-20 51.6201c-15.7695 -31.9199 -60.1494 -63 -133.84 -63zM249.308 118.75c44.1504 0 67.1592 15.7686 67.1592 63.459v34.6201h-67.1504
c-36.7695 0 -54.6191 -16.46 -54.6191 -49.2295c0 -33.7695 19.2305 -48.8496 54.6104 -48.8496z" />
    <glyph glyph-name="aogonek" unicode="&#x105;" horiz-adv-x="544" 
d="M465.84 -110.23c23.0801 0 35.0771 6.30078 35.0771 6.30078v-84.0703s-30.9199 -12 -81.6895 -12c-77.9199 0 -116.229 33 -116.229 84c0 43 31.7695 87 90.3096 116h-56.8496l-20 51.6104c-15.7695 -31.9199 -60.1494 -63 -133.85 -63
c-106.15 0 -161 62.3896 -161 164.85c0 101.31 63.7002 160.77 185.311 160.77h109.54v7.69043c0 44.46 -23.6201 60.8496 -93.6201 60.8496c-60.3799 0 -125.92 -13.0801 -158.46 -23.46l25.54 149c31 7.69043 98.6904 17.6904 171.15 17.6904
c168.08 0 239.54 -74.46 239.54 -204.08v-321.92c-52.6904 -33.46 -69.46 -56.8496 -69.46 -80.3896c0 -22.2305 16 -29.8408 34.6904 -29.8408zM249.307 118.771c44.1504 0 67.1494 15.7686 67.1494 63.459v34.6104h-67.1504c-36.7695 0 -54.6191 -16.46 -54.6191 -49.2295
c0 -33.7695 19.2305 -48.8398 54.6201 -48.8398z" />
    <glyph glyph-name="aring" unicode="&#xe5;" horiz-adv-x="544" 
d="M278.69 571.92c-75.2305 0 -132.08 45.3896 -132.08 119.85c0 74.7695 56.8496 120.149 132.08 120.149c74.9199 0 131.77 -45.3799 131.77 -120.149c0 -74.46 -56.8496 -119.85 -131.77 -119.85zM278.69 647c28.9199 0 45.8398 17.2305 45.8398 44.7705
c0 27.8496 -16.9199 45.0801 -45.8398 45.0801c-29.2305 0 -46.1504 -17.2305 -46.1504 -45.0801c0 -27.54 16.9199 -44.7705 46.1504 -44.7705zM182.61 -11.3896c-106.15 0 -161.002 62.3701 -161.002 164.83c0 101.31 63.6904 160.77 187.381 160.77h107.46v9.08008
c0 43.0801 -24.3096 59.46 -93.6191 59.46c-60.3799 0 -125.92 -13.0801 -158.46 -23.46l25.54 149c31 7.69043 98.6904 17.6904 171.15 17.6904c168.08 0 239.54 -74.46 239.54 -204.07v-321.92h-164.15l-20 51.6201c-15.7695 -31.9199 -60.1494 -63 -133.84 -63z
M249.299 118.741c44.1504 0 67.1592 15.7686 67.1592 63.459v34.6201h-67.1504c-36.7695 0 -54.6191 -16.46 -54.6191 -49.2295c0 -33.7695 19.2305 -48.8496 54.6104 -48.8496z" />
    <glyph glyph-name="aringacute" unicode="&#x1fb;" horiz-adv-x="544" 
d="M295.08 793.69l-119.07 27.2295l93.46 100.08h200.38zM273.7 545c-76.1504 0 -133.92 42 -133.92 112.69c0 70 57.7695 112 133.92 112s133.92 -42 133.92 -112c0 -70.6904 -57.7695 -112.69 -133.92 -112.69zM273.7 615.92c30.1504 0 48 15.9199 48 41.7695
c0 24.8496 -17.8496 41.0801 -48 41.0801c-30.46 0 -48 -16.2305 -48 -41.0801c0 -25.8496 17.54 -41.7695 48 -41.7695zM182.62 -11.3896c-106.15 0 -161.002 62.3701 -161.002 164.83c0 101.31 63.6904 160.77 187.381 160.77h107.46v9.08008
c0 43.0801 -24.3096 59.46 -93.6191 59.46c-60.3799 0 -125.92 -13.0801 -158.46 -23.46l25.54 149c31 7.69043 98.6904 17.6904 171.15 17.6904c168.08 0 239.54 -74.46 239.54 -204.07v-321.92h-164.15l-20 51.6201c-15.7695 -31.9199 -60.1494 -63 -133.84 -63z
M249.309 118.741c44.1504 0 67.1592 15.7686 67.1592 63.459v34.6201h-67.1504c-36.7695 0 -54.6191 -16.46 -54.6191 -49.2295c0 -33.7695 19.2305 -48.8496 54.6104 -48.8496z" />
    <glyph glyph-name="atilde" unicode="&#xe3;" horiz-adv-x="544" 
d="M163.54 569.46l-77.1494 57.3799c59.1504 78.6201 90.9199 97 133.689 97c49.8496 0 83.6191 -48.6904 113.699 -48.6904c17.6904 0 27.6904 10 60.3809 48.6904l77.1504 -57.0801c-58.8496 -78.9199 -90.9297 -97.2998 -132.699 -97.2998
c-50.1504 0 -83.6104 49.6904 -113.69 49.6904c-18.6904 0 -28.6904 -9 -61.3809 -49.6904zM182.621 -11.3906c-106.15 0 -161.002 62.3701 -161.002 164.83c0 101.31 63.6904 160.77 187.381 160.77h107.46v9.08008c0 43.0801 -24.3096 59.46 -93.6191 59.46
c-60.3799 0 -125.92 -13.0801 -158.46 -23.46l25.54 149c31 7.69043 98.6904 17.6904 171.15 17.6904c168.08 0 239.54 -74.46 239.54 -204.07v-321.92h-164.15l-20 51.6201c-15.7695 -31.9199 -60.1494 -63 -133.84 -63zM249.31 118.74
c44.1504 0 67.1592 15.7686 67.1592 63.459v34.6201h-67.1504c-36.7695 0 -54.6191 -16.46 -54.6191 -49.2295c0 -33.7695 19.2305 -48.8496 54.6104 -48.8496z" />
    <glyph glyph-name="ae" unicode="&#xe6;" horiz-adv-x="842" 
d="M233.07 -10c-154 0 -211.758 62.3799 -211.758 164.149c0 100.92 63 160.08 185.61 160.08h109.85v11.1504c0 41.6904 -25 57.3906 -90.54 57.3906c-61.0801 0 -128 -12.3896 -161.62 -21.3896l25.54 149c31.6904 6.30957 101.46 15.6191 174.31 15.6191
c74.7695 0 128.229 -18.6201 162.38 -53.2305c39.0801 34.54 92.0801 54.1504 159.39 54.1504c144.69 0 229.15 -79.46 229.15 -262.54v-52.7695h-313.07c5.75977 -53.9199 41.0693 -78.3799 123.069 -78.3799c64.46 0 135.229 14.3096 170.999 25.6094l-25.2305 -147.23
c-31.7695 -9.2998 -96.6094 -21.6094 -157.079 -21.6094c-85.8398 0 -149.229 19.1504 -192.3 56.9199c-38.7695 -34.8496 -98.46 -56.9199 -188.7 -56.9199zM501.612 315.61l154.7 0.000976562c-3.7002 59.7695 -31.3105 83.7695 -74.6201 83.7695
c-46.6904 0 -74.6904 -28.6104 -80.0801 -83.7705zM249.312 120.151c44.46 0 67.4609 15.0791 67.4609 62.0791v32.1504h-67.54c-35.6904 0 -54.8506 -16.3799 -54.8506 -47.7695c0 -32.6904 20.7695 -46.46 54.9297 -46.46z" />
    <glyph glyph-name="aeacute" unicode="&#x1fd;" horiz-adv-x="842" 
d="M427.77 576.92l-119.079 26.9199l94.7695 122.85h199.77zM233.07 -10c-154 0 -211.758 62.3799 -211.758 164.149c0 100.92 63 160.08 185.61 160.08h109.85v11.1504c0 41.6904 -25 57.3906 -90.54 57.3906c-61.0801 0 -128 -12.3896 -161.62 -21.3896l25.54 149
c31.6904 6.30957 101.46 15.6191 174.31 15.6191c74.7695 0 128.229 -18.6201 162.38 -53.2305c39.0801 34.54 92.0801 54.1504 159.39 54.1504c144.69 0 229.15 -79.46 229.15 -262.54v-52.7695h-313.07c5.75977 -53.9199 41.0693 -78.3799 123.069 -78.3799
c64.46 0 135.229 14.3096 170.999 25.6094l-25.2305 -147.23c-31.7695 -9.2998 -96.6094 -21.6094 -157.079 -21.6094c-85.8398 0 -149.229 19.1504 -192.3 56.9199c-38.7695 -34.8496 -98.46 -56.9199 -188.7 -56.9199zM501.612 315.61l154.7 0.000976562
c-3.7002 59.7695 -31.3105 83.7695 -74.6201 83.7695c-46.6904 0 -74.6904 -28.6104 -80.0801 -83.7705zM249.312 120.151c44.46 0 67.4609 15.0791 67.4609 62.0791v32.1504h-67.54c-35.6904 0 -54.8506 -16.3799 -54.8506 -47.7695
c0 -32.6904 20.7695 -46.46 54.9297 -46.46z" />
    <glyph glyph-name="b" unicode="b" horiz-adv-x="582" 
d="M371.84 528.31c123.39 0 181 -82.1582 181 -269.849s-57.6104 -269.851 -181 -269.851c-71.2998 0 -114.149 32.9297 -134.229 63l-20 -51.6104h-169v684.46l189 26.9199v-246.07c20.0801 30.0703 62.9297 63 134.229 63zM299.92 136.691
c46.3896 0 62.6201 27.46 62.6201 121.77s-16.2305 121.77 -62.6201 121.77c-46.3799 0 -62.3096 -27.46 -62.3096 -121.77s15.9297 -121.77 62.3096 -121.77z" />
    <glyph glyph-name="c" unicode="c" horiz-adv-x="470" 
d="M281.92 -11.3896c-174.61 0 -255.081 87.0791 -255.081 267.77c0 183.46 80.4697 271.93 255.39 271.93c63.6904 0 120.311 -15 145.541 -26l9.07031 -148.39c-25.6104 12 -75.8408 27.6904 -121.771 27.6904c-68.1504 0 -97.9199 -34.6904 -97.9199 -125.23
c0 -85 31.1602 -118.31 103.16 -118.31c49.1504 0 103.301 15.2402 129.841 27.1602l-25.54 -150.62c-24.54 -11 -80.0703 -26 -142.69 -26z" />
    <glyph glyph-name="cacute" unicode="&#x107;" horiz-adv-x="470" 
d="M265.46 576.92l-119.079 26.9199l94.7695 122.85h199.77zM281.921 -11.3906c-174.61 0 -255.081 87.0791 -255.081 267.77c0 183.46 80.4697 271.93 255.39 271.93c63.6904 0 120.311 -15 145.541 -26l9.07031 -148.39c-25.6104 12 -75.8408 27.6904 -121.771 27.6904
c-68.1504 0 -97.9199 -34.6904 -97.9199 -125.23c0 -85 31.1602 -118.31 103.16 -118.31c49.1504 0 103.301 15.2402 129.841 27.1602l-25.54 -150.62c-24.54 -11 -80.0703 -26 -142.69 -26z" />
    <glyph glyph-name="ccaron" unicode="&#x10d;" horiz-adv-x="470" 
d="M367 729.38l96.1504 -26.9199l-117.23 -120.08h-166.92l-117.23 120.08l96.1504 26.9199l105.62 -64.46zM281.92 -11.3896c-174.61 0 -255.081 87.0791 -255.081 267.77c0 183.46 80.4697 271.93 255.39 271.93c63.6904 0 120.311 -15 145.541 -26l9.07031 -148.39
c-25.6104 12 -75.8408 27.6904 -121.771 27.6904c-68.1504 0 -97.9199 -34.6904 -97.9199 -125.23c0 -85 31.1602 -118.31 103.16 -118.31c49.1504 0 103.301 15.2402 129.841 27.1602l-25.54 -150.62c-24.54 -11 -80.0703 -26 -142.69 -26z" />
    <glyph glyph-name="ccedilla" unicode="&#xe7;" horiz-adv-x="470" 
d="M424.61 14.6104c-21.7803 -9.75977 -67.9814 -22.6797 -121.882 -25.46l-10.1201 -24.1504c64.7002 -1.23047 90.8506 -27.7705 90.8506 -71.6201c0 -54.1504 -44.0801 -93.3809 -132.39 -93.3809c-45.8398 0 -78.1494 10 -78.1494 10v73.3799
c13.1504 -6.23047 30.9199 -12.0703 52.3096 -12.0703c24.2305 0 41.54 7.61035 41.54 24.8408c0 15.2305 -12.7002 23.1602 -39 23.1602h-31l27.8301 72.8701c-134.98 18.0303 -197.761 104.601 -197.761 264.2c0 183.46 80.4697 271.93 255.39 271.93
c63.6904 0 120.311 -15 145.541 -26l9.07031 -148.39c-25.6104 12 -75.8408 27.6904 -121.771 27.6904c-68.1504 0 -97.9199 -34.6904 -97.9199 -125.23c0 -85 31.1602 -118.31 103.16 -118.31c49.1504 0 103.301 15.2402 129.841 27.1602z" />
    <glyph glyph-name="ccircumflex" unicode="&#x109;" horiz-adv-x="470" 
d="M157 576.92l-96.1602 26.9199l117.23 122.85h166.93l117.23 -122.85l-96.1602 -26.9199l-105.92 67.2305zM281.92 -11.3906c-174.61 0 -255.081 87.0791 -255.081 267.77c0 183.46 80.4697 271.93 255.39 271.93c63.6904 0 120.311 -15 145.541 -26l9.07031 -148.39
c-25.6104 12 -75.8408 27.6904 -121.771 27.6904c-68.1504 0 -97.9199 -34.6904 -97.9199 -125.23c0 -85 31.1602 -118.31 103.16 -118.31c49.1504 0 103.301 15.2402 129.841 27.1602l-25.54 -150.62c-24.54 -11 -80.0703 -26 -142.69 -26z" />
    <glyph glyph-name="cdotaccent" unicode="&#x10b;" horiz-adv-x="470" 
d="M171.46 583.15v123.85h180.69v-123.85h-180.69zM281.92 -11.3896c-174.61 0 -255.081 87.0791 -255.081 267.77c0 183.46 80.4697 271.93 255.39 271.93c63.6904 0 120.311 -15 145.541 -26l9.07031 -148.39c-25.6104 12 -75.8408 27.6904 -121.771 27.6904
c-68.1504 0 -97.9199 -34.6904 -97.9199 -125.23c0 -85 31.1602 -118.31 103.16 -118.31c49.1504 0 103.301 15.2402 129.841 27.1602l-25.54 -150.62c-24.54 -11 -80.0703 -26 -142.69 -26z" />
    <glyph glyph-name="d" unicode="d" horiz-adv-x="583" 
d="M345.07 684.46l189 26.918v-711.38h-169.3l-19.7002 51.6104c-20.3799 -30.0703 -62.9199 -63 -134.53 -63c-123.08 0 -181 82.1602 -181 269.851s57.9199 269.851 181 269.851c71.6104 0 114.15 -32.9297 134.53 -63v219.15zM282.46 136.688
c46.3799 0 62.6104 27.46 62.6104 121.77s-16.2305 121.77 -62.6104 121.77c-46.3896 0 -62.6201 -27.46 -62.6201 -121.77s16.2305 -121.77 62.6201 -121.77z" />
    <glyph glyph-name="eth" unicode="&#xf0;" horiz-adv-x="551" 
d="M332.08 614.29c159.53 -97.3496 188.532 -206.87 188.532 -379.29c0 -170 -74.54 -245 -245.69 -245c-171.85 0 -247.08 72.9199 -247.08 238.07c0 167.85 60.3896 238.77 196.93 238.77c61.8496 0 102.88 -22.4697 127.899 -43.9199
c-20.2695 36.7305 -61.0498 69.9307 -140.6 108.061l-113.61 -67.21l-30.46 51.2305l76.6396 45.7402c-25.7803 10.5996 -54.4307 21.6592 -86.2607 33.3291l47.8496 122.31c63.8096 -22.8301 118.01 -45.3203 164 -68.1699l115.23 68.1699l31.46 -51.54zM277.692 135.999
c47.7695 0 65.0801 26.6104 65.0801 99c0 72.3799 -17.3096 99 -65.0791 99c-47.0801 0 -65.0801 -26.6201 -65.0801 -99c0 -72.3896 17.3096 -99 65.0791 -99z" />
    <glyph glyph-name="dcaron" unicode="&#x10f;" horiz-adv-x="657" 
d="M345.07 684.46l189 26.918v-711.38h-169.3l-19.7002 51.6104c-20.3799 -30.0703 -62.9199 -63 -134.53 -63c-123.08 0 -181 82.1602 -181 269.851s57.9199 269.851 181 269.851c71.6104 0 114.15 -32.9297 134.53 -63v219.15zM578.61 512.198l19.7305 187.86h170.46
l-107.7 -187.86h-82.4902zM282.461 136.688c46.3799 0 62.6104 27.46 62.6104 121.77s-16.2305 121.77 -62.6104 121.77c-46.3896 0 -62.6201 -27.46 -62.6201 -121.77s16.2305 -121.77 62.6201 -121.77z" />
    <glyph glyph-name="dcroat" unicode="&#x111;" horiz-adv-x="583" 
d="M607.31 629.92v-76.6123h-73.2402v-553.31h-169.3l-19.7002 51.6104c-20.3799 -30.0703 -62.9199 -63 -134.53 -63c-123.08 0 -181 82.1602 -181 269.851s57.9199 269.851 181 269.851c71.6104 0 114.15 -32.9297 134.53 -63v88h-141.84v76.6104h141.84v54.54
l189 26.9199v-81.46h73.2402zM282.46 136.688c46.3799 0 62.6104 27.46 62.6104 121.77s-16.2305 121.77 -62.6104 121.77c-46.3896 0 -62.6201 -27.46 -62.6201 -121.77s16.2305 -121.77 62.6201 -121.77z" />
    <glyph glyph-name="e" unicode="e" horiz-adv-x="545" 
d="M306.85 -11.3896c-194.92 0 -279.99 89.1494 -279.99 266.38c0 178.54 85.9199 273.31 252.15 273.31c151.61 0 239.53 -80.1504 239.53 -263.92v-52.8496h-308.92c6.45996 -54.9199 42.3799 -79.6895 122.38 -79.6895c63.0801 0 133.47 15 167.85 27l-25.2305 -147.23
c-34.1504 -10 -102.46 -23 -167.77 -23zM208.939 316.229h148.089c-3.30957 59.8496 -29.1592 84.54 -72.1592 84.54c-43.6201 0 -70.9297 -29.3096 -75.9297 -84.54z" />
    <glyph glyph-name="eacute" unicode="&#xe9;" horiz-adv-x="545" 
d="M283.31 576.92l-119.079 26.9199l94.7695 122.85h199.77zM306.851 -11.3906c-194.92 0 -279.99 89.1494 -279.99 266.38c0 178.54 85.9199 273.31 252.15 273.31c151.61 0 239.53 -80.1504 239.53 -263.92v-52.8496h-308.92
c6.45996 -54.9199 42.3799 -79.6895 122.38 -79.6895c63.0801 0 133.47 15 167.85 27l-25.2305 -147.23c-34.1504 -10 -102.46 -23 -167.77 -23zM208.94 316.229h148.089c-3.30957 59.8496 -29.1592 84.54 -72.1592 84.54c-43.6201 0 -70.9297 -29.3096 -75.9297 -84.54z
" />
    <glyph glyph-name="ebreve" unicode="&#x115;" horiz-adv-x="545" 
d="M280.69 571.92c-120.31 0 -170.619 61.7695 -179.77 141l131.46 22.7695c1.30957 -46.8496 15.54 -75.0801 48.3096 -75.0801c31.0801 0 45.3105 28.2305 46.6201 75.0801l131.46 -22.7695c-9.15039 -79.2305 -59.46 -141 -178.08 -141zM306.841 -11.3896
c-194.92 0 -279.99 89.1494 -279.99 266.38c0 178.54 85.9199 273.31 252.15 273.31c151.61 0 239.53 -80.1504 239.53 -263.92v-52.8496h-308.92c6.45996 -54.9199 42.3799 -79.6895 122.38 -79.6895c63.0801 0 133.47 15 167.85 27l-25.2305 -147.23
c-34.1504 -10 -102.46 -23 -167.77 -23zM208.931 316.229h148.089c-3.30957 59.8496 -29.1592 84.54 -72.1592 84.54c-43.6201 0 -70.9297 -29.3096 -75.9297 -84.54z" />
    <glyph glyph-name="ecaron" unicode="&#x11b;" horiz-adv-x="545" 
d="M384.85 729.39l96.1504 -26.9199l-117.23 -120.08h-166.92l-117.23 120.08l96.1504 26.9199l105.62 -64.46zM306.85 -11.3799c-194.92 0 -279.99 89.1494 -279.99 266.38c0 178.54 85.9199 273.31 252.15 273.31c151.61 0 239.53 -80.1504 239.53 -263.92v-52.8496
h-308.92c6.45996 -54.9199 42.3799 -79.6895 122.38 -79.6895c63.0801 0 133.47 15 167.85 27l-25.2305 -147.23c-34.1504 -10 -102.46 -23 -167.77 -23zM208.939 316.239h148.089c-3.30957 59.8496 -29.1592 84.54 -72.1592 84.54
c-43.6201 0 -70.9297 -29.3096 -75.9297 -84.54z" />
    <glyph glyph-name="ecircumflex" unicode="&#xea;" horiz-adv-x="545" 
d="M174.85 576.92l-96.1602 26.9199l117.23 122.85h166.92l117.23 -122.85l-96.1504 -26.9199l-105.92 67.2305zM306.84 -11.3906c-194.92 0 -279.99 89.1494 -279.99 266.38c0 178.54 85.9199 273.31 252.15 273.31c151.61 0 239.53 -80.1504 239.53 -263.92v-52.8496
h-308.92c6.45996 -54.9199 42.3799 -79.6895 122.38 -79.6895c63.0801 0 133.47 15 167.85 27l-25.2305 -147.23c-34.1504 -10 -102.46 -23 -167.77 -23zM208.93 316.229h148.089c-3.30957 59.8496 -29.1592 84.54 -72.1592 84.54
c-43.6201 0 -70.9297 -29.3096 -75.9297 -84.54z" />
    <glyph glyph-name="edieresis" unicode="&#xeb;" horiz-adv-x="545" 
d="M100.54 584.15v119.69h146.46v-119.69h-146.46zM311 584.15v119.69h146.46v-119.69h-146.46zM306.85 -11.3896c-194.92 0 -279.99 89.1494 -279.99 266.38c0 178.54 85.9199 273.31 252.15 273.31c151.61 0 239.53 -80.1504 239.53 -263.92v-52.8496h-308.92
c6.45996 -54.9199 42.3799 -79.6895 122.38 -79.6895c63.0801 0 133.47 15 167.85 27l-25.2305 -147.23c-34.1504 -10 -102.46 -23 -167.77 -23zM208.939 316.229h148.089c-3.30957 59.8496 -29.1592 84.54 -72.1592 84.54c-43.6201 0 -70.9297 -29.3096 -75.9297 -84.54z
" />
    <glyph glyph-name="edotaccent" unicode="&#x117;" horiz-adv-x="545" 
d="M189.31 583.15v123.85h180.69v-123.85h-180.69zM306.85 -11.3896c-194.92 0 -279.99 89.1494 -279.99 266.38c0 178.54 85.9199 273.31 252.15 273.31c151.61 0 239.53 -80.1504 239.53 -263.92v-52.8496h-308.92c6.45996 -54.9199 42.3799 -79.6895 122.38 -79.6895
c63.0801 0 133.47 15 167.85 27l-25.2305 -147.23c-34.1504 -10 -102.46 -23 -167.77 -23zM208.939 316.229h148.089c-3.30957 59.8496 -29.1592 84.54 -72.1592 84.54c-43.6201 0 -70.9297 -29.3096 -75.9297 -84.54z" />
    <glyph glyph-name="egrave" unicode="&#xe8;" horiz-adv-x="545" 
d="M262.62 576.92l-175.459 149.77h199.77l94.7695 -122.85zM306.852 -11.3906c-194.92 0 -279.99 89.1494 -279.99 266.38c0 178.54 85.9199 273.31 252.15 273.31c151.61 0 239.53 -80.1504 239.53 -263.92v-52.8496h-308.92
c6.45996 -54.9199 42.3799 -79.6895 122.38 -79.6895c63.0801 0 133.47 15 167.85 27l-25.2305 -147.23c-34.1504 -10 -102.46 -23 -167.77 -23zM208.941 316.229h148.089c-3.30957 59.8496 -29.1592 84.54 -72.1592 84.54c-43.6201 0 -70.9297 -29.3096 -75.9297 -84.54z
" />
    <glyph glyph-name="emacron" unicode="&#x113;" horiz-adv-x="545" 
d="M114.77 599.85v94.9199h330.15v-94.9199h-330.15zM306.85 -11.3809c-194.92 0 -279.99 89.1494 -279.99 266.38c0 178.54 85.9199 273.31 252.15 273.31c151.61 0 239.53 -80.1504 239.53 -263.92v-52.8496h-308.92c6.45996 -54.9199 42.3799 -79.6895 122.38 -79.6895
c63.0801 0 133.47 15 167.85 27l-25.2305 -147.23c-34.1504 -10 -102.46 -23 -167.77 -23zM208.939 316.238h148.089c-3.30957 59.8496 -29.1592 84.54 -72.1592 84.54c-43.6201 0 -70.9297 -29.3096 -75.9297 -84.54z" />
    <glyph glyph-name="eogonek" unicode="&#x119;" horiz-adv-x="545" 
d="M518.54 264.38l-0.000976562 -52.8408h-308.93c6.45996 -54.9297 42.3896 -79.6992 122.39 -79.6992c63.0703 0 133.46 15 167.84 27l-25.2305 -147.23c-88.9199 -37.7695 -117.07 -67.1494 -117.07 -95.6895c0 -21.9199 17.3799 -29.54 38.46 -29.54
c23.0703 0 34.7705 5.62012 34.7705 5.62012v-80.6904s-30.9297 -11.3096 -81.6992 -11.3096c-77.9199 0 -116.229 31.3096 -116.229 80.6094c0 43.1299 29.6396 81.0898 85.1299 108.13c-3.70996 -0.0898438 -7.41992 -0.129883 -11.1299 -0.129883
c-194.92 0 -280 89.1602 -280 266.391c0 178.54 85.9297 273.31 252.16 273.31c151.61 0 239.54 -80.1602 239.54 -263.93zM208.919 316.229h148.079c-3.30957 59.8398 -29.1592 84.54 -72.1592 84.54c-43.6104 0 -70.9199 -29.3096 -75.9199 -84.54z" />
    <glyph glyph-name="f" unicode="f" horiz-adv-x="417" 
d="M94.6904 0l0.000976562 384.531h-76.54v132.39h76.54v2.30957c0.69043 137.31 79.6104 197.159 207.07 197.159c47.3799 0 95.46 -9.08008 118.31 -15.46l8.38965 -127.77c-16.0801 5.69043 -50.1602 13 -83.0098 13c-39.9199 0 -61.0703 -17.2305 -61.7607 -66.9209
v-2.30957h125.39v-132.39h-125.39v-384.54h-189z" />
    <glyph glyph-name="g" unicode="g" horiz-adv-x="583" 
d="M255.54 -201.38c-67.9199 0 -131.85 14.6826 -161.31 26.0625l-25.2305 149.54c31 -13.6904 93.3799 -32.3809 153.689 -32.3809c81.54 0 121.771 26.9199 122.381 119.689v10.8496c-20.6904 -29.6904 -63.2305 -58.54 -134.54 -58.54
c-123.08 0 -181 76.3896 -181 255.699c0 180.77 57.9199 258.77 181 258.77c71.6201 0 114.16 -32.9199 134.55 -63l19.6904 51.6201h169.31v-452.92c0 -184.08 -102 -265.39 -278.54 -265.39zM282.45 154.992c46.3799 0 62.6104 25.1504 62.6104 111.07
c0 88.0801 -16.2305 114.16 -62.6104 114.16c-46.3896 0 -62.6201 -26.0801 -62.6201 -114.16c0 -85.9199 16.2305 -111.07 62.6201 -111.07z" />
    <glyph glyph-name="gbreve" unicode="&#x11f;" horiz-adv-x="583" 
d="M300.46 571.92c-120.31 0 -170.619 61.7695 -179.77 141l131.46 22.7695c1.30957 -46.8496 15.54 -75.0801 48.3096 -75.0801c31.0801 0 45.3105 28.2305 46.6201 75.0801l131.46 -22.7695c-9.15039 -79.2305 -59.46 -141 -178.08 -141zM255.54 -201.39
c-67.9199 0 -131.85 14.6826 -161.31 26.0625l-25.2305 149.54c31 -13.6904 93.3799 -32.3809 153.689 -32.3809c81.54 0 121.771 26.9199 122.381 119.689v10.8496c-20.6904 -29.6904 -63.2305 -58.54 -134.54 -58.54c-123.08 0 -181 76.3896 -181 255.699
c0 180.77 57.9199 258.77 181 258.77c71.6201 0 114.16 -32.9199 134.55 -63l19.6904 51.6201h169.31v-452.92c0 -184.08 -102 -265.39 -278.54 -265.39zM282.45 154.982c46.3799 0 62.6104 25.1504 62.6104 111.07c0 88.0801 -16.2305 114.16 -62.6104 114.16
c-46.3896 0 -62.6201 -26.0801 -62.6201 -114.16c0 -85.9199 16.2305 -111.07 62.6201 -111.07z" />
    <glyph glyph-name="gcircumflex" unicode="&#x11d;" horiz-adv-x="583" 
d="M194.62 576.92l-96.1602 26.9199l117.23 122.85h166.92l117.23 -122.85l-96.1504 -26.9199l-105.92 67.2305zM255.54 -201.391c-67.9199 0 -131.85 14.6826 -161.31 26.0625l-25.2305 149.54c31 -13.6904 93.3799 -32.3809 153.689 -32.3809
c81.54 0 121.771 26.9199 122.381 119.689v10.8496c-20.6904 -29.6904 -63.2305 -58.54 -134.54 -58.54c-123.08 0 -181 76.3896 -181 255.699c0 180.77 57.9199 258.77 181 258.77c71.6201 0 114.16 -32.9199 134.55 -63l19.6904 51.6201h169.31v-452.92
c0 -184.08 -102 -265.39 -278.54 -265.39zM282.45 154.981c46.3799 0 62.6104 25.1504 62.6104 111.07c0 88.0801 -16.2305 114.16 -62.6104 114.16c-46.3896 0 -62.6201 -26.0801 -62.6201 -114.16c0 -85.9199 16.2305 -111.07 62.6201 -111.07z" />
    <glyph glyph-name="uni0123" unicode="&#x123;" horiz-adv-x="583" 
d="M209.69 566.92l115.53 192.85h86.8496l-22.9199 -192.85h-179.46zM255.53 -201.381c-67.9199 0 -131.85 14.6826 -161.31 26.0625l-25.2305 149.54c31 -13.6904 93.3799 -32.3809 153.689 -32.3809c81.54 0 121.771 26.9199 122.381 119.689v10.8496
c-20.6904 -29.6904 -63.2305 -58.54 -134.54 -58.54c-123.08 0 -181 76.3896 -181 255.699c0 180.77 57.9199 258.77 181 258.77c71.6201 0 114.16 -32.9199 134.55 -63l19.6904 51.6201h169.31v-452.92c0 -184.08 -102 -265.39 -278.54 -265.39zM282.44 154.991
c46.3799 0 62.6104 25.1504 62.6104 111.07c0 88.0801 -16.2305 114.16 -62.6104 114.16c-46.3896 0 -62.6201 -26.0801 -62.6201 -114.16c0 -85.9199 16.2305 -111.07 62.6201 -111.07z" />
    <glyph glyph-name="gdotaccent" unicode="&#x121;" horiz-adv-x="583" 
d="M209.08 583.15v123.85h180.69v-123.85h-180.69zM255.54 -201.38c-67.9199 0 -131.85 14.6826 -161.31 26.0625l-25.2305 149.54c31 -13.6904 93.3799 -32.3809 153.689 -32.3809c81.54 0 121.771 26.9199 122.381 119.689v10.8496
c-20.6904 -29.6904 -63.2305 -58.54 -134.54 -58.54c-123.08 0 -181 76.3896 -181 255.699c0 180.77 57.9199 258.77 181 258.77c71.6201 0 114.16 -32.9199 134.55 -63l19.6904 51.6201h169.31v-452.92c0 -184.08 -102 -265.39 -278.54 -265.39zM282.45 154.992
c46.3799 0 62.6104 25.1504 62.6104 111.07c0 88.0801 -16.2305 114.16 -62.6104 114.16c-46.3896 0 -62.6201 -26.0801 -62.6201 -114.16c0 -85.9199 16.2305 -111.07 62.6201 -111.07z" />
    <glyph glyph-name="h" unicode="h" horiz-adv-x="584" 
d="M381.07 528.31c105.77 0 158.159 -70.4697 158.159 -168.39v-359.92h-189v309.15c0 46.1602 -13.9199 71.1602 -55.2295 71.1602c-41.7695 0 -57.3896 -25 -57.3896 -71.1602v-309.15h-189v684.46l189 26.9199v-247c35.54 39.3096 78.3096 63.9297 143.46 63.9297z" />
    <glyph glyph-name="hbar" unicode="&#x127;" horiz-adv-x="584" 
d="M381.07 511.07c105.77 0 158.159 -69.7598 158.159 -167v-344.07h-189v293.31c0 45.46 -13.9199 69.7598 -55.2295 69.7598c-41.7695 0 -57.3896 -24.2998 -57.3896 -69.7598v-293.31h-189v550.23h-73.2305v79.3799h73.2305v56.9297l189 26.9199v-83.8496h159.23
v-79.3799h-159.23v-101.97c35.4805 38.7197 78.1904 62.8096 143.46 62.8096z" />
    <glyph glyph-name="hcircumflex" unicode="&#x125;" horiz-adv-x="584" 
d="M37.9199 760l-96.1504 26.9199l117.23 122.85h166.92l117.23 -122.85l-96.1504 -26.9199l-105.93 67.2305zM381.069 528.31c105.77 0 158.159 -70.4697 158.159 -168.39v-359.92h-189v309.15c0 46.1602 -13.9199 71.1602 -55.2295 71.1602
c-41.7695 0 -57.3896 -25 -57.3896 -71.1602v-309.15h-189v684.46l189 26.9199v-247c35.54 39.3096 78.3096 63.9297 143.46 63.9297z" />
    <glyph glyph-name="i" unicode="i" horiz-adv-x="286" 
d="M48.6201 580v119.69h189v-119.69h-189zM48.6201 0v516.92h189v-516.92h-189z" />
    <glyph glyph-name="dotlessi" unicode="&#x131;" horiz-adv-x="286" 
d="M48.6104 0v516.92h189v-516.92h-189z" />
    <glyph glyph-name="iacute" unicode="&#xed;" horiz-adv-x="286" 
d="M146.77 576.92l-119.079 26.9199l94.7695 122.85h199.77zM48.6104 -0v516.92h189v-516.92h-189z" />
    <glyph glyph-name="ibreve" unicode="&#x12d;" horiz-adv-x="286" 
d="M144.15 571.92c-119.38 0 -167.079 61.7695 -173.379 141l128 22.7695c1.2998 -46.8496 12.9199 -75.0801 45.3799 -75.0801c30.7695 0 42.3896 28.2305 43.6895 75.0801l128 -22.7695c-6.2998 -79.2305 -54 -141 -171.69 -141zM48.6113 -0v516.92h189v-516.92h-189z" />
    <glyph glyph-name="icircumflex" unicode="&#xee;" horiz-adv-x="286" 
d="M53.6104 576.23l-93.2295 26.9199l105.62 122.85h154.92l105.62 -122.85l-93.2305 -26.9199l-91.2402 67.8398zM48.6113 0v516.92h189v-516.92h-189z" />
    <glyph glyph-name="idieresis" unicode="&#xef;" horiz-adv-x="286" 
d="M-25.3896 584.15v119.69h140.08v-119.69h-140.08zM171.92 584.15v119.69h140.39v-119.69h-140.39zM48.6104 0.000976562v516.92h189v-516.92h-189z" />
    <glyph glyph-name="igrave" unicode="&#xec;" horiz-adv-x="286" 
d="M126.07 576.92l-175.459 149.77h199.77l94.7695 -122.85zM48.6113 -0.000976562v516.92h189v-516.92h-189z" />
    <glyph glyph-name="ij" unicode="&#x133;" horiz-adv-x="580" 
d="M48.6201 580v119.69h189v-119.69h-189zM342.851 580v119.69h189v-119.69h-189zM48.6201 0v516.92h189v-516.92h-189zM326.311 -201.39c-36.54 0 -74.4697 11.7686 -92.2393 19.459l-26.2305 147.15c13.6201 -6.91992 41.8506 -15.46 66.7002 -15.46
c44.46 0 68.3096 20.3799 68.3096 83v484.15h189v-484.15c0 -163.38 -78.3096 -234.149 -205.54 -234.149z" />
    <glyph glyph-name="imacron" unicode="&#x12b;" horiz-adv-x="286" 
d="M-11.46 599.84v94.9297h309.53v-94.9297h-309.53zM48.6104 -0v516.92h189v-516.92h-189z" />
    <glyph glyph-name="iogonek" unicode="&#x12f;" horiz-adv-x="286" 
d="M48.6104 699.69h189v-119.69h-189v119.69zM48.6104 0l-0.00195312 516.921h189v-516.92c-52.6904 -32.7695 -69.46 -56.8496 -69.46 -80.3896c0 -22.2305 16 -29.8408 34.6904 -29.8408c17.0801 0 29.7705 3.2998 34.7705 6.2998v-84.0703
c-13.46 -5 -44.3799 -12 -81.3799 -12c-77.9199 0 -116.229 33 -116.229 84c0 43 31.7695 87 90 116h-81.3896z" />
    <glyph glyph-name="itilde" unicode="&#x129;" horiz-adv-x="286" 
d="M37.9199 569.46l-74.7715 57.3799c51.3896 78.6201 83.54 97 123.69 97c48.9297 0 78 -48.6904 108.77 -48.6904c16.7002 0 26.7002 10 52.7705 48.6904l74.7695 -57.0703c-51.0801 -78.9297 -82.9199 -97.3096 -122.689 -97.3096
c-48.2305 0 -78 49.6904 -108.77 49.6904c-17.3799 0 -27.3799 -9 -53.7695 -49.6904zM48.6084 -0v516.92h189v-516.92h-189z" />
    <glyph glyph-name="j" unicode="j" horiz-adv-x="294" 
d="M56.6201 580v119.69h189v-119.69h-189zM40.0801 -201.39c-36.54 0 -74.4697 11.7686 -92.2393 19.459l-26.2305 147.15c13.6201 -6.91992 41.8506 -15.46 66.7002 -15.46c44.46 0 68.3096 20.3799 68.3096 83v484.15h189v-484.15
c0 -163.38 -78.3096 -234.149 -205.54 -234.149z" />
    <glyph glyph-name="uni0237" unicode="&#x237;" horiz-adv-x="294" 
d="M40.0703 -200c-36.5303 0 -74.46 11.7695 -92.2295 20.1494l-26.2305 147.16c13.6201 -6.92969 41.8506 -16.1602 66.7002 -16.1602c44.46 0 68.2998 20.3896 68.2998 83v482.77h189v-482.77c0 -163.38 -78.2998 -234.149 -205.54 -234.149z" />
    <glyph glyph-name="jcircumflex" unicode="&#x135;" horiz-adv-x="294" 
d="M59.9199 576.23l-93.2295 26.9199l105.62 122.85h154.92l105.61 -122.85l-93.2305 -26.9199l-91.2305 67.8398zM40.0703 -200c-36.5303 0 -74.46 11.7695 -92.2295 20.1494l-26.2305 147.16c13.6201 -6.92969 41.8506 -16.1602 66.7002 -16.1602
c44.46 0 68.2998 20.3896 68.2998 83v482.77h189v-482.77c0 -163.38 -78.2998 -234.149 -205.54 -234.149z" />
    <glyph glyph-name="k" unicode="k" horiz-adv-x="567" 
d="M362.85 0l-92.5391 195.23h-39.6201v-195.23h-182.08v684.46l182.08 26.9199v-379.69h36.9199l88.54 185.23h198.38l-136.15 -245l151.62 -271.92h-207.15z" />
    <glyph glyph-name="uni0137" unicode="&#x137;" horiz-adv-x="567" 
d="M362.85 0l-92.5391 195.23h-39.6201v-195.23h-182.08v684.46l182.08 26.9199v-379.69h36.9199l88.54 185.23h198.38l-136.15 -245l151.62 -271.92h-207.15zM186.08 -242.85l20.7793 192.85h179.46l-113.39 -192.85h-86.8496z" />
    <glyph glyph-name="kgreenlandic" unicode="&#x138;" horiz-adv-x="567" 
d="M48.6201 0l0.000976562 516.921h182.08v-188.23h36.9199l88.54 188.23h198.38l-136.15 -248.69l151.62 -268.23h-207.15l-92.54 192.23h-39.6201v-192.23h-182.08z" />
    <glyph glyph-name="l" unicode="l" horiz-adv-x="286" 
d="M48.6104 0v684.46l189 26.9199v-711.38h-189z" />
    <glyph glyph-name="lacute" unicode="&#x13a;" horiz-adv-x="286" 
d="M145 760l-119.079 26.9199l94.7695 122.85h199.77zM48.6113 -0v684.46l189 26.9199v-711.38h-189z" />
    <glyph glyph-name="lcaron" unicode="&#x13e;" horiz-adv-x="286" 
d="M48.6104 0v684.46l189 26.9199v-711.38h-189zM286.69 512.2l19.7207 187.86h170.47l-107.7 -187.86h-82.4902z" />
    <glyph glyph-name="uni013C" unicode="&#x13c;" horiz-adv-x="286" 
d="M48.6104 0v684.46l189 26.9199v-711.38h-189zM35.7705 -242.85l20.7695 192.85h179.46l-113.39 -192.85h-86.8398z" />
    <glyph glyph-name="ldot" unicode="&#x140;" horiz-adv-x="425" 
d="M48.6104 0v684.46l189 26.9199v-711.38h-189zM287.46 315.31v175.38h134.31v-175.38h-134.31z" />
    <glyph glyph-name="lslash" unicode="&#x142;" horiz-adv-x="365" 
d="M346.46 522.92v-104.38l-68.0801 -41.7803v-376.76h-189v307.15l-68.0703 -41.0801v107.16l68.0703 40.2598v270.97l189 26.9199v-229.5z" />
    <glyph glyph-name="m" unicode="m" horiz-adv-x="875" 
d="M670.38 528.31c106.69 0 159.39 -69.8496 159.39 -167.47v-360.84h-189v311.77c0 44.54 -13.6201 68.54 -52.3105 68.54c-39.8496 0 -54.7695 -24 -54.7695 -68.54v-311.77h-189v311.77c0 44.54 -13.3096 68.54 -52.3096 68.54c-39.46 0 -54.7695 -24 -54.7695 -68.54
v-311.77h-189v516.92h169l20 -52.54c34.2305 39.3096 75.6201 63.9297 139.46 63.9297c66 0 110.85 -27.7002 134.39 -73.3105c41 47.2305 89 73.3105 158.92 73.3105z" />
    <glyph glyph-name="n" unicode="n" horiz-adv-x="584" 
d="M48.6201 0l-0.000976562 516.921h169l20 -52.54c35.2305 39.3096 78.3105 63.9297 143.461 63.9297c105.77 0 158.159 -70.46 158.159 -168.69v-359.62h-189v310.54c0 45.46 -13.9199 69.7695 -55.2295 69.7695c-41.7695 0 -57.3896 -24.3096 -57.3896 -69.7695v-310.54
h-189z" />
    <glyph glyph-name="nacute" unicode="&#x144;" horiz-adv-x="584" 
d="M286.62 576.92l-119.079 26.9199l94.7695 122.85h199.77zM48.6211 -0.00976562l-0.000976562 516.921h169l20 -52.54c35.2305 39.3096 78.3105 63.9297 143.461 63.9297c105.77 0 158.159 -70.46 158.159 -168.69v-359.62h-189v310.54
c0 45.46 -13.9199 69.7695 -55.2295 69.7695c-41.7695 0 -57.3896 -24.3096 -57.3896 -69.7695v-310.54h-189z" />
    <glyph glyph-name="napostrophe" unicode="&#x149;" horiz-adv-x="627" 
d="M10.6904 570.79l17.3301 165.83h149.71l-94.5898 -165.83h-72.4502zM91.0107 0l-0.000976562 516.921h169l20 -52.54c35.2305 39.3096 78.3105 63.9297 143.461 63.9297c105.77 0 158.149 -70.46 158.149 -168.69v-359.62h-189v310.54
c0 45.46 -13.9199 69.7695 -55.2295 69.7695c-41.7695 0 -57.3799 -24.3096 -57.3799 -69.7695v-310.54h-189z" />
    <glyph glyph-name="ncaron" unicode="&#x148;" horiz-adv-x="584" 
d="M388.15 729.39l96.1504 -26.9199l-117.23 -120.08h-166.92l-117.23 120.08l96.1504 26.9199l105.62 -64.46zM48.6104 0.00976562l-0.000976562 516.921h169l20 -52.54c35.2305 39.3096 78.3105 63.9297 143.461 63.9297c105.77 0 158.159 -70.46 158.159 -168.69v-359.62
h-189v310.54c0 45.46 -13.9199 69.7695 -55.2295 69.7695c-41.7695 0 -57.3896 -24.3096 -57.3896 -69.7695v-310.54h-189z" />
    <glyph glyph-name="uni0146" unicode="&#x146;" horiz-adv-x="584" 
d="M48.6201 0l-0.000976562 516.921h169l20 -52.54c35.2305 39.3096 78.3105 63.9297 143.461 63.9297c105.77 0 158.159 -70.46 158.159 -168.69v-359.62h-189v310.54c0 45.46 -13.9199 69.7695 -55.2295 69.7695c-41.7695 0 -57.3896 -24.3096 -57.3896 -69.7695v-310.54
h-189zM184.389 -242.849l20.7793 192.85h179.46l-113.39 -192.85h-86.8496z" />
    <glyph glyph-name="eng" unicode="&#x14b;" horiz-adv-x="584" 
d="M381.07 528.31c105.77 0 158.158 -70.4678 158.158 -168.698v-359.61c0 -139.69 -66.46 -200 -175.08 -200c-31.46 0 -63.6104 9.37988 -78.6904 16.7695l-22.1504 131.92c8.53027 -5.23047 26.6104 -12.0801 42.6904 -12.0801c28.54 0 44.2305 15.3096 44.2305 63.3896
v310.54c0 45.46 -13.9199 69.7695 -55.2295 69.7695c-41.7695 0 -57.3896 -24.3096 -57.3896 -69.7695v-310.54h-189v516.92h169l20 -52.54c35.2305 39.3096 78.3105 63.9297 143.461 63.9297z" />
    <glyph glyph-name="ntilde" unicode="&#xf1;" horiz-adv-x="584" 
d="M168.85 569.46l-77.1494 57.3799c59.1504 78.6201 90.9199 97 133.689 97c49.8496 0 83.6191 -48.6904 113.699 -48.6904c17.6904 0 27.6904 10 60.3809 48.6904l77.1504 -57.0801c-58.8496 -78.9199 -90.9297 -97.2998 -132.699 -97.2998
c-50.1504 0 -83.6104 49.6904 -113.69 49.6904c-18.6904 0 -28.6904 -9 -61.3809 -49.6904zM48.6201 -0.00976562l-0.000976562 516.921h169l20 -52.54c35.2305 39.3096 78.3105 63.9297 143.461 63.9297c105.77 0 158.159 -70.46 158.159 -168.69v-359.62h-189v310.54
c0 45.46 -13.9199 69.7695 -55.2295 69.7695c-41.7695 0 -57.3896 -24.3096 -57.3896 -69.7695v-310.54h-189z" />
    <glyph glyph-name="o" unicode="o" horiz-adv-x="560" 
d="M279.77 -11.3896c-176 0 -252.62 83.0801 -252.62 269.85s76.6201 269.85 252.62 269.85s252.61 -83.0801 252.61 -269.85s-76.6104 -269.85 -252.61 -269.85zM279.77 136.69c46.3799 0 62.2998 27.46 62.2998 121.77s-15.9199 121.77 -62.2998 121.77
c-46.3896 0 -62.3096 -27.46 -62.3096 -121.77s15.9199 -121.77 62.3096 -121.77z" />
    <glyph glyph-name="oacute" unicode="&#xf3;" horiz-adv-x="560" 
d="M283.07 576.92l-119.069 26.9199l94.7695 122.85h199.77zM279.771 -11.3906c-176 0 -252.62 83.0801 -252.62 269.85s76.6201 269.85 252.62 269.85s252.61 -83.0801 252.61 -269.85s-76.6104 -269.85 -252.61 -269.85zM279.771 136.689
c46.3799 0 62.2998 27.46 62.2998 121.77s-15.9199 121.77 -62.2998 121.77c-46.3896 0 -62.3096 -27.46 -62.3096 -121.77s15.9199 -121.77 62.3096 -121.77z" />
    <glyph glyph-name="obreve" unicode="&#x14f;" horiz-adv-x="560" 
d="M280.46 571.92c-120.31 0 -170.619 61.7695 -179.77 141l131.46 22.7695c1.30957 -46.8496 15.54 -75.0801 48.3096 -75.0801c31.0801 0 45.3105 28.2305 46.6104 75.0801l131.47 -22.7695c-9.16016 -79.2305 -59.4697 -141 -178.08 -141zM279.77 -11.3896
c-176 0 -252.62 83.0801 -252.62 269.85s76.6201 269.85 252.62 269.85s252.61 -83.0801 252.61 -269.85s-76.6104 -269.85 -252.61 -269.85zM279.77 136.69c46.3799 0 62.2998 27.46 62.2998 121.77s-15.9199 121.77 -62.2998 121.77
c-46.3896 0 -62.3096 -27.46 -62.3096 -121.77s15.9199 -121.77 62.3096 -121.77z" />
    <glyph glyph-name="ocircumflex" unicode="&#xf4;" horiz-adv-x="560" 
d="M174.61 576.92l-96.1504 26.9199l117.23 122.85h166.92l117.23 -122.85l-96.1504 -26.9199l-105.92 67.2305zM279.77 -11.3906c-176 0 -252.62 83.0801 -252.62 269.85s76.6201 269.85 252.62 269.85s252.61 -83.0801 252.61 -269.85s-76.6104 -269.85 -252.61 -269.85z
M279.77 136.689c46.3799 0 62.2998 27.46 62.2998 121.77s-15.9199 121.77 -62.2998 121.77c-46.3896 0 -62.3096 -27.46 -62.3096 -121.77s15.9199 -121.77 62.3096 -121.77z" />
    <glyph glyph-name="odieresis" unicode="&#xf6;" horiz-adv-x="560" 
d="M100.31 584.15v119.69h146.46v-119.69h-146.46zM310.77 584.15v119.69h146.46v-119.69h-146.46zM279.77 -11.3896c-176 0 -252.62 83.0801 -252.62 269.85s76.6201 269.85 252.62 269.85s252.61 -83.0801 252.61 -269.85s-76.6104 -269.85 -252.61 -269.85z
M279.77 136.69c46.3799 0 62.2998 27.46 62.2998 121.77s-15.9199 121.77 -62.2998 121.77c-46.3896 0 -62.3096 -27.46 -62.3096 -121.77s15.9199 -121.77 62.3096 -121.77z" />
    <glyph glyph-name="ograve" unicode="&#xf2;" horiz-adv-x="560" 
d="M262.38 576.92l-175.459 149.77h199.77l94.7695 -122.85zM279.771 -11.3906c-176 0 -252.62 83.0801 -252.62 269.85s76.6201 269.85 252.62 269.85s252.61 -83.0801 252.61 -269.85s-76.6104 -269.85 -252.61 -269.85zM279.771 136.689
c46.3799 0 62.2998 27.46 62.2998 121.77s-15.9199 121.77 -62.2998 121.77c-46.3896 0 -62.3096 -27.46 -62.3096 -121.77s15.9199 -121.77 62.3096 -121.77z" />
    <glyph glyph-name="ohungarumlaut" unicode="&#x151;" horiz-adv-x="560" 
d="M195.23 576.92l-90.3096 24.1494l86.2305 125.62h161.31zM382.921 576.919l-90.3096 24.1494l85.9297 125.62h161.61zM279.771 -11.3916c-176 0 -252.62 83.0801 -252.62 269.85s76.6201 269.85 252.62 269.85s252.61 -83.0801 252.61 -269.85
s-76.6104 -269.85 -252.61 -269.85zM279.771 136.688c46.3799 0 62.2998 27.46 62.2998 121.77s-15.9199 121.77 -62.2998 121.77c-46.3896 0 -62.3096 -27.46 -62.3096 -121.77s15.9199 -121.77 62.3096 -121.77z" />
    <glyph glyph-name="omacron" unicode="&#x14d;" horiz-adv-x="560" 
d="M114.54 599.84v94.9297h330.15v-94.9297h-330.15zM279.771 -11.3906c-176 0 -252.62 83.0801 -252.62 269.85s76.6201 269.85 252.62 269.85s252.61 -83.0801 252.61 -269.85s-76.6104 -269.85 -252.61 -269.85zM279.771 136.689c46.3799 0 62.2998 27.46 62.2998 121.77
s-15.9199 121.77 -62.2998 121.77c-46.3896 0 -62.3096 -27.46 -62.3096 -121.77s15.9199 -121.77 62.3096 -121.77z" />
    <glyph glyph-name="oslash" unicode="&#xf8;" horiz-adv-x="567" 
d="M546.23 526.92l-61.0996 -74.6787c34.54 -44.0303 50.71 -107.96 50.71 -193.78c0 -186.77 -76.6104 -269.85 -252.301 -269.85c-62.8496 0 -113.029 10.5996 -151.569 32.7197l-23.8203 -31.3301h-87.6104l61.3701 74.3604
c-34.7402 44.0498 -50.9902 108.069 -50.9902 194.1c0 186.77 76.6201 269.85 252.62 269.85c62.8799 0 113.08 -10.6504 151.61 -32.8809l23.46 31.4902h87.6201zM283.541 380.231c-46.3896 0 -62.3105 -27.459 -62.3105 -121.769
c0 -17.21 0.530273 -32.1904 1.68066 -45.1904l107.48 144.22c-9.78027 16.5596 -24.8506 22.7393 -46.8506 22.7393zM283.54 136.692c46.3799 0 61.999 27.459 61.999 121.769c0 13.8203 -0.339844 26.2002 -1.05957 37.2705l-105.09 -140.6
c9.83984 -13.3398 24.1602 -18.4395 44.1504 -18.4395z" />
    <glyph glyph-name="oslashacute" unicode="&#x1ff;" horiz-adv-x="567" 
d="M466.84 726.69l-175.459 -149.77l-119.07 26.9199l94.7598 122.85h199.77zM546.23 526.921l-61.0996 -74.6787c34.54 -44.0303 50.71 -107.96 50.71 -193.78c0 -186.77 -76.6104 -269.85 -252.301 -269.85c-62.8496 0 -113.029 10.5996 -151.569 32.7197
l-23.8203 -31.3301h-87.6104l61.3701 74.3604c-34.7402 44.0498 -50.9902 108.069 -50.9902 194.1c0 186.77 76.6201 269.85 252.62 269.85c62.8799 0 113.08 -10.6504 151.61 -32.8809l23.46 31.4902h87.6201zM283.541 380.232
c-46.3896 0 -62.3105 -27.459 -62.3105 -121.769c0 -17.21 0.530273 -32.1904 1.68066 -45.1904l107.48 144.22c-9.78027 16.5596 -24.8506 22.7393 -46.8506 22.7393zM283.54 136.693c46.3799 0 61.999 27.459 61.999 121.769
c0 13.8203 -0.339844 26.2002 -1.05957 37.2705l-105.09 -140.6c9.83984 -13.3398 24.1602 -18.4395 44.1504 -18.4395z" />
    <glyph glyph-name="otilde" unicode="&#xf5;" horiz-adv-x="560" 
d="M165.31 569.46l-77.1592 57.3799c59.1602 78.6201 90.9199 97 133.689 97c49.8496 0 83.6191 -48.6904 113.699 -48.6904c17.6904 0 27.6904 10 60.3809 48.6904l77.1504 -57.0703c-58.8398 -78.9297 -90.9199 -97.3096 -132.689 -97.3096
c-50.1504 0 -83.6104 49.6904 -113.69 49.6904c-18.6904 0 -28.6904 -9 -61.3809 -49.6904zM279.771 -11.3906c-176 0 -252.62 83.0801 -252.62 269.85s76.6201 269.85 252.62 269.85s252.61 -83.0801 252.61 -269.85s-76.6104 -269.85 -252.61 -269.85zM279.771 136.689
c46.3799 0 62.2998 27.46 62.2998 121.77s-15.9199 121.77 -62.2998 121.77c-46.3896 0 -62.3096 -27.46 -62.3096 -121.77s15.9199 -121.77 62.3096 -121.77z" />
    <glyph glyph-name="oe" unicode="&#x153;" horiz-adv-x="855" 
d="M827.54 264.38l-0.0117188 -52.8389h-313.28c5.83984 -54.2598 41.3994 -78.3096 123.279 -78.3096c89.0703 0 173.15 25.6104 173.15 25.6104l-25.54 -147.23s-74.8398 -21.6104 -158.92 -21.6104c-83.3496 0 -145.35 18.46 -188.199 55.0996
c-38.1797 -37.4404 -94.3994 -55.1006 -171.409 -55.1006c-166.3 0 -238.77 82.3799 -238.77 268.46s72.4697 268.46 238.77 268.46c77.6797 0 134.22 -17.9697 172.41 -56.0898c38.79 36.2002 92.1104 56.0898 159.36 56.0898c144.69 0 229.16 -79.46 229.16 -262.54z
M593.828 399.381c-46.6104 0 -74.5098 -28.3701 -79.6094 -83.1504h154.27c-5.36035 60.46 -32.9102 83.1504 -74.6602 83.1504zM280.449 138.071c46.3799 0 62.3096 27.4697 62.3096 120.39s-15.9297 120.38 -62.3096 120.38c-46.3896 0 -62.3096 -27.46 -62.3096 -120.38
s15.9199 -120.39 62.3096 -120.39z" />
    <glyph glyph-name="p" unicode="p" horiz-adv-x="582" 
d="M371.84 528.31c123.39 0 181 -82.1592 181 -269.85s-57.6104 -269.851 -181 -269.851c-71.2998 0 -114.149 32.9297 -134.229 63v-226.46l-189 -26.9199v718.69h169l20 -51.6104c20.0801 30.0703 62.9297 63 134.229 63zM299.92 136.69
c46.3896 0 62.6201 27.46 62.6201 121.77s-16.2305 121.77 -62.6201 121.77c-46.3799 0 -62.3096 -27.46 -62.3096 -121.77s15.9297 -121.77 62.3096 -121.77z" />
    <glyph glyph-name="thorn" unicode="&#xfe;" horiz-adv-x="582" 
d="M48.6104 -190v876.54l189 26.9199v-248.15c20.0801 29.3799 62.9297 61.6104 134.229 61.6104c123.39 0 181 -81.46 181 -268.46s-57.6104 -268.46 -181 -268.46c-71.2998 0 -114.149 32.2305 -134.229 61.6104v-241.61h-189zM299.92 138.07
c46.3896 0 62.6201 27.4697 62.6201 120.39s-16.2305 120.38 -62.6201 120.38c-46.3799 0 -62.3096 -27.46 -62.3096 -120.38s15.9297 -120.39 62.3096 -120.39z" />
    <glyph glyph-name="q" unicode="q" horiz-adv-x="583" 
d="M364.77 516.92l169.3 -0.00195312v-691.77l-189 -26.9199v253.38c-20.3799 -30.0703 -62.9199 -63 -134.53 -63c-123.08 0 -181 82.1602 -181 269.851s57.9199 269.851 181 269.851c71.6104 0 114.15 -32.9297 134.53 -63zM282.459 136.688
c46.3799 0 62.6104 27.46 62.6104 121.77s-16.2305 121.77 -62.6104 121.77c-46.3896 0 -62.6201 -27.46 -62.6201 -121.77s16.2305 -121.77 62.6201 -121.77z" />
    <glyph glyph-name="r" unicode="r" horiz-adv-x="427" 
d="M48.6104 0v516.92h169l20 -52.2305c25.3096 39.46 63 63.6201 112.77 63.6201c28.3896 0 50.6201 -7 58.8506 -13l9.37988 -158.39c-12.6104 7.91992 -42.46 18.46 -81 18.46c-59.9199 0 -100 -33.9199 -100 -101.92v-273.46h-189z" />
    <glyph glyph-name="racute" unicode="&#x155;" horiz-adv-x="427" 
d="M224.23 576.92l-119.079 26.9199l94.7695 122.85h199.77zM48.6113 -0v516.92h169l20 -52.2305c25.3096 39.46 63 63.6201 112.77 63.6201c28.3896 0 50.6201 -7 58.8506 -13l9.37988 -158.39c-12.6104 7.91992 -42.46 18.46 -81 18.46
c-59.9199 0 -100 -33.9199 -100 -101.92v-273.46h-189z" />
    <glyph glyph-name="rcaron" unicode="&#x159;" horiz-adv-x="427" 
d="M325.77 729.38l96.1504 -26.9199l-117.23 -120.08h-166.92l-117.23 120.08l96.1504 26.9199l105.61 -64.46zM48.6104 -0v516.92h169l20 -52.2305c25.3096 39.46 63 63.6201 112.77 63.6201c28.3896 0 50.6201 -7 58.8506 -13l9.37988 -158.39
c-12.6104 7.91992 -42.46 18.46 -81 18.46c-59.9199 0 -100 -33.9199 -100 -101.92v-273.46h-189z" />
    <glyph glyph-name="uni0157" unicode="&#x157;" horiz-adv-x="427" 
d="M48.6104 0v516.92h169l20 -52.2305c25.3096 39.46 63 63.6201 112.77 63.6201c28.3896 0 50.6201 -7 58.8506 -13l9.37988 -158.39c-12.6104 7.91992 -42.46 18.46 -81 18.46c-59.9199 0 -100 -33.9199 -100 -101.92v-273.46h-189zM33.3799 -242.85l20.7695 192.85
h179.46l-113.38 -192.85h-86.8496z" />
    <glyph glyph-name="s" unicode="s" horiz-adv-x="496" 
d="M234.23 -10c-73.8496 0 -147.39 16.3789 -182.159 29.0693l-24.1504 147.54c38.1504 -17.0703 121.54 -40.2305 207.39 -40.2305c43 0 57.9199 11.3096 57.9199 28.2295c0 16.2305 -7.23047 24.0801 -43.6904 30.6201l-76.1602 15.3096
c-102.77 20.6904 -141.46 68.46 -141.46 162.46c0 104.23 70.7695 163.921 224 163.921c77.7695 0 148.46 -16.46 180.62 -28.9199l8.37988 -139.31c-32.3096 14.46 -102.85 33.6201 -177.77 33.6201c-41.54 0 -55.7705 -9.38965 -55.7705 -25.3096
c0 -16.3096 8.54004 -24.1592 46.3896 -31.3896l74.2305 -14.2998c99.54 -19.6201 140.31 -68.1602 140.31 -165.08c0 -107.54 -66.3096 -166.23 -238.079 -166.23z" />
    <glyph glyph-name="sacute" unicode="&#x15b;" horiz-adv-x="496" 
d="M255.54 576.92l-119.079 26.9199l94.7695 122.85h199.77zM234.23 -10c-73.8496 0 -147.39 16.3789 -182.159 29.0693l-24.1504 147.54c38.1504 -17.0703 121.54 -40.2305 207.39 -40.2305c43 0 57.9199 11.3096 57.9199 28.2295
c0 16.2305 -7.23047 24.0801 -43.6904 30.6201l-76.1602 15.3096c-102.77 20.6904 -141.46 68.46 -141.46 162.46c0 104.23 70.7695 163.921 224 163.921c77.7695 0 148.46 -16.46 180.62 -28.9199l8.37988 -139.31c-32.3096 14.46 -102.85 33.6201 -177.77 33.6201
c-41.54 0 -55.7705 -9.38965 -55.7705 -25.3096c0 -16.3096 8.54004 -24.1592 46.3896 -31.3896l74.2305 -14.2998c99.54 -19.6201 140.31 -68.1602 140.31 -165.08c0 -107.54 -66.3096 -166.23 -238.079 -166.23z" />
    <glyph glyph-name="scaron" unicode="&#x161;" horiz-adv-x="496" 
d="M357.07 729.38l96.1602 -26.9199l-117.23 -120.08h-166.93l-117.23 120.08l96.1602 26.9199l105.61 -64.46zM234.23 -10c-73.8496 0 -147.39 16.3789 -182.159 29.0693l-24.1504 147.54c38.1504 -17.0703 121.54 -40.2305 207.39 -40.2305
c43 0 57.9199 11.3096 57.9199 28.2295c0 16.2305 -7.23047 24.0801 -43.6904 30.6201l-76.1602 15.3096c-102.77 20.6904 -141.46 68.46 -141.46 162.46c0 104.23 70.7695 163.921 224 163.921c77.7695 0 148.46 -16.46 180.62 -28.9199l8.37988 -139.31
c-32.3096 14.46 -102.85 33.6201 -177.77 33.6201c-41.54 0 -55.7705 -9.38965 -55.7705 -25.3096c0 -16.3096 8.54004 -24.1592 46.3896 -31.3896l74.2305 -14.2998c99.54 -19.6201 140.31 -68.1602 140.31 -165.08c0 -107.54 -66.3096 -166.23 -238.079 -166.23z" />
    <glyph glyph-name="scedilla" unicode="&#x15f;" horiz-adv-x="496" 
d="M472.31 156.23c0 -94.5098 -51.2207 -151.292 -180.221 -163.672l-11.5498 -27.5596c64.6904 -1.23047 90.8408 -27.7705 90.8408 -71.6201c0 -54.1504 -44.0703 -93.3809 -132.38 -93.3809c-45.8496 0 -78.1592 10 -78.1592 10v73.3799
c13.1602 -6.23047 30.9297 -12.0703 52.3096 -12.0703c24.2305 0 41.54 7.61035 41.54 24.8408c0 15.2305 -12.6904 23.1602 -39 23.1602h-31l27.1904 71.1699c-65.9697 2.79004 -128.55 17.1904 -159.81 28.5908l-24.1504 147.54
c38.1504 -17.0703 121.54 -40.2305 207.39 -40.2305c43 0 57.9199 11.3096 57.9199 28.2295c0 16.2305 -7.23047 24.0801 -43.6904 30.6201l-76.1602 15.3096c-102.77 20.6904 -141.46 68.46 -141.46 162.46c0 104.23 70.7695 163.921 224 163.921
c77.7695 0 148.46 -16.46 180.62 -28.9199l8.37988 -139.31c-32.3096 14.46 -102.85 33.6201 -177.77 33.6201c-41.54 0 -55.7705 -9.38965 -55.7705 -25.3096c0 -16.3096 8.54004 -24.1592 46.3896 -31.3896l74.2305 -14.2998
c99.54 -19.6201 140.31 -68.1602 140.31 -165.08z" />
    <glyph glyph-name="scircumflex" unicode="&#x15d;" horiz-adv-x="496" 
d="M147.07 576.92l-96.1504 26.9199l117.23 122.85h166.92l117.24 -122.85l-96.1602 -26.9199l-105.92 67.2305zM234.229 -10c-73.8496 0 -147.39 16.3789 -182.159 29.0693l-24.1504 147.54c38.1504 -17.0703 121.54 -40.2305 207.39 -40.2305
c43 0 57.9199 11.3096 57.9199 28.2295c0 16.2305 -7.23047 24.0801 -43.6904 30.6201l-76.1602 15.3096c-102.77 20.6904 -141.46 68.46 -141.46 162.46c0 104.23 70.7695 163.921 224 163.921c77.7695 0 148.46 -16.46 180.62 -28.9199l8.37988 -139.31
c-32.3096 14.46 -102.85 33.6201 -177.77 33.6201c-41.54 0 -55.7705 -9.38965 -55.7705 -25.3096c0 -16.3096 8.54004 -24.1592 46.3896 -31.3896l74.2305 -14.2998c99.54 -19.6201 140.31 -68.1602 140.31 -165.08c0 -107.54 -66.3096 -166.23 -238.079 -166.23z" />
    <glyph glyph-name="uni0219" unicode="&#x219;" horiz-adv-x="496" 
d="M234.23 -10c-73.8496 0 -147.39 16.3789 -182.159 29.0693l-24.1504 147.54c38.1504 -17.0703 121.54 -40.2305 207.39 -40.2305c43 0 57.9199 11.3096 57.9199 28.2295c0 16.2305 -7.23047 24.0801 -43.6904 30.6201l-76.1602 15.3096
c-102.77 20.6904 -141.46 68.46 -141.46 162.46c0 104.23 70.7695 163.921 224 163.921c77.7695 0 148.46 -16.46 180.62 -28.9199l8.37988 -139.31c-32.3096 14.46 -102.85 33.6201 -177.77 33.6201c-41.54 0 -55.7705 -9.38965 -55.7705 -25.3096
c0 -16.3096 8.54004 -24.1592 46.3896 -31.3896l74.2305 -14.2998c99.54 -19.6201 140.31 -68.1602 140.31 -165.08c0 -107.54 -66.3096 -166.23 -238.079 -166.23zM150.381 -242.851l20.7695 192.85h179.46l-113.38 -192.85h-86.8496z" />
    <glyph glyph-name="germandbls" unicode="&#xdf;" horiz-adv-x="576" 
d="M475.75 403.59c51.96 -29.4297 64.7109 -81.5596 64.7109 -146.75v-69c0 -138 -72.46 -197.84 -191.69 -197.84c-35.6201 0 -67.1602 8.30957 -80.1602 14.6094v122.39c7.38965 -4.23047 23.9297 -10.7705 40.54 -10.7705c29.1602 0 45.1602 12.2305 45.1602 57.7705
v96.6904c0 50.3799 -15.2402 68.6895 -55.0801 68.6895h-30.6201v124.23h25.6201c35.1504 0 48.6904 18.8496 48.6904 61.54c0 40.2305 -14.2305 57.6904 -52.4609 57.6904c-38.9199 0 -52.8496 -22.7695 -52.8496 -82.8398v-500h-189v500c0 144 79.3096 215 245.31 215
c157 0 235.85 -61 235.85 -175c0 -58.54 -11.1396 -106.97 -54.0195 -136.41z" />
    <glyph glyph-name="longs" unicode="&#x17f;" horiz-adv-x="352" 
d="M422.84 698.46l8.38965 -131.459c-16.0801 5.91992 -50.7705 13.46 -84.2305 13.46c-41.54 0 -63.3096 -14.6904 -63.3096 -63.2305v-517.23h-189v384.54h-76.54v132.38h76.54v0.30957c0 137.61 79.2305 196.23 208.311 196.23c48.3096 0 96.6895 -9 119.84 -15z" />
    <glyph glyph-name="t" unicode="t" horiz-adv-x="436" 
d="M347 140.46c31.1504 0 63.9199 9.31055 80.1504 15.6104l-25.9199 -146.07c-19.54 -9 -63.8496 -20.6904 -115 -20.6904c-124.08 0 -200 66.0703 -200 218.61v176.62h-76.54v132.38h76.54v106.92l189 36.6201v-143.54h138.46v-132.38h-138.46v-169.7
c0 -56.6104 25.3096 -74.3799 71.7695 -74.3799z" />
    <glyph glyph-name="tbar" unicode="&#x167;" horiz-adv-x="442" 
d="M350.92 140.46c31.1504 0 63.9199 9.31055 80.1504 15.6104l-25.9199 -146.07c-19.54 -9 -63.8398 -20.6904 -115 -20.6904c-124.08 0 -200 66.0703 -200 218.61v40.6201h-76.54v79.6904h76.54v56.3096h-76.54v132.38h76.54v106.92l189 36.6201v-143.54h138.46v-132.38
h-138.46v-56.3096h138.46v-79.6904h-138.46v-33.7002c0 -56.6104 25.3096 -74.3799 71.7695 -74.3799z" />
    <glyph glyph-name="tcaron" unicode="&#x165;" horiz-adv-x="436" 
d="M326 554.31l19.8398 188.23h172.39l-108.77 -188.23h-83.46zM347 140.46c31.1504 0 63.9199 9.31055 80.1504 15.6104l-25.9199 -146.07c-19.54 -9 -63.8496 -20.6904 -115 -20.6904c-124.08 0 -200 66.0703 -200 218.61v176.62h-76.54v132.38h76.54v106.92l189 36.6201
v-143.54h138.46v-132.38h-138.46v-169.7c0 -56.6104 25.3096 -74.3799 71.7695 -74.3799z" />
    <glyph glyph-name="u" unicode="u" horiz-adv-x="584" 
d="M203.15 -11.3896c-105.77 0 -158.148 70.459 -158.148 168.689v359.62h189v-310.54c0 -45.46 13.9199 -69.7695 55.2295 -69.7695c41.7695 0 57.3799 24.3096 57.3799 69.7695v310.54h189v-516.92h-169l-20 52.54c-35.2305 -39.3096 -78.3105 -63.9297 -143.461 -63.9297
z" />
    <glyph glyph-name="uacute" unicode="&#xfa;" horiz-adv-x="584" 
d="M293.92 576.92l-119.079 26.9199l94.7695 122.85h199.77zM203.15 -11.3906c-105.77 0 -158.148 70.459 -158.148 168.689v359.62h189v-310.54c0 -45.46 13.9199 -69.7695 55.2295 -69.7695c41.7695 0 57.3799 24.3096 57.3799 69.7695v310.54h189v-516.92h-169l-20 52.54
c-35.2305 -39.3096 -78.3105 -63.9297 -143.461 -63.9297z" />
    <glyph glyph-name="ucircumflex" unicode="&#xfb;" horiz-adv-x="584" 
d="M185.46 576.92l-96.1602 26.9199l117.23 122.85h166.92l117.23 -122.85l-96.1504 -26.9199l-105.92 67.2305zM203.149 -11.3906c-105.77 0 -158.148 70.459 -158.148 168.689v359.62h189v-310.54c0 -45.46 13.9199 -69.7695 55.2295 -69.7695
c41.7695 0 57.3799 24.3096 57.3799 69.7695v310.54h189v-516.92h-169l-20 52.54c-35.2305 -39.3096 -78.3105 -63.9297 -143.461 -63.9297z" />
    <glyph glyph-name="udieresis" unicode="&#xfc;" horiz-adv-x="584" 
d="M111.15 584.15v119.69h146.46v-119.69h-146.46zM321.61 584.15v119.69h146.46v-119.69h-146.46zM203.15 -11.3896c-105.77 0 -158.148 70.459 -158.148 168.689v359.62h189v-310.54c0 -45.46 13.9199 -69.7695 55.2295 -69.7695
c41.7695 0 57.3799 24.3096 57.3799 69.7695v310.54h189v-516.92h-169l-20 52.54c-35.2305 -39.3096 -78.3105 -63.9297 -143.461 -63.9297z" />
    <glyph glyph-name="ugrave" unicode="&#xf9;" horiz-adv-x="584" 
d="M273.23 576.92l-175.459 149.77h199.77l94.7695 -122.85zM203.151 -11.3906c-105.77 0 -158.148 70.459 -158.148 168.689v359.62h189v-310.54c0 -45.46 13.9199 -69.7695 55.2295 -69.7695c41.7695 0 57.3799 24.3096 57.3799 69.7695v310.54h189v-516.92h-169
l-20 52.54c-35.2305 -39.3096 -78.3105 -63.9297 -143.461 -63.9297z" />
    <glyph glyph-name="uhungarumlaut" unicode="&#x171;" horiz-adv-x="584" 
d="M206.08 576.92l-90.3096 24.1494l86.2305 125.62h161.31zM393.771 576.919l-90.3096 24.1494l85.9199 125.62h161.62zM203.151 -11.3916c-105.77 0 -158.148 70.459 -158.148 168.689v359.62h189v-310.54c0 -45.46 13.9199 -69.7695 55.2295 -69.7695
c41.7695 0 57.3799 24.3096 57.3799 69.7695v310.54h189v-516.92h-169l-20 52.54c-35.2305 -39.3096 -78.3105 -63.9297 -143.461 -63.9297z" />
    <glyph glyph-name="umacron" unicode="&#x16b;" horiz-adv-x="584" 
d="M125.39 599.85v94.9199h330.15v-94.9199h-330.15zM203.159 -11.3809c-105.77 0 -158.148 70.459 -158.148 168.689v359.62h189v-310.54c0 -45.46 13.9199 -69.7695 55.2295 -69.7695c41.7695 0 57.3799 24.3096 57.3799 69.7695v310.54h189v-516.92h-169l-20 52.54
c-35.2305 -39.3096 -78.3105 -63.9297 -143.461 -63.9297z" />
    <glyph glyph-name="uni0163" unicode="&#x163;" horiz-adv-x="436" 
d="M401.23 10c-17.29 -7.96973 -53.9717 -18.0381 -97.6318 -20.248l-10.3701 -24.75c64.6904 -1.23047 90.8408 -27.7705 90.8408 -71.6201c0 -54.1504 -44.0703 -93.3809 -132.38 -93.3809c-45.8496 0 -78.1494 10 -78.1494 10v73.3799
c13.1504 -6.23047 30.9199 -12.0703 52.2998 -12.0703c24.2305 0 41.54 7.61035 41.54 24.8408c0 15.2305 -12.6904 23.1602 -39 23.1602h-31l29.04 76.0098c-88.2197 19.3799 -140.189 86.3896 -140.189 212.6v176.62h-76.54v132.38h76.54v106.92l189 36.6201v-143.54
h138.46v-132.38h-138.46v-169.7c0 -56.6104 25.3096 -74.3799 71.7695 -74.3799c31.1504 0 63.9199 9.30957 80.1504 15.6094z" />
    <glyph glyph-name="uni021B" unicode="&#x21b;" horiz-adv-x="436" 
d="M347 140.46c31.1504 0 63.9199 9.31055 80.1504 15.6104l-25.9199 -146.07c-19.54 -9 -63.8496 -20.6904 -115 -20.6904c-124.08 0 -200 66.0703 -200 218.61v176.62h-76.54v132.38h76.54v106.92l189 36.6201v-143.54h138.46v-132.38h-138.46v-169.7
c0 -56.6104 25.3096 -74.3799 71.7695 -74.3799zM163.07 -242.849l20.7695 192.85h179.47l-113.39 -192.85h-86.8496z" />
    <glyph glyph-name="uogonek" unicode="&#x173;" horiz-adv-x="584" 
d="M535.61 0c-53 -33.46 -69.7705 -56.8486 -69.7705 -80.3887c0 -22.2305 16 -29.8408 35 -29.8408c23.0801 0 34.7705 6.2998 34.7705 6.2998v-84.0703s-30.9199 -12 -81.6895 -12c-77.9199 0 -116.229 33 -116.229 84c0 43 32.0801 87 90.3105 116h-61.6904
l-19.7002 52.54c-35.54 -39.3096 -78.6104 -63.9297 -143.771 -63.9297c-105.46 0 -157.84 70.46 -157.84 168.39v359.92h189v-310.54c0 -45.46 13.6104 -69.7695 54.9199 -69.7695c41.7695 0 57.6895 24.3096 57.6895 69.7695v310.54h189v-516.92z" />
    <glyph glyph-name="uring" unicode="&#x16f;" horiz-adv-x="584" 
d="M291.31 571.92c-75.2305 0 -132.08 45.3896 -132.08 119.85c0 74.7695 56.8496 120.149 132.08 120.149c74.9199 0 131.77 -45.3799 131.77 -120.149c0 -74.46 -56.8496 -119.85 -131.77 -119.85zM291.31 647c28.9199 0 45.8398 17.2305 45.8398 44.7705
c0 27.8496 -16.9199 45.0801 -45.8398 45.0801c-29.2305 0 -46.1504 -17.2305 -46.1504 -45.0801c0 -27.54 16.9199 -44.7705 46.1504 -44.7705zM203.159 -11.3896c-105.77 0 -158.148 70.459 -158.148 168.689v359.62h189v-310.54
c0 -45.46 13.9199 -69.7695 55.2295 -69.7695c41.7695 0 57.3799 24.3096 57.3799 69.7695v310.54h189v-516.92h-169l-20 52.54c-35.2305 -39.3096 -78.3105 -63.9297 -143.461 -63.9297z" />
    <glyph glyph-name="utilde" unicode="&#x169;" horiz-adv-x="584" 
d="M176.15 569.46l-77.1494 57.3799c59.1504 78.6201 90.9199 97 133.689 97c49.8496 0 83.6191 -48.6904 113.699 -48.6904c17.6904 0 27.6904 10 60.3809 48.6904l77.1504 -57.0801c-58.8496 -78.9199 -90.9297 -97.2998 -132.699 -97.2998
c-50.1504 0 -83.6104 49.6904 -113.69 49.6904c-18.6904 0 -28.6904 -9 -61.3809 -49.6904zM203.151 -11.3906c-105.77 0 -158.148 70.459 -158.148 168.689v359.62h189v-310.54c0 -45.46 13.9199 -69.7695 55.2295 -69.7695c41.7695 0 57.3799 24.3096 57.3799 69.7695
v310.54h189v-516.92h-169l-20 52.54c-35.2305 -39.3096 -78.3105 -63.9297 -143.461 -63.9297z" />
    <glyph glyph-name="v" unicode="v" horiz-adv-x="542" 
d="M349 516.92h195.38l-182.54 -516.92h-182.38l-181.85 516.92h199.39l75.8398 -311.77z" />
    <glyph glyph-name="w" unicode="w" horiz-adv-x="755" 
d="M563.85 516.92h177.758l-108 -516.92h-176.77l-80.7695 212.69l-79.0801 -212.69h-176.77l-106.31 516.92h180.77l47.6201 -299.54l115.62 298.54h41.6201l116.69 -296.23z" />
    <glyph glyph-name="wacute" unicode="&#x1e83;" horiz-adv-x="755" 
d="M381.39 576.92l-119.079 26.9199l94.7695 122.85h199.77zM563.851 516.92h177.758l-108 -516.92h-176.77l-80.7695 212.69l-79.0801 -212.69h-176.77l-106.31 516.92h180.77l47.6201 -299.54l115.62 298.54h41.6201l116.69 -296.23z" />
    <glyph glyph-name="wcircumflex" unicode="&#x175;" horiz-adv-x="755" 
d="M272.92 576.92l-96.1602 26.9199l117.23 122.85h166.92l117.23 -122.85l-96.1504 -26.9199l-105.92 67.2305zM563.84 516.92h177.758l-108 -516.92h-176.77l-80.7695 212.69l-79.0801 -212.69h-176.77l-106.31 516.92h180.77l47.6201 -299.54l115.62 298.54h41.6201
l116.69 -296.23z" />
    <glyph glyph-name="wdieresis" unicode="&#x1e85;" horiz-adv-x="755" 
d="M198.62 584.15v119.69h146.46v-119.69h-146.46zM409.08 584.15v119.69h146.46v-119.69h-146.46zM563.85 516.921h177.758l-108 -516.92h-176.77l-80.7695 212.69l-79.0801 -212.69h-176.77l-106.31 516.92h180.77l47.6201 -299.54l115.62 298.54h41.6201l116.69 -296.23z
" />
    <glyph glyph-name="wgrave" unicode="&#x1e81;" horiz-adv-x="755" 
d="M360.69 576.92l-175.459 149.77h199.77l94.7695 -122.85zM563.852 516.92h177.758l-108 -516.92h-176.77l-80.7695 212.69l-79.0801 -212.69h-176.77l-106.31 516.92h180.77l47.6201 -299.54l115.62 298.54h41.6201l116.69 -296.23z" />
    <glyph glyph-name="x" unicode="x" horiz-adv-x="549" 
d="M555.23 0h-206.63l-75.9199 152.92l-77.6201 -152.92h-200.92l166.85 268.92l-153.46 248h203.85l65.6201 -131.77l66.6904 131.77h197.85l-152.85 -247.46z" />
    <glyph glyph-name="y" unicode="y" horiz-adv-x="541" 
d="M160.23 -200c-46.3096 0 -80.4805 10.0098 -92.8604 17.7002l-26.9199 147.46c15.0801 -6 44.1602 -14 70.4697 -14c30.3896 0 56.4697 9.15039 71.4697 39l5.08008 12.9199l-191.85 513.85h199.69l84.9199 -301.54l66.46 301.54h194.69l-183 -552.46
c-40.2305 -121.62 -107.771 -164.47 -198.15 -164.47z" />
    <glyph glyph-name="yacute" unicode="&#xfd;" horiz-adv-x="541" 
d="M277.46 576.92l-119.079 26.9199l94.7695 122.85h199.77zM160.23 -200.01c-46.3096 0 -80.4805 10.0098 -92.8604 17.7002l-26.9199 147.46c15.0801 -6 44.1602 -14 70.4697 -14c30.3896 0 56.4697 9.15039 71.4697 39l5.08008 12.9199l-191.85 513.85h199.69
l84.9199 -301.54l66.46 301.54h194.69l-183 -552.46c-40.2305 -121.62 -107.771 -164.47 -198.15 -164.47z" />
    <glyph glyph-name="ycircumflex" unicode="&#x177;" horiz-adv-x="541" 
d="M169 576.92l-96.1602 26.9199l117.23 122.85h166.92l117.23 -122.85l-96.1504 -26.9199l-105.92 67.2305zM160.229 -200.01c-46.3096 0 -80.4805 10.0098 -92.8604 17.7002l-26.9199 147.46c15.0801 -6 44.1602 -14 70.4697 -14c30.3896 0 56.4697 9.15039 71.4697 39
l5.08008 12.9199l-191.85 513.85h199.69l84.9199 -301.54l66.46 301.54h194.69l-183 -552.46c-40.2305 -121.62 -107.771 -164.47 -198.15 -164.47z" />
    <glyph glyph-name="ydieresis" unicode="&#xff;" horiz-adv-x="541" 
d="M94.6904 584.15v119.69h146.46v-119.69h-146.46zM305.15 584.15v119.69h146.46v-119.69h-146.46zM160.23 -200.009c-46.3096 0 -80.4805 10.0098 -92.8604 17.7002l-26.9199 147.46c15.0801 -6 44.1602 -14 70.4697 -14c30.3896 0 56.4697 9.15039 71.4697 39
l5.08008 12.9199l-191.85 513.85h199.69l84.9199 -301.54l66.46 301.54h194.69l-183 -552.46c-40.2305 -121.62 -107.771 -164.47 -198.15 -164.47z" />
    <glyph glyph-name="ygrave" unicode="&#x1ef3;" horiz-adv-x="541" 
d="M256.77 576.92l-175.459 149.77h199.77l94.7695 -122.85zM160.23 -200.001c-46.3096 0 -80.4805 10.0098 -92.8604 17.7002l-26.9199 147.46c15.0801 -6 44.1602 -14 70.4697 -14c30.3896 0 56.4697 9.15039 71.4697 39l5.08008 12.9199l-191.85 513.85h199.69
l84.9199 -301.54l66.46 301.54h194.69l-183 -552.46c-40.2305 -121.62 -107.771 -164.47 -198.15 -164.47z" />
    <glyph glyph-name="z" unicode="z" horiz-adv-x="495" 
d="M252.92 144l220.15 0.000976562l-23.8398 -144h-418.85v128.23l202.31 244.38h-192.62v144.31h415.85v-128.23z" />
    <glyph glyph-name="zacute" unicode="&#x17a;" horiz-adv-x="495" 
d="M256.92 576.92l-119.079 26.9199l94.7695 122.85h199.77zM252.921 144l220.15 0.000976562l-23.8398 -144h-418.85v128.23l202.31 244.38h-192.62v144.31h415.85v-128.23z" />
    <glyph glyph-name="zcaron" unicode="&#x17e;" horiz-adv-x="495" 
d="M358.46 729.38l96.1504 -26.9199l-117.23 -120.08h-166.92l-117.23 120.08l96.1504 26.9199l105.62 -64.46zM252.92 144l220.15 0.000976562l-23.8398 -144h-418.85v128.23l202.31 244.38h-192.62v144.31h415.85v-128.23z" />
    <glyph glyph-name="zdotaccent" unicode="&#x17c;" horiz-adv-x="495" 
d="M162.92 583.15v123.85h180.69v-123.85h-180.69zM252.92 144l220.15 0.000976562l-23.8398 -144h-418.85v128.23l202.31 244.38h-192.62v144.31h415.85v-128.23z" />
    <glyph glyph-name="germandbls.calt" horiz-adv-x="667" 
d="M528.7 413.33c69.7197 -25.6299 103.942 -85.7305 103.452 -194.561c0.69043 -164 -84.46 -228.77 -226.77 -228.77c-34 0 -64.2305 6.61035 -87.2305 14.6104v129.31c11.3896 -4.23047 31.46 -9.38086 54.54 -9.38086c37.46 0 57.7695 15.2305 57.7695 96.3809
c0 74.46 -21.2305 94 -68.9209 94h-25.0801v62.6201l88.3604 184.9c-19.9102 7.99023 -45.6104 12.79 -76.8203 12.79c-61.6904 0 -90.3105 -29.1602 -90.3105 -88.46v-486.77h-201.08v482.31c0 157.23 95.0801 234.07 283.62 234.07
c146.38 0 236.46 -55.6104 281.92 -104.771z" />
    <glyph glyph-name="i.loclTRK" horiz-adv-x="286" 
d="M52.7695 583.15v123.85h180.69v-123.85h-180.69zM48.6094 0v516.92h189v-516.92h-189z" />
    <glyph glyph-name="a.ss01" horiz-adv-x="583" 
d="M364.77 516.92h169.301v-516.92h-169.3l-19.5498 52.1504l-0.150391 -0.540039c-20.3799 -29.3799 -62.9199 -61.6104 -134.53 -61.6104c-123.08 0 -181 81.46 -181 268.46s57.9199 268.46 181 268.46c71.6104 0 114.15 -32.2305 134.53 -61.6104l0.139648 -0.55957z
M282.46 138.07c46.3799 0 62.6104 27.4697 62.6104 120.39s-16.2305 120.38 -62.6104 120.38c-46.3896 0 -62.6201 -27.46 -62.6201 -120.38s16.2305 -120.39 62.6201 -120.39z" />
    <glyph glyph-name="aacute.ss01" horiz-adv-x="583" 
d="M483.38 719.77l-175.459 -149.77l-119.08 26.9199l94.7695 122.85h199.77zM364.771 516.92h169.301v-516.92h-169.3l-19.5498 52.1504l-0.150391 -0.540039c-20.3799 -29.3799 -62.9199 -61.6104 -134.53 -61.6104c-123.08 0 -181 81.46 -181 268.46
s57.9199 268.46 181 268.46c71.6104 0 114.15 -32.2305 134.53 -61.6104l0.139648 -0.55957zM282.461 138.07c46.3799 0 62.6104 27.4697 62.6104 120.39s-16.2305 120.38 -62.6104 120.38c-46.3896 0 -62.6201 -27.46 -62.6201 -120.38s16.2305 -120.39 62.6201 -120.39z
" />
    <glyph glyph-name="abreve.ss01" horiz-adv-x="583" 
d="M305.3 565c-120.3 0 -170.609 61.7695 -179.76 141l131.46 22.7695c1.2998 -46.8496 15.54 -75.0801 48.2998 -75.0801c31.0801 0 45.3105 28.2305 46.6201 75.0801l131.46 -22.7695c-9.15039 -79.2305 -59.46 -141 -178.08 -141zM364.77 516.92h169.301v-516.92h-169.3
l-19.5498 52.1504l-0.150391 -0.540039c-20.3799 -29.3799 -62.9199 -61.6104 -134.53 -61.6104c-123.08 0 -181 81.46 -181 268.46s57.9199 268.46 181 268.46c71.6104 0 114.15 -32.2305 134.53 -61.6104l0.139648 -0.55957zM282.46 138.07
c46.3799 0 62.6104 27.4697 62.6104 120.39s-16.2305 120.38 -62.6104 120.38c-46.3896 0 -62.6201 -27.46 -62.6201 -120.38s16.2305 -120.39 62.6201 -120.39z" />
    <glyph glyph-name="acircumflex.ss01" horiz-adv-x="583" 
d="M302.61 637.23l-103.15 -67.2305l-96.1504 26.9199l117.23 122.85h166.92l117.23 -122.85l-96.1504 -26.9199zM364.77 516.92h169.301v-516.92h-169.3l-19.5498 52.1504l-0.150391 -0.540039c-20.3799 -29.3799 -62.9199 -61.6104 -134.53 -61.6104
c-123.08 0 -181 81.46 -181 268.46s57.9199 268.46 181 268.46c71.6104 0 114.15 -32.2305 134.53 -61.6104l0.139648 -0.55957zM282.46 138.07c46.3799 0 62.6104 27.4697 62.6104 120.39s-16.2305 120.38 -62.6104 120.38c-46.3896 0 -62.6201 -27.46 -62.6201 -120.38
s16.2305 -120.39 62.6201 -120.39z" />
    <glyph glyph-name="adieresis.ss01" horiz-adv-x="583" 
d="M271.61 696.92v-119.69h-146.46v119.69h146.46zM482.07 696.92v-119.69h-146.46v119.69h146.46zM364.771 516.92h169.301v-516.92h-169.3l-19.5498 52.1504l-0.150391 -0.540039c-20.3799 -29.3799 -62.9199 -61.6104 -134.53 -61.6104c-123.08 0 -181 81.46 -181 268.46
s57.9199 268.46 181 268.46c71.6104 0 114.15 -32.2305 134.53 -61.6104l0.139648 -0.55957zM282.461 138.07c46.3799 0 62.6104 27.4697 62.6104 120.39s-16.2305 120.38 -62.6104 120.38c-46.3896 0 -62.6201 -27.46 -62.6201 -120.38s16.2305 -120.39 62.6201 -120.39z
" />
    <glyph glyph-name="agrave.ss01" horiz-adv-x="583" 
d="M406.31 596.92l-119.079 -26.9199l-175.46 149.77h199.77zM364.771 516.92h169.301v-516.92h-169.3l-19.5498 52.1504l-0.150391 -0.540039c-20.3799 -29.3799 -62.9199 -61.6104 -134.53 -61.6104c-123.08 0 -181 81.46 -181 268.46s57.9199 268.46 181 268.46
c71.6104 0 114.15 -32.2305 134.53 -61.6104l0.139648 -0.55957zM282.461 138.07c46.3799 0 62.6104 27.4697 62.6104 120.39s-16.2305 120.38 -62.6104 120.38c-46.3896 0 -62.6201 -27.46 -62.6201 -120.38s16.2305 -120.39 62.6201 -120.39z" />
    <glyph glyph-name="amacron.ss01" horiz-adv-x="583" 
d="M469.54 687.84v-94.9199h-330.16v94.9199h330.16zM364.771 516.92h169.301v-516.92h-169.3l-19.5498 52.1504l-0.150391 -0.540039c-20.3799 -29.3799 -62.9199 -61.6104 -134.53 -61.6104c-123.08 0 -181 81.46 -181 268.46s57.9199 268.46 181 268.46
c71.6104 0 114.15 -32.2305 134.53 -61.6104l0.139648 -0.55957zM282.461 138.07c46.3799 0 62.6104 27.4697 62.6104 120.39s-16.2305 120.38 -62.6104 120.38c-46.3896 0 -62.6201 -27.46 -62.6201 -120.38s16.2305 -120.39 62.6201 -120.39z" />
    <glyph glyph-name="aogonek.ss01" horiz-adv-x="583" 
d="M534.07 0c-53 -33.46 -69.7598 -56.8486 -69.7598 -80.3887c0 -22.2305 16 -29.8408 34.6904 -29.8408c23.3799 0 35.0703 6.2998 35.0703 6.2998v-84.0703s-30.9199 -12 -81.6895 -12c-77.9199 0 -116.229 33 -116.229 84c0 43 31.7695 87 90.3096 116h-61.6904
l-19.5498 52.1504l-0.150391 -0.540039c-20.3799 -29.3799 -62.9199 -61.6104 -134.53 -61.6104c-123.08 0 -181 81.46 -181 268.46s57.9199 268.46 181 268.46c71.6104 0 114.15 -32.2305 134.53 -61.6104l0.139648 -0.55957l19.5596 52.1699h169.3v-516.92z
M282.46 138.071c46.3799 0 62.6104 27.4697 62.6104 120.39s-16.2305 120.38 -62.6104 120.38c-46.3896 0 -62.6201 -27.46 -62.6201 -120.38s16.2305 -120.39 62.6201 -120.39z" />
    <glyph glyph-name="aring.ss01" horiz-adv-x="583" 
d="M305.31 565c-75.2402 0 -132.08 45.3799 -132.08 119.84c0 74.7695 56.8398 120.159 132.08 120.159c74.9199 0 131.76 -45.3896 131.76 -120.159c0 -74.46 -56.8398 -119.84 -131.76 -119.84zM305.31 729.92c-29.2402 0 -46.1602 -17.2305 -46.1602 -45.0801
c0 -27.5303 16.9199 -44.7705 46.1602 -44.7705c28.9199 0 45.8398 17.2402 45.8398 44.7705c0 27.8496 -16.9199 45.0801 -45.8398 45.0801zM364.77 516.92h169.301v-516.92h-169.3l-19.5498 52.1504l-0.150391 -0.540039
c-20.3799 -29.3799 -62.9199 -61.6104 -134.53 -61.6104c-123.08 0 -181 81.46 -181 268.46s57.9199 268.46 181 268.46c71.6104 0 114.15 -32.2305 134.53 -61.6104l0.139648 -0.55957zM282.46 138.07c46.3799 0 62.6104 27.4697 62.6104 120.39
s-16.2305 120.38 -62.6104 120.38c-46.3896 0 -62.6201 -27.46 -62.6201 -120.38s16.2305 -120.39 62.6201 -120.39z" />
    <glyph glyph-name="atilde.ss01" horiz-adv-x="583" 
d="M251.54 612.23c-18.7002 0 -28.6992 -9 -61.3896 -49.6904l-77.1504 57.3799c59.1504 78.6201 90.9199 97 133.689 97c49.8496 0 83.6191 -48.6904 113.689 -48.6904c17.6904 0 27.6904 10 60.3906 48.6904l77.1504 -57.0801
c-58.8496 -78.9199 -90.9199 -97.2998 -132.689 -97.2998c-50.1602 0 -83.6201 49.6904 -113.69 49.6904zM364.771 516.921h169.301v-516.92h-169.3l-19.5498 52.1504l-0.150391 -0.540039c-20.3799 -29.3799 -62.9199 -61.6104 -134.53 -61.6104
c-123.08 0 -181 81.46 -181 268.46s57.9199 268.46 181 268.46c71.6104 0 114.15 -32.2305 134.53 -61.6104l0.139648 -0.55957zM282.462 138.071c46.3799 0 62.6104 27.4697 62.6104 120.39s-16.2305 120.38 -62.6104 120.38c-46.3896 0 -62.6201 -27.46 -62.6201 -120.38
s16.2305 -120.39 62.6201 -120.39z" />
    <glyph glyph-name="ae.ss01" horiz-adv-x="881" 
d="M853.77 264.38l0.00195312 -52.8389h-318.78c5.83984 -51.5898 40.0195 -74.8496 118.39 -74.8496c91.6201 0 178.54 27 178.54 27l-26.2305 -152.08s-64.6904 -21.6104 -136.381 -21.6104c-76.7803 0 -133.05 19.8799 -171.08 59.3301v-49.3301h-153.16v51.6104
c-20.3799 -29.3799 -62.9199 -61.6104 -134.53 -61.6104c-123.08 0 -181 81.46 -181 268.46s57.9199 268.46 181 268.46c71.6104 0 114.15 -32.2305 134.53 -61.9209v51.9199h153.16v-52.8301c35.21 40.46 85.0498 62.8301 148.77 62.8301
c131.23 0 206.771 -79.46 206.771 -262.54zM615.231 395.231c-46.3701 0 -74.1699 -26.2598 -80 -76.9199h152.79c-4.74023 54.7803 -31.7705 76.9199 -72.79 76.9199zM282.462 138.071c46.3799 0 62.6104 27.4697 62.6104 120.39s-16.2305 120.38 -62.6104 120.38
c-46.3896 0 -62.6201 -27.46 -62.6201 -120.38s16.2305 -120.39 62.6201 -120.39z" />
    <glyph glyph-name="y.ss01" horiz-adv-x="584" 
d="M346.61 516.92l189.002 -0.00195312v-452.92c0 -183.39 -100.61 -264 -275.07 -264c-66.54 0 -129.08 14 -157.85 24.6904l-25.2305 149.54c30.3096 -13 91.3096 -31 150.229 -31c80.0801 0 118.92 27.54 118.92 120.771v13.2305
c-40.6299 -42.1699 -82.4102 -63.3896 -143.771 -63.3896c-105.46 0 -157.84 69.7695 -157.84 167v336.08h189v-285.31c0 -45.7695 13.6104 -69.7695 54.9199 -69.7695c41.7695 0 57.6895 24 57.6895 69.7695v285.31z" />
    <glyph glyph-name="yacute.ss01" horiz-adv-x="584" 
d="M469.07 726.69l-175.459 -149.77l-119.07 26.9199l94.7695 122.85h199.76zM346.611 516.921l189.002 -0.00195312v-452.92c0 -183.39 -100.61 -264 -275.07 -264c-66.54 0 -129.08 14 -157.85 24.6904l-25.2305 149.54c30.3096 -13 91.3096 -31 150.229 -31
c80.0801 0 118.92 27.54 118.92 120.771v13.2305c-40.6299 -42.1699 -82.4102 -63.3896 -143.771 -63.3896c-105.46 0 -157.84 69.7695 -157.84 167v336.08h189v-285.31c0 -45.7695 13.6104 -69.7695 54.9199 -69.7695c41.7695 0 57.6895 24 57.6895 69.7695v285.31z" />
    <glyph glyph-name="ycircumflex.ss01" horiz-adv-x="584" 
d="M288.31 644.15l-103.16 -67.2305l-96.1504 26.9199l117.23 122.85h166.92l117.23 -122.85l-96.1504 -26.9199zM346.609 516.92l189.002 -0.00195312v-452.92c0 -183.39 -100.61 -264 -275.07 -264c-66.54 0 -129.08 14 -157.85 24.6904l-25.2305 149.54
c30.3096 -13 91.3096 -31 150.229 -31c80.0801 0 118.92 27.54 118.92 120.771v13.2305c-40.6299 -42.1699 -82.4102 -63.3896 -143.771 -63.3896c-105.46 0 -157.84 69.7695 -157.84 167v336.08h189v-285.31c0 -45.7695 13.6104 -69.7695 54.9199 -69.7695
c41.7695 0 57.6895 24 57.6895 69.7695v285.31z" />
    <glyph glyph-name="ydieresis.ss01" horiz-adv-x="584" 
d="M257.31 703.84v-119.69h-146.47v119.69h146.47zM467.77 703.84v-119.69h-146.46v119.69h146.46zM346.609 516.919l189.002 -0.00195312v-452.92c0 -183.39 -100.61 -264 -275.07 -264c-66.54 0 -129.08 14 -157.85 24.6904l-25.2305 149.54
c30.3096 -13 91.3096 -31 150.229 -31c80.0801 0 118.92 27.54 118.92 120.771v13.2305c-40.6299 -42.1699 -82.4102 -63.3896 -143.771 -63.3896c-105.46 0 -157.84 69.7695 -157.84 167v336.08h189v-285.31c0 -45.7695 13.6104 -69.7695 54.9199 -69.7695
c41.7695 0 57.6895 24 57.6895 69.7695v285.31z" />
    <glyph glyph-name="ygrave.ss01" horiz-adv-x="584" 
d="M392 603.84l-119.079 -26.9199l-175.46 149.77h199.77zM346.611 516.92l189.002 -0.00195312v-452.92c0 -183.39 -100.61 -264 -275.07 -264c-66.54 0 -129.08 14 -157.85 24.6904l-25.2305 149.54c30.3096 -13 91.3096 -31 150.229 -31
c80.0801 0 118.92 27.54 118.92 120.771v13.2305c-40.6299 -42.1699 -82.4102 -63.3896 -143.771 -63.3896c-105.46 0 -157.84 69.7695 -157.84 167v336.08h189v-285.31c0 -45.7695 13.6104 -69.7695 54.9199 -69.7695c41.7695 0 57.6895 24 57.6895 69.7695v285.31z" />
    <glyph glyph-name="ordfeminine" unicode="&#xaa;" horiz-adv-x="435" 
d="M206.84 709c126.85 0 180.161 -57.3887 180.161 -156.539v-243.46h-124.85l-16.0801 38.9199c-5.23047 -10.46 -30.3008 -46.9199 -98.4609 -46.9199c-79.8398 0 -121.07 47.6904 -121.07 124.381c0 76.7695 47.6904 122.159 139.23 122.159h80.2998v4.91992
c0 34.2305 -17.2305 46.6904 -68.3008 46.6904c-45 0 -94.2305 -9.69043 -119.16 -16.3809l19.1602 112.92c23.2998 6 75 13.3096 129.07 13.3096zM196.922 400.771c32.7695 0 49.1494 11.7705 49.1494 47.6104v24.6904h-49.2998
c-25.7695 0 -39.3096 -13.1504 -39.3096 -37.3008c0 -24.1602 14.8496 -35 39.46 -35z" />
    <glyph glyph-name="ordmasculine" unicode="&#xba;" horiz-adv-x="442" 
d="M221.84 301c-134.46 0 -193 62.6904 -193 204s58.54 204 193 204c133.08 0 191.62 -62.6904 191.62 -204s-58.54 -204 -191.62 -204zM221.84 413.69c34.54 0 46.9297 20.9199 46.9297 91.3096c0 71.0703 -12.3896 91.3105 -46.9297 91.3105
c-35.9199 0 -48.2998 -20.2402 -48.2998 -91.3105c0 -70.3896 12.3799 -91.3096 48.2998 -91.3096z" />
    <glyph glyph-name="uni0410" unicode="&#x410;" horiz-adv-x="696" 
d="M489.38 0l-36.6504 124.84h-213.72l-36.4697 -124.84h-208.23l252 700h201.92l253 -700h-211.85zM281.789 271.31h127.95l-64.1299 218.46z" />
    <glyph glyph-name="uni0411" unicode="&#x411;" horiz-adv-x="655" 
d="M61.6104 0v699.999h518.7v-156.62h-321.77v-95.8398h126.3c166 0 245.39 -83.7695 245.39 -223.619c0 -140.46 -79.3896 -223.92 -245.39 -223.92h-323.23zM258.54 153.919l95.8398 0.000976562c51.2305 0 75.8506 26.3096 75.8506 70
c0 43.3896 -24.6201 69.6895 -75.8506 69.6895h-95.8398v-139.69z" />
    <glyph glyph-name="uni0412" unicode="&#x412;" horiz-adv-x="668" 
d="M61.6201 0v700.001h315.46c161.38 0 239.46 -61.6104 239.46 -188.23c0 -66.3096 -23.3096 -117.31 -71.46 -148c64.6104 -28.6201 89.46 -87.0801 90.46 -164.08c1 -130.23 -79 -199.69 -247.46 -199.69h-326.46zM261.311 424.231l93.6201 0.000976562
c42.7695 0 66.0791 19.46 66.0791 64.8496c0 45 -23.3096 63.7695 -66.0791 63.7695h-93.6201v-128.62zM261.311 147.152l98.3799 0.000976562c48.46 0 74.0801 19.7695 74.0801 67.7695c0 46.3896 -25.6201 66.8496 -74.0801 66.8496h-98.3799v-134.62z" />
    <glyph glyph-name="uni0413" unicode="&#x413;" horiz-adv-x="548" 
d="M61.6104 0l-0.000976562 700h467.23v-174.62h-264.77v-525.38h-202.46z" />
    <glyph glyph-name="uni0403" unicode="&#x403;" horiz-adv-x="548" 
d="M289.69 760l-119.079 26.9199l94.7695 122.85h199.77zM61.6113 -0l-0.000976562 700h467.23v-174.62h-264.77v-525.38h-202.46z" />
    <glyph glyph-name="uni0490" unicode="&#x490;" horiz-adv-x="558" 
d="M367.31 800.54l171 26.9199v-302.08h-274.24v-525.38h-202.46v700h305.7v100.54z" />
    <glyph glyph-name="uni0414" unicode="&#x414;" horiz-adv-x="752" 
d="M15.9199 -134l-0.000976562 308.609h50.3896c50.6104 39.7002 73.3799 94.3906 81.6104 243.16l16.3096 282.23h480.61v-525.39h77.9297v-308.61h-182.77v134h-341.31v-134h-182.77zM257.379 174.609h191.929v358.39h-113.47l-6.61035 -123.85
c-8.30957 -142.08 -33.0791 -196.38 -71.8486 -234.54z" />
    <glyph glyph-name="uni0415" unicode="&#x415;" horiz-adv-x="612" 
d="M61.6201 0l0.00976562 700.001h497.54l9.76953 -161.54h-304.85v-104.69h264.77v-161.54h-264.77v-110.69h317.92l-26.6201 -161.54h-493.77z" />
    <glyph glyph-name="uni0401" unicode="&#x401;" horiz-adv-x="612" 
d="M130 770v119.69h146.46v-119.69h-146.46zM340.46 770v119.69h146.46v-119.69h-146.46zM61.6104 0l0.00976562 700.001h497.54l9.76953 -161.54h-304.85v-104.69h264.77v-161.54h-264.77v-110.69h317.92l-26.6201 -161.54h-493.77z" />
    <glyph glyph-name="uni0416" unicode="&#x416;" horiz-adv-x="991" 
d="M-1.62012 0l192.08 363.54l-174 336.46h214l125.23 -275.08h40.3096v275.08h199.69v-275.08h40l125.54 275.08h214l-174 -336.46l191.77 -363.54h-222.77l-133.85 281.08h-40.6904v-281.08h-199.69v281.08h-40.6904l-133.85 -281.08h-223.08z" />
    <glyph glyph-name="uni0417" unicode="&#x417;" horiz-adv-x="603" 
d="M570.08 196.92c0.69043 -136.92 -94 -213.298 -280.15 -213.298c-103.69 0 -195.841 18.3096 -236.69 32.6191l-26.2305 173c40.3096 -16.2305 128.85 -37.7705 222.77 -37.7705c90.0801 0 116.62 24.46 116.62 61.7695c0 37.46 -19.8496 58.6904 -74.3096 58.6904
h-145.92v160.77h133.46c52.46 0 69.8496 19.54 69.8496 56.46c0 37.54 -21.8496 60.7705 -94.6992 60.7705c-88.2305 0 -171.771 -22.3096 -210.08 -39.6191l10.7695 170.77c41.1504 15 132.61 35.3096 236.301 35.3096c172.23 0 259.311 -72.3896 259.311 -200
c0 -68.0801 -22.9502 -119.85 -73.2998 -152c64.0596 -31.1104 91.8799 -86.8906 92.2998 -167.471z" />
    <glyph glyph-name="uni0418" unicode="&#x418;" horiz-adv-x="723" 
d="M479.46 700h182.15v-700h-192.07v407.76l-225.47 -407.76h-182.46v700h192.08v-409.28z" />
    <glyph glyph-name="uni0419" unicode="&#x419;" horiz-adv-x="723" 
d="M361.38 755c-120.31 0 -170.609 61.7695 -179.77 141l131.46 22.7695c1.30957 -46.8496 15.54 -75.0801 48.3096 -75.0801c31.0801 0 45.3105 28.2305 46.6201 75.0801l131.46 -22.7695c-9.15039 -79.2305 -59.46 -141 -178.08 -141zM479.46 700h182.15v-700h-192.07
v407.76l-225.47 -407.76h-182.46v700h192.08v-409.28z" />
    <glyph glyph-name="uni040D" unicode="&#x40d;" horiz-adv-x="723" 
d="M462.38 784.15l-119.079 -26.9199l-175.46 149.77h199.77zM479.461 700h182.15v-700h-192.07v407.76l-225.47 -407.76h-182.46v700h192.08v-409.28z" />
    <glyph glyph-name="uni041A" unicode="&#x41a;" horiz-adv-x="675" 
d="M452.31 0l-141.77 274.92h-46.4697v-274.92h-202.46v700h202.46v-268.93h45.7695l132.54 268.93h218.77l-186.77 -335.46l204.85 -364.54h-226.92z" />
    <glyph glyph-name="uni040C" unicode="&#x40c;" horiz-adv-x="675" 
d="M345.77 760l-119.079 26.9199l94.7695 122.85h199.77zM452.311 -0l-141.77 274.92h-46.4697v-274.92h-202.46v700h202.46v-268.93h45.7695l132.54 268.93h218.77l-186.77 -335.46l204.85 -364.54h-226.92z" />
    <glyph glyph-name="uni041B" unicode="&#x41b;" horiz-adv-x="690" 
d="M145.38 700l482.93 0.000976562v-700h-195.54v533h-113.09l-8.67969 -218.31c-9.38965 -230.23 -70.6201 -324.69 -212.311 -324.69c-34.2305 0 -59.2305 6.30957 -66.8506 9.06934l-26.6104 165.31c6.23047 -2.07031 23.9209 -5.37988 44.8408 -5.37988
c47.0801 0 72.6201 28.9199 78.2402 162.15z" />
    <glyph glyph-name="uni041C" unicode="&#x41c;" horiz-adv-x="851" 
d="M616.92 700l172.54 -0.000976562v-700h-191.31v393.61l-174.15 -246.84l-176.16 247.54v-394.31h-186.23v700h168.7l194 -275.77z" />
    <glyph glyph-name="uni041D" unicode="&#x41d;" horiz-adv-x="700" 
d="M436.46 700h202.15v-700h-202.15v269.15h-172.39v-269.15h-202.46v700h202.46v-263.16h172.39v263.16z" />
    <glyph glyph-name="uni041E" unicode="&#x41e;" horiz-adv-x="680" 
d="M340.31 -16.3896c-205.16 0 -305.771 102.7 -305.771 366.391s100.61 366.381 305.771 366.381c205.15 0 305.46 -102.69 305.46 -366.381s-100.31 -366.391 -305.46 -366.391zM340.31 154.841c65.46 0 98.5303 39.9297 98.5303 195.16
c0 156.23 -33.0703 195.15 -98.5303 195.15c-65.4697 0 -98.54 -38.9199 -98.54 -195.15c0 -155.23 33.0703 -195.16 98.54 -195.16z" />
    <glyph glyph-name="uni041F" unicode="&#x41f;" horiz-adv-x="694" 
d="M61.6104 0v700h571v-700h-202.15v525.38h-166.39v-525.38h-202.46z" />
    <glyph glyph-name="uni0420" unicode="&#x420;" horiz-adv-x="654" 
d="M61.6104 0l0.000976562 699.999h308.77c177.85 0 262.619 -88.8496 262.619 -239.159c0 -150 -84.7695 -238.84 -262.619 -238.84h-109.07v-222h-199.7zM261.312 382.309h95.9199c51.3096 0 75.7695 29.6104 75.7695 78.5303c0 48.9297 -24.46 78.8496 -75.7695 78.8496
h-95.9199v-157.38z" />
    <glyph glyph-name="uni0421" unicode="&#x421;" horiz-adv-x="569" 
d="M348.46 -16.3896c-212.08 0 -315.619 122.621 -315.619 366.391s103.54 366.38 315.62 366.38c72.46 0 140.92 -20.6904 171.92 -35.6904l10.46 -175.92c-27.1504 16.2998 -84.8408 37.6094 -146.771 37.6094c-101.69 0 -144 -52.1504 -144 -192.381
c0 -139.54 42.3096 -191 144 -191c66.9297 0 131 21.54 161.47 37.7705l-27.3096 -180.54c-31 -14.3096 -97.6904 -32.6191 -169.771 -32.6191z" />
    <glyph glyph-name="uni0422" unicode="&#x422;" horiz-adv-x="597" 
d="M578.92 700l0.000976562 -174.62h-179.23v-525.38h-202.46v525.38h-179.23v174.62h560.92z" />
    <glyph glyph-name="uni0423" unicode="&#x423;" horiz-adv-x="634" 
d="M213.84 -15c-54.6104 0 -95.0684 16.8408 -108.229 24.4609l-30.6904 160.08c12.46 -6.23047 48.0801 -20.7705 81.3896 -20.7705c40.7598 0 66.0693 13.1504 81.999 42l5.83984 12.8398l-250.69 496.39h222.31l126 -297.54l93.2305 297.54h209.23l-208.31 -532.08
c-55.0801 -137 -118.69 -182.92 -222.08 -182.92z" />
    <glyph glyph-name="uni040E" unicode="&#x40e;" horiz-adv-x="634" 
d="M327.38 755c-120.31 0 -170.609 61.7695 -179.77 141l131.46 22.7695c1.30957 -46.8496 15.54 -75.0801 48.3096 -75.0801c31.0801 0 45.3105 28.2305 46.6201 75.0801l131.46 -22.7695c-9.15039 -79.2305 -59.46 -141 -178.08 -141zM213.84 -15
c-54.6104 0 -95.0684 16.8408 -108.229 24.4609l-30.6904 160.08c12.46 -6.23047 48.0801 -20.7705 81.3896 -20.7705c40.7598 0 66.0693 13.1504 81.999 42l5.83984 12.8398l-250.69 496.39h222.31l126 -297.54l93.2305 297.54h209.23l-208.31 -532.08
c-55.0801 -137 -118.69 -182.92 -222.08 -182.92z" />
    <glyph glyph-name="uni0424" unicode="&#x424;" horiz-adv-x="876" 
d="M848.84 363c0 -184.61 -92.0801 -281.891 -309.23 -289.521v-73.4805h-202.15v73.4805c-217.15 7.62988 -309.23 104.91 -309.23 289.521s92.0801 281.88 309.23 289.51v66.8701h202.15v-66.8701c217.15 -7.62988 309.23 -104.899 309.23 -289.51zM222.31 363
c0 -99.0703 40.9004 -140.191 130.23 -144.281v287.86c-89.3301 -4.00977 -130.23 -44.5195 -130.23 -143.579zM524.54 218.719c89.3203 4.08984 130.23 45.21 130.23 144.28s-40.9102 139.57 -130.23 143.58v-287.86z" />
    <glyph glyph-name="uni0425" unicode="&#x425;" horiz-adv-x="662" 
d="M665.92 0h-232.001l-105 221.61l-104.77 -221.61h-228.08l211.24 363.54l-198 336.46h231.69l92.3096 -190.62l90.8398 190.62h227.08l-194.54 -334.93z" />
    <glyph glyph-name="uni0427" unicode="&#x427;" horiz-adv-x="664" 
d="M399.54 700l203.149 -0.000976562v-700h-203.15v263.78c-17.6396 -9.37012 -73.6699 -29.2402 -155.54 -29.2402c-136.39 0 -207.54 88.9199 -207.54 220.46v245h202.46v-223.46c0 -45.3896 22.3896 -70.1592 74.0801 -70.1592c45.0703 0 76.4307 12.04 86.541 17.3896
v276.23z" />
    <glyph glyph-name="uni0426" unicode="&#x426;" horiz-adv-x="729" 
d="M517.77 -147.46v147.46h-456.16v700h202.46v-525.39h156.39v525.39h202.15v-525.39h77.9297v-295.15z" />
    <glyph glyph-name="uni0428" unicode="&#x428;" horiz-adv-x="991" 
d="M61.6104 0v700h202.46v-525.39h130.39v525.39h202.46v-525.39h130.08v525.39h202.46v-700h-867.85z" />
    <glyph glyph-name="uni0429" unicode="&#x429;" horiz-adv-x="1036" 
d="M824.61 -147.46v147.46h-763v700h202.46v-525.39h130.39v525.39h202.46v-525.39h130.08v525.39h202.46v-525.39h77.9199v-295.15z" />
    <glyph glyph-name="uni040F" unicode="&#x40f;" horiz-adv-x="694" 
d="M632.61 700v-700h-193.61v-120.54l-183.46 -26.9199v147.46h-193.93v700h202.46v-525.39h166.39v525.39h202.15z" />
    <glyph glyph-name="uni042C" unicode="&#x42c;" horiz-adv-x="654" 
d="M61.6104 700l199.699 -0.000976562v-222h109.07c177.85 0 262.619 -88.8496 262.619 -238.85c0 -150.31 -84.7695 -239.149 -262.619 -239.149h-308.77v700zM261.31 317.689v-157.38h95.9199c51.3096 0 75.7695 29.9199 75.7695 78.8398s-24.46 78.54 -75.7695 78.54
h-95.9199z" />
    <glyph glyph-name="uni042A" unicode="&#x42a;" horiz-adv-x="746" 
d="M462.54 478c177.53 0 262.61 -88.8506 262.61 -238.851c0 -150.31 -85.0801 -239.149 -262.61 -239.149h-308.77v525.38h-135.08v174.62h334.77v-222h109.08zM449.38 160.309c51.3096 0 75.46 29.9199 75.46 78.8398s-24.1504 78.54 -75.46 78.54h-95.9199v-157.38
h95.9199z" />
    <glyph glyph-name="uni042B" unicode="&#x42b;" horiz-adv-x="952" 
d="M61.6104 700l199.699 -0.000976562v-222h109.07c177.85 0 262.619 -88.8496 262.619 -238.85c0 -150.31 -84.7695 -239.149 -262.619 -239.149h-308.77v700zM686.31 -0.000976562v700h203.84v-700h-203.84zM261.31 317.689v-157.38h95.9199
c51.3096 0 75.7695 29.9199 75.7695 78.8398s-24.46 78.54 -75.7695 78.54h-95.9199z" />
    <glyph glyph-name="uni0409" unicode="&#x409;" horiz-adv-x="1001" 
d="M98.0703 -10c-31.46 0 -56.4619 5.38086 -65.9219 9.07129l-26.6104 165.31c8.07031 -2.69043 25.1504 -5.38086 43.6104 -5.38086c45.8496 0 70.7695 28.9199 76.3896 162.15l17.0703 378.85h479.54v-243.23h106.62c170.54 0 252 -84.8496 252 -228.54
c0 -143.39 -81.46 -228.229 -252 -228.229h-308.77l6.91992 533h-110.38l-8.30957 -218.31c-9.38965 -230.23 -69.6895 -324.69 -210.159 -324.69zM622.148 157.541l86.54 0.000976562c48.8496 0 72.0801 27.2998 72.0801 70.6895c0 43.6904 -23.2305 71 -72.0801 71h-86.54
v-141.69z" />
    <glyph glyph-name="uni040A" unicode="&#x40a;" horiz-adv-x="1004" 
d="M61.6104 0v700h202.46v-263.16h159v263.16h202.47v-243.23h106.61c170.23 0 252 -84.8496 252 -228.54c0 -143.39 -81.7695 -228.229 -252 -228.229h-309.08v269.15h-159v-269.15h-202.46zM625.54 157.54l86.5303 0.000976562c48.8496 0 71.7695 27.2998 71.7695 70.6895
c0 43.6904 -22.9199 71 -71.7695 71h-86.5303v-141.69z" />
    <glyph glyph-name="uni0405" unicode="&#x405;" horiz-adv-x="613" 
d="M304 -16.3896c-100.08 0 -198.688 20.6982 -244.848 36.3887l-25.9199 173.61c55.8398 -18.2998 164.46 -43.6094 256.84 -43.6094c67.3096 0 89.7695 21.54 89.7695 55.7705c0 29.2998 -17.2305 44 -70.4609 56.46l-102.23 24.0801
c-120.38 27.7598 -173.46 89.1494 -173.46 210.459c0 138 86.54 219.61 275.31 219.61c103.15 0 191.92 -19.3799 230.31 -33.7695l9.45996 -171.07c-45.3896 17.0703 -137.159 39.8398 -221.85 39.8398c-65.0801 0 -84.2305 -20.2305 -84.2305 -50.6104
c0 -32.3896 18.6904 -46.6992 72.6201 -59.1592l99.6104 -23.0703c117.85 -26.7002 173.54 -84.54 173.54 -209.08c0 -142.92 -86.46 -225.85 -284.46 -225.85z" />
    <glyph glyph-name="uni0404" unicode="&#x404;" horiz-adv-x="593" 
d="M393.46 151.46c71.3096 0 139.31 22.2305 170.079 38.4609l-26.2305 -173c-32 -14.3096 -103.39 -33.3096 -179.47 -33.3096c-218.77 0 -325 122.62 -325 366.39s106.23 366.38 325 366.38c77.4697 0 149.85 -21 182.85 -37l10.7695 -168.77
c-29.0801 17 -92.0801 39.3096 -158 39.3096c-88.2305 0 -136.54 -32.75 -153.81 -115.15h214.19v-163.54h-215.3c16.25 -85.9805 64.7305 -119.771 154.921 -119.771z" />
    <glyph glyph-name="uni042D" unicode="&#x42d;" horiz-adv-x="593" 
d="M234.69 716.38c218.77 0 325.001 -122.61 325.001 -366.38s-106.23 -366.39 -325 -366.39c-76.0801 0 -147.46 19 -179.46 33.3096l-26.2305 173c30.7695 -16.2305 98.7695 -38.4609 170.069 -38.4609c90.1904 0 138.671 33.79 154.921 119.771h-215.3v163.54h214.2
c-17.2803 82.4004 -65.5898 115.15 -153.82 115.15c-65.9199 0 -128.92 -22.3096 -158 -39.3096l10.7695 168.77c33 16 105.39 37 182.85 37z" />
    <glyph glyph-name="uni0406" unicode="&#x406;" horiz-adv-x="327" 
d="M61.6104 0v700h203.85v-700h-203.85z" />
    <glyph glyph-name="uni0407" unicode="&#x407;" horiz-adv-x="327" 
d="M-17.3096 767.23v119.69h146.46v-119.69h-146.46zM193.15 767.23v119.69h146.46v-119.69h-146.46zM61.6104 0.000976562v700h203.85v-700h-203.85z" />
    <glyph glyph-name="uni0408" unicode="&#x408;" horiz-adv-x="525" 
d="M194.23 -15c-67.1602 0 -127.312 13.999 -153.691 24.3086l-28.3096 182.69c27.6104 -13.3896 84.7705 -31.7695 142.54 -31.7695c76.1504 0 113.23 36 113.23 130.54v409.23h202.46v-409.23c0 -200.85 -90.8496 -305.77 -276.229 -305.77z" />
    <glyph glyph-name="uni040B" unicode="&#x40b;" horiz-adv-x="756" 
d="M184.15 0l0.00292969 525.381h-166.15v174.62h547.54v-174.62h-179.23v-135.77c21.8398 13 76.3799 30 143.229 30c130.46 0 198 -89.3799 198 -220.07v-199.54h-202.47v180.07c0 43.8496 -19.1504 67.6992 -62.8408 67.6992
c-34.1602 0 -63.2305 -10.2305 -75.9209 -18.1602v-229.61h-202.16z" />
    <glyph glyph-name="uni042E" unicode="&#x42e;" horiz-adv-x="988" 
d="M654.31 716.38c199.76 0 297.688 -102.688 297.688 -366.379s-97.9297 -366.391 -297.689 -366.391c-177.92 0 -274.81 81.4502 -293.88 285.54h-96.3604v-269.15h-202.46v700h202.46v-263.16h96.9502c20.4004 199.69 117.131 279.54 293.291 279.54zM654.309 154.842
c60.0703 0 90.46 39.9297 90.46 195.16c0 156.23 -30.3896 195.15 -90.46 195.15c-60.0801 0 -90.4697 -38.9199 -90.4697 -195.15c0 -155.23 30.3896 -195.16 90.4697 -195.16z" />
    <glyph glyph-name="uni042F" unicode="&#x42f;" horiz-adv-x="675" 
d="M303.38 700h309.62v-700h-199.69v238h-78.1904l-101.58 -238h-213.31l130.21 267.94c-73.25 36.21 -108.83 104.27 -108.83 198.6c0 148.46 84.7002 233.46 261.771 233.46zM413.31 392.15v147.539h-95.3896c-51.54 0 -76 -24.7695 -76 -74.2295
c0 -48.54 24.46 -73.3096 76 -73.3096h95.3896z" />
    <glyph glyph-name="uni0402" unicode="&#x402;" horiz-adv-x="752" 
d="M473.84 -11.3896l-23.458 148.311c51.6904 0 78.46 20.0801 78.46 62.6904c0 40.1602 -22.5303 58.54 -65.7705 58.54c-37.5303 0 -69.1504 -12.6104 -76.7607 -16.7705v-241.38h-202.16v525.38h-166.15v174.62h547.54v-174.62h-179.23v-135.46
c13.8398 8.30957 68.6094 29.6895 143.689 29.6895c130.92 0 208.15 -82.7695 208.15 -208.92c0 -140.69 -80.8398 -222.08 -264.31 -222.08z" />
    <glyph glyph-name="uni0414.loclBGR" horiz-adv-x="746" 
d="M665.76 174.61h60.6191v-308.61h-182.77v134h-342v-134h-182.77v308.61h59.5996l194.4 525.39h197.93zM370.319 472.36l-91.5508 -297.75h183.9z" />
    <glyph glyph-name="uni041B.loclBGR" horiz-adv-x="680" 
d="M684 0h-216.23l-129.59 448.18l-129.26 -448.18h-212.61l244.69 700h197.92z" />
    <glyph glyph-name="uni0424.loclBGR" horiz-adv-x="881" 
d="M850 350.69c0 -213.91 -97.9902 -324.48 -311.15 -332.32v-63.3701h-195.54v63.3701c-213.19 7.83984 -311.471 118.41 -311.471 332.32s98.2803 324.48 311.471 332.32v61.9902h195.54v-61.9902c213.16 -7.83984 311.15 -118.41 311.15 -332.32zM225.92 350.69
c0 -127.48 46.5996 -181.461 129.31 -186.921v373.15c-82.71 -5.37012 -129.31 -58.46 -129.31 -186.229zM526.92 163.77c82.4199 5.48047 129 59.4512 129 186.911c0 127.75 -46.5801 180.85 -129 186.239v-373.15z" />
    <glyph glyph-name="uni0414.ss02" horiz-adv-x="746" 
d="M665.76 174.61h60.6191v-308.61h-182.77v134h-342v-134h-182.77v308.61h59.5996l194.4 525.39h197.93zM370.319 472.36l-91.5508 -297.75h183.9z" />
    <glyph glyph-name="uni041B.ss02" horiz-adv-x="680" 
d="M684 0h-216.23l-129.59 448.18l-129.26 -448.18h-212.61l244.69 700h197.92z" />
    <glyph glyph-name="uni0424.ss02" horiz-adv-x="881" 
d="M850 350.69c0 -213.91 -97.9902 -324.48 -311.15 -332.32v-63.3701h-195.54v63.3701c-213.19 7.83984 -311.471 118.41 -311.471 332.32s98.2803 324.48 311.471 332.32v61.9902h195.54v-61.9902c213.16 -7.83984 311.15 -118.41 311.15 -332.32zM225.92 350.69
c0 -127.48 46.5996 -181.461 129.31 -186.921v373.15c-82.71 -5.37012 -129.31 -58.46 -129.31 -186.229zM526.92 163.77c82.4199 5.48047 129 59.4512 129 186.911c0 127.75 -46.5801 180.85 -129 186.239v-373.15z" />
    <glyph glyph-name="uni0430" unicode="&#x430;" horiz-adv-x="544" 
d="M182.62 -11.3896c-106.15 0 -161.002 62.3701 -161.002 164.83c0 101.31 63.6904 160.77 187.381 160.77h107.46v9.08008c0 43.0801 -24.3096 59.46 -93.6191 59.46c-60.3799 0 -125.92 -13.0801 -158.46 -23.46l25.54 149c31 7.69043 98.6904 17.6904 171.15 17.6904
c168.08 0 239.54 -74.46 239.54 -204.07v-321.92h-164.15l-20 51.6201c-15.7695 -31.9199 -60.1494 -63 -133.84 -63zM249.309 118.741c44.1504 0 67.1592 15.7686 67.1592 63.459v34.6201h-67.1504c-36.7695 0 -54.6191 -16.46 -54.6191 -49.2295
c0 -33.7695 19.2305 -48.8496 54.6104 -48.8496z" />
    <glyph glyph-name="uni0431" unicode="&#x431;" horiz-adv-x="570" 
d="M347.54 481.92c134.77 0 193.46 -73.3096 193.46 -246.31c0 -170.3 -75.9297 -245.609 -249.85 -245.609c-173.61 0 -249.54 75.3096 -249.54 245.609v188.46c0 174.08 72.7695 244.93 230.46 264.93l218.93 27.3799l9.07031 -153.77l-209.69 -23.6904
c-74.3799 -8.23047 -94.54 -41.3105 -94.54 -114.851v-5.88965c23.0801 26.0703 70.71 63.7402 151.7 63.7402zM291.15 136c45.6904 0 62.3096 26.9199 62.3096 99.6104c0 72.7002 -17.3096 99.6201 -62.3096 99.6201c-45.6904 0 -62 -26.9199 -62 -99.6201
c0 -72.6904 16.3096 -99.6104 62 -99.6104z" />
    <glyph glyph-name="uni0432" unicode="&#x432;" horiz-adv-x="554" 
d="M457.05 270.52c46.9199 -22.6299 69.1797 -63.8896 69.1797 -122.449c0 -98.3799 -58.3096 -148.07 -193.229 -148.07h-284.39v516.92h278.39c129.23 0 184.54 -48.6904 184.54 -142.07c0 -48.5703 -18.8301 -83.3301 -54.4902 -104.33zM227.229 399v-80.9307h65.1504
c30.9199 0 45.3799 13.2305 45.3799 40.3105s-14.46 40.6201 -45.3799 40.6201h-65.1504zM299.079 117.609c35.8496 0 51.3096 12.5312 51.3096 43.6113c0 29.7695 -15.46 43.6191 -51.3096 43.6191h-71.8496v-87.2305h71.8496z" />
    <glyph glyph-name="uni0433" unicode="&#x433;" horiz-adv-x="438" 
d="M48.6104 0v516.92h373.7v-155.61h-184.7v-361.31h-189z" />
    <glyph glyph-name="uni0453" unicode="&#x453;" horiz-adv-x="438" 
d="M225.92 576.92l-119.079 26.9199l94.7695 122.85h199.77zM48.6104 -0v516.92h373.7v-155.61h-184.7v-361.31h-189z" />
    <glyph glyph-name="uni0491" unicode="&#x491;" horiz-adv-x="443" 
d="M283.31 599.31l144.069 19.6904v-257.69h-189.77v-361.31h-189v516.92h234.7v82.3896z" />
    <glyph glyph-name="uni0434" unicode="&#x434;" horiz-adv-x="637" 
d="M13.0703 -124.31l0.000976562 273h46.3896c34.54 27.9199 49.3096 66 56.9199 186.54l11.3096 181.69h419.62v-368.23h64.5303v-273h-159.23v124.31h-280.3v-124.31h-159.24zM237.691 148.69l130.311 -0.000976562v220.23h-80.0801l-1.91992 -37.9199
c-6.69043 -120.08 -23.1602 -156.46 -48.3105 -182.31z" />
    <glyph glyph-name="uni0435" unicode="&#x435;" horiz-adv-x="545" 
d="M306.85 -11.3896c-194.92 0 -279.99 89.1494 -279.99 266.38c0 178.54 85.9199 273.31 252.15 273.31c151.61 0 239.53 -80.1504 239.53 -263.92v-52.8496h-308.92c6.45996 -54.9199 42.3799 -79.6895 122.38 -79.6895c63.0801 0 133.47 15 167.85 27l-25.2305 -147.23
c-34.1504 -10 -102.46 -23 -167.77 -23zM208.939 316.229h148.089c-3.30957 59.8496 -29.1592 84.54 -72.1592 84.54c-43.6201 0 -70.9297 -29.3096 -75.9297 -84.54z" />
    <glyph glyph-name="uni0451" unicode="&#x451;" horiz-adv-x="545" 
d="M100.54 584.15v119.69h146.46v-119.69h-146.46zM311 584.15v119.69h146.46v-119.69h-146.46zM306.85 -11.3896c-194.92 0 -279.99 89.1494 -279.99 266.38c0 178.54 85.9199 273.31 252.15 273.31c151.61 0 239.53 -80.1504 239.53 -263.92v-52.8496h-308.92
c6.45996 -54.9199 42.3799 -79.6895 122.38 -79.6895c63.0801 0 133.47 15 167.85 27l-25.2305 -147.23c-34.1504 -10 -102.46 -23 -167.77 -23zM208.939 316.229h148.089c-3.30957 59.8496 -29.1592 84.54 -72.1592 84.54c-43.6201 0 -70.9297 -29.3096 -75.9297 -84.54z
" />
    <glyph glyph-name="uni0436" unicode="&#x436;" horiz-adv-x="827" 
d="M0 0l144.391 269.46l-128.92 247.46h192.38l84.46 -191.62h31.8496v191.62h179.31v-191.62h31.54l84.46 191.62h192.38l-128.62 -247.46l144.08 -269.46h-201.15l-87.1504 195.62h-35.54v-195.62h-179.31v195.62h-35.8496l-86.8496 -195.62h-201.46z" />
    <glyph glyph-name="uni0437" unicode="&#x437;" horiz-adv-x="497" 
d="M393.91 269.53c51.4502 -22.7305 76.498 -64.9072 76.498 -124.388c0 -101.92 -60.0801 -155.15 -232 -155.15c-92.0801 0 -163.7 14.3096 -191.931 24.6191l-26.2305 144.46c31.6904 -12.6104 99.8408 -28.8408 172.15 -28.8408
c79.6201 0 91.8506 16.0801 91.541 36.6201c0 21.6201 -12.0801 31.6201 -47.9297 31.6201h-117.62v124h110c30.7695 0 43.5391 9.76953 43.5391 30c0 20.9199 -14.3096 35.2998 -76.6191 35.2998c-65.54 0 -127.92 -17.6904 -157.229 -30.6904l9.08008 142.54
c30.0801 12 104.46 27.3096 195.84 27.3096c156.61 0 212.301 -52.2305 212.301 -146c0 -52.9199 -21.2998 -89.8398 -61.3896 -111.399z" />
    <glyph glyph-name="uni0438" unicode="&#x438;" horiz-adv-x="593" 
d="M366 516.92h178.62v-516.92h-178.62v275.4l-138.77 -275.4h-178.62v516.92h178.62v-276.1z" />
    <glyph glyph-name="uni0439" unicode="&#x439;" horiz-adv-x="593" 
d="M298.69 571.92c-120.31 0 -170.619 61.7695 -179.77 141l131.46 22.7695c1.30957 -46.8496 15.54 -75.0801 48.3096 -75.0801c31.0801 0 45.3105 28.2305 46.6201 75.0801l131.46 -22.7695c-9.15039 -79.2305 -59.46 -141 -178.08 -141zM366 516.92h178.62v-516.92
h-178.62v275.4l-138.77 -275.4h-178.62v516.92h178.62v-276.1z" />
    <glyph glyph-name="uni045D" unicode="&#x45d;" horiz-adv-x="593" 
d="M399.69 603.85l-119.079 -26.9199l-175.46 149.77h199.77zM366.001 516.93h178.62v-516.92h-178.62v275.4l-138.77 -275.4h-178.62v516.92h178.62v-276.1z" />
    <glyph glyph-name="uni043A" unicode="&#x43a;" horiz-adv-x="567" 
d="M48.6201 0l0.000976562 516.921h182.08v-188.23h36.9199l88.54 188.23h198.38l-136.15 -248.69l151.62 -268.23h-207.15l-92.54 192.23h-39.6201v-192.23h-182.08z" />
    <glyph glyph-name="uni045C" unicode="&#x45c;" horiz-adv-x="567" 
d="M292.46 576.92l-119.079 26.9199l94.7695 122.85h199.77zM48.6113 -0.00976562l0.000976562 516.921h182.08v-188.23h36.9199l88.54 188.23h198.38l-136.15 -248.69l151.62 -268.23h-207.15l-92.54 192.23h-39.6201v-192.23h-182.08z" />
    <glyph glyph-name="uni043B" unicode="&#x43b;" horiz-adv-x="580" 
d="M109.92 516.92l421.619 0.000976562v-516.92h-179.31v368.92h-79.5195l-5.55957 -134.46c-6.69043 -159.31 -60.2305 -244.46 -178 -244.46c-29.1504 0 -50.6904 5 -58.46 9l-25.2305 144.92c6 -2 19 -4.69043 33.3799 -4.69043c34.54 0 56.7705 23.3799 60.0801 100.77z
" />
    <glyph glyph-name="uni043C" unicode="&#x43c;" horiz-adv-x="690" 
d="M482.62 516.92h158.618v-516.92h-173.85v268.13l-123.26 -173.96l-123.66 171.9v-266.07h-171.85v516.92h157.23l139.11 -192.98z" />
    <glyph glyph-name="uni043D" unicode="&#x43d;" horiz-adv-x="579" 
d="M343.54 516.92h186.92v-516.92h-186.92v189.23h-108v-189.23h-186.92v516.92h186.92v-185.23h108v185.23z" />
    <glyph glyph-name="uni043E" unicode="&#x43e;" horiz-adv-x="560" 
d="M279.77 -11.3896c-176 0 -252.62 83.0801 -252.62 269.85s76.6201 269.85 252.62 269.85s252.61 -83.0801 252.61 -269.85s-76.6104 -269.85 -252.61 -269.85zM279.77 136.69c46.3799 0 62.2998 27.46 62.2998 121.77s-15.9199 121.77 -62.2998 121.77
c-46.3896 0 -62.3096 -27.46 -62.3096 -121.77s15.9199 -121.77 62.3096 -121.77z" />
    <glyph glyph-name="uni043F" unicode="&#x43f;" horiz-adv-x="575" 
d="M48.6104 0v516.92h477.85v-516.92h-186.92v368.23h-104v-368.23h-186.93z" />
    <glyph glyph-name="uni0440" unicode="&#x440;" horiz-adv-x="582" 
d="M371.84 528.31c123.39 0 181 -82.1592 181 -269.85s-57.6104 -269.851 -181 -269.851c-71.2998 0 -114.149 32.9297 -134.229 63v-226.46l-189 -26.9199v718.69h169l20 -51.6104c20.0801 30.0703 62.9297 63 134.229 63zM299.92 136.69
c46.3896 0 62.6201 27.46 62.6201 121.77s-16.2305 121.77 -62.6201 121.77c-46.3799 0 -62.3096 -27.46 -62.3096 -121.77s15.9297 -121.77 62.3096 -121.77z" />
    <glyph glyph-name="uni0441" unicode="&#x441;" horiz-adv-x="470" 
d="M281.92 -11.3896c-174.61 0 -255.081 87.0791 -255.081 267.77c0 183.46 80.4697 271.93 255.39 271.93c63.6904 0 120.311 -15 145.541 -26l9.07031 -148.39c-25.6104 12 -75.8408 27.6904 -121.771 27.6904c-68.1504 0 -97.9199 -34.6904 -97.9199 -125.23
c0 -85 31.1602 -118.31 103.16 -118.31c49.1504 0 103.301 15.2402 129.841 27.1602l-25.54 -150.62c-24.54 -11 -80.0703 -26 -142.69 -26z" />
    <glyph glyph-name="uni0442" unicode="&#x442;" horiz-adv-x="486" 
d="M470.31 516.92v-155.61h-132.54v-361.31h-189.7v361.31h-132.84v155.61h455.08z" />
    <glyph glyph-name="uni0443" unicode="&#x443;" horiz-adv-x="541" 
d="M160.23 -200c-46.3096 0 -80.4805 10.0098 -92.8604 17.7002l-26.9199 147.46c15.0801 -6 44.1602 -14 70.4697 -14c30.3896 0 56.4697 9.15039 71.4697 39l5.08008 12.9199l-191.85 513.85h199.69l84.9199 -301.54l66.46 301.54h194.69l-183 -552.46
c-40.2305 -121.62 -107.771 -164.47 -198.15 -164.47z" />
    <glyph glyph-name="uni045E" unicode="&#x45e;" horiz-adv-x="541" 
d="M274.77 571.92c-120.31 0 -170.619 61.7695 -179.77 141l131.46 22.7695c1.30957 -46.8496 15.54 -75.0801 48.3096 -75.0801c31.0801 0 45.3105 28.2305 46.6201 75.0801l131.46 -22.7695c-9.15039 -79.2305 -59.46 -141 -178.08 -141zM160.229 -200
c-46.3096 0 -80.4805 10.0098 -92.8604 17.7002l-26.9199 147.46c15.0801 -6 44.1602 -14 70.4697 -14c30.3896 0 56.4697 9.15039 71.4697 39l5.08008 12.9199l-191.85 513.85h199.69l84.9199 -301.54l66.46 301.54h194.69l-183 -552.46
c-40.2305 -121.62 -107.771 -164.47 -198.15 -164.47z" />
    <glyph glyph-name="uni0444" unicode="&#x444;" horiz-adv-x="786" 
d="M484.54 524.15c186.92 0 274.92 -81.6895 274.92 -267.77c0 -184.69 -88 -266.381 -274.92 -266.381v-180h-182.77v180c-186.23 0 -275.23 81.6904 -275.23 266.381c0 186.08 89 267.771 275.23 267.771v160.31l182.77 26.9199v-187.23zM207.15 256.382
c0 -87.4805 27.9297 -120.629 103.08 -121.069v243.53c-75.1504 -0.44043 -103.08 -33.6006 -103.08 -122.461zM476.07 135.313c75.1504 0.44043 102.771 33.5889 102.771 121.069c0 88.8604 -27.6201 122.011 -102.771 122.461v-243.53z" />
    <glyph glyph-name="uni0445" unicode="&#x445;" horiz-adv-x="549" 
d="M555.23 0h-206.63l-75.9199 152.92l-77.6201 -152.92h-200.92l166.85 268.92l-153.46 248h203.85l65.6201 -131.77l66.6904 131.77h197.85l-152.85 -247.46z" />
    <glyph glyph-name="uni0447" unicode="&#x447;" horiz-adv-x="556" 
d="M318 516.92l189 -0.00878906v-516.92h-189v180s-37 -24.6904 -121.69 -24.6904c-111.31 0 -168.619 69.6201 -168.619 170.54v191.08h189v-163.23c0 -29.9297 14.2305 -46.54 47.1504 -46.54c35.8496 0 54.1592 15.8496 54.1592 15.8496v193.92z" />
    <glyph glyph-name="uni0446" unicode="&#x446;" horiz-adv-x="607" 
d="M422.77 -137.77l0.000976562 137.771h-374.15v516.92h186.92v-368.23h95v368.23h186.92v-368.23h64.54v-259.23z" />
    <glyph glyph-name="uni0448" unicode="&#x448;" horiz-adv-x="809" 
d="M48.6201 0l-0.00976562 516.92h182.08v-368.23h83v368.23h182.08v-368.23h83v368.23h182.08v-516.92h-712.23z" />
    <glyph glyph-name="uni0449" unicode="&#x449;" horiz-adv-x="850" 
d="M666.15 -137.46l-0.00976562 137.461h-617.54v516.92h182.08v-368.23h83v368.23h182.08v-368.23h83v368.23h182.08v-368.23h64.54v-259.23z" />
    <glyph glyph-name="uni045F" unicode="&#x45f;" horiz-adv-x="575" 
d="M526.46 516.92l0.00976562 -516.92h-159.62v-110.85l-158.92 -26.9199v137.77h-159.31v516.92h186.92v-368.23h104v368.23h186.92z" />
    <glyph glyph-name="uni044C" unicode="&#x44c;" horiz-adv-x="545" 
d="M48.6201 0l-0.000976562 516.911h182.08v-137.46h90.2305c140.85 0 208.619 -70.1504 208.619 -189.381c0 -119.92 -67.7695 -190.07 -208.619 -190.07h-272.31zM230.699 137.761l69.9102 -0.000976562c34.3896 0 50.3896 20.0801 50.3896 52.3105
c0 32.54 -16 53 -50.3799 53h-69.9199v-105.31z" />
    <glyph glyph-name="uni044A" unicode="&#x44a;" horiz-adv-x="623" 
d="M399.23 379.46c140.84 0 208.608 -70.1494 208.608 -189.39c0 -119.92 -67.7695 -190.07 -208.609 -190.07h-272.31v361.31h-111.38v155.61h293.46v-137.46h90.2305zM378.92 137.771c34.3896 0 50.3896 20.0693 50.3896 52.2998c0 32.54 -16 53 -50.3896 53h-69.9199
v-105.3h69.9199z" />
    <glyph glyph-name="uni044B" unicode="&#x44b;" horiz-adv-x="807" 
d="M48.6201 0l-0.000976562 516.911h182.08v-137.46h90.2305c140.85 0 208.619 -70.1504 208.619 -189.381c0 -119.92 -67.7695 -190.07 -208.619 -190.07h-272.31zM569.079 -0.00878906v516.92h189v-516.92h-189zM230.689 137.761l69.9102 -0.000976562
c34.3896 0 50.3896 20.0801 50.3896 52.3105c0 32.54 -16 53 -50.3799 53h-69.9199v-105.31z" />
    <glyph glyph-name="uni0459" unicode="&#x459;" horiz-adv-x="840" 
d="M91.54 -10c-39.54 0 -58.4688 9.00098 -58.4688 9.00098l-25.2305 144.92s13.3096 -4.69043 33.3896 -4.69043c30.6104 0 49.54 23.7695 52.8398 100.77l11 276.92h428.62v-160.23h91.3799c134.77 0 199.619 -65.8496 199.619 -178.46
c0 -112.39 -64.8496 -178.229 -199.619 -178.229h-278.3v368.92h-78.8496l-5.61035 -134.46c-6.7002 -159.62 -57.9307 -244.46 -170.771 -244.46zM533.691 138.381h71.0801c28.6104 0 41.3799 16.3896 41.3799 39.8496c0 25.6104 -12.7695 41.1504 -41.3799 41.1504
h-71.0801v-81z" />
    <glyph glyph-name="uni045A" unicode="&#x45a;" horiz-adv-x="829" 
d="M48.6201 0v516.939h186.92v-185.23h100.15v185.23h186.92v-160.23h91.0801c135.08 0 199.62 -65.8496 199.62 -178.47c0 -112.39 -64.54 -178.239 -199.62 -178.239h-278v189.23h-100.15v-189.23h-186.92zM522.62 138.399l70.7793 0.00976562
c28.6104 0 41.6904 16.3799 41.6904 39.8398c0 25.6104 -13.0801 41.1504 -41.7002 41.1504h-70.7695v-81z" />
    <glyph glyph-name="uni0455" unicode="&#x455;" horiz-adv-x="496" 
d="M234.23 -10c-73.8496 0 -147.39 16.3789 -182.159 29.0693l-24.1504 147.54c38.1504 -17.0703 121.54 -40.2305 207.39 -40.2305c43 0 57.9199 11.3096 57.9199 28.2295c0 16.2305 -7.23047 24.0801 -43.6904 30.6201l-76.1602 15.3096
c-102.77 20.6904 -141.46 68.46 -141.46 162.46c0 104.23 70.7695 163.921 224 163.921c77.7695 0 148.46 -16.46 180.62 -28.9199l8.37988 -139.31c-32.3096 14.46 -102.85 33.6201 -177.77 33.6201c-41.54 0 -55.7705 -9.38965 -55.7705 -25.3096
c0 -16.3096 8.54004 -24.1592 46.3896 -31.3896l74.2305 -14.2998c99.54 -19.6201 140.31 -68.1602 140.31 -165.08c0 -107.54 -66.3096 -166.23 -238.079 -166.23z" />
    <glyph glyph-name="uni0454" unicode="&#x454;" horiz-adv-x="490" 
d="M327.39 130.54c59.9199 0 121.062 18.8418 141.142 25.7617l-26.2305 -141.69c-19.3896 -6.91992 -77.1592 -24.6104 -150.85 -24.6104c-181.08 0 -264.62 86.3896 -264.62 266.39c0 182.77 83.54 270.539 264.62 270.539c72.3096 0 132.31 -18.3799 152.39 -26.6895
l8.76953 -140.85c-18 8.30957 -72.2305 28.0791 -125.23 28.0791c-59.9199 0 -95.4199 -18.7998 -110.53 -65h160.46v-124h-162.15c14.0498 -48.2197 49.9502 -67.9297 112.23 -67.9297z" />
    <glyph glyph-name="uni044D" unicode="&#x44d;" horiz-adv-x="490" 
d="M198.69 526.92c181.08 0 264.611 -87.7617 264.611 -270.531c0 -180 -83.54 -266.39 -264.62 -266.39c-73.6904 0 -131.46 17.6904 -150.85 24.6104l-26.2305 141.69c20.0801 -6.91992 81.2305 -25.7695 141.15 -25.7695c62.2803 0 98.1807 19.71 112.23 67.9297h-162.15
v124h160.46c-15.1104 46.2002 -50.6104 65 -110.53 65c-53 0 -107.23 -19.7695 -125.23 -28.0791l8.76953 140.85c20.0801 8.30957 80.0801 26.6895 152.39 26.6895z" />
    <glyph glyph-name="uni0456" unicode="&#x456;" horiz-adv-x="286" 
d="M48.6201 580v119.69h189v-119.69h-189zM48.6201 0v516.92h189v-516.92h-189z" />
    <glyph glyph-name="uni0457" unicode="&#x457;" horiz-adv-x="286" 
d="M-25.3896 584.15v119.69h140.08v-119.69h-140.08zM171.92 584.15v119.69h140.39v-119.69h-140.39zM48.6104 0.000976562v516.92h189v-516.92h-189z" />
    <glyph glyph-name="uni0458" unicode="&#x458;" horiz-adv-x="294" 
d="M56.6201 580v119.69h189v-119.69h-189zM40.0801 -201.39c-36.54 0 -74.4697 11.7686 -92.2393 19.459l-26.2305 147.15c13.6201 -6.91992 41.8506 -15.46 66.7002 -15.46c44.46 0 68.3096 20.3799 68.3096 83v484.15h189v-484.15
c0 -163.38 -78.3096 -234.149 -205.54 -234.149z" />
    <glyph glyph-name="uni045B" unicode="&#x45b;" horiz-adv-x="584" 
d="M381.07 511.07c105.77 0 158.159 -69.7598 158.159 -167v-344.07h-189v293.31c0 45.46 -13.9199 69.7598 -55.2295 69.7598c-41.7695 0 -57.3896 -24.2998 -57.3896 -69.7598v-293.31h-189v550.23h-73.2305v79.3799h73.2305v56.9297l189 26.9199v-83.8496h159.23
v-79.3799h-159.23v-101.97c35.4805 38.7197 78.1904 62.8096 143.46 62.8096z" />
    <glyph glyph-name="uni044E" unicode="&#x44e;" horiz-adv-x="813" 
d="M537.23 526.92c173.31 0 248.61 -82.3789 248.61 -268.459s-75.2998 -268.46 -248.609 -268.46c-150.56 0 -227.13 62.3896 -244.46 201.229h-60v-191.23h-184.16v516.92h184.16v-187.23h60.5195c18.2998 136.03 94.8398 197.23 243.939 197.23zM537.231 138.071
c45.7695 0 61.0791 27.4697 61.0791 120.39s-15.3096 120.38 -61.0791 120.38s-60.7695 -27.46 -60.7695 -120.38s15 -120.39 60.7695 -120.39z" />
    <glyph glyph-name="uni044F" unicode="&#x44f;" horiz-adv-x="557" 
d="M244.92 516.92l263.08 0.000976562v-516.92h-175.15v158.85h-52.5703l-73.9697 -158.85h-189.15l98.1104 186.02c-53.7002 29.0898 -80.04 80.7197 -80.04 150.899c0 115.08 68.46 180 209.69 180zM332.85 284.611v94.9199h-68.54
c-35.0801 0 -51.4697 -16.6104 -51.4697 -47.46c0 -30.1504 16.3896 -47.46 51.4697 -47.46h68.54z" />
    <glyph glyph-name="uni0452" unicode="&#x452;" horiz-adv-x="584" 
d="M381.07 496.92c105.77 0 158.159 -69.7686 158.159 -166.999v-329.92c0 -139.69 -66.46 -200 -175.08 -200c-31.46 0 -63.6104 9.37988 -78.6904 16.7695l-22.1504 131.92c8.53027 -5.23047 26.6104 -12.0801 42.6904 -12.0801c28.54 0 44.2305 15.3096 44.2305 63.3896
v279.15c0 45.46 -13.9199 69.7695 -55.2295 69.7695c-41.7695 0 -57.3896 -24.3096 -57.3896 -69.7695v-279.15h-189v533.31h-80v93.2305h80v60l189 26.9199v-86.9199h166.16v-93.2305h-166.16v-99.21c35.4805 38.7305 78.1904 62.8203 143.46 62.8203z" />
    <glyph glyph-name="uni0432.loclBGR" horiz-adv-x="568" 
d="M450.06 365.09c68.2002 -29.8604 89.9404 -92.5908 89.9404 -165.641c0 -136.46 -86.6904 -212.92 -249.841 -212.92c-170.69 0 -248.23 77.3896 -248.23 246.93v241.15c0 160.31 81.3799 238.85 247.61 238.85c159.92 0 236.07 -75.9199 236.07 -193.77
c0 -67.3496 -15.75 -124.689 -75.5498 -154.6zM283.85 574.369c-43.6201 0 -59.1494 -24.0801 -59.1494 -83.1602v-70.46h53.9199c46.3896 0 64.3096 25.0801 64.3096 76.9297c0 52.2305 -19.54 76.6904 -59.0801 76.6904zM288.78 129.06
c44.0801 0 64.3887 22.9199 64.3887 86.2295c0 60.54 -20.3096 80.6201 -69.6191 80.6201h-58.8496v-76.3096c0 -63.2305 18.6201 -90.54 64.0801 -90.54z" />
    <glyph glyph-name="uni0433.loclBGR" horiz-adv-x="495" 
d="M239.54 -10c-157.31 0 -215.931 59.7715 -215.931 156.231c0 88.6104 37.3096 133.69 141.54 164.46l74 22.0801c32.2305 8.91992 40.3906 17.7695 40.3906 31.7695c0 13.6104 -10.3896 21.6104 -40.1592 21.9199c-70.2305 0 -150 -22.8496 -190.69 -40l8.37988 146.46
c36.9297 14.46 117.08 34 203.54 34c142.62 0 202.771 -59.1504 202.771 -153.92c0 -87.1602 -34.3096 -128.391 -139.92 -161.001l-76.2305 -23.46c-28.3896 -9.16016 -40.1592 -17.54 -40.1592 -33.1602c0 -15.54 9.76953 -22.8398 40.5391 -22.8398
c88.2305 0 176.62 27.3799 218.93 48.0703l-25.1602 -154.61c-36.9199 -15 -116.92 -36 -201.84 -36z" />
    <glyph glyph-name="uni0434.loclBGR" horiz-adv-x="583" 
d="M255.54 -201.38c-67.9199 0 -131.85 14.6826 -161.31 26.0625l-25.2305 149.54c31 -13.6904 93.3799 -32.3809 153.689 -32.3809c81.54 0 121.771 26.9199 122.381 119.689v10.8496c-20.6904 -29.6904 -63.2305 -58.54 -134.54 -58.54
c-123.08 0 -181 76.3896 -181 255.699c0 180.77 57.9199 258.77 181 258.77c71.6201 0 114.16 -32.9199 134.55 -63l19.6904 51.6201h169.31v-452.92c0 -184.08 -102 -265.39 -278.54 -265.39zM282.45 154.992c46.3799 0 62.6104 25.1504 62.6104 111.07
c0 88.0801 -16.2305 114.16 -62.6104 114.16c-46.3896 0 -62.6201 -26.0801 -62.6201 -114.16c0 -85.9199 16.2305 -111.07 62.6201 -111.07z" />
    <glyph glyph-name="uni0436.loclBGR" horiz-adv-x="827" 
d="M0 0l144.381 269.47l-128.92 247.46h192.38l84.46 -191.62h31.54v359.15l179.31 26.9199v-386.08h31.54l84.46 191.62h192.39l-128.62 -247.46l144.08 -269.46h-201.15l-87.1504 195.62h-35.54v-195.62h-179.31v195.62h-35.54l-86.8496 -195.62h-201.46z" />
    <glyph glyph-name="uni0437.loclBGR" horiz-adv-x="487" 
d="M369.02 178.78c70.1299 -31 93.0615 -89.6006 93.0615 -166.771c0 -143.31 -88 -212 -267.31 -212c-68.54 0 -129.08 15.2305 -155.23 26.1504l-25.54 150.61c29.54 -11.8496 89.6904 -28 145.46 -28c75.6904 0 113 20 113 78.46
c0 54.9199 -28.6201 73.2295 -93.1602 73.2295h-93.6904v142.69h89.3896c62.3799 0 87.2295 21.0801 87.2295 69.2305c0 46.3096 -25.3799 66.46 -90.2998 66.46c-57.0801 0 -114.62 -16.9199 -142.16 -29.2295l9.08008 148.39
c26.7695 12.3096 90.6191 28.9199 169.699 28.9199c160.54 0 239.15 -65.3799 239.15 -198.99c0 -71.5098 -25.5996 -120.99 -78.6797 -149.15z" />
    <glyph glyph-name="uni0438.loclBGR" horiz-adv-x="584" 
d="M203.15 -11.3896c-105.77 0 -158.148 70.459 -158.148 168.689v359.62h189v-310.54c0 -45.46 13.9199 -69.7695 55.2295 -69.7695c41.7695 0 57.3799 24.3096 57.3799 69.7695v310.54h189v-516.92h-169l-20 52.54c-35.2305 -39.3096 -78.3105 -63.9297 -143.461 -63.9297
z" />
    <glyph glyph-name="uni0439.loclBGR" horiz-adv-x="584" 
d="M291.31 571.92c-120.31 0 -170.619 61.7695 -179.77 141l131.46 22.7695c1.30957 -46.8496 15.54 -75.0801 48.3096 -75.0801c31.0801 0 45.3105 28.2305 46.6201 75.0801l131.46 -22.7695c-9.15039 -79.2305 -59.46 -141 -178.08 -141zM203.159 -11.3896
c-105.77 0 -158.148 70.459 -158.148 168.689v359.62h189v-310.54c0 -45.46 13.9199 -69.7695 55.2295 -69.7695c41.7695 0 57.3799 24.3096 57.3799 69.7695v310.54h189v-516.92h-169l-20 52.54c-35.2305 -39.3096 -78.3105 -63.9297 -143.461 -63.9297z" />
    <glyph glyph-name="uni045D.loclBGR" horiz-adv-x="584" 
d="M273.23 576.92l-175.459 149.77h199.77l94.7695 -122.85zM203.151 -11.3906c-105.77 0 -158.148 70.459 -158.148 168.689v359.62h189v-310.54c0 -45.46 13.9199 -69.7695 55.2295 -69.7695c41.7695 0 57.3799 24.3096 57.3799 69.7695v310.54h189v-516.92h-169
l-20 52.54c-35.2305 -39.3096 -78.3105 -63.9297 -143.461 -63.9297z" />
    <glyph glyph-name="uni043A.loclBGR" horiz-adv-x="567" 
d="M362.85 0l-92.5391 195.23h-39.6201v-195.23h-182.08v684.46l182.08 26.9199v-379.69h36.9199l88.54 185.23h198.38l-136.15 -245l151.62 -271.92h-207.15z" />
    <glyph glyph-name="uni043B.loclBGR" horiz-adv-x="557" 
d="M561.46 0h-199.38l-84.9404 332.58l-85.8203 -332.58h-195.39l192.23 516.92h182.38z" />
    <glyph glyph-name="uni043F.loclBGR" horiz-adv-x="584" 
d="M48.6201 0l-0.000976562 516.921h169l20 -52.54c35.2305 39.3096 78.3105 63.9297 143.461 63.9297c105.77 0 158.159 -70.46 158.159 -168.69v-359.62h-189v310.54c0 45.46 -13.9199 69.7695 -55.2295 69.7695c-41.7695 0 -57.3896 -24.3096 -57.3896 -69.7695v-310.54
h-189z" />
    <glyph glyph-name="uni0442.loclBGR" horiz-adv-x="875" 
d="M670.38 528.31c106.69 0 159.39 -69.8496 159.39 -167.47v-360.84h-189v311.77c0 44.54 -13.6201 68.54 -52.3105 68.54c-39.8496 0 -54.7695 -24 -54.7695 -68.54v-311.77h-189v311.77c0 44.54 -13.3096 68.54 -52.3096 68.54c-39.46 0 -54.7695 -24 -54.7695 -68.54
v-311.77h-189v516.92h169l20 -52.54c34.2305 39.3096 75.6201 63.9297 139.46 63.9297c66 0 110.85 -27.7002 134.39 -73.3105c41 47.2305 89 73.3105 158.92 73.3105z" />
    <glyph glyph-name="uni0446.loclBGR" horiz-adv-x="626" 
d="M566.08 155.62l34.7021 0.00878906v-266.15l-159.23 -26.9199v137.46c-40.3398 1.03027 -73.04 19.0703 -87 52.4102c-35.3604 -38.5703 -75.8008 -62.4199 -150.771 -62.4199c-106.08 0 -158.771 69.1504 -158.771 172.69v354.23h189v-310.39
c0 -44.54 13.9199 -68.54 55.8398 -68.54c41.46 0 57.3799 24 57.3799 68.54v310.39h189v-329.77c0 -21.46 9.08008 -31.54 29.8496 -31.54z" />
    <glyph glyph-name="uni0448.loclBGR" horiz-adv-x="875" 
d="M204.38 -11.3896c-106.69 0 -159.39 69.8594 -159.39 167.47v360.85h189v-311.77c0 -44.54 13.6201 -68.54 52.3105 -68.54c39.8496 0 54.7695 24 54.7695 68.54v311.77h189v-311.77c0 -44.54 13.3096 -68.54 52.3096 -68.54c39.46 0 54.7695 24 54.7695 68.54v311.77
h189v-516.92h-169l-20 52.54c-34.2305 -39.3096 -75.6104 -63.9297 -139.46 -63.9297c-66 0 -110.85 27.6904 -134.39 73.3008c-41 -47.2305 -89 -73.3105 -158.92 -73.3105z" />
    <glyph glyph-name="uni0449.loclBGR" horiz-adv-x="921" 
d="M861.23 155.62l34.3691 0.00976562v-266.15l-159.23 -26.9199v137.46c-40.96 1.0498 -74.0498 19.6299 -87.6396 53.96c-34.21 -39.6797 -75.3896 -63.96 -147.359 -63.96c-66.2002 0 -111.44 27.6904 -135.221 72.4805
c-41.0801 -46.5898 -89.5996 -72.4902 -160.54 -72.4902c-107.31 0 -160.619 69.7695 -160.619 167v359.92h189v-309.15c0 -45.46 13.6201 -69.7695 53.54 -69.7695c40.7695 0 56 24.3096 56 69.7695v309.15h189v-309.15c0 -45.46 13.6201 -69.7695 53.54 -69.7695
c40.3799 0 56 24.3096 56 69.7695v309.15h189v-329.77c0 -21.46 9.08008 -31.54 30.1602 -31.54z" />
    <glyph glyph-name="uni044E.loclBGR" horiz-adv-x="813" 
d="M537.23 526.92c173.31 0 248.61 -82.3789 248.61 -268.459s-75.2998 -268.46 -248.609 -268.46c-150.56 0 -227.13 62.3896 -244.46 201.229h-60v-191.23h-184.16v684.46l184.16 26.9199v-381.69h60.5195c18.2998 136.03 94.8398 197.23 243.939 197.23zM537.231 138.071
c45.7695 0 61.0791 27.4697 61.0791 120.39s-15.3096 120.38 -61.0791 120.38s-60.7695 -27.46 -60.7695 -120.38s15 -120.39 60.7695 -120.39z" />
    <glyph glyph-name="uni0430.ss01" horiz-adv-x="583" 
d="M364.77 516.92h169.301v-516.92h-169.3l-19.5498 52.1504l-0.150391 -0.540039c-20.3799 -29.3799 -62.9199 -61.6104 -134.53 -61.6104c-123.08 0 -181 81.46 -181 268.46s57.9199 268.46 181 268.46c71.6104 0 114.15 -32.2305 134.53 -61.6104l0.139648 -0.55957z
M282.46 138.07c46.3799 0 62.6104 27.4697 62.6104 120.39s-16.2305 120.38 -62.6104 120.38c-46.3896 0 -62.6201 -27.46 -62.6201 -120.38s16.2305 -120.39 62.6201 -120.39z" />
    <glyph glyph-name="uni0443.ss01" horiz-adv-x="584" 
d="M346.61 516.92l189.002 -0.00195312v-452.92c0 -183.39 -100.61 -264 -275.07 -264c-66.54 0 -129.08 14 -157.85 24.6904l-25.2305 149.54c30.3096 -13 91.3096 -31 150.229 -31c80.0801 0 118.92 27.54 118.92 120.771v13.2305
c-40.6299 -42.1699 -82.4102 -63.3896 -143.771 -63.3896c-105.46 0 -157.84 69.7695 -157.84 167v336.08h189v-285.31c0 -45.7695 13.6104 -69.7695 54.9199 -69.7695c41.7695 0 57.6895 24 57.6895 69.7695v285.31z" />
    <glyph glyph-name="uni045E.ss01" horiz-adv-x="584" 
d="M291 571.92c-120.31 0 -170.619 61.7695 -179.77 141l131.46 22.7695c1.30957 -46.8496 15.54 -75.0801 48.3096 -75.0801c31.0703 0 45.3105 28.2305 46.6104 75.0801l131.46 -22.7695c-9.15039 -79.2305 -59.46 -141 -178.07 -141zM346.61 516.92l189.002 -0.00195312
v-452.92c0 -183.39 -100.61 -264 -275.07 -264c-66.54 0 -129.08 14 -157.85 24.6904l-25.2305 149.54c30.3096 -13 91.3096 -31 150.229 -31c80.0801 0 118.92 27.54 118.92 120.771v13.2305c-40.6299 -42.1699 -82.4102 -63.3896 -143.771 -63.3896
c-105.46 0 -157.84 69.7695 -157.84 167v336.08h189v-285.31c0 -45.7695 13.6104 -69.7695 54.9199 -69.7695c41.7695 0 57.6895 24 57.6895 69.7695v285.31z" />
    <glyph glyph-name="uni0432.ss02" horiz-adv-x="568" 
d="M450.06 365.09c68.2002 -29.8604 89.9404 -92.5908 89.9404 -165.641c0 -136.46 -86.6904 -212.92 -249.841 -212.92c-170.69 0 -248.23 77.3896 -248.23 246.93v241.15c0 160.31 81.3799 238.85 247.61 238.85c159.92 0 236.07 -75.9199 236.07 -193.77
c0 -67.3496 -15.75 -124.689 -75.5498 -154.6zM283.85 574.369c-43.6201 0 -59.1494 -24.0801 -59.1494 -83.1602v-70.46h53.9199c46.3896 0 64.3096 25.0801 64.3096 76.9297c0 52.2305 -19.54 76.6904 -59.0801 76.6904zM288.78 129.06
c44.0801 0 64.3887 22.9199 64.3887 86.2295c0 60.54 -20.3096 80.6201 -69.6191 80.6201h-58.8496v-76.3096c0 -63.2305 18.6201 -90.54 64.0801 -90.54z" />
    <glyph glyph-name="uni0433.ss02" horiz-adv-x="495" 
d="M239.54 -10c-157.31 0 -215.931 59.7715 -215.931 156.231c0 88.6104 37.3096 133.69 141.54 164.46l74 22.0801c32.2305 8.91992 40.3906 17.7695 40.3906 31.7695c0 13.6104 -10.3896 21.6104 -40.1592 21.9199c-70.2305 0 -150 -22.8496 -190.69 -40l8.37988 146.46
c36.9297 14.46 117.08 34 203.54 34c142.62 0 202.771 -59.1504 202.771 -153.92c0 -87.1602 -34.3096 -128.391 -139.92 -161.001l-76.2305 -23.46c-28.3896 -9.16016 -40.1592 -17.54 -40.1592 -33.1602c0 -15.54 9.76953 -22.8398 40.5391 -22.8398
c88.2305 0 176.62 27.3799 218.93 48.0703l-25.1602 -154.61c-36.9199 -15 -116.92 -36 -201.84 -36z" />
    <glyph glyph-name="uni0434.ss02" horiz-adv-x="583" 
d="M255.54 -201.38c-67.9199 0 -131.85 14.6826 -161.31 26.0625l-25.2305 149.54c31 -13.6904 93.3799 -32.3809 153.689 -32.3809c81.54 0 121.771 26.9199 122.381 119.689v10.8496c-20.6904 -29.6904 -63.2305 -58.54 -134.54 -58.54
c-123.08 0 -181 76.3896 -181 255.699c0 180.77 57.9199 258.77 181 258.77c71.6201 0 114.16 -32.9199 134.55 -63l19.6904 51.6201h169.31v-452.92c0 -184.08 -102 -265.39 -278.54 -265.39zM282.45 154.992c46.3799 0 62.6104 25.1504 62.6104 111.07
c0 88.0801 -16.2305 114.16 -62.6104 114.16c-46.3896 0 -62.6201 -26.0801 -62.6201 -114.16c0 -85.9199 16.2305 -111.07 62.6201 -111.07z" />
    <glyph glyph-name="uni0436.ss02" horiz-adv-x="827" 
d="M0 0l144.381 269.47l-128.92 247.46h192.38l84.46 -191.62h31.54v359.15l179.31 26.9199v-386.08h31.54l84.46 191.62h192.39l-128.62 -247.46l144.08 -269.46h-201.15l-87.1504 195.62h-35.54v-195.62h-179.31v195.62h-35.54l-86.8496 -195.62h-201.46z" />
    <glyph glyph-name="uni0437.ss02" horiz-adv-x="487" 
d="M369.02 178.78c70.1299 -31 93.0615 -89.6006 93.0615 -166.771c0 -143.31 -88 -212 -267.31 -212c-68.54 0 -129.08 15.2305 -155.23 26.1504l-25.54 150.61c29.54 -11.8496 89.6904 -28 145.46 -28c75.6904 0 113 20 113 78.46
c0 54.9199 -28.6201 73.2295 -93.1602 73.2295h-93.6904v142.69h89.3896c62.3799 0 87.2295 21.0801 87.2295 69.2305c0 46.3096 -25.3799 66.46 -90.2998 66.46c-57.0801 0 -114.62 -16.9199 -142.16 -29.2295l9.08008 148.39
c26.7695 12.3096 90.6191 28.9199 169.699 28.9199c160.54 0 239.15 -65.3799 239.15 -198.99c0 -71.5098 -25.5996 -120.99 -78.6797 -149.15z" />
    <glyph glyph-name="uni0438.ss02" horiz-adv-x="584" 
d="M203.15 -11.3896c-105.77 0 -158.148 70.459 -158.148 168.689v359.62h189v-310.54c0 -45.46 13.9199 -69.7695 55.2295 -69.7695c41.7695 0 57.3799 24.3096 57.3799 69.7695v310.54h189v-516.92h-169l-20 52.54c-35.2305 -39.3096 -78.3105 -63.9297 -143.461 -63.9297
z" />
    <glyph glyph-name="uni0439.ss02" horiz-adv-x="584" 
d="M291.31 571.92c-120.31 0 -170.619 61.7695 -179.77 141l131.46 22.7695c1.30957 -46.8496 15.54 -75.0801 48.3096 -75.0801c31.0801 0 45.3105 28.2305 46.6201 75.0801l131.46 -22.7695c-9.15039 -79.2305 -59.46 -141 -178.08 -141zM203.159 -11.3896
c-105.77 0 -158.148 70.459 -158.148 168.689v359.62h189v-310.54c0 -45.46 13.9199 -69.7695 55.2295 -69.7695c41.7695 0 57.3799 24.3096 57.3799 69.7695v310.54h189v-516.92h-169l-20 52.54c-35.2305 -39.3096 -78.3105 -63.9297 -143.461 -63.9297z" />
    <glyph glyph-name="uni045D.ss02" horiz-adv-x="584" 
d="M273.23 576.92l-175.459 149.77h199.77l94.7695 -122.85zM203.151 -11.3906c-105.77 0 -158.148 70.459 -158.148 168.689v359.62h189v-310.54c0 -45.46 13.9199 -69.7695 55.2295 -69.7695c41.7695 0 57.3799 24.3096 57.3799 69.7695v310.54h189v-516.92h-169
l-20 52.54c-35.2305 -39.3096 -78.3105 -63.9297 -143.461 -63.9297z" />
    <glyph glyph-name="uni043A.ss02" horiz-adv-x="567" 
d="M362.85 0l-92.5391 195.23h-39.6201v-195.23h-182.08v684.46l182.08 26.9199v-379.69h36.9199l88.54 185.23h198.38l-136.15 -245l151.62 -271.92h-207.15z" />
    <glyph glyph-name="uni043B.ss02" horiz-adv-x="557" 
d="M561.46 0h-199.38l-84.9404 332.58l-85.8203 -332.58h-195.39l192.23 516.92h182.38z" />
    <glyph glyph-name="uni043F.ss02" horiz-adv-x="584" 
d="M48.6201 0l-0.000976562 516.921h169l20 -52.54c35.2305 39.3096 78.3105 63.9297 143.461 63.9297c105.77 0 158.159 -70.46 158.159 -168.69v-359.62h-189v310.54c0 45.46 -13.9199 69.7695 -55.2295 69.7695c-41.7695 0 -57.3896 -24.3096 -57.3896 -69.7695v-310.54
h-189z" />
    <glyph glyph-name="uni0442.ss02" horiz-adv-x="875" 
d="M670.38 528.31c106.69 0 159.39 -69.8496 159.39 -167.47v-360.84h-189v311.77c0 44.54 -13.6201 68.54 -52.3105 68.54c-39.8496 0 -54.7695 -24 -54.7695 -68.54v-311.77h-189v311.77c0 44.54 -13.3096 68.54 -52.3096 68.54c-39.46 0 -54.7695 -24 -54.7695 -68.54
v-311.77h-189v516.92h169l20 -52.54c34.2305 39.3096 75.6201 63.9297 139.46 63.9297c66 0 110.85 -27.7002 134.39 -73.3105c41 47.2305 89 73.3105 158.92 73.3105z" />
    <glyph glyph-name="uni0446.ss02" horiz-adv-x="626" 
d="M566.08 155.62l34.7021 0.00878906v-266.15l-159.23 -26.9199v137.46c-40.3398 1.03027 -73.04 19.0703 -87 52.4102c-35.3604 -38.5703 -75.8008 -62.4199 -150.771 -62.4199c-106.08 0 -158.771 69.1504 -158.771 172.69v354.23h189v-310.39
c0 -44.54 13.9199 -68.54 55.8398 -68.54c41.46 0 57.3799 24 57.3799 68.54v310.39h189v-329.77c0 -21.46 9.08008 -31.54 29.8496 -31.54z" />
    <glyph glyph-name="uni0448.ss02" horiz-adv-x="875" 
d="M204.38 -11.3896c-106.69 0 -159.39 69.8594 -159.39 167.47v360.85h189v-311.77c0 -44.54 13.6201 -68.54 52.3105 -68.54c39.8496 0 54.7695 24 54.7695 68.54v311.77h189v-311.77c0 -44.54 13.3096 -68.54 52.3096 -68.54c39.46 0 54.7695 24 54.7695 68.54v311.77
h189v-516.92h-169l-20 52.54c-34.2305 -39.3096 -75.6104 -63.9297 -139.46 -63.9297c-66 0 -110.85 27.6904 -134.39 73.3008c-41 -47.2305 -89 -73.3105 -158.92 -73.3105z" />
    <glyph glyph-name="uni0449.ss02" horiz-adv-x="921" 
d="M861.23 155.62l34.3691 0.00976562v-266.15l-159.23 -26.9199v137.46c-40.96 1.0498 -74.0498 19.6299 -87.6396 53.96c-34.21 -39.6797 -75.3896 -63.96 -147.359 -63.96c-66.2002 0 -111.44 27.6904 -135.221 72.4805
c-41.0801 -46.5898 -89.5996 -72.4902 -160.54 -72.4902c-107.31 0 -160.619 69.7695 -160.619 167v359.92h189v-309.15c0 -45.46 13.6201 -69.7695 53.54 -69.7695c40.7695 0 56 24.3096 56 69.7695v309.15h189v-309.15c0 -45.46 13.6201 -69.7695 53.54 -69.7695
c40.3799 0 56 24.3096 56 69.7695v309.15h189v-329.77c0 -21.46 9.08008 -31.54 30.1602 -31.54z" />
    <glyph glyph-name="uni044E.ss02" horiz-adv-x="813" 
d="M537.23 526.92c173.31 0 248.61 -82.3789 248.61 -268.459s-75.2998 -268.46 -248.609 -268.46c-150.56 0 -227.13 62.3896 -244.46 201.229h-60v-191.23h-184.16v684.46l184.16 26.9199v-381.69h60.5195c18.2998 136.03 94.8398 197.23 243.939 197.23zM537.231 138.071
c45.7695 0 61.0791 27.4697 61.0791 120.39s-15.3096 120.38 -61.0791 120.38s-60.7695 -27.46 -60.7695 -120.38s15 -120.39 60.7695 -120.39z" />
    <glyph glyph-name="Alpha" unicode="&#x391;" horiz-adv-x="696" 
d="M489.38 0l-36.6504 124.84h-213.72l-36.4697 -124.84h-208.23l252 700h201.92l253 -700h-211.85zM281.789 271.31h127.95l-64.1299 218.46z" />
    <glyph glyph-name="Beta" unicode="&#x392;" horiz-adv-x="668" 
d="M61.6201 0v700.001h315.46c161.38 0 239.46 -61.6104 239.46 -188.23c0 -66.3096 -23.3096 -117.31 -71.46 -148c64.6104 -28.6201 89.46 -87.0801 90.46 -164.08c1 -130.23 -79 -199.69 -247.46 -199.69h-326.46zM261.311 424.231l93.6201 0.000976562
c42.7695 0 66.0791 19.46 66.0791 64.8496c0 45 -23.3096 63.7695 -66.0791 63.7695h-93.6201v-128.62zM261.311 147.152l98.3799 0.000976562c48.46 0 74.0801 19.7695 74.0801 67.7695c0 46.3896 -25.6201 66.8496 -74.0801 66.8496h-98.3799v-134.62z" />
    <glyph glyph-name="Gamma" unicode="&#x393;" horiz-adv-x="548" 
d="M61.6104 0l-0.000976562 700h467.23v-174.62h-264.77v-525.38h-202.46z" />
    <glyph glyph-name="uni0394" unicode="&#x394;" horiz-adv-x="696" 
d="M448.23 700l253 -700h-706.92l252 700h201.92zM244.311 146.46h203.3l-101.77 346.14z" />
    <glyph glyph-name="Epsilon" unicode="&#x395;" horiz-adv-x="612" 
d="M61.6201 0l0.00976562 700.001h497.54l9.76953 -161.54h-304.85v-104.69h264.77v-161.54h-264.77v-110.69h317.92l-26.6201 -161.54h-493.77z" />
    <glyph glyph-name="Zeta" unicode="&#x396;" horiz-adv-x="596" 
d="M275.38 170.46h293.689l-26.9199 -170.46h-509.69v148.07l278.08 381.47h-264.39v170.46h506.69v-148.08z" />
    <glyph glyph-name="Eta" unicode="&#x397;" horiz-adv-x="700" 
d="M436.46 700h202.15v-700h-202.15v269.15h-172.39v-269.15h-202.46v700h202.46v-263.16h172.39v263.16z" />
    <glyph glyph-name="Theta" unicode="&#x398;" horiz-adv-x="689" 
d="M344.69 -16.3896c-207.85 0 -310.149 102.7 -310.149 366.391s102.3 366.381 310.149 366.381c207.54 0 309.85 -102.69 309.85 -366.381s-102.31 -366.391 -309.85 -366.391zM344.69 154.841c73.9199 0 111.08 39.9297 111.08 195.16
c0 156.23 -37.1602 195.15 -111.08 195.15s-111.38 -38.9199 -111.38 -195.15c0 -155.23 37.46 -195.16 111.38 -195.16zM417.311 301.311h-144.31v94.9199h144.31v-94.9199z" />
    <glyph glyph-name="Iota" unicode="&#x399;" horiz-adv-x="327" 
d="M61.6104 0v700h203.85v-700h-203.85z" />
    <glyph glyph-name="Kappa" unicode="&#x39a;" horiz-adv-x="675" 
d="M452.31 0l-141.77 274.92h-46.4697v-274.92h-202.46v700h202.46v-268.93h45.7695l132.54 268.93h218.77l-186.77 -335.46l204.85 -364.54h-226.92z" />
    <glyph glyph-name="Lambda" unicode="&#x39b;" horiz-adv-x="680" 
d="M684 0h-216.23l-129.59 448.18l-129.26 -448.18h-212.61l244.69 700h197.92z" />
    <glyph glyph-name="Mu" unicode="&#x39c;" horiz-adv-x="851" 
d="M616.92 700l172.54 -0.000976562v-700h-191.31v393.61l-174.15 -246.84l-176.16 247.54v-394.31h-186.23v700h168.7l194 -275.77z" />
    <glyph glyph-name="Nu" unicode="&#x39d;" horiz-adv-x="716" 
d="M474.15 700h180.69v-700h-174.15l-238.08 387.07v-387.07h-181v700h174.46l238.08 -386.77v386.77z" />
    <glyph glyph-name="Xi" unicode="&#x39e;" horiz-adv-x="608" 
d="M43 534.69l10.0713 165.31h501.85l10.7695 -165.31h-522.69zM87.001 271.23v163.54h433.69v-163.54h-433.69zM57.541 0.000976562l-29.9287 166.31h552.77l-29.2305 -166.31h-493.61z" />
    <glyph glyph-name="Omicron" unicode="&#x39f;" horiz-adv-x="680" 
d="M340.31 -16.3896c-205.16 0 -305.771 102.7 -305.771 366.391s100.61 366.381 305.771 366.381c205.15 0 305.46 -102.69 305.46 -366.381s-100.31 -366.391 -305.46 -366.391zM340.31 154.841c65.46 0 98.5303 39.9297 98.5303 195.16
c0 156.23 -33.0703 195.15 -98.5303 195.15c-65.4697 0 -98.54 -38.9199 -98.54 -195.15c0 -155.23 33.0703 -195.16 98.54 -195.16z" />
    <glyph glyph-name="Pi" unicode="&#x3a0;" horiz-adv-x="694" 
d="M61.6104 0v700h571v-700h-202.15v525.38h-166.39v-525.38h-202.46z" />
    <glyph glyph-name="Rho" unicode="&#x3a1;" horiz-adv-x="654" 
d="M61.6104 0l0.000976562 699.999h308.77c177.85 0 262.619 -88.8496 262.619 -239.159c0 -150 -84.7695 -238.84 -262.619 -238.84h-109.07v-222h-199.7zM261.312 382.309h95.9199c51.3096 0 75.7695 29.6104 75.7695 78.5303c0 48.9297 -24.46 78.8496 -75.7695 78.8496
h-95.9199v-157.38z" />
    <glyph glyph-name="Sigma" unicode="&#x3a3;" horiz-adv-x="591" 
d="M247.15 161.54l317.85 -0.000976562l-26.6201 -161.54h-499.84v155.15l180.91 198.54l-174.84 188.08v158.23h497.54l9.45996 -161.54h-298.38l168.15 -185.46z" />
    <glyph glyph-name="Tau" unicode="&#x3a4;" horiz-adv-x="597" 
d="M578.92 700l0.000976562 -174.62h-179.23v-525.38h-202.46v525.38h-179.23v174.62h560.92z" />
    <glyph glyph-name="Upsilon" unicode="&#x3a5;" horiz-adv-x="643" 
d="M642.92 700l-219.54 -450.85v-249.15h-203.84v249.84l-220.85 450.16h221.31l103.46 -260.31l102.85 260.31h216.61z" />
    <glyph glyph-name="Phi" unicode="&#x3a6;" horiz-adv-x="876" 
d="M848.84 363c0 -184.61 -92.0801 -281.891 -309.23 -289.521v-73.4805h-202.15v73.4805c-217.15 7.62988 -309.23 104.91 -309.23 289.521s92.0801 281.88 309.23 289.51v66.8701h202.15v-66.8701c217.15 -7.62988 309.23 -104.899 309.23 -289.51zM222.31 363
c0 -99.0703 40.9004 -140.191 130.23 -144.281v287.86c-89.3301 -4.00977 -130.23 -44.5195 -130.23 -143.579zM524.54 218.719c89.3203 4.08984 130.23 45.21 130.23 144.28s-40.9102 139.57 -130.23 143.58v-287.86z" />
    <glyph glyph-name="Chi" unicode="&#x3a7;" horiz-adv-x="662" 
d="M665.92 0h-232.001l-105 221.61l-104.77 -221.61h-228.08l211.24 363.54l-198 336.46h231.69l92.3096 -190.62l90.8398 190.62h227.08l-194.54 -334.93z" />
    <glyph glyph-name="Psi" unicode="&#x3a8;" horiz-adv-x="888" 
d="M657.07 700h194.082v-276.85c0 -184.54 -91.1602 -281.81 -306.15 -289.5v-133.65h-202.16v133.65c-214.99 7.69043 -306.15 104.96 -306.15 289.5v276.85h194.08v-276.85c0 -93.0498 35.3496 -134.74 112.069 -142.82v419.67h202.16v-419.67
c76.7197 8.08008 112.069 49.7705 112.069 142.82v276.85z" />
    <glyph glyph-name="uni03A9" unicode="&#x3a9;" horiz-adv-x="721" 
d="M578.5 153.92l99.7266 -0.000976562v-153.92h-285.54l0.299805 60.8301l-0.299805 -0.0595703l0.69043 78.0703c37.54 11.9297 67.54 65 67.54 216c0 151.39 -33.7695 190.31 -100.609 190.31c-66.8496 0 -100.619 -38.9199 -100.619 -190.31
c0 -150.3 30 -204.069 67.54 -215.999l0.69043 -78.0703l-0.299805 0.0595703l0.299805 -60.8301h-285.54v153.92h99.7305c-54.5801 54.8701 -87.5703 132.82 -87.5703 236.851c0 234.46 100.61 325.61 305.771 325.61c205.15 0 305.761 -91.1504 305.761 -325.61
c0 -104.03 -32.9902 -181.98 -87.5703 -236.851z" />
    <glyph glyph-name="Alphatonos" unicode="&#x386;" horiz-adv-x="696" 
d="M205.92 700l-175.459 -149.77l-119.08 26.9199l94.7695 122.85h199.77zM489.381 0l-36.6504 124.84h-213.72l-36.4697 -124.84h-208.23l252 700h201.92l253 -700h-211.85zM281.79 271.31h127.95l-64.1299 218.46z" />
    <glyph glyph-name="Epsilontonos" unicode="&#x388;" horiz-adv-x="612" 
d="M-140.69 550.23l-119.079 26.9199l94.7695 122.85h199.77zM61.6104 0l0.00976562 700.001h497.54l9.76953 -161.54h-304.85v-104.69h264.77v-161.54h-264.77v-110.69h317.92l-26.6201 -161.54h-493.77z" />
    <glyph glyph-name="Etatonos" unicode="&#x389;" horiz-adv-x="700" 
d="M-141 550.23l-119.079 26.9199l94.7695 122.85h199.77zM436.461 700h202.15v-700h-202.15v269.15h-172.39v-269.15h-202.46v700h202.46v-263.16h172.39v263.16z" />
    <glyph glyph-name="Iotatonos" unicode="&#x38a;" horiz-adv-x="327" 
d="M-139.46 550.23l-119.079 26.9199l94.7695 122.85h199.77zM61.6113 0v700h203.85v-700h-203.85z" />
    <glyph glyph-name="Omicrontonos" unicode="&#x38c;" horiz-adv-x="680" 
d="M340.31 -16.3896c-205.16 0 -305.771 102.7 -305.771 366.391s100.61 366.381 305.771 366.381c205.15 0 305.46 -102.69 305.46 -366.381s-100.31 -366.391 -305.46 -366.391zM-66.0801 550.23l-119.079 26.9199l94.7695 122.85h199.77zM340.311 154.841
c65.46 0 98.5303 39.9297 98.5303 195.16c0 156.23 -33.0703 195.15 -98.5303 195.15c-65.4697 0 -98.54 -38.9199 -98.54 -195.15c0 -155.23 33.0703 -195.16 98.54 -195.16z" />
    <glyph glyph-name="Upsilontonos" unicode="&#x38e;" horiz-adv-x="643" 
d="M-196.54 550.23l-119.079 26.9199l94.7695 122.85h199.77zM642.921 700l-219.54 -450.85v-249.15h-203.84v249.84l-220.85 450.16h221.31l103.46 -260.31l102.85 260.31h216.61z" />
    <glyph glyph-name="Omegatonos" unicode="&#x38f;" horiz-adv-x="721" 
d="M578.5 153.92l99.7266 -0.000976562v-153.92h-285.54l0.299805 60.8301l-0.299805 -0.0595703l0.69043 78.0703c37.54 11.9297 67.54 65 67.54 216c0 151.39 -33.7695 190.31 -100.609 190.31c-66.8496 0 -100.619 -38.9199 -100.619 -190.31
c0 -150.3 30 -204.069 67.54 -215.999l0.69043 -78.0703l-0.299805 0.0595703l0.299805 -60.8301h-285.54v153.92h99.7305c-54.5801 54.8701 -87.5703 132.82 -87.5703 236.851c0 234.46 100.61 325.61 305.771 325.61c205.15 0 305.761 -91.1504 305.761 -325.61
c0 -104.03 -32.9902 -181.98 -87.5703 -236.851zM-83.9336 699.999h199.771l-175.46 -149.77l-119.07 26.9199z" />
    <glyph glyph-name="Iotadieresis" unicode="&#x3aa;" horiz-adv-x="327" 
d="M-17.3096 770v119.69h146.46v-119.69h-146.46zM193.15 770v119.69h146.46v-119.69h-146.46zM61.6104 0v700h203.85v-700h-203.85z" />
    <glyph glyph-name="Upsilondieresis" unicode="&#x3ab;" horiz-adv-x="643" 
d="M140.92 770v119.69h146.46v-119.69h-146.46zM351.38 770v119.69h146.46v-119.69h-146.46zM642.92 700l-219.54 -450.85v-249.15h-203.84v249.84l-220.85 450.16h221.31l103.46 -260.31l102.85 260.31h216.61z" />
    <glyph glyph-name="Xi.ss01" horiz-adv-x="608" 
d="M394.84 167.69h185.541l-29.2305 -167.69h-493.61l-29.9297 167.69h186.93v102.85h-127.54v164.92h127.54v97.8496h-171.54l10.0703 166.69h501.85l10.7695 -166.69h-170.85v-97.8496h125.85v-164.92h-125.85v-102.85z" />
    <glyph glyph-name="alpha" unicode="&#x3b1;" horiz-adv-x="583" 
d="M364.77 516.92h169.301v-516.92h-169.3l-19.5498 52.1504l-0.150391 -0.540039c-20.3799 -29.3799 -62.9199 -61.6104 -134.53 -61.6104c-123.08 0 -181 81.46 -181 268.46s57.9199 268.46 181 268.46c71.6104 0 114.15 -32.2305 134.53 -61.6104l0.139648 -0.55957z
M282.46 138.07c46.3799 0 62.6104 27.4697 62.6104 120.39s-16.2305 120.38 -62.6104 120.38c-46.3896 0 -62.6201 -27.46 -62.6201 -120.38s16.2305 -120.39 62.6201 -120.39z" />
    <glyph glyph-name="beta" unicode="&#x3b2;" horiz-adv-x="582" 
d="M480.44 403.12c52.2197 -28.9902 66.9414 -81.248 66.9414 -146.278v-69c0 -138 -75.54 -197.84 -200 -197.84c-42.2002 0 -79.5303 11.2598 -109.771 30.2598v-195.11l-189 -26.9199v701.77c0 144 79.3096 215 245.31 215c161.85 0 242.77 -61 242.77 -175
c0 -59.6904 -10.7305 -106.921 -56.25 -136.881zM361.232 179.542v91.1484c0 50.3799 -17.3096 68.6895 -62.3096 68.6895h-25.46v124.23h20.46c40.3096 0 55.9199 18.8496 55.9199 61.54c0 39.54 -16.2998 57.6904 -55.9199 57.6904
c-41.6904 0 -56.3105 -20 -56.3105 -82.8398v-326.93c0 -40.5303 33.1602 -56.8398 64.2305 -56.8398c40.4697 0 59.3896 15.6904 59.3896 63.3105z" />
    <glyph glyph-name="gamma" unicode="&#x3b3;" horiz-adv-x="579" 
d="M389.69 516.92l193.001 -0.000976562l-183.92 -496.92v-194.85l-183.46 -26.9199v221.77l-98.2402 281.54c-18 52.6104 -36.5303 69.5303 -70.1504 69.5303c-23.46 0 -41.54 -3.2998 -54.3096 -7.2998l17.7695 144.38c15.54 6.38965 52.1602 14.0801 91.0801 14.0801
c93.3096 0 144.46 -44.9199 173.77 -166.77l36.2402 -138.7z" />
    <glyph glyph-name="delta" unicode="&#x3b4;" horiz-adv-x="557" 
d="M374.23 452.54c97.2305 -27 157.841 -87.1611 157.841 -228.852c0 -162.46 -76.6104 -235.08 -252.61 -235.08s-252.62 72.6201 -252.62 235.08c0 105.94 32.6904 174.551 116.931 208.341c-68.29 35.6396 -94.46 78.5596 -94.46 136.89
c0 87 81.2998 144.15 234.609 144.15c78.1504 0 137 -15 177.39 -31.7598l15.1504 -144.77c-42.6904 17.8398 -108 33 -180.39 33c-49.5303 0 -63.5303 -12.2305 -63.5303 -33.1602c0 -28.7695 49.3799 -59 141.689 -83.8398zM279.461 116.999
c46.3799 0 62.3096 24.7695 62.3096 106.689c0 83.2305 -15.9297 107.69 -62.3096 107.69c-46.3896 0 -62.3096 -24.46 -62.3096 -107.69c0 -81.9199 15.9199 -106.689 62.3096 -106.689z" />
    <glyph glyph-name="epsilon" unicode="&#x3b5;" horiz-adv-x="480" 
d="M284.31 123.69c59.6104 0 119.071 8.37891 176.841 25.0791l-14.2305 -135.08c-55.3096 -15 -120.92 -25.0801 -184.61 -25.0801c-164.24 0 -235.16 52 -235.16 152.62c0 61.9697 25.79 106.279 84.04 129.419c-45.7002 22.21 -70.5801 60.9502 -70.5801 112.811
c0 95.2305 66.2305 144.851 221.7 144.851c59.6104 0 123 -8.30957 173.92 -20.9297l5.61035 -129.69c-52.5303 10.54 -106 16.54 -158 16.54c-49.3799 0 -69.46 -12.1602 -69.46 -35.1602c0 -25.8398 18.8496 -38 69 -38h82.54v-119.92h-89.2305
c-53.46 0 -73.6904 -12.7695 -73.6904 -38.0791c0 -27.9199 24.2305 -39.3799 81.3105 -39.3799z" />
    <glyph glyph-name="zeta" unicode="&#x3b6;" horiz-adv-x="465" 
d="M320.23 117.77c126.92 -25.3096 167.15 -67.54 127 -236.7l-158.62 -23.5303c21.2305 92.46 8 109.07 -87.54 128.84c-87.2998 15.3096 -176.53 67.3896 -176.53 212.54c0 134.87 70.6201 249.48 206.96 349.69h-191.5l23.1504 151.39h396.08v-134
c-162.31 -112.69 -238.54 -233.16 -238.54 -339.771c0 -69.3096 32.3799 -95.1592 99.54 -108.459z" />
    <glyph glyph-name="eta" unicode="&#x3b7;" horiz-adv-x="584" 
d="M350.23 -201.77l-0.000976562 512.311c0 45.46 -13.9199 69.7695 -55.2295 69.7695c-41.7695 0 -57.3896 -24.3096 -57.3896 -69.7695v-310.54h-189v516.92h169l20 -52.54c35.2305 39.3096 78.3105 63.9297 143.461 63.9297c105.77 0 158.159 -70.4697 158.159 -168.7
v-534.46z" />
    <glyph glyph-name="theta" unicode="&#x3b8;" horiz-adv-x="580" 
d="M290.07 716.38c178.08 0 256.08 -112.38 256.08 -364.38c0 -251.31 -78 -363.689 -256.08 -363.689c-178.07 0 -256.07 112.38 -256.07 363.689c0 252 78 364.38 256.07 364.38zM290.07 568c-46.3799 0 -65.8604 -37.2402 -69.8203 -160.46h139.65
c-3.95996 123.22 -23.4404 160.46 -69.8301 160.46zM290.07 135.77c46.71 0 66.1406 37.75 69.9102 164.69h-139.81c3.76953 -126.94 23.1992 -164.69 69.8994 -164.69z" />
    <glyph glyph-name="iota" unicode="&#x3b9;" horiz-adv-x="335" 
d="M220.15 -10.6904c-116.61 0 -172.15 52.2285 -172.15 185.919v341.69h189v-314.77c0 -46.3799 17 -61.6895 48.2305 -61.6895c19.6104 0 39.8408 5.30957 50.8408 11.3096l-26.2305 -143.31c-16.1504 -8.69043 -50.7705 -19.1504 -89.6904 -19.1504z" />
    <glyph glyph-name="kappa" unicode="&#x3ba;" horiz-adv-x="567" 
d="M48.6201 0l0.000976562 516.921h182.08v-188.23h36.9199l88.54 188.23h198.38l-136.15 -248.69l151.62 -268.23h-207.15l-92.54 192.23h-39.6201v-192.23h-182.08z" />
    <glyph glyph-name="lambda" unicode="&#x3bb;" horiz-adv-x="542" 
d="M545.92 0h-182.771l-89.8203 307.67l-85.0195 -307.67h-190.39l188.15 492.84l-2.53027 7.38965c-15 50.6904 -33.3896 64.3105 -73.6992 64.3105c-21.6104 0 -44.2305 -4.62012 -59.6904 -8.62012l26.2305 143.92c19.0801 7.7002 58.9297 14.4697 97.6201 14.4697
c108 0 137.38 -51.4697 187.38 -196.77z" />
    <glyph glyph-name="uni03BC" unicode="&#x3bc;" horiz-adv-x="588" 
d="M350.23 516.92l189.001 -0.000976562v-516.92h-161l-17.2402 45.1904c-27.4805 -35.71 -66.3008 -56.5801 -111.61 -56.5801c-6.5 0 -12.7803 0.30957 -18.8398 0.919922v-165.38l-181.93 -26.9199v719.69h189v-310.54c0 -45.46 13.6201 -69.7695 54.9297 -69.7695
c41.7695 0 57.6895 24.3096 57.6895 69.7695v310.54z" />
    <glyph glyph-name="nu" unicode="&#x3bd;" horiz-adv-x="542" 
d="M349 516.92h195.38l-182.54 -516.92h-182.38l-181.85 516.92h199.39l75.8398 -311.77z" />
    <glyph glyph-name="xi" unicode="&#x3be;" horiz-adv-x="485" 
d="M341.38 112.61c114.62 -21.54 143.999 -84.9199 105.849 -231.54l-158.62 -23.5303c24.7002 90.6104 0.850586 114.301 -72.2295 125.07c-113.38 16.0801 -188.149 89.2305 -188.149 208.23c0 79.2402 30.9404 141.2 101.641 176.141
c-59.2998 28.9697 -87.6396 79.3701 -87.6396 154.71c0 129.92 80.9199 194.689 241.92 194.689c81.0801 0 145.92 -16.6104 173 -28.9199l8.76953 -148.08c-28.2305 12.3096 -87.0801 28.9297 -144.771 28.9297c-67.7695 0 -94.0791 -19.8496 -94.0791 -64.9297
c0 -48.1504 25.1602 -69.2305 88.4697 -69.2305h94.6104v-142.69h-98.6104c-65.8496 0 -94.3896 -21.0801 -94.3896 -76c0 -67.3896 45.8496 -88.7695 124.229 -102.85z" />
    <glyph glyph-name="omicron" unicode="&#x3bf;" horiz-adv-x="560" 
d="M279.77 -11.3896c-176 0 -252.62 83.0801 -252.62 269.85s76.6201 269.85 252.62 269.85s252.61 -83.0801 252.61 -269.85s-76.6104 -269.85 -252.61 -269.85zM279.77 136.69c46.3799 0 62.2998 27.46 62.2998 121.77s-15.9199 121.77 -62.2998 121.77
c-46.3896 0 -62.3096 -27.46 -62.3096 -121.77s15.9199 -121.77 62.3096 -121.77z" />
    <glyph glyph-name="pi" unicode="&#x3c0;" horiz-adv-x="575" 
d="M48.6104 0v516.92h477.85v-516.92h-186.92v368.23h-104v-368.23h-186.93z" />
    <glyph glyph-name="rho" unicode="&#x3c1;" horiz-adv-x="574" 
d="M292.54 528.31c176 0 252.609 -83.0791 252.609 -269.849c0 -187.69 -57.6104 -269.851 -181 -269.851c-71.3096 0 -114.149 32.9297 -134.229 63v-219.15l-189 -26.9199v452.92c0 186.77 76.6201 269.85 251.62 269.85zM292.229 136.69
c46.3799 0 62.6104 27.46 62.6104 121.77s-15.9199 121.77 -62.2998 121.77c-46.7002 0 -62.6201 -27.46 -62.6201 -121.77s15.9199 -121.77 62.3096 -121.77z" />
    <glyph glyph-name="uni03C2" unicode="&#x3c2;" horiz-adv-x="477" 
d="M330.31 114.31c107.53 -22.54 156.461 -65.0791 114.531 -233.239l-158.61 -23.5303c22.9199 93.3799 3.08008 110.84 -82 127.46c-85.6904 16.2305 -176.69 70 -176.69 267.54c0 187.3 82.7695 275.77 256.92 275.77c73.9199 0 131.46 -15 158.38 -26l9.08008 -148.39
c-27.6104 12 -81.54 27.6904 -131.15 27.6904c-72.8496 0 -102.93 -34.6904 -102.93 -130.61c0 -109.85 38.6201 -121.54 112.47 -136.69z" />
    <glyph glyph-name="sigma" unicode="&#x3c3;" horiz-adv-x="606" 
d="M602 516.92v-139.77h-98.4805c19.6602 -34.6299 28.8604 -75.5303 28.8604 -123.69c0 -183.77 -76.6104 -264.85 -252.61 -264.85s-252.62 81.0801 -252.62 264.85c0 182.38 76.6201 263.46 252.62 263.46h322.23zM279.77 136.69c46.3799 0 62.2998 26.46 62.2998 116.77
s-15.9199 116.77 -62.2998 116.77c-46.3896 0 -62.3096 -26.46 -62.3096 -116.77s15.9199 -116.77 62.3096 -116.77z" />
    <glyph glyph-name="tau" unicode="&#x3c4;" horiz-adv-x="486" 
d="M465.84 361.31h-137.15v-159.16c0 -46.3799 17.6904 -61.6895 50.3105 -61.6895c21 0 43.3096 5.30957 55 11.3096l-26.2305 -143.31c-16.54 -8.69043 -52.54 -19.1504 -92.8496 -19.1504c-118.69 0 -175.23 53.6104 -175.23 189.38v182.62h-123.77v155.61h449.92
v-155.61z" />
    <glyph glyph-name="upsilon" unicode="&#x3c5;" horiz-adv-x="580" 
d="M537.54 516.92l0.000976562 -293.61c0 -162.24 -74.6201 -234.7 -247.62 -234.7s-247.31 72.46 -247.31 234.7v293.61h190.31v-301c0 -61 14.6201 -79.2305 57 -79.2305c42.3896 0 57.3096 18.2305 57.3096 79.2305v301h190.31z" />
    <glyph glyph-name="phi" unicode="&#x3c6;" horiz-adv-x="772" 
d="M744.92 255c0 -180.87 -86.2207 -260.483 -273.461 -264.833v-165.71l-171.15 -25.54v191.12c-186.75 2.2002 -273.77 83.4805 -273.77 264.961c0 147.15 70.1504 233.381 188.15 269.311l64.1504 -122.54c-46.0703 -22.7695 -71.6904 -59.1592 -71.6904 -146.77
c0 -84.1396 26.96 -117.22 93.1602 -119.56v381.48h156c205 0 288.61 -82.1504 288.61 -261.92zM471.459 135.317c66.2197 2.59961 92.8496 35.2998 92.8496 119.68c0 84.1504 -26.7695 116.23 -92.8496 116.23v-235.91z" />
    <glyph glyph-name="chi" unicode="&#x3c7;" horiz-adv-x="541" 
d="M550 -190h-200.621l-79.7002 236.67l-83.3701 -236.67h-194.93l167.08 367.22l-153.39 339.7h195.16l73.1904 -215.17l71.6504 215.17h191.54l-150.42 -338.53z" />
    <glyph glyph-name="psi" unicode="&#x3c8;" horiz-adv-x="780" 
d="M558.84 516.92h180.62v-261.92c0 -181.4 -83.0596 -262.69 -263.85 -264.95v-160.74l-170.84 -25.54v186.27c-180.34 2.19043 -264.16 83.4707 -264.16 264.961v261.92h180.62v-261.92c0 -83.96 23.5 -117.07 83.54 -119.54v391.46l170.84 26.6201v-418.07
c59.8096 2.57031 83.2295 35.71 83.2295 119.53v261.92z" />
    <glyph glyph-name="omega" unicode="&#x3c9;" horiz-adv-x="802" 
d="M564.92 528c142.08 -3.92969 209.389 -82.7705 209.389 -265.851c0 -180.77 -65.7695 -273.84 -206.079 -273.84c-88 0 -135.92 35.0303 -166.88 120.44c-31.1904 -85.4102 -79.04 -120.44 -166.12 -120.44c-140 0 -207.08 92.1504 -207.08 273.841
c0 183.77 68.3096 261.92 209.689 265.85l34.9297 -147.46c-45.1602 -3.62012 -60.1602 -27.3896 -60.1602 -125.08c0 -90.6201 13 -119.08 49.54 -119.08c36.9199 0 50.6201 27.46 50.6201 121.77v73.3096h177.23v-73.3096c0 -94.3096 13.3799 -121.77 50.6104 -121.77
c36.54 0 49.2305 28.46 49.2305 119.08c0 97.6904 -15 121.46 -60.1504 125.08z" />
    <glyph glyph-name="iotatonos" unicode="&#x3af;" horiz-adv-x="335" 
d="M146.15 576.92l-119.079 26.9199l94.7695 122.85h199.77zM220.151 -10.6904c-116.61 0 -172.15 52.2285 -172.15 185.919v341.69h189v-314.77c0 -46.3799 17 -61.6895 48.2305 -61.6895c19.6104 0 39.8408 5.30957 50.8408 11.3096l-26.2305 -143.31
c-16.1504 -8.69043 -50.7705 -19.1504 -89.6904 -19.1504z" />
    <glyph glyph-name="iotadieresis" unicode="&#x3ca;" horiz-adv-x="335" 
d="M-36.6201 584.15v119.69h146.46v-119.69h-146.46zM173.84 584.15v119.69h146.47v-119.69h-146.47zM220.149 -10.6895c-116.61 0 -172.15 52.2285 -172.15 185.919v341.69h189v-314.77c0 -46.3799 17 -61.6895 48.2305 -61.6895
c19.6104 0 39.8408 5.30957 50.8408 11.3096l-26.2305 -143.31c-16.1504 -8.69043 -50.7705 -19.1504 -89.6904 -19.1504z" />
    <glyph glyph-name="iotadieresistonos" unicode="&#x390;" horiz-adv-x="335" 
d="M140.31 568.61l-95 26.9297l47.0703 131.15h163.46zM-97.6201 584.15v119.69h121.77v-119.69h-121.77zM257.07 584.15v119.69h121.77v-119.69h-121.77zM220.15 -10.6895c-116.61 0 -172.15 52.2285 -172.15 185.919v341.69h189v-314.77
c0 -46.3799 17 -61.6895 48.2305 -61.6895c19.6104 0 39.8408 5.30957 50.8408 11.3096l-26.2305 -143.31c-16.1504 -8.69043 -50.7705 -19.1504 -89.6904 -19.1504z" />
    <glyph glyph-name="upsilontonos" unicode="&#x3cd;" horiz-adv-x="580" 
d="M293.23 576.92l-119.079 26.9199l94.7695 122.85h199.77zM537.541 516.92l0.000976562 -293.61c0 -162.24 -74.6201 -234.7 -247.62 -234.7s-247.31 72.46 -247.31 234.7v293.61h190.31v-301c0 -61 14.6201 -79.2305 57 -79.2305
c42.3896 0 57.3096 18.2305 57.3096 79.2305v301h190.31z" />
    <glyph glyph-name="upsilondieresis" unicode="&#x3cb;" horiz-adv-x="580" 
d="M110.46 584.15v119.69h146.46v-119.69h-146.46zM320.92 584.15v119.69h146.46v-119.69h-146.46zM537.54 516.921l0.000976562 -293.61c0 -162.24 -74.6201 -234.7 -247.62 -234.7s-247.31 72.46 -247.31 234.7v293.61h190.31v-301c0 -61 14.6201 -79.2305 57 -79.2305
c42.3896 0 57.3096 18.2305 57.3096 79.2305v301h190.31z" />
    <glyph glyph-name="upsilondieresistonos" unicode="&#x3b0;" horiz-adv-x="580" 
d="M286.15 568.61l-97.0801 26.9297l50.9297 131.15h169zM40.3105 584.15v119.69h129.3v-119.69h-129.3zM409.23 584.15v119.69h129.31v-119.69h-129.31zM537.54 516.921l0.000976562 -293.61c0 -162.24 -74.6201 -234.7 -247.62 -234.7s-247.31 72.46 -247.31 234.7v293.61
h190.31v-301c0 -61 14.6201 -79.2305 57 -79.2305c42.3896 0 57.3096 18.2305 57.3096 79.2305v301h190.31z" />
    <glyph glyph-name="omicrontonos" unicode="&#x3cc;" horiz-adv-x="560" 
d="M283.07 576.92l-119.069 26.9199l94.7695 122.85h199.77zM279.771 -11.3906c-176 0 -252.62 83.0801 -252.62 269.85s76.6201 269.85 252.62 269.85s252.61 -83.0801 252.61 -269.85s-76.6104 -269.85 -252.61 -269.85zM279.771 136.689
c46.3799 0 62.2998 27.46 62.2998 121.77s-15.9199 121.77 -62.2998 121.77c-46.3896 0 -62.3096 -27.46 -62.3096 -121.77s15.9199 -121.77 62.3096 -121.77z" />
    </font>
</defs>
</svg>
