<svg id="Layer_1" data-name="Layer 1" xmlns="http://www.w3.org/2000/svg" viewBox="0 0 284 319"><defs><style>.cls-1{fill:#9fb1c8;}.cls-2{fill:#226c93;}</style></defs><title>Artboard 1</title><path class="cls-1" d="M247.55,308.05l-1,0,.89-25.28,4-101c0-.58-.3-15.05,5.44-20.92a7.61,7.61,0,0,1,5.62-2.42h0v1h0a6.67,6.67,0,0,0-4.91,2.12c-5.43,5.56-5.15,20.08-5.15,20.23l-4,101Z"/><path class="cls-1" d="M229.49,315.48l-1,0,.66-28.32,1.31-104.85c0-.78-.87-19.85,11.17-22l.18,1c-11.18,2-10.36,20.81-10.35,21l-1.31,104.89Z"/><path class="cls-1" d="M177.32,316.86h-1l.08-28.19-.08-104.09c0-.19.11-18.64-9.79-23.36l.43-.9c10.48,5,10.37,23.49,10.36,24.27l.08,104.09Z"/><path class="cls-1" d="M134.17,307.77h-1V276.29l-1.65-95.71c0-.17-.4-16.85-6.61-25.86l.82-.57c6.39,9.26,6.77,25.71,6.79,26.41l1.65,95.72Z"/><path class="cls-1" d="M61,259.41H60v-24.6l-2.15-88.37c0-.26.27-24.71-11.1-30l.42-.9c12,5.52,11.7,29.83,11.68,30.86L61,234.8Z"/><polygon class="cls-1" points="110.45 258.68 109.95 234.82 109.11 126.01 110.11 126 110.95 234.8 111.45 258.66 110.45 258.68"/><path class="cls-2" d="M82.44,22C42,22,8.69,18,3.21,12.53l.71-.71C9.14,17,42.9,21,82.44,21c38.51,0,71.33-3.68,78-8.74l.6.8C154.22,18.21,121.14,22,82.44,22Z"/><path class="cls-1" d="M194.81,88.13c-9.27,0-18.49-.38-28-1.18l-.21-1c39,3.26,76.07-.18,110-10.26-8-2.47-57.51-16.59-121.16-9.14l-.12-1C219.83,58,268.46,72,277.55,74.92a.79.79,0,0,1,.55.76.8.8,0,0,1-.56.76A287.5,287.5,0,0,1,194.81,88.13Z"/><path class="cls-1" d="M133.69,82.55a251.23,251.23,0,0,1-26.24-6.13.75.75,0,0,1-.53-.72.74.74,0,0,1,.55-.73,313,313,0,0,1,32.74-7.25l-.38,1a302.16,302.16,0,0,0-31.28,6.95,259.88,259.88,0,0,0,25.33,5.86Z"/><path class="cls-1" d="M78.1,56.62c-43.62,0-73.66-11.35-74-11.48L4,44.25C4.6,43.85,20.1,34.39,110.89,33l0,1C32.53,35.21,10.16,42.61,5.54,44.6c7.07,2.47,47.33,15.38,99.91,9.51l.11,1A248.06,248.06,0,0,1,78.1,56.62Z"/><path class="cls-1" d="M175.59,136.07a43.36,43.36,0,0,1-32.6-72,1.49,1.49,0,0,1,1.3-.51,1.58,1.58,0,0,1,1.2.8l38,68.88a1.56,1.56,0,0,1,0,1.44,1.48,1.48,0,0,1-1.12.83A42.81,42.81,0,0,1,175.59,136.07Zm-31.47-72a1,1,0,0,0-.76.35,42.87,42.87,0,0,0,39,70.62,1,1,0,0,0,.75-.56,1.09,1.09,0,0,0,0-1l-38-68.88a1.06,1.06,0,0,0-.81-.54Z"/><path class="cls-1" d="M193.42,268.89a1.42,1.42,0,0,1-.5-.08,1.49,1.49,0,0,1-1-1,43.37,43.37,0,0,1,65.58-48.57,1.49,1.49,0,0,1,.67,1.23,1.54,1.54,0,0,1-.63,1.3l-63.22,46.82A1.56,1.56,0,0,1,193.42,268.89Zm40.07-56.41a42.85,42.85,0,0,0-41.07,55.19,1,1,0,0,0,.66.67,1.11,1.11,0,0,0,1-.15l63.23-46.83a1.06,1.06,0,0,0,.42-.88,1,1,0,0,0-.45-.82A42.8,42.8,0,0,0,233.49,212.48Z"/><path class="cls-1" d="M190.16,255.81a44.69,44.69,0,0,1,17.51-40.17,43.1,43.1,0,0,1,48.89-1.87,2.6,2.6,0,0,1,1.19,2l.45,4.7-.53-.29-.42-4.37a2.1,2.1,0,0,0-1-1.58A42.59,42.59,0,0,0,208,216a43.33,43.33,0,0,0-17.37,39.18Z"/><path class="cls-1" d="M184.91,231.78a1.55,1.55,0,0,1-1-.37l-60.12-50.76a1.55,1.55,0,0,1-.54-1.33,1.48,1.48,0,0,1,.74-1.18,43.37,43.37,0,0,1,62.36,52.65,1.46,1.46,0,0,1-1,.93A1.34,1.34,0,0,1,184.91,231.78Zm-39.24-58.94a42.7,42.7,0,0,0-21.43,5.73,1,1,0,0,0-.49.79,1,1,0,0,0,.37.91L184.23,231a1.05,1.05,0,0,0,1,.21,1,1,0,0,0,.7-.62,42.83,42.83,0,0,0-40.21-57.78Z"/><path class="cls-1" d="M172.07,181.87c-.72-.73-1.48-1.37-2.28-2l-.49-.41a43,43,0,0,0-49.11-4.36,1,1,0,0,0-.5.79,1,1,0,0,0,.37.91l4.76,4.11-.36.34-4.73-4.07a1.56,1.56,0,0,1-.54-1.33,1.46,1.46,0,0,1,.75-1.18,43.47,43.47,0,0,1,49.68,4.4l.49.42c.81.68,1.72,1.48,2.49,2.22Z"/><path class="cls-1" d="M89.69,182.21l-.25,0a1.38,1.38,0,0,1-1-.77l-28.61-61.2a1.42,1.42,0,0,1,.06-1.27,1.33,1.33,0,0,1,1-.67,37.27,37.27,0,0,1,29.7,63.54A1.31,1.31,0,0,1,89.69,182.21ZM64.33,118.62c-1.11,0-2.23.06-3.36.16a.85.85,0,0,0-.65.42.89.89,0,0,0,0,.81l28.6,61.19a.87.87,0,0,0,.64.49.82.82,0,0,0,.74-.22,36.78,36.78,0,0,0-25.94-62.85Z"/><path class="cls-1" d="M91.35,185.81l-.25,0a1.4,1.4,0,0,1-1-.77l-28.6-61.2.45-.21,28.61,61.2a.89.89,0,0,0,.64.49.87.87,0,0,0,.74-.23c10.29-10.23,12.8-30.1,5.72-45.24l.46-.21c7.16,15.32,4.6,35.44-5.83,45.81A1.3,1.3,0,0,1,91.35,185.81Z"/><path class="cls-1" d="M76,228.93a1.35,1.35,0,0,1-.77-.24h0L19.38,190.63a1.38,1.38,0,0,1-.6-1.12,1.28,1.28,0,0,1,.55-1.1,37.27,37.27,0,0,1,57.94,39.52,1.33,1.33,0,0,1-.82.91A1.41,1.41,0,0,1,76,228.93Zm-.49-.65a.87.87,0,0,0,.8.09.83.83,0,0,0,.52-.57,36.78,36.78,0,0,0-57.17-39,.83.83,0,0,0-.34.69.91.91,0,0,0,.38.72Z"/><path class="cls-1" d="M19.38,190.63l-4-2.8a1.38,1.38,0,0,1-.6-1.12,1.34,1.34,0,0,1,.55-1.1c12.22-8.86,31.05-8.49,44.77.87l-.28.41c-13.34-9.1-32.34-9.47-44.2-.88a.85.85,0,0,0-.34.69.91.91,0,0,0,.38.72l4,2.8Z"/><path class="cls-1" d="M195.32,171.74a1.7,1.7,0,0,1-.54-.09,1.53,1.53,0,0,1-.95-1,43.38,43.38,0,0,1,67.06-46.53,1.52,1.52,0,0,1,.63,1.25,1.54,1.54,0,0,1-.67,1.27l-64.64,44.86A1.56,1.56,0,0,1,195.32,171.74Zm40.41-55.17a42.83,42.83,0,0,0-41.41,53.92,1,1,0,0,0,.63.69,1.1,1.1,0,0,0,1-.12l64.63-44.86a1,1,0,0,0,.46-.87,1,1,0,0,0-.42-.83A42.86,42.86,0,0,0,235.73,116.57Z"/><path class="cls-1" d="M195.34,171.74H183.2a4,4,0,0,1-1-.07,1.74,1.74,0,0,1-1-1c-2.16-8.06-1-17.54,3.34-26.68a55.81,55.81,0,0,1,18.34-21.8c10.18-7.06,27.54-8.14,39.16-5.61l-.38.44c-11.51-2.51-28.44-1.4-38.49,5.58-18.8,13-25.1,34.43-21.48,47.94a1,1,0,0,0,.65.69,3.89,3.89,0,0,0,.83.07h12Z"/><path class="cls-1" d="M189.48,127.28l-38-68.88a1.54,1.54,0,0,0-1.2-.79,1.45,1.45,0,0,0-1.29.49h0l-6,6,.35.36,6-6a1.07,1.07,0,0,1,.91-.37,1.06,1.06,0,0,1,.81.54l38,68.88a1,1,0,0,1,.08.83L183,134.64l.36.35,5.72-5.87a3.08,3.08,0,0,0,.57-.63A1.54,1.54,0,0,0,189.48,127.28Z"/><path class="cls-2" d="M176.58,317.86a9.43,9.43,0,0,1-1.85-.17L136,310.17a9.65,9.65,0,0,1-5.9-3.7l-8.23-11a9.65,9.65,0,0,1-1.91-5.14L109.37,135.94l-5.79-96.87c0-9.54,46.11-14.66,89.5-14.66s89.5,5.12,89.5,14.6v.09L259.48,297.44a9.68,9.68,0,0,1-5.68,8l-22.72,10.21a9.65,9.65,0,0,1-3.7.84l-50.54,1.4Zm16.5-291.45c-23.59,0-45.76,1.41-62.43,4-23.86,3.67-25.07,7.84-25.07,8.63l5.79,96.8L122,290.22a7.67,7.67,0,0,0,1.52,4.08l8.23,11a7.69,7.69,0,0,0,4.68,2.94l38.7,7.51a7.24,7.24,0,0,0,1.68.14l50.53-1.4a7.47,7.47,0,0,0,2.94-.67L253,303.59a7.68,7.68,0,0,0,4.5-6.32L280.58,39c0-.88-1.55-5-25.08-8.6C238.84,27.82,216.67,26.41,193.08,26.41Z"/><path class="cls-2" d="M108.48,235.31H60.41L14.56,225.14l.21-1,45.8,10.15h47.91a3.25,3.25,0,0,0,1.11-.2l6.87-2.49.34.94-6.87,2.49A4.22,4.22,0,0,1,108.48,235.31Z"/><path class="cls-2" d="M81.91,25.32c-39.37,0-80.09-4.2-80.09-11.24h1c0,5,31.78,10.24,79.09,10.24S161,19,161,14.08h1C162,21.12,121.28,25.32,81.91,25.32Z"/><path class="cls-2" d="M108.48,259.76H62.36a18.78,18.78,0,0,1-4.22-.49l-41-9.62a2.84,2.84,0,0,1-2.18-2.6L1.42,12.94c0-8.68,48.2-11.8,80.59-11.8s80.6,3.12,80.6,11.74v13h-2v-13c0-1.33-4.73-4.21-22.45-6.61-15-2-34.93-3.13-56.15-3.13S40.86,4.25,25.87,6.27C8.15,8.67,3.42,11.55,3.42,12.88L17,246.94a.84.84,0,0,0,.64.77l41,9.61a16.44,16.44,0,0,0,3.76.44h46.12a14.37,14.37,0,0,0,5.34-1l4.43-1.77.74,1.85-4.43,1.78A16.44,16.44,0,0,1,108.48,259.76Z"/><path class="cls-2" d="M193.08,53.12c-43.75,0-88.61-5.79-88.61-14.62h1c0,6.33,35,13.62,87.61,13.62s87.5-6.95,87.5-13.28h1C281.58,47.67,236.83,53.12,193.08,53.12Z"/><path class="cls-1" d="M49.67,105.4A37.36,37.36,0,0,1,20.92,91.92a1.32,1.32,0,0,1-.26-1.21,1.38,1.38,0,0,1,.86-.93l63.54-23a1.39,1.39,0,0,1,1.25.17,1.33,1.33,0,0,1,.58,1.1,37.35,37.35,0,0,1-24.62,35.09A37,37,0,0,1,49.67,105.4Zm-28-15.15a.86.86,0,0,0-.39,1.35A36.78,36.78,0,0,0,86.39,68.1a.83.83,0,0,0-.36-.69.91.91,0,0,0-.8-.11Z"/><path class="cls-1" d="M20.81,91.76c-1.68-2-3.78-8.12-4.39-10a.79.79,0,0,1,.48-1L76.48,59.31a1.39,1.39,0,0,1,1.29.19l.24.2,8.47,7.44-.33.38L77.46,59.9a.87.87,0,0,0-.81-.12L17.07,81.3a.27.27,0,0,0-.18.34c.6,1.82,2.68,7.9,4.3,9.8Z"/><path class="cls-2" d="M177.64,289.31a8.71,8.71,0,0,1-1.53-.14L134.9,279.4a6.13,6.13,0,0,1-2.42-.92l-13.55-11.07.63-.77,13.5,11a5.09,5.09,0,0,0,2.05.75l41.21,9.77a7.22,7.22,0,0,0,1.56.11l50.86-1.66a9.5,9.5,0,0,0,2.31-.35l15.56-4a7.51,7.51,0,0,0,2.93-1.57l10.91-9.43.66.76-10.91,9.43a8.67,8.67,0,0,1-3.33,1.78l-15.56,4a10.33,10.33,0,0,1-2.54.38l-50.86,1.66Z"/><path class="cls-2" d="M193.08,49.62c-22.67,0-44.12-1.41-60.42-4-12.19-1.91-18.45-4-21.56-5.34a1.35,1.35,0,0,1-.87-1.35,1.31,1.31,0,0,1,.9-1.35h0c2.82-1.22,8.56-3,19.9-4.77,16.54-2.54,38.58-3.94,62.05-3.94s45.5,1.4,62,3.94c11.64,1.79,17.41,3.65,20.2,4.9a1.47,1.47,0,0,1,0,2.68c-2.95,1.39-9.16,3.45-22,5.39C237.24,48.27,215.81,49.62,193.08,49.62ZM111.52,38.53a.45.45,0,0,0-.29.45.38.38,0,0,0,.27.42c3.06,1.36,9.23,3.38,21.31,5.27,16.25,2.55,37.65,3.95,60.27,3.95s44-1.35,60.19-3.79c12.67-1.92,18.78-3.95,21.68-5.31a.48.48,0,0,0,.26-.42.44.44,0,0,0-.29-.44c-2.73-1.22-8.41-3-20-4.82-16.49-2.54-38.47-3.93-61.89-3.93s-45.4,1.39-61.9,3.93c-11.23,1.73-16.89,3.51-19.66,4.69Z"/></svg>