<svg id="Layer_1" data-name="Layer 1" xmlns="http://www.w3.org/2000/svg" viewBox="0 0 475 370"><defs><style>.cls-1{fill:#9fb1c8;}.cls-2{fill:#226c93;}</style></defs><title>Artboard 1</title><path class="cls-1" d="M257.68,314.66l-.3-.06-46.94-9.43V157.66l47.32-14.73v.34Zm-46.74-9.9L257.18,314l.08-170.43L210.94,158Z"/><polygon class="cls-1" points="234.31 309.87 233.81 309.65 233.81 150.72 234.31 150.72 234.31 309.87"/><polygon class="cls-1" points="262.65 322.44 256.93 321.1 257.09 133.91 198.93 151.91 198.93 305.41 210.64 304.26 210.91 305.24 197.93 306.52 197.93 151.17 258.09 132.56 257.93 320.29 262.86 321.46 262.65 322.44"/><polygon class="cls-1" points="156.59 292.31 154.19 291.65 154.19 165.53 127.5 173.85 127.5 287.33 136.61 286.17 136.7 286.91 126.75 288.18 126.75 173.3 154.94 164.51 154.94 291.08 156.78 291.59 156.59 292.31"/><rect class="cls-1" x="148.1" y="172.95" width="0.5" height="117"/><path class="cls-2" d="M176,238.59l-4.1-.19v-10l4.1-.57Zm-3.6-.67,3.1.15v-9.66l-3.1.44Z"/><path class="cls-2" d="M174,232.88c-.54,0-.95-.73-.95-1.69s.41-1.68.95-1.68.94.72.94,1.68S174.49,232.88,174,232.88Zm0-2.87c-.15,0-.45.42-.45,1.18s.3,1.19.45,1.19.44-.48.44-1.19S174.13,230,174,230Z"/><path class="cls-2" d="M174,237.25c-.54,0-.95-.72-.95-1.68s.41-1.68.95-1.68.94.72.94,1.68S174.49,237.25,174,237.25Zm0-2.86c-.15,0-.45.41-.45,1.18s.3,1.18.45,1.18.44-.47.44-1.18S174.13,234.39,174,234.39Z"/><rect class="cls-1" x="131.64" y="170.1" width="0.5" height="10" transform="matrix(0.3, -0.95, 0.95, 0.3, -74.98, 247.61)"/><polygon class="cls-1" points="210.58 158.03 198.32 152.43 198.53 151.98 210.79 157.57 210.58 158.03"/><path class="cls-1" d="M303.72,330.8l-.11-1,2.79-.3.11,1Zm-3.09.45v-2.8h1v2.81Zm8.67-1.05-.11-1,2.8-.3.1,1Zm5.58-.59-.1-1,2.79-.29.1,1Zm5.58-.6-.1-1,2.79-.3.11,1Zm5.59-.59-.11-1,2.79-.29.11,1Zm5.58-.59-.11-1,2.79-.3.11,1Zm5.58-.6-.11-1,2.8-.3.1,1Zm5.58-.59-.1-1,2.79-.3.1,1Zm5.58-.6-.1-1,2.79-.3.11,1Zm5.59-.59-.11-1,2.79-.29.11,1Zm5.58-.6-.11-1,2.8-.3.1,1Zm-58.92-.19v-2.81h1v2.8Zm64.5-.4-.1-1,2.79-.3.1,1Zm5.58-.59-.1-1,2.79-.3.1,1Zm5.59-.6-.11-1,2.79-.3.11,1Zm5.58-.59-.11-1,2.79-.29.11,1Zm5.58-.6-.11-1,2.8-.3.1,1Zm5.58-.59-.1-1,2.79-.29.1,1Zm5.58-.6-.1-1,2.79-.3.1,1Zm5.59-.59-.11-1,2.79-.3.11,1Zm5.58-.59-.11-1,2.79-.3.11,1ZM300.61,319v-2.8h1V319Zm114.75-.13-.11-1,2.8-.3.1,1Zm-114.77-5.48v-2.81h1v2.81Zm0-5.61V305h1v2.8Zm0-5.62v-2.81h1v2.81Zm0-5.61v-2.81h1v2.81Zm0-5.62v-2.8h1V291Zm0-5.61v-2.81h1v2.81Zm0-5.61v-2.81h1v2.81Zm0-5.62v-2.8h1v2.8Zm0-5.61v-2.81h1v2.81Zm0-5.61V260.1h1v2.8Zm0-5.62v-2.8h1v2.81Zm0-5.61v-2.81h1v2.81Zm0-5.61v-2.81h1v2.8Zm0-5.62v-2.8h1v2.81Zm0-5.61V232h1v2.81Zm0-5.62v-2.8h1v2.8Zm0-5.61V220.8h1v2.81Zm0-5.61v-2.81h1V218Zm0-5.62v-2.8h1v2.8Zm0-5.61V204h1v2.81Zm0-5.61v-2.81h1v2.81Zm0-5.62v-2.8h1v2.81Zm0-5.61v-2.81h1v2.81Zm0-5.61v-2.81h1v2.8Zm0-5.62v-2.8h1v2.81Zm0-5.61v-2.81h1v2.81Zm0-5.61v-2.81h1v2.8Zm0-5.62v-2.81h1v2.81Zm0-5.61v-2.81h1v2.81Zm0-5.62v-2.8h1v2.8Zm0-5.61v-2.81h1V145Zm0-5.61V136.6h1v2.81Zm0-5.62V131h1v2.8Zm0-5.61v-2.81h1v2.81Zm0-5.61v-2.81h1v2.8Zm0-5.62v-2.8h1V117Zm0-5.61v-2.81h1v2.81Zm0-5.61v-2.81h1v2.8Zm0-5.62v-2.8h1v2.81Zm0-5.61V91.69h1V94.5Zm0-5.62v-2.8h1v2.8Zm0-5.61V80.46h1v2.81Zm0-5.61V74.85h1v2.81Zm0-5.62v-2.8h1V72Zm0-5.61V63.62h1v2.81Zm115.9-4.9-2.81-.13.05-1,2.8.13Zm-5.61-.26-2.81-.13.05-1,2.8.13ZM404.72,61l-2.8-.13,0-1,2.81.13ZM300,60.82V58h1v2.8Zm99.08-.07-2.8-.13,0-1,2.81.13Zm-5.61-.26-2.8-.13.05-1,2.8.13Zm-5.6-.26-2.81-.13.05-1,2.8.13ZM382.29,60l-2.81-.13,0-1,2.81.13Zm-5.61-.26-2.8-.13,0-1,2.81.13Zm-5.61-.26-2.8-.13.05-1,2.8.13Zm-5.6-.26-2.81-.13,0-1,2.8.13Zm-5.61-.26-2.81-.13.05-1,2.81.13Zm-5.61-.26-2.8-.12,0-1,2.81.13Zm-5.61-.25-2.8-.13.05-1,2.8.13Zm-5.6-.26L340.23,58l0-1,2.8.13Zm-5.61-.26-2.81-.13.05-1,2.81.13Zm-5.61-.26-2.8-.13,0-1,2.81.13Zm-5.61-.26-2.8-.13,0-1,2.8.13Zm-5.61-.26L317.8,57l.05-1,2.8.13Zm-5.6-.26-2.81-.13.05-1,2.8.13Zm-5.61-.26-2.8-.13,0-1,2.81.13Zm-5.61-.26-2.8-.13,0-1,2.81.13Z"/><polygon class="cls-2" points="106.88 282.11 105.88 282.11 105.83 125.55 106.83 125.55 106.88 282.11"/><polygon class="cls-1" points="125.11 288.4 125.02 287.64 126.83 287.41 126.91 288.16 125.11 288.4"/><polygon class="cls-1" points="197.93 306.52 194.79 306.24 194.73 305.24 198.02 305.52 197.93 306.52"/><polygon class="cls-2" points="300.64 331.25 261.75 322.23 261.75 126.11 195.16 147.03 194.79 306.24 156.08 296.18 156.08 295.4 156.32 159.01 125.02 168.7 125.11 288.4 106.29 283.12 1.17 293.75 1.08 117.71 105.97 124.55 300.04 55.38 300.04 57.51 106.25 126.57 106.05 126.56 3.09 119.85 3.17 291.54 106.47 281.1 123.11 285.76 123.02 167.22 158.32 156.3 158.08 294.63 192.8 303.65 193.16 145.57 263.75 123.38 263.75 320.65 300.64 329.2 300.64 331.25"/><path class="cls-2" d="M473.92,368.88,417.1,355.32l.48-336.82L473.92,1.12ZM419.1,353.74l52.82,12.6V3.83L419.58,20Z"/><path class="cls-2" d="M126.88,161.92v-6.87l.17-.06,25.07-7.8v6.92l-.17,0Zm.5-6.51v5.82l24.24-7.49v-5.87Z"/><polygon class="cls-1" points="154.19 291.65 136.41 286.83 136.41 176.43 154.49 170.77 154.64 171.25 136.91 176.8 136.91 286.45 154.63 291.23 154.19 291.65"/><path class="cls-2" d="M199.35,139.48v-6.89l.18-.05,57-17.92v6.93Zm.5-6.52v5.84L256,121.18v-5.87Z"/></svg>