<svg id="Layer_1" data-name="Layer 1" xmlns="http://www.w3.org/2000/svg" viewBox="0 0 334 397"><defs><style>.cls-1{fill:#226c93;}.cls-2{fill:#9fb1c8;}</style></defs><title>Artboard 1</title><path class="cls-1" d="M323.75,165H241.81a9.17,9.17,0,0,1-9.15-9.15V70.32a9.16,9.16,0,0,1,9.15-9.15h81.94a9.16,9.16,0,0,1,9.15,9.15V155.8A9.17,9.17,0,0,1,323.75,165ZM241.81,63.17a7.15,7.15,0,0,0-7.15,7.15V155.8a7.16,7.16,0,0,0,7.15,7.15h81.94a7.16,7.16,0,0,0,7.15-7.15V70.32a7.15,7.15,0,0,0-7.15-7.15Z"/><path class="cls-1" d="M324.71,160.53H240.85a3.73,3.73,0,0,1-3.73-3.73V69.31a3.73,3.73,0,0,1,3.73-3.72h83.86a3.73,3.73,0,0,1,3.73,3.72V156.8A3.73,3.73,0,0,1,324.71,160.53ZM240.85,66.59a2.73,2.73,0,0,0-2.73,2.72V156.8a2.73,2.73,0,0,0,2.73,2.73h83.86a2.73,2.73,0,0,0,2.73-2.73V69.31a2.73,2.73,0,0,0-2.73-2.72Z"/><path class="cls-2" d="M320.86,153.17H244.7V73h76.16Zm-75.66-.5h75.16V73.45H245.2Z"/><path class="cls-2" d="M275.3,137.5v-5l1.94,1.91V137L276,138.25Zm1.94,2.68v3l-1.94,1.93V139.7L276,139Zm5.94-8.08L281.25,134h-3.64l-1.94-1.93Zm-4.66,3.35,1-1,1,1v3.82l-1,1-1-1Zm3.07,1.57V134.4l1.93-1.9v5l-.73.74Zm1.93,2.68v5.41l-1.93-1.94v-3l1.2-1.21Z"/><path class="cls-2" d="M288.63,137v-3l1.93-1.95v5.41l-.72.75Zm1.93,2.68v5.41l-1.93-1.93v-3l1.21-1.21Z"/><path class="cls-2" d="M295.64,137.51V132.1l1.94,1.94v3l-1.21,1.23Zm1.93,2.67v3l-1.93,1.93V139.7l.72-.73Zm-1.41-8.08H299l2.51,2.66v1.4h-1.37Zm5.78,4.92v-3l1.93-2v5.41l-.72.74Zm1.93,2.68v5.41l-1.93-1.94v-3l1.21-1.21Z"/><path class="cls-2" d="M264.12,86.31,264.07,100l-2.73,2.81L258.67,100l.05-13.69,2.7-2.78Zm.41,14.29h10.74l2.81,2.72L275.3,106H264.55l-2.78-2.7Zm16.68-14.31,0,13.68-2.73,2.81L275.76,100l.05-13.69,2.7-2.78Zm0,20.46v13.82l-2.72,2.81-2.68-2.78V106.78l2.7-2.78Z"/><path class="cls-2" d="M291.44,89.26V100l-2.73,2.81L286,100V89.28l2.7-2.78Zm.14,17.49V117.5l-2.73,2.8-2.67-2.78V106.78l2.7-2.78Zm.4-23.46h10.75L305.54,86l-2.79,2.67H292L289.23,86Zm0,34.8h10.74l2.81,2.73-2.78,2.67H292l-2.79-2.7Zm16.52-28.86V100l-2.73,2.81L303.13,100V89.26l2.7-2.78Zm0,17.52V117.5l-2.73,2.8-2.67-2.78V106.78l2.7-2.78Z"/><path class="cls-1" d="M68.47,203.42h-1l.47-91.5c0-.14,0-13.18-5.52-18.83a8.32,8.32,0,0,0-6.07-2.58h0c-2.45,0-4.35,1.93-5.8,5.9-.13.37-1.11,1-1.11,1l-.24-.07c1.61-5.17,4-7.78,7.15-7.78h0a9.26,9.26,0,0,1,6.78,2.88c5.87,6,5.81,19,5.81,19.53Z"/><path class="cls-1" d="M66.1,203.75l-.5-.06.47-91.78c0-.21.06-20.44-11-21.51l0-.49c4.77.46,8.26,4.42,10.08,11.47a46.15,46.15,0,0,1,1.34,10.53Z"/><path class="cls-1" d="M52.47,128.08h0c-2.09,0-4-1.74-5.46-4.87a30.9,30.9,0,0,1,.12-22.9c1.46-3.1,3.41-4.81,5.49-4.81h0c2.09,0,4,1.74,5.45,4.87A30.81,30.81,0,0,1,58,123.26C56.5,126.37,54.55,128.08,52.47,128.08ZM52.6,96c-1.88,0-3.67,1.6-5,4.52A30.39,30.39,0,0,0,47.45,123c1.34,2.94,3.12,4.57,5,4.58h0c1.88,0,3.66-1.61,5-4.53a30.36,30.36,0,0,0,.11-22.47c-1.35-3-3.12-4.57-5-4.58Z"/><path class="cls-1" d="M55,128.09H52.45v-.3l.56-.2h2c1.87,0,3.66-1.61,5-4.53a27.32,27.32,0,0,0,2.21-11.22,27.39,27.39,0,0,0-2.09-11.25C58.76,97.65,57,96,55.1,96H53.52l-.9-.24V95.5H55.1c2.09,0,4,1.74,5.46,4.87a27.75,27.75,0,0,1,2.14,11.46,28.06,28.06,0,0,1-2.25,11.44C59,126.38,57,128.09,55,128.09Z"/><path class="cls-2" d="M51.93,121.42h0c-1.27,0-2.44-1-3.29-2.91a16.33,16.33,0,0,1-1.26-6.75c0-5.39,2.06-9.61,4.63-9.61h0c1.27,0,2.44,1,3.29,2.91a16.49,16.49,0,0,1,1.27,6.75C56.54,117.2,54.5,121.42,51.93,121.42ZM52,102.65c-2.22,0-4.11,4.17-4.13,9.11a15.94,15.94,0,0,0,1.21,6.54c.77,1.69,1.78,2.62,2.84,2.62h0c2.22,0,4.11-4.17,4.14-9.11a15.94,15.94,0,0,0-1.22-6.54c-.77-1.69-1.78-2.62-2.84-2.62Z"/><rect class="cls-2" x="51.34" y="196.94" width="12.23" height="0.5" transform="translate(-87.68 51.86) rotate(-28.72)"/><path class="cls-2" d="M121.78,395.55h-.22a43.57,43.57,0,0,1-43.31-43.76l.53-104.48h2L80.25,351.8a41.53,41.53,0,1,0,83.06.43L163.84,248h2l-.53,104.24a43.55,43.55,0,0,1-43.53,43.31Z"/><path class="cls-1" d="M131.2,35.54a361.79,361.79,0,0,1-71.09-7l.2-1c16.57,3.44,75.28,13.65,135.06.34l.22,1A297.59,297.59,0,0,1,131.2,35.54Z"/><path class="cls-1" d="M20.86,26.17h0a6.57,6.57,0,1,1,6.6-6.54A6.51,6.51,0,0,1,20.82,26.17Zm0-12.14a5.57,5.57,0,0,0,0,11.14h0a5.57,5.57,0,0,0,0-11.14Z"/><path class="cls-1" d="M20.24,147.38h0a6.57,6.57,0,1,1,6.6-6.54h0A6.58,6.58,0,0,1,20.24,147.38Zm0-12.14a5.57,5.57,0,0,0-5.57,5.54,5.57,5.57,0,0,0,5.54,5.6h0a5.57,5.57,0,0,0,0-11.14Z"/><polygon class="cls-1" points="48.38 158.44 47.38 158.43 47.55 123.93 48.55 125.23 48.38 158.44"/><path class="cls-1" d="M127.29,219.71A439.71,439.71,0,0,1,47,212.3l.21-1c.79.17,80.39,16.5,149.61.07l.06-11.16h1l-.06,12-.38.09C174.12,217.85,149.6,219.71,127.29,219.71Z"/><path class="cls-1" d="M129.11,226.82A437.82,437.82,0,0,1,52.9,220a8.21,8.21,0,0,1-6.73-8.14l.2-52.38-27.19-.14A18.18,18.18,0,0,1,1.1,141l.62-121.5A18.18,18.18,0,0,1,20,1.45l135.67.69A18.17,18.17,0,0,1,173.72,20.4h-2A16.19,16.19,0,0,0,155.64,4.14L20,3.45h-.08A16.19,16.19,0,0,0,3.72,19.54L3.1,141a16.17,16.17,0,0,0,16.09,16.25l29.19.15-.21,54.38a6.23,6.23,0,0,0,5.1,6.17c17.84,3.29,80.52,13.08,138.1.88a6.29,6.29,0,0,0,4.95-6.08l.06-12.57h2l-.06,12.57a8.28,8.28,0,0,1-6.53,8C170.77,225.28,149.07,226.82,129.11,226.82Z"/><path class="cls-1" d="M123.72,251.52a315.19,315.19,0,0,1-45.08-3.24l-3.41-.49a13.1,13.1,0,0,1-11.18-13L64.12,221h2l-.07,13.81a11.1,11.1,0,0,0,9.46,11l3.41.49a312.83,312.83,0,0,0,86.44.44l3.42-.46a11.09,11.09,0,0,0,9.57-10.88l.07-13.81h2l-.07,13.81A13.08,13.08,0,0,1,169,248.26l-3.41.46A314.53,314.53,0,0,1,123.72,251.52Z"/><path class="cls-1" d="M63.27,203.25l-.53,0c-.9-.05-8.85-.59-11-2.5l-.17-.15.34-66.17,11.7.06Zm-10.68-3.14c1.7,1.23,7.11,1.88,9.68,2.08l.34-66.73-9.7-.05Z"/><path class="cls-1" d="M189,23C131.4,8.16,84.5,17.43,67,22.11a13.66,13.66,0,0,0-10.09,13.1L56.65,90h2l.27-54.8A11.66,11.66,0,0,1,67.53,24c17.33-4.64,63.83-13.82,121,.91a11.64,11.64,0,0,1,8.72,11.35l-.83,163.28C193.5,200.76,178,206,131.24,206c-34.26,0-55.71-2.3-65.45-3.64l-.19,1.34v.65C75.43,205.7,97,208,131.24,208h.48c52.74,0,65.61-6.6,66.13-6.88l.53-.28.83-164.52A13.61,13.61,0,0,0,189,23Z"/></svg>