<svg id="Layer_1" data-name="Layer 1" xmlns="http://www.w3.org/2000/svg" viewBox="0 0 271 293"><defs><style>.cls-1{fill:#226c93;}.cls-2{fill:#9fb1c8;}</style></defs><title>Artboard 1</title><path class="cls-1" d="M178,291.77a1.2,1.2,0,0,1-.72-.24,1.23,1.23,0,0,1-.52-1V34.71l1.32-.13a136,136,0,0,1,.33,257.12A1.47,1.47,0,0,1,178,291.77Zm.76-254.84V289.46a134,134,0,0,0,0-252.53Z"/><path class="cls-2" d="M2.29,210.94,1.88,210c1.2-.54,2.41-1.12,3.59-1.7l.45.89C4.72,209.81,3.5,210.39,2.29,210.94Z"/><path class="cls-2" d="M13.15,205.32l-.51-.86c2.34-1.37,4.65-2.84,6.88-4.36l.57.82C17.84,202.46,15.5,203.94,13.15,205.32ZM26.7,196l-.62-.78c2.12-1.68,4.2-3.46,6.19-5.29l.68.74C30.94,192.55,28.84,194.35,26.7,196ZM38.8,185l-.72-.69c1.86-2,3.67-4,5.38-6.11l.77.63C42.51,180.89,40.68,183,38.8,185Zm10.41-12.71-.82-.58c1.56-2.21,3-4.5,4.45-6.82l.85.52C52.29,167.69,50.78,170,49.21,172.24Zm8.46-14.07-.89-.45c1.22-2.41,2.37-4.9,3.41-7.39l.92.38C60.06,153.23,58.9,155.74,57.67,158.17ZM64,143l-1-.31c.86-2.57,1.63-5.19,2.3-7.82l1,.25C65.64,137.79,64.86,140.44,64,143Zm4.06-15.91-1-.18c.47-2.65.86-5.36,1.14-8.06l1,.11C68.92,121.7,68.53,124.43,68.06,127.11Zm1.71-16.33-1,0c0-1.28.07-2.56.07-3.85s0-2.56-.07-3.83c0-.15,1,.12,1,.43,0,1.13,0,2.27,0,3.4C69.84,108.2,69.81,109.49,69.77,110.78Zm-1.6-16.3c-.29-2.69-.69-5.41-1.17-8.06l1-.18c.49,2.68.89,5.42,1.18,8.13Zm-2.91-16c-.67-2.62-1.45-5.25-2.31-7.81l.95-.32c.86,2.59,1.65,5.24,2.33,7.88ZM60.08,63c-1-2.5-2.19-5-3.41-7.4l.9-.45c1.23,2.44,2.38,5,3.43,7.46ZM52.75,48.49c-1.39-2.31-2.88-4.61-4.43-6.83l.82-.57C50.7,43.32,52.2,45.64,53.6,48ZM43.41,35.16c-1.7-2.1-3.5-4.17-5.35-6.14l.73-.69c1.86,2,3.68,4.08,5.4,6.2ZM32.28,23.28c-2-1.84-4.06-3.63-6.17-5.32l.62-.78C28.86,18.89,31,20.69,33,22.54ZM19.58,13.1c-2.23-1.54-4.54-3-6.87-4.39l.51-.86c2.35,1.39,4.68,2.87,6.92,4.42Z"/><path class="cls-2" d="M5.48,4.79c-1.19-.59-2.4-1.16-3.6-1.71l.41-.91C3.5,2.72,4.73,3.3,5.92,3.89Z"/><path class="cls-1" d="M167.06,134.9,23.4,90.9l.08-.81A25.72,25.72,0,0,0,13.36,68.65c-4.72-3.54-7.53-9.84-7.53-16.86s2.82-13.54,7.53-17.07A24.35,24.35,0,0,0,23.47,15.34l-.07-1.28L167.06,42.39ZM25.51,89.46,165.06,132.2V44L25.46,16.5a26.34,26.34,0,0,1-10.9,19.82c-4.15,3.11-6.73,9-6.73,15.47s2.51,12.1,6.73,15.26A27.29,27.29,0,0,1,25.51,89.46Z"/><path class="cls-1" d="M165.05,132.88a50,50,0,0,0-15.43-25.24,23.2,23.2,0,0,1-8.1-18.49c.31-8,4.54-15.55,11.58-20.85C162,61.61,165,44.19,165.05,44l2,.35c-.13.75-3.21,18.37-12.71,25.52-6.57,5-10.5,12-10.79,19.33A21.22,21.22,0,0,0,151,106.15,51,51,0,0,1,167,132.51Z"/><path class="cls-1" d="M167.06,274,24.21,211.85l-.07-.56c0-.14-1.9-14.14-12.19-24.14-7.71-7.49-9-22-2.66-28.67,1.63-1.71,3.12-3.18,4.43-4.47,6.25-6.17,9.1-9,10.41-20.57l.15-1.27,142.78,52.25ZM26,210.47l139,60.51V185.82L26,134.92c-1.47,11.25-4.68,14.42-10.84,20.51-1.3,1.29-2.78,2.74-4.39,4.43-5.72,6-4.41,19,2.6,25.86C23.07,195.17,25.58,207.63,26,210.47Z"/><path class="cls-1" d="M165.07,272.7c0-.11-2.36-11.36-14.22-24.83l-.5-.57c-3.4-3.83-8.06-9.09-7.88-19.16a24.73,24.73,0,0,1,7.73-17.74c13.27-12.28,14.85-25.26,14.86-25.39a16.73,16.73,0,0,1,2,.39c-.23,1.69-2.3,14.28-15.5,26.5a23.06,23.06,0,0,0-7.06,16.27c-.16,9.3,4,14,7.38,17.81l.5.57c12.25,13.91,14.59,25.28,14.69,25.76Z"/><rect class="cls-2" x="141.63" y="107.57" width="4" height="1" transform="translate(35.35 251.54) rotate(-89.92)"/><path class="cls-2" d="M144,202.36h-1v-7.69h1ZM144,187h-1v-7.69h1Zm0-15.38h-1v-7.69h1Zm0-15.38h-1v-7.69h1Zm0-15.39h-1v-7.69h1Zm0-15.38h-1v-7.69h1Z"/><rect class="cls-2" x="141.48" y="211.55" width="4" height="1" transform="translate(-68.79 355.22) rotate(-89.92)"/><polygon class="cls-1" points="177.37 291.59 1.08 211.13 1.08 1.23 178.09 34.58 177.58 36.51 3.08 3.65 3.08 209.84 178.18 289.77 177.37 291.59"/></svg>