<svg id="Layer_1" data-name="Layer 1" xmlns="http://www.w3.org/2000/svg" viewBox="0 0 454 275"><defs><style>.cls-1{fill:#9fb1c8;}.cls-2{fill:#226c93;}</style></defs><title>Artboard 1</title><path class="cls-1" d="M31.38,255.27h-.1a2.4,2.4,0,0,1-2.3-2.49l.21-5.5a2.35,2.35,0,0,1-.59-.3,2.07,2.07,0,0,1-.84-2.11c.25-1.75,5.15-106.06,5.49-113.45l-10.93-2.88c-1.87,12.9-15,102.93-16.41,105.15a2.27,2.27,0,0,1-1.77,1.21,3.2,3.2,0,0,1-2.33-1.17c-.18-.26-1.85-2.24.85-7.84,3.17-6.6,15.91-102.75,16-103.72l1,.13c-.53,4-12.89,97.28-16.13,104-2.37,4.93-1.11,6.53-1,6.77a2.35,2.35,0,0,0,1.5.82c.5,0,.69-.28,1-.76,1.2-2.36,16.42-105.86,16.42-105.86l12.8,3.36,0,.41c-.21,4.58-5.26,112.26-5.52,114a1.08,1.08,0,0,0,.42,1.14,1.53,1.53,0,0,0,.61.25l.44.07L30,252.81a1.39,1.39,0,0,0,1.34,1.46,1.44,1.44,0,0,0,1.45-1.35l.22-5.5.44.07a.85.85,0,0,0,.59-.16,2.37,2.37,0,0,0,.56-1.76c.1-2.66,5.89-39.35,6.14-40.91l9.1-72.53,22.1-.68,0,1-21.25.66-9,71.69c-.06.4-6,38.21-6.13,40.81a3.3,3.3,0,0,1-.95,2.51,1.8,1.8,0,0,1-.68.34l-.18,4.5A2.4,2.4,0,0,1,31.38,255.27Z"/><polygon class="cls-1" points="8.12 222.27 7.16 222.07 26.14 129.05 27.12 129.25 8.12 222.27"/><rect class="cls-1" x="26.03" y="168.04" width="72.96" height="1" transform="matrix(0.07, -1, 1, 0.07, -110.11, 218.72)"/><path class="cls-1" d="M56.93,227.72h-.08a2,2,0,0,1-2-2.12l0-.93a3,3,0,0,0-1.25-2.57,2.33,2.33,0,0,1-1-1.8l-.47-11.17,1,0,.47,11.17a1.33,1.33,0,0,0,.55,1,4,4,0,0,1,1.67,3.42l0,.94a1,1,0,1,0,2.08.08l.14-3.59,1-13.95,1,.07-1,13.93L59,225.76A2,2,0,0,1,56.93,227.72Z"/><polygon class="cls-1" points="52.1 205.92 49.22 137.49 50.19 136.84 53.1 205.88 52.1 205.92"/><path class="cls-1" d="M42.52,129.35a14.71,14.71,0,0,1-3.74-.49l-20.1-6.26.14-3.64a1,1,0,0,1,.4-.78,1.07,1.07,0,0,1,.86-.2l20,5.23a12.92,12.92,0,0,0,3.11.3l29-1.58,0,1-29.05,1.58a15,15,0,0,1-3.36-.32l-20-5.23-.15,2.9,19.34,6a13.92,13.92,0,0,0,3.8.45l29.21-1.73,0,1-29.22,1.73Z"/><path class="cls-1" d="M72,120.25l-8.39-1.71a24.59,24.59,0,0,0-5.34-.5L20,119l-.11-1L58.23,117a26,26,0,0,1,5.56.52l8.39,1.71Z"/><rect class="cls-1" x="40.63" y="204.8" width="32.93" height="1" transform="translate(-26.76 9.4) rotate(-7.63)"/><rect class="cls-1" x="40.1" y="208.05" width="33.47" height="1" transform="translate(-27.58 9.56) rotate(-7.74)"/><rect class="cls-1" x="21.12" y="190.65" width="1" height="20.05" transform="translate(-159.93 112.49) rotate(-57.94)"/><rect class="cls-1" x="20.64" y="193.53" width="1" height="21.07" transform="translate(-162.6 112.8) rotate(-57.67)"/><rect class="cls-1" x="43.19" y="187.95" width="8.71" height="1" transform="translate(-16.38 4.91) rotate(-5.04)"/><rect class="cls-1" x="13.9" y="190.15" width="16.93" height="1" transform="translate(-16.67 2.7) rotate(-5.04)"/><rect class="cls-1" x="42.9" y="190.33" width="9.07" height="1" transform="matrix(1, -0.08, 0.08, 1, -15.49, 4.53)"/><rect class="cls-1" x="13.44" y="192.42" width="17.47" height="1" transform="matrix(1, -0.08, 0.08, 1, -15.74, 2.47)"/><rect class="cls-1" x="66.66" y="184.46" width="1" height="13.34" transform="translate(-134.78 174.91) rotate(-66.05)"/><rect class="cls-1" x="66.6" y="186.86" width="1" height="13.7" transform="translate(-136.79 172.43) rotate(-64.94)"/><rect class="cls-1" x="130.41" y="83.47" width="2" height="3.33" transform="translate(15.65 190.57) rotate(-75.27)"/><rect class="cls-1" x="123.96" y="81.77" width="2" height="3.33" transform="translate(12.47 183.05) rotate(-75.25)"/><rect class="cls-1" x="117.52" y="80.08" width="2" height="3.33" transform="translate(9.32 175.58) rotate(-75.27)"/><rect class="cls-1" x="111.08" y="78.38" width="2" height="3.33" transform="translate(6.16 168.08) rotate(-75.27)"/><rect class="cls-1" x="104.63" y="76.69" width="2" height="3.33" transform="matrix(0.25, -0.97, 0.97, 0.25, 2.98, 160.57)"/><rect class="cls-1" x="98.17" y="75.02" width="2" height="3.33" transform="matrix(0.25, -0.97, 0.97, 0.25, -0.23, 153.08)"/><rect class="cls-1" x="102.5" y="74.45" width="3.33" height="2" transform="translate(-4.51 6.66) rotate(-3.58)"/><rect class="cls-1" x="109.15" y="74.03" width="3.33" height="2" transform="translate(-4.47 7.07) rotate(-3.58)"/><rect class="cls-1" x="115.8" y="73.61" width="3.33" height="2" transform="translate(-4.43 7.49) rotate(-3.58)"/><rect class="cls-1" x="122.44" y="73.19" width="3.33" height="2" transform="translate(-4.39 7.9) rotate(-3.58)"/><rect class="cls-1" x="129.09" y="72.77" width="3.33" height="2" transform="translate(-4.36 8.32) rotate(-3.58)"/><rect class="cls-1" x="135.74" y="72.35" width="3.33" height="2" transform="translate(-4.32 8.73) rotate(-3.58)"/><rect class="cls-1" x="142.39" y="71.93" width="3.33" height="2" transform="translate(-4.28 9.15) rotate(-3.58)"/><rect class="cls-1" x="149.04" y="71.51" width="3.33" height="2" transform="translate(-4.24 9.56) rotate(-3.58)"/><rect class="cls-1" x="155.69" y="71.09" width="3.33" height="2" transform="translate(-4.26 10.13) rotate(-3.64)"/><rect class="cls-1" x="162.34" y="70.68" width="3.33" height="2" transform="translate(-4.16 10.39) rotate(-3.58)"/><rect class="cls-1" x="168.99" y="70.26" width="3.33" height="2" transform="translate(-4.18 10.98) rotate(-3.64)"/><rect class="cls-1" x="175.64" y="69.84" width="3.33" height="2" transform="translate(-4.08 11.22) rotate(-3.58)"/><rect class="cls-1" x="182.29" y="69.42" width="3.33" height="2" transform="translate(-4.1 11.82) rotate(-3.64)"/><rect class="cls-1" x="188.93" y="69" width="3.33" height="2" transform="translate(-4 12.05) rotate(-3.58)"/><rect class="cls-1" x="195.58" y="68.58" width="3.33" height="2" transform="translate(-4.02 12.66) rotate(-3.64)"/><rect class="cls-1" x="202.23" y="68.16" width="3.33" height="2" transform="translate(-3.92 12.88) rotate(-3.58)"/><rect class="cls-1" x="230.62" y="73.32" width="2" height="3.33" transform="translate(107.07 284.17) rotate(-77.17)"/><rect class="cls-1" x="217.63" y="70.36" width="2" height="3.33" transform="translate(99.84 269.19) rotate(-77.17)"/><rect class="cls-1" x="237.11" y="74.8" width="2" height="3.33" transform="translate(110.68 291.65) rotate(-77.17)"/><rect class="cls-1" x="205.24" y="68.25" width="2" height="2" transform="translate(92.92 254.97) rotate(-77.17)"/><rect class="cls-1" x="211.13" y="68.88" width="2" height="3.33" transform="translate(96.24 261.71) rotate(-77.17)"/><rect class="cls-1" x="224.12" y="71.84" width="2" height="3.33" transform="translate(103.46 276.68) rotate(-77.17)"/><rect class="cls-1" x="243.61" y="76.28" width="2" height="3.33" transform="translate(114.29 299.14) rotate(-77.17)"/><polygon class="cls-1" points="252.37 78.69 249.7 78.08 249.26 80.03 251.73 80.59 251.73 82.02 253.73 82.02 253.73 78.69 252.37 78.69"/><rect class="cls-1" x="251.73" y="85.35" width="2" height="3.33"/><rect class="cls-1" x="251.73" y="92.01" width="2" height="3.33"/><path class="cls-1" d="M252.81,100.86l-3.56-.94.54-1.92,2.86.86ZM246.05,99l-3.21-.91.54-1.92,3.21.9Zm-6.42-1.81-3.2-.9.54-1.93,3.21.9Zm-6.41-1.81L230,94.5l.55-1.93,3.2.91Zm-6.41-1.8-3.21-.91.54-1.92,3.21.9Zm-6.42-1.81-3.2-.91.54-1.92,3.21.9ZM214,90l-3.2-.9.54-1.93,3.21.91Zm-6.41-1.81-2.14-.6L205.38,85l2,0,0,1.11.71.2Zm-2.25-6.52-.06-3.33,2,0,.06,3.33ZM205.19,75l-.06-3.33,2,0,.06,3.33Z"/><rect class="cls-2" x="374.55" y="90.77" width="1" height="111.69"/><rect class="cls-2" x="72.2" y="40.74" width="2" height="75.22" transform="translate(-23.93 123.76) rotate(-72)"/><polygon class="cls-2" points="431.42 225.43 429.42 225.42 429.51 87.18 252.81 100.86 252.65 98.86 431.51 85.02 431.42 225.43"/><polygon class="cls-2" points="451.53 66.67 324.83 49.91 307.45 50.98 307.33 48.99 324.9 47.9 451.41 64.64 451.53 66.67"/><polygon class="cls-2" points="111.99 273.97 73.17 245.94 70.73 106.89 36.56 93.73 36.43 65.79 296.13 49.68 296.25 51.68 38.44 67.67 38.56 92.35 72.7 105.51 75.15 244.91 112.73 272.04 111.99 273.97"/><path class="cls-2" d="M301.16,66.57a36.79,36.79,0,0,1-7.81-.69l-.19,0V64.3a1.76,1.76,0,0,1,1.76-1.77h1.17V63h-1.17a1.26,1.26,0,0,0-1.26,1.27v1.14a48.57,48.57,0,0,0,16.07,0V64.28A1.25,1.25,0,0,0,308.48,63h-1v-.5h1a1.76,1.76,0,0,1,1.75,1.75v1.58l-.22,0A59.74,59.74,0,0,1,301.16,66.57Z"/><path class="cls-2" d="M296,18.55a.66.66,0,0,1-.41-.15.64.64,0,0,1-.21-.46V16.63a.62.62,0,0,1,.53-.61,33.53,33.53,0,0,1,11.79.14.6.6,0,0,1,.47.59v1.16h-.5V16.75a.12.12,0,0,0-.08-.11A33.26,33.26,0,0,0,296,16.52a.11.11,0,0,0-.1.11v1.31a.1.1,0,0,0,0,.08.14.14,0,0,0,.09,0,55.3,55.3,0,0,1,11.63-.16l-.08.5a54.4,54.4,0,0,0-11.48.15Z"/><path class="cls-2" d="M301.16,65.59a36.79,36.79,0,0,1-7.81-.69l.12-.48c.06,0,6.4,1.51,16.47,0l.07.5A59.74,59.74,0,0,1,301.16,65.59Z"/><path class="cls-2" d="M301.75,64.14a25.78,25.78,0,0,1-3.61-.26l-2.2-.3V18.35h.5V63.14l1.77.25a25.42,25.42,0,0,0,7,0l2-.26V22.61h.5v41l-2.39.32A25.62,25.62,0,0,1,301.75,64.14Z"/><path class="cls-2" d="M307.91,23a2.34,2.34,0,0,1-2.1-2.53,2.34,2.34,0,0,1,2.1-2.53,2,2,0,0,1,1.66,1l-.42.26a1.49,1.49,0,0,0-1.24-.75,1.86,1.86,0,0,0-1.6,2,1.86,1.86,0,0,0,1.6,2,1.4,1.4,0,0,0,1-.49l.36.34A1.89,1.89,0,0,1,307.91,23Z"/><path class="cls-2" d="M304.83,23.08a2.34,2.34,0,0,1-2.11-2.53A2.35,2.35,0,0,1,304.81,18l2.9-.12,0,.49-2.91.13a1.86,1.86,0,0,0-1.6,2,1.85,1.85,0,0,0,1.59,2l2.56-.22,0,.5-2.58.22Z"/><path class="cls-2" d="M306.3,23a2.34,2.34,0,0,1-2.09-2.53,2.34,2.34,0,0,1,2.09-2.53v.5a1.85,1.85,0,0,0-1.59,2,1.86,1.86,0,0,0,1.58,2Z"/><path class="cls-2" d="M310.59,25.94A9.32,9.32,0,0,0,309,22.33a1.69,1.69,0,0,0-1.05-.29.27.27,0,0,1-.25-.16,3.16,3.16,0,0,1,0-2.51.25.25,0,0,1,.14-.13,8.93,8.93,0,0,1,2.77-.52V18l.5-.1V19a.27.27,0,0,1-.1.21.24.24,0,0,1-.23,0,6.28,6.28,0,0,0-2.68.42,2.81,2.81,0,0,0,0,1.86,2.16,2.16,0,0,1,1.2.39c.64.47,1.46,2.56,1.74,3.61C311.06,25.67,310.59,25.94,310.59,25.94Z"/><path class="cls-2" d="M311.49,26.4c-.44,0-.82-.13-.9-.46,0-.13,0-.39.35-.65a2.34,2.34,0,0,1,.83-.35c.64-.15,1.39-.09,1.5.39,0,.13,0,.39-.35.65a2.33,2.33,0,0,1-.83.34A2.54,2.54,0,0,1,311.49,26.4Zm.88-1a1.91,1.91,0,0,0-.49.06,1.29,1.29,0,0,0-.8.41,1.54,1.54,0,0,0,.9,0,1.36,1.36,0,0,0,.79-.4A.9.9,0,0,0,312.37,25.37Z"/><path class="cls-2" d="M312.79,25.46l-.66-1.93a2.73,2.73,0,0,1-.13-.8V21.64a1.35,1.35,0,0,1,.9-1.11c.07,0,.33.42.33.42a.87.87,0,0,0-.73.71v1.07a2.05,2.05,0,0,0,.11.64l.65,1.93Z"/><path class="cls-2" d="M313.2,21c-.49,0-.87-.52-.87-1.18s.38-1.19.87-1.19.86.52.86,1.19S313.68,21,313.2,21Zm0-1.87c-.17,0-.37.29-.37.69s.2.68.37.68.36-.29.36-.68S313.37,19.12,313.2,19.12Z"/><path class="cls-2" d="M313.41,18.05h0a11.71,11.71,0,0,0-2.93,0,.26.26,0,0,1-.2-.06.27.27,0,0,1-.08-.19V16.54a.25.25,0,0,1,.18-.24,6.57,6.57,0,0,1,3.14,0,.25.25,0,0,1,.18.24V17.8a.22.22,0,0,1-.09.19A.23.23,0,0,1,313.41,18.05Zm-2.75-1.31v.78a11.91,11.91,0,0,1,2.5,0v-.77A5.94,5.94,0,0,0,310.66,16.74Z"/><polygon class="cls-2" points="313.33 18.7 312.83 18.85 312.83 17.75 313.33 17.75 313.33 18.7"/><path class="cls-2" d="M313.41,16h-.06a5.61,5.61,0,0,0-2.81,0,.27.27,0,0,1-.23,0,.28.28,0,0,1-.1-.21v-.85a.26.26,0,0,1,.2-.25,5.92,5.92,0,0,1,3.09,0,.24.24,0,0,1,.16.23v.85a.25.25,0,0,1-.09.2A.3.3,0,0,1,313.41,16Zm-1.56-.68a6.5,6.5,0,0,1,1.31.13V15.1a6.08,6.08,0,0,0-2.45,0v.32A5.79,5.79,0,0,1,311.85,15.33Z"/><rect class="cls-2" x="310.7" y="15.62" width="0.5" height="0.74"/><rect class="cls-2" x="312.84" y="15.64" width="0.5" height="0.74"/><path class="cls-2" d="M312.91,14.13h0a11.08,11.08,0,0,0-1.89-.05.24.24,0,0,1-.26-.23,117.65,117.65,0,0,1-.65-12.27.27.27,0,0,1,.12-.2,3.54,3.54,0,0,1,3.09,0,.25.25,0,0,1,.15.23c0,.4.13,10-.29,12.33A.24.24,0,0,1,312.91,14.13Zm-1.3-.57c.35,0,.71,0,1.09,0,.34-2.45.26-10.58.24-11.84a3,3,0,0,0-2.37,0c-.16,2.75.45,9.85.63,11.81Z"/><path class="cls-2" d="M313,12.45a3.2,3.2,0,0,0-2.08-.06l-.16-.47a3.71,3.71,0,0,1,2.41.06Z"/><rect class="cls-2" x="311.03" y="13.89" width="0.5" height="0.93"/><rect class="cls-2" x="312.33" y="13.82" width="0.5" height="0.93"/><path class="cls-2" d="M292.58,71l-55.27-6.16a.25.25,0,0,1,0-.5l58.75-3.2h0a.25.25,0,0,1,.25.23.26.26,0,0,1-.24.27l-55.74,3,52.24,5.83,77.78-3.92-54.17-6-8.6.48a.26.26,0,0,1-.27-.24.25.25,0,0,1,.24-.26l8.65-.48,57.27,6.39a.25.25,0,0,1,.23.25.27.27,0,0,1-.24.25Z"/><path class="cls-2" d="M292.62,69.75l-39.7-4.43a.24.24,0,0,1-.22-.25.26.26,0,0,1,.24-.25l43.13-2.34h0a.25.25,0,0,1,.25.23.26.26,0,0,1-.24.27L256,65.16l36.67,4.09,61.73-3.11-38.19-4.26-8.62.47h0a.25.25,0,0,1-.25-.23.26.26,0,0,1,.24-.27l8.66-.47L357.5,66a.24.24,0,0,1,.22.26.25.25,0,0,1-.24.24Z"/><path class="cls-2" d="M304.3,69.16h0L264.42,64.7a.25.25,0,0,1-.22-.28.24.24,0,0,1,.28-.22l39.85,4.46a.26.26,0,0,1,.22.28A.25.25,0,0,1,304.3,69.16Z"/><path class="cls-2" d="M316.24,68.45h0l-17.69-2a.25.25,0,0,1-.22-.28c0-.14,1.33-.11,1.46-.09l18,2c.14,0-1.25,0-1.26.11A.25.25,0,0,1,316.24,68.45Z"/><path class="cls-2" d="M293.68,65.92h0l-15.53-2a.25.25,0,0,1-.21-.28.24.24,0,0,1,.28-.22l15.24,1.94c.13,0,.52.18.5.32A.24.24,0,0,1,293.68,65.92Z"/><path class="cls-2" d="M330.1,67.84l-20-2.23a.26.26,0,0,1-.22-.28.25.25,0,0,1,.28-.22l20.14,2.25a.24.24,0,0,1,.22.27C330.51,67.76,330.11,67.84,330.1,67.84Z"/><path class="cls-2" d="M293.43,63.86h0l-3.75-.54a.25.25,0,0,1-.21-.28.24.24,0,0,1,.29-.21l3.74.54a.24.24,0,0,1,.21.28A.24.24,0,0,1,293.43,63.86Z"/><path class="cls-2" d="M345.2,67.08l-37.72-4.21a.24.24,0,0,1-.22-.27.25.25,0,0,1,.27-.23l37.85,4.23C345.52,66.61,345.21,67.08,345.2,67.08Z"/><polyline class="cls-2" points="111.07 272.71 107.95 89.06 138.99 86.16 139.18 88.15 109.98 90.88 113.05 271.78 141.5 267.81 141.78 269.79 111.99 273.97"/><path class="cls-2" d="M451.23,222.86l-20.93,3.6-.26-.11-55.37-23,.76-1.84,55.11,22.85,20.08-3.45.24-154.28L253.73,80.72v-2L451.16,64.63a1.59,1.59,0,0,1,1.2.42,1.61,1.61,0,0,1,.5,1.17l-.25,156.4Z"/><polygon class="cls-2" points="142.27 238.43 375.2 203.45 374.9 201.47 142.27 236.41 142.27 238.43"/><path class="cls-1" d="M140.64,270l0-2.92,2,0v2.67Zm-.09-6.25,0-3.33,2,0,0,3.33Zm-.09-6.66-.05-3.33,2,0,.05,3.33Zm-.09-6.66-.05-3.34,2,0,.05,3.33Zm-.1-6.67,0-3.33,2,0,0,3.33Zm-.09-6.66-.05-3.33,2,0,.05,3.33Zm-.09-6.66-.05-3.33,2,0,.05,3.33Zm-.1-6.66,0-3.33,2,0,0,3.33Zm-.09-6.66-.05-3.33,2,0,.05,3.33Zm-.09-6.66-.05-3.34,2,0,.05,3.33Zm-.09-6.67-.05-3.33,2,0,.05,3.33Zm-.1-6.66,0-3.33,2,0,0,3.33Zm-.09-6.66-.05-3.33,2,0,.05,3.33Zm-.09-6.66-.05-3.33,2,0,.05,3.33Zm-.1-6.66,0-3.33,2,0,0,3.33Zm-.09-6.66-.05-3.33,2,0,.05,3.33Zm-.09-6.66,0-3.34,2,0,0,3.33Zm-.1-6.67,0-3.33,2,0,0,3.33Zm-.09-6.66-.05-3.33,2,0,.05,3.33Zm-.09-6.66,0-3.33,2,0,0,3.33Zm-.1-6.66,0-3.33,2,0,0,3.33Zm-.09-6.66-.05-3.33,2,0,.05,3.33Zm-.09-6.66,0-3.33,2,0,0,3.33Zm-.1-6.67,0-3.33,2,0,0,3.33Zm-.09-6.66,0-3.33,2,0,0,3.33Zm-.09-6.66,0-3.33,2,0,0,3.33Zm-.09-6.66,0-3.33,2,0,0,3.33Zm-.1-6.66,0-4.26,2-.21,0,4.44Z"/></svg>