<svg id="Layer_1" data-name="Layer 1" xmlns="http://www.w3.org/2000/svg" viewBox="0 0 293 317"><defs><style>.cls-1{fill:#226c93;}.cls-2{fill:#9fb1c8;}</style></defs><title>Artboard 1</title><path class="cls-1" d="M122.82,190.76h-.16c-19-.1-34.34-17.51-34.23-38.82A40.91,40.91,0,0,1,98.61,124.7a32.46,32.46,0,0,1,24.44-11.23c19,.09,34.34,17.51,34.23,38.82a40.87,40.87,0,0,1-10.18,27.23A32.44,32.44,0,0,1,122.82,190.76Zm.07-75.29A30.47,30.47,0,0,0,100.1,126,38.92,38.92,0,0,0,90.43,152c-.11,20.2,14.36,36.72,32.24,36.81h.15a30.45,30.45,0,0,0,22.79-10.58,38.87,38.87,0,0,0,9.67-25.9h0c.11-20.21-14.36-36.72-32.24-36.81Z"/><path class="cls-1" d="M121,184.7h-.14a27.41,27.41,0,0,1-20.5-9.64,34.33,34.33,0,0,1-8.37-23c.09-17.85,13.12-32.33,29.07-32.33h.13a27.4,27.4,0,0,1,20.5,9.64,35.27,35.27,0,0,1-.23,45.89A27.41,27.41,0,0,1,121,184.7Zm.06-64c-15.4,0-28,14-28.07,31.34a33.32,33.32,0,0,0,8.12,22.32,26.4,26.4,0,0,0,19.76,9.3H121a26.41,26.41,0,0,0,19.72-9.1,33.29,33.29,0,0,0,8.34-22.24h0A33.32,33.32,0,0,0,140.93,130a26.4,26.4,0,0,0-19.75-9.3Z"/><path class="cls-1" d="M148,127l-1.5-1.32c14.1-16,17.29-36.7,19.86-53.33.54-3.54,1.06-6.89,1.65-10a86.43,86.43,0,0,1,3.91-14,60.6,60.6,0,0,1,6.33-12.41c1.78-2.66,3.16-6.85,1.68-10.64s-5.83-6.76-12.76-8.41c-22.69-5.41-51.68-4.63-60.93,6-13.61,15.67-6.11,36.34.5,54.58,1.86,5.14,3.62,10,4.86,14.57,4.8,17.74,1.56,24.8,1.42,25.09l-1.81-.86c0-.06,3-6.82-1.54-23.71-1.22-4.49-3-9.3-4.81-14.41-6.8-18.76-14.51-40-.13-56.57,6-6.88,18-9.09,27.05-9.74a123.56,123.56,0,0,1,35.85,3.09c7.61,1.81,12.37,5.05,14.16,9.64s.18,9.4-1.88,12.48a58.28,58.28,0,0,0-6.12,12A83.37,83.37,0,0,0,170,62.65c-.59,3.1-1.1,6.43-1.65,9.95C165.76,89.49,162.51,110.51,148,127Z"/><path class="cls-1" d="M187.91,165.08c-9.57,0-16.93-2-25.4-4.39-2.3-.63-4.67-1.29-7.2-1.94l.5-1.93c2.55.65,4.93,1.31,7.23,2,13.37,3.7,23.92,6.62,45.16,1.69,13.74-3.19,30-.63,39.76.9l1,.15a7.57,7.57,0,0,0,6.57-1.64c4.67-4.13,4.4-14,4.39-14.14.14-26.69-3.66-42.65-12-50.29-4.44-4.09-10.2-5.76-17.59-5.11-32.7,2.89-77.46,42.65-77.91,43.05l-1.33-1.49a282,282,0,0,1,26.82-20.63c20.64-14,38.21-21.68,52.25-22.92,8-.7,14.23,1.14,19.11,5.63,8.74,8,12.75,24.48,12.61,51.73,0,.4.31,10.91-5.06,15.66a9.57,9.57,0,0,1-8.21,2.13l-1-.16c-9.59-1.5-25.64-4-39-.93A90.73,90.73,0,0,1,187.91,165.08Z"/><path class="cls-2" d="M122.93,217.9c-1.34,0-2.69-.06-4-.17-31-2.51-53.94-33.64-51-69.4S98.34,85.52,129.38,88c15,1.21,28.64,9.11,38.28,22.23s14.17,29.85,12.77,47.17l-.25,0,.25,0c-1.4,17.31-8.57,33.12-20.19,44.51C149.66,212.32,136.55,217.9,122.93,217.9Zm2.46-129.52c-29.13,0-54.3,26-57,60-2.86,35.49,19.83,66.38,50.59,68.87,14.89,1.2,29.45-4.36,41-15.65s18.65-27,20-44.19-3.11-33.83-12.67-46.84-23-20.82-37.92-22C128,88.43,126.7,88.38,125.39,88.38Z"/><path class="cls-2" d="M124.91,250.58a74.83,74.83,0,0,1-8.56-.49c-22.7-2.59-42.88-15.13-56.83-35.3s-20-45.55-17-71.48S57.06,94,75.19,77.51s40.62-24.18,63.32-21.59c46.84,5.34,80,53.25,73.87,106.78C206.64,213,168.33,250.58,124.91,250.58Zm5-194.66c-19.58,0-38.6,7.63-54.33,22-18,16.42-29.6,39.68-32.55,65.49s3.08,51.07,17,71.13S93.85,247,116.41,249.6c46.57,5.32,89.39-33.7,95.47-87S185,61.73,138.46,56.41A77.61,77.61,0,0,0,129.86,55.92Z"/><path class="cls-2" d="M129.49,283.38a101.61,101.61,0,0,1-11.38-.64C88,279.3,61.26,262.72,42.75,236S16.22,175.8,20.14,141.52s19.3-65.18,43.33-87S117.32,22.58,147.41,26s56.85,20,75.36,46.7S249.3,133,245.38,167.23l-.24,0,.24,0C237.8,233.66,187,283.38,129.49,283.38Zm6.42-257.52c-26,0-51.23,10.09-72.1,29-23.94,21.73-39.28,52.51-43.18,86.67s4.11,67.61,22.53,94.18,45.06,43.07,75,46.49a100.42,100.42,0,0,0,11.32.64c57.3,0,107.84-49.53,115.4-115.71,3.9-34.16-4.11-67.6-22.53-94.17s-45.06-43.07-75-46.49A100.27,100.27,0,0,0,135.91,25.86Z"/><path class="cls-1" d="M132,302.3a113.57,113.57,0,0,1-16.52-1.21C45.65,290.78-1.5,216.94,10.37,136.48c5.75-39,24.31-73.65,52.28-97.68s62-34.54,95.89-29.55,63.41,24.87,83.26,56,27.6,69.66,21.85,108.62-24.32,73.66-52.29,97.69C187.93,291.67,160.25,302.3,132,302.3ZM142,9C114,9,86.56,19.58,63.31,39.56,35.52,63.43,17.07,97.9,11.36,136.63c-11.79,79.91,35,153.24,104.27,163.47A112.71,112.71,0,0,0,132,301.3c28,0,55.46-10.55,78.71-30.52,27.79-23.87,46.24-58.35,52-97.07s-2-77.06-21.7-107.94-49-50.58-82.57-55.53A111.52,111.52,0,0,0,142,9Z"/><path class="cls-1" d="M132.27,307.35a121.91,121.91,0,0,1-17.63-1.29c-35.52-5.24-66.59-25.85-87.5-58S-2,176,3.93,135.8,29.27,59.79,58.56,35,123.58-.47,159.1,4.77s66.6,25.84,87.51,58,29.13,72,23.2,112.24h0c-5.94,40.22-25.34,76-54.63,100.75C190.72,296.45,161.81,307.35,132.27,307.35Zm9.2-302.88c-29.3,0-58,10.83-82.26,31.34C30.1,60.4,10.82,96,4.92,135.94s2.29,79.61,23,111.55,51.59,52.38,86.82,57.58,70.66-5.48,99.74-30.05,48.39-60.15,54.29-100.14-2.29-79.6-23-111.55S194.18,11,159,5.76A119.76,119.76,0,0,0,141.47,4.47Z"/><path class="cls-1" d="M143.05,316.66a134.53,134.53,0,0,1-19.67-1.45C44.36,303.55-9.55,223.77,3.2,137.36c6.17-41.84,26.87-79,58.28-104.59s69.84-36.63,108.14-31c79,11.66,132.93,91.44,120.18,177.85-6.17,41.85-26.87,79-58.28,104.59C205.47,305.46,174.64,316.66,143.05,316.66ZM150,2.34c-31.13,0-61.53,11-87.21,32-31,25.29-51.47,62-57.57,103.33C-7.41,223,45.74,301.73,123.67,313.23c37.73,5.57,75.59-5.28,106.58-30.55s51.47-62,57.57-103.33C300.41,94,247.26,15.27,169.33,3.77A133.31,133.31,0,0,0,150,2.34Z"/><rect class="cls-1" x="87.31" y="30.39" width="1" height="92.77" transform="translate(-23.8 42.91) rotate(-24.28)"/><rect class="cls-1" x="130.7" y="86.74" width="113.51" height="1" transform="translate(-2.46 168.99) rotate(-48.25)"/><rect class="cls-1" x="9.96" y="176.38" width="83.51" height="1" transform="translate(-30.6 12) rotate(-10.23)"/><rect class="cls-1" x="140.19" y="187.54" width="1" height="113.55" transform="translate(-33.44 22.59) rotate(-8.21)"/><rect class="cls-1" x="208.2" y="115.75" width="1" height="108.79" transform="translate(14.45 356.62) rotate(-83.02)"/><path class="cls-1" d="M226.82,45.55h0a2.11,2.11,0,0,1-1.48-3.62,2.13,2.13,0,0,1,1.49-.61h0a2.12,2.12,0,0,1,2.1,2.12h0A2.12,2.12,0,0,1,226.82,45.55Zm0-3.73a1.63,1.63,0,0,0-1.14.47,1.66,1.66,0,0,0-.48,1.14,1.63,1.63,0,0,0,.47,1.14,1.66,1.66,0,0,0,1.14.48h0a1.62,1.62,0,0,0,1.61-1.61h0a1.62,1.62,0,0,0-1.61-1.62Z"/><path class="cls-1" d="M264.86,179.29h0a2.11,2.11,0,0,1,0-4.22h0a2.11,2.11,0,1,1,0,4.22Zm0-3.72a1.61,1.61,0,0,0-1.61,1.6,1.62,1.62,0,0,0,1.6,1.62h0a1.59,1.59,0,0,0,1.61-1.6,1.6,1.6,0,0,0-1.6-1.62Z"/><path class="cls-1" d="M149.15,304.8h0a2.12,2.12,0,1,1,0-4.23h0a2.12,2.12,0,0,1,0,4.23Zm0-3.73a1.62,1.62,0,1,0,0,3.23h0a1.61,1.61,0,0,0,1.13-.47,1.58,1.58,0,0,0,.48-1.14h0a1.62,1.62,0,0,0-1.61-1.62Z"/><path class="cls-1" d="M8.45,187h0a2.12,2.12,0,0,1,0-4.23h0a2.12,2.12,0,0,1,2.1,2.13h0a2.1,2.1,0,0,1-.62,1.49A2.13,2.13,0,0,1,8.45,187Zm0-3.73a1.62,1.62,0,0,0,0,3.23h0a1.62,1.62,0,0,0,1.61-1.61,1.61,1.61,0,0,0-1.6-1.62Z"/><path class="cls-1" d="M67.44,34.88h0a2.11,2.11,0,0,1-1.49-.63,2.05,2.05,0,0,1-.61-1.5A2.1,2.1,0,0,1,66,31.26a2.06,2.06,0,0,1,1.5-.61,2.12,2.12,0,0,1,0,4.23Zm0-3.73a1.63,1.63,0,0,0-1.14.47,1.63,1.63,0,0,0,0,2.28,1.68,1.68,0,0,0,1.14.48h0a1.62,1.62,0,0,0,1.61-1.61h0a1.59,1.59,0,0,0-.47-1.14,1.56,1.56,0,0,0-1.13-.48Z"/><path class="cls-1" d="M231.77,275.55h0a4.5,4.5,0,0,1,0-9h0a4.51,4.51,0,0,1,4.48,4.52h0A4.52,4.52,0,0,1,231.77,275.55Zm0-8.5a4,4,0,0,0,0,8h0a4,4,0,0,0,2.85-6.82,4,4,0,0,0-2.82-1.18Z"/><rect class="cls-1" x="231.56" y="268.03" width="0.5" height="6.13" transform="translate(-116.38 193.68) rotate(-36.93)"/><path class="cls-1" d="M259,74.08a4.5,4.5,0,1,1,1.61-8.71,4.52,4.52,0,0,1,2.51,2.37,4.46,4.46,0,0,1,.09,3.44h0A4.5,4.5,0,0,1,259,74.08Zm0-8.51a4,4,0,0,0-3.74,2.58,4,4,0,0,0,2.32,5.17A4,4,0,0,0,262.72,71h0a4,4,0,0,0-2.32-5.16A3.89,3.89,0,0,0,259,65.57Z"/><rect class="cls-1" x="255.93" y="69.38" width="6.13" height="0.5" transform="translate(4.87 155.36) rotate(-33.69)"/><path class="cls-1" d="M196.61,270.05h-.72c-17.34-.58-22.33-11.69-27.61-23.46-3.19-7.11-6.49-14.47-12.72-20.15-14.78-13.49-18.84-30.79-19.94-39.9l2-.24c1.08,8.84,5,25.61,19.31,38.66,6.54,6,9.92,13.51,13.2,20.81,5.23,11.67,9.75,21.74,25.85,22.28h.67c20.14,0,36.34-30.09,36.5-30.4a63.21,63.21,0,0,0,6.24-14.82c2.82-10.57,1.24-18.46-4.68-23.45-23.88-20.11-68.72-28-81.9-29.89l.29-2c13.31,1.94,58.62,9.88,82.9,30.33,6.48,5.46,8.32,14.29,5.32,25.54a64.27,64.27,0,0,1-6.43,15.25,94.3,94.3,0,0,1-11.15,15.86C214.79,264.69,205.43,270.05,196.61,270.05Z"/><path class="cls-1" d="M85.12,281.31a26.85,26.85,0,0,1-12.89-3.25c-24.4-13.21-32.44-29-39.54-43l-1.2-2.37a15.59,15.59,0,0,1-.91-12.21,15.42,15.42,0,0,1,8-9.06l1.57-.74c7.44-3.51,19.9-9.38,26.95-19.08,6.89-9.49,17.79-17.7,27.11-20.44l.57,1.92c-8.93,2.62-19.41,10.54-26.06,19.7-7.36,10.11-20.1,16.12-27.72,19.71l-1.56.74a13.39,13.39,0,0,0-7,7.89,13.57,13.57,0,0,0,.79,10.65l1.21,2.38c7,13.7,14.85,29.22,38.7,42.13,14.21,7.68,32.55.23,43.63-17.73,4.67-7.58,15.09-29.47,11-69.09l2-.21c3,28.33-1.14,54-11.24,70.35C110,273.45,97.27,281.31,85.12,281.31Z"/><path class="cls-1" d="M46.31,167.44c-13.23,0-25.85-5-30.56-17.72-6.39-17.26,8.57-65.07,23.9-76.35,10-7.31,16.11.3,22.62,8.37,4.16,5.16,8.88,11,15.26,14.25,25.39,12.94,25.61,26.06,25.6,26.62h-2c0-.12-.36-12.52-24.51-24.83C69.86,94.33,65,88.31,60.71,83c-6.65-8.25-11.46-14.2-19.87-8-14.5,10.67-29.25,57.72-23.21,74S44.37,168,61,163.41c12-3.33,24.46-4.08,30.22-1.83l-.73,1.86c-5.3-2.07-17.48-1.28-29,1.89A57.62,57.62,0,0,1,46.31,167.44Z"/></svg>