<svg id="Layer_1" data-name="Layer 1" xmlns="http://www.w3.org/2000/svg" viewBox="0 0 215 165"><defs><style>.cls-1{fill:#226c93;}</style></defs><title>Artboard 1</title><path class="cls-1" d="M145.11,163.64H145L4.65,159.45a3.48,3.48,0,0,1-3.08-4.86,79.1,79.1,0,0,1,146.94,4.2,3.62,3.62,0,0,1-3.4,4.85Zm-71-54.84A76.65,76.65,0,0,0,3.41,155.38a1.48,1.48,0,0,0,1.3,2.07h0l140.36,4.19a1.57,1.57,0,0,0,1.35-.67,1.61,1.61,0,0,0,.21-1.5,76.7,76.7,0,0,0-70.12-50.63C75.72,108.81,74.93,108.8,74.14,108.8Z"/><path class="cls-1" d="M147.18,163l-.77-1.89,64.12-42.15c.51-.29,1.5-1,1.08-2.13A77.07,77.07,0,0,0,98.68,77.66L38.36,117.29l-4.71.69,64-42a79.07,79.07,0,0,1,115.88,40.16,3.64,3.64,0,0,1-1.92,4.51Z"/><path class="cls-1" d="M112.14,62.65c-4.23,0-7.67-.12-9.92-.24A2.76,2.76,0,0,1,100,58.18L132.2,6.66A11.3,11.3,0,0,1,144,1.59c12.75,2.65,35.07,8.86,41.28,20.76a14.6,14.6,0,0,1,.23,13C180.27,47.68,166.38,56,144.23,60A184.52,184.52,0,0,1,112.14,62.65ZM141.76,3.36a9.31,9.31,0,0,0-7.86,4.35L101.71,59.24a.77.77,0,0,0,.61,1.18c11.49.57,69.46,2,81.38-25.82,1.74-4.08,1.69-7.78-.16-11.33-6-11.58-29.93-17.65-39.92-19.72A9,9,0,0,0,141.76,3.36Z"/><polygon class="cls-1" points="100.46 74.91 99.59 59.68 101.64 60.11 102.45 74.8 100.46 74.91"/><polygon class="cls-1" points="188.25 83.57 185.06 30.63 186.96 28.82 190.24 83.45 188.25 83.57"/></svg>