<svg id="Layer_1" data-name="Layer 1" xmlns="http://www.w3.org/2000/svg" viewBox="0 0 408 275"><defs><style>.cls-1{fill:#9fb1c8;}.cls-2{fill:#226c93;}</style></defs><title>Artboard 1</title><path class="cls-1" d="M196.31,59h-.5V50.47a.61.61,0,0,0-.56-.61l-2.69-.23.05-.5,2.68.23a1.11,1.11,0,0,1,1,1.11Z"/><path class="cls-1" d="M270.92,66h-.5V59.56a1.11,1.11,0,0,1,1.22-1.11l2.24.23a1.09,1.09,0,0,1,1,1.1v4.11h-.5V59.78a.62.62,0,0,0-.54-.61L271.59,59a.62.62,0,0,0-.47.15.61.61,0,0,0-.2.46Z"/><rect class="cls-1" x="360.73" y="65.3" width="1" height="2.44"/><polygon class="cls-1" points="307.66 98.75 307.17 97.88 361.13 67.23 377.1 69.25 376.97 70.24 361.33 68.26 307.66 98.75"/><polygon class="cls-1" points="31.51 60.58 31.18 59.64 97.12 36.73 109.74 37.5 109.68 38.5 97.26 37.74 31.51 60.58"/><rect class="cls-1" x="95.96" y="35.5" width="2.47" height="1" transform="translate(61.01 133.12) rotate(-89.89)"/><path class="cls-1" d="M174.36,56.1l-.44-9.91a.88.88,0,0,1,.82-.92l0,.5c-.21,0-.38,0-.37.17l.45,10.14Z"/><path class="cls-1" d="M238.63,50.88l-46.1-5.17a17.66,17.66,0,0,0-3.17-.06l-15.1.37,0-1,15.07-.37a18.57,18.57,0,0,1,3.33.07l46.1,5.16Z"/><path class="cls-1" d="M284.06,60.1l-6.55-4.16a3.47,3.47,0,0,0-1.65-.66l-16.67-1.91.11-1L276,54.29a4.31,4.31,0,0,1,2.11.83l6.51,4.14Z"/><rect class="cls-1" x="192.33" y="45.32" width="0.5" height="13.15"/><rect class="cls-1" x="276.51" y="55.09" width="0.5" height="7.87"/><polygon class="cls-1" points="195.39 94.1 108.85 81.62 108.93 81.13 195.46 93.61 195.39 94.1"/><rect class="cls-1" x="150.37" y="55.7" width="0.5" height="87.63" transform="translate(27.24 231.3) rotate(-80.34)"/><path class="cls-1" d="M20.54,87.77a10.61,10.61,0,0,1-3.39-.58c-2.51-.83-10.95-12.54-11.31-13-.09-.13-2.22-3.22-.68-4.43l.31.39c-1,.77.23,3,.78,3.75,3,4.17,9.17,12.23,11.06,12.86a9,9,0,0,0,4.1.49l.09.5A7.35,7.35,0,0,1,20.54,87.77Z"/><polygon class="cls-1" points="134.76 117.04 134.48 116.63 141.03 112.14 141.31 112.55 134.76 117.04"/><polygon class="cls-1" points="133.2 111.3 132.94 110.87 139.57 106.83 139.83 107.26 133.2 111.3"/><polygon class="cls-1" points="108.09 106.41 107.85 105.97 114.3 102.41 114.54 102.84 108.09 106.41"/><polygon class="cls-1" points="134.86 70.73 134.67 67.33 135.17 67.31 135.36 70.7 134.86 70.73"/><rect class="cls-1" x="153.54" y="67.72" width="3.1" height="0.5" transform="matrix(0.04, -1, 1, 0.04, 81.12, 220.29)"/><rect class="cls-1" x="217.75" y="75.99" width="2.99" height="0.5" transform="translate(113.39 282.82) rotate(-82.04)"/><path class="cls-1" d="M111.76,137.05l-.24-.43a.36.36,0,0,0,.16-.22.33.33,0,0,0-.05-.26c-1.3-1.76-4.26-6.11-3.82-8.47s3.81-5.64,4.82-6.55A.76.76,0,0,1,113,121l.14.48a.24.24,0,0,0-.13.07c-.7.62-4.22,3.87-4.66,6.26-.42,2.23,2.75,6.75,3.73,8.08a.82.82,0,0,1,.14.66A.8.8,0,0,1,111.76,137.05Z"/><polygon class="cls-1" points="292.47 166.59 291.56 160.16 291.76 147.35 292.26 147.35 292.06 160.13 292.96 166.52 292.47 166.59"/><path class="cls-1" d="M341.86,117.73l-.51.18v-1.76a11.25,11.25,0,0,0-3.08-7.76L335.11,105l.36-.35,3.17,3.37a11.73,11.73,0,0,1,3.22,8.1Z"/><path class="cls-1" d="M306.34,129.2q-.3,0-.6,0l-13.05-1.12a1.22,1.22,0,0,1-1.13-1.23v-7.21l.9-17,.5,0-.9,17v7.2a.73.73,0,0,0,.68.73l13,1.12a6.34,6.34,0,0,0,2.52-.28l33.4-10.69,59.95-38.6.27.42-60,38.65-33.44,10.7A6.84,6.84,0,0,1,306.34,129.2Z"/><rect class="cls-1" x="284.69" y="128.56" width="7.6" height="0.5" transform="translate(-27.02 112.24) rotate(-21.05)"/><path class="cls-2" d="M374.81,195.83l-2.69,0a1.25,1.25,0,0,1-1.25-1.2l-1.49-33.13.48-.55,1.51,33.66a.75.75,0,0,0,.75.72h3.09Z"/><polygon class="cls-2" points="263.18 119.66 245.44 117.54 245.26 117.15 246.92 114.78 247.33 115.07 245.92 117.1 263.24 119.16 263.18 119.66"/><path class="cls-2" d="M247.3,171.35c-1.61-5.38-1.68-49.42-1.63-54h.5c0,4.57,0,48.53,1.61,53.86Z"/><path class="cls-2" d="M233.05,172.66l-.59-2.39c-3.41-14-3.87-51.16-3.81-54.94h.5c-.05,3.53.35,36.38,3.2,51.95-.4-10.62-1.72-46.57-1.76-49a2.71,2.71,0,0,1,.8-2.25,2.29,2.29,0,0,1,1.78-.4L246,117.1l-.06.5-12.8-1.49a1.84,1.84,0,0,0-1.38.3,2.21,2.21,0,0,0-.62,1.85c0,2.86,1.85,51.45,1.87,51.94Z"/><path class="cls-2" d="M148.87,117.75a13.29,13.29,0,0,1-1.4-.08,10.12,10.12,0,0,1-3-.75c-.88-.41-1.32-.88-1.26-1.37.12-1.06,2.41-1.37,4.61-1.13a10.19,10.19,0,0,1,3,.76c.88.4,1.32.87,1.26,1.36h0C152,117.38,150.55,117.75,148.87,117.75Zm-2.44-2.91c-1.66,0-2.67.39-2.72.77,0,.18.23.51,1,.85a9.43,9.43,0,0,0,2.83.71c2.44.28,4-.21,4.06-.68h0c0-.18-.22-.51-1-.86a9.82,9.82,0,0,0-2.83-.71A13.47,13.47,0,0,0,146.43,114.84Z"/><path class="cls-2" d="M23.65,121.42l-1.49-13.06a3.6,3.6,0,0,0-2-2.84l-2.42-1.15A18.85,18.85,0,0,1,10.19,98L5.42,91l.41-.28,4.77,7a18.47,18.47,0,0,0,7.32,6.25l2.42,1.15a4.06,4.06,0,0,1,2.31,3.23l1.5,13.06Z"/><rect class="cls-2" x="121.56" y="217.49" width="1" height="23.64" transform="translate(-124.53 311) rotate(-80.3)"/><polygon class="cls-2" points="180.73 242.34 158.45 237.83 156.32 240.27 155.45 239.74 158.08 236.74 180.93 241.36 180.73 242.34"/><polygon class="cls-2" points="230.17 251.77 205.76 246.84 203.03 249.42 202.35 248.69 205.45 245.75 230.36 250.78 230.17 251.77"/><rect class="cls-2" x="150.06" y="96.17" width="1" height="131.67" transform="translate(-34.53 283.06) rotate(-80.28)"/><path class="cls-2" d="M260.91,192.94a5.14,5.14,0,0,1-.78-.07l-41.41-7.4a4.46,4.46,0,0,1-3.65-4.52l.36-10-.94-.13a1.42,1.42,0,0,1-1.23-1.34l-1.38-27.07a1.42,1.42,0,0,1,1.43-1.5h.07l-.47-26.35a5,5,0,0,1,.85-3.32,2.46,2.46,0,0,1,2.05-1L233,112.32a1,1,0,0,1,.68.38l.71.88,11.79,1.24s.24-.2.39-.38a1,1,0,0,1,.95-.41l18.61,2.55a1.36,1.36,0,0,1,.71.2l3.26,2.08-.53.84-3.25-2.07a.44.44,0,0,0-.47,0l-1.91,1.59a.44.44,0,0,0-.22.37L263.62,150h.24l.19-.45a1.15,1.15,0,0,1,1.08-.72h1.29l1.65,29.27a1.25,1.25,0,0,1-1.1,1.31l-1.31.15-.32,9.11a4.44,4.44,0,0,1-4.43,4.28Zm-45.12-81.7a1.59,1.59,0,0,0-1.26.64,4.11,4.11,0,0,0-.63,2.62l.5,27.41h-1.09a.44.44,0,0,0-.31.13.43.43,0,0,0-.12.32l1.38,27.06a.43.43,0,0,0,.37.41l1.83.25L216.07,181a3.45,3.45,0,0,0,2.83,3.5l41.41,7.39a3.43,3.43,0,0,0,4-3.26l.35-10,2.17-.26a.24.24,0,0,0,.21-.26l-1.59-28.32h-.35a.18.18,0,0,0-.16.1l-.44,1.07h-1.91l.09-31.38a1.43,1.43,0,0,1,.61-1.17l1.28-1.06L247.38,115l-.07.09c-.23.25-.81.82-1.38.68l-11.64-1.21a1,1,0,0,1-.69-.37l-.71-.89-17.1-2.08"/><path class="cls-2" d="M300.24,144.67H288.63a13.23,13.23,0,0,1-2-.15l-17.34-2.59a1.27,1.27,0,0,1-1.08-1.32l1.11-19.88,1.77-13.13a7.33,7.33,0,0,1,3.73-5.43l75-40.19.31,1-74.86,40a6.32,6.32,0,0,0-3.22,4.68l-1.77,13.09-1.1,19.84a.26.26,0,0,0,.23.28l17.34,2.6a12.55,12.55,0,0,0,1.84.13h11.61a26.93,26.93,0,0,0,8.53-1.39l35.8-12,59.4-40,.56.83L345,131.14l-.06,0-35.87,12.06A27.66,27.66,0,0,1,300.24,144.67Z"/><path class="cls-2" d="M214.22,112.33l-1.13.23,1.56-14.06a5.76,5.76,0,0,1,3.21-4.59L296.67,56l.43.91L218.3,94.81a4.75,4.75,0,0,0-2.65,3.79Z"/><path class="cls-2" d="M275.07,102.83c-2.48,0-37.29-4.59-58.25-7.38l.06-.5c19.38,2.58,56.12,7.41,58.08,7.41H275l0,.19.16.27Z"/><path class="cls-2" d="M241.6,73.92h-1V43.87a3.31,3.31,0,0,0-.74-2.09l-7.73-9.38A3.24,3.24,0,0,0,230,31.22l-72.52-7.73a3.3,3.3,0,0,0-2.82,1.09l-5.5,6.26a3.35,3.35,0,0,0-.82,2.2l1,29.36-1,0-1-29.38a4.27,4.27,0,0,1,1.07-2.88l5.5-6.26a4.33,4.33,0,0,1,3.67-1.43l72.52,7.74a4.22,4.22,0,0,1,2.86,1.53l7.72,9.39a4.27,4.27,0,0,1,1,2.72Z"/><path class="cls-2" d="M40.68,85.86c-.73-5.28.79-10.8,1.28-12.62a6,6,0,0,1,3.75-4l90.1-32.16.34.94L46,70.15a5,5,0,0,0-3.11,3.35c-.48,1.77-2,7.15-1.26,12.22Z"/><rect class="cls-2" x="65.93" y="52.58" width="0.5" height="46.45" transform="translate(-19.27 128.94) rotate(-80.76)"/><path class="cls-2" d="M194.89,150.94,112,137.36l-5.63,3.09a1.12,1.12,0,0,1-.61.13l-13-1.06a1.09,1.09,0,0,1-.95-.8L91,135.28a3.77,3.77,0,0,1-2.87-3.3l-1.56-17.54v-23l0-.13,1.71-11.36a1.06,1.06,0,0,1,.66-.84L141.35,58l.37.93L89.29,80,87.52,91.43v22.91l1.57,17.55a2.65,2.65,0,0,0,2,2.36,1.1,1.1,0,0,1,.8.77l.9,3.44,13,1.12,6-3.27.17,0,83,13.61Z"/><rect class="cls-2" x="146.83" y="62.42" width="1" height="121.98" transform="matrix(0.15, -0.99, 0.99, 0.15, 3.4, 250.76)"/><path class="cls-2" d="M159.55,114l-.94-.55,4.22-3.86a2,2,0,0,1,1.7-.53l23.31,3.32-.14,1L164.39,110a1.08,1.08,0,0,0-.88.27Z"/><path class="cls-2" d="M197.68,151.8a3.36,3.36,0,0,1-2.73-3.3v-3.36a1.06,1.06,0,0,0-.27-.7L184.19,132.3a1.11,1.11,0,0,0-.65-.36l-69.91-11.26-3.73-.44a2.39,2.39,0,0,0-2,.75l-7,7.57a3.68,3.68,0,0,0-1,2.64l0,1.74a3.74,3.74,0,0,0,.94,2.36l4.58,5.11.75-.67-4.58-5.11a2.66,2.66,0,0,1-.69-1.72l0-1.74a2.69,2.69,0,0,1,.71-1.93l7-7.57a1.43,1.43,0,0,1,1.17-.44l3.73.44L183.43,133,194,145.14v3.36a4.38,4.38,0,0,0,3.54,4.29l15.45,3,.19-1Z"/><rect class="cls-2" x="279.15" y="98.61" width="1" height="14.1" transform="translate(142.62 371.35) rotate(-83.41)"/><path class="cls-2" d="M326.41,100.37l-.32,0-22-1.82a.83.83,0,0,1-.76-.66.84.84,0,0,1,.41-.93L360,65.35a3.5,3.5,0,0,1,2.15-.42l16.19,1.94a1.26,1.26,0,0,1,.5,2.33L328.38,99.81A3.75,3.75,0,0,1,326.41,100.37Zm-21.78-2.79,21.54,1.77a2.7,2.7,0,0,0,1.69-.39l50.48-30.61a.27.27,0,0,0,.12-.29.25.25,0,0,0-.23-.2L362,65.92a2.43,2.43,0,0,0-1.54.31Z"/><path class="cls-2" d="M34.56,105.26l-11.87-1.71a17.69,17.69,0,0,1-11.76-7.28l-9-13.61.82-.58,9,13.62a16.71,16.71,0,0,0,11.08,6.87l11.87,1.7Z"/><path class="cls-2" d="M40.73,62.73a5.3,5.3,0,0,1-1.19-.14L28.9,60a1.1,1.1,0,0,1-.83-1A1.08,1.08,0,0,1,28.8,58L96.45,34.4h0a2.54,2.54,0,0,1,1-.14L115,35.36a.65.65,0,0,1,.18,1.26L42.43,62.44A5.19,5.19,0,0,1,40.73,62.73ZM97.27,35.26a1.67,1.67,0,0,0-.49.08h0L29.13,58.9a.08.08,0,0,0-.06.09.07.07,0,0,0,.07.07l10.63,2.56a4.11,4.11,0,0,0,2.33-.13l71.07-25.24-15.8-1Z"/><path class="cls-2" d="M38,127.53l-2.42-2.46a5,5,0,0,1-1.46-3.49l-.6-47a3.27,3.27,0,0,1,.3-1.44l.7-1.54a3.34,3.34,0,0,1,1.89-1.76l97.89-36.26.35.94L36.75,70.77A2.32,2.32,0,0,0,35.42,72l-.7,1.54a2.18,2.18,0,0,0-.21,1l.6,47a4,4,0,0,0,1.17,2.8L37.9,126Z"/><rect class="cls-2" x="28.78" y="65.66" width="0.5" height="11.73" transform="translate(-45.01 93.36) rotate(-84.34)"/><path class="cls-2" d="M154.3,63.12v-.36a1.51,1.51,0,0,0-.48-1.09l-2.24-2.11a4,4,0,0,1-1.24-2.79l-.54-23.46a2.11,2.11,0,0,1,.59-1.51l5.05-6a3.11,3.11,0,0,1,2.69-1.08L230,32.62a2.75,2.75,0,0,1,1.73.87l1.54,1.62.24,1-2.15-2.31a2.26,2.26,0,0,0-1.41-.71l-71.89-7.86a2.61,2.61,0,0,0-2.26.91l-5.06,6a1.62,1.62,0,0,0-.46,1.17l.54,23.46a3.48,3.48,0,0,0,1.09,2.44l2.23,2.1a2,2,0,0,1,.64,1.45v.37Z"/><rect class="cls-2" x="150.47" y="55.68" width="11.88" height="0.5" transform="translate(-9.29 67.62) rotate(-23.71)"/><polygon class="cls-2" points="163.1 27.34 155.58 26.47 155.64 25.97 163.16 26.85 163.1 27.34"/><path class="cls-2" d="M247.26,74.76l-1-45.85a1,1,0,0,0-.25-.64l-8.19-9.5a.7.7,0,0,0-.46-.23l-3.67-.35a.78.78,0,0,0-.52.17l-1.67,1.46a5,5,0,0,1-3.85,1.2l-71.57-7.87a3,3,0,0,1-2.33-1.52L153,10.34a.59.59,0,0,0-.45-.29l-2.88-.23a.6.6,0,0,0-.48.2l-6.11,7a1.57,1.57,0,0,0-.4,1.13l1.8,43.52-.5,0-1.8-43.52a2.12,2.12,0,0,1,.52-1.48l6.11-7a1.11,1.11,0,0,1,.91-.37l2.87.23a1.09,1.09,0,0,1,.85.54l.74,1.29a2.6,2.6,0,0,0,1.95,1.28l71.58,7.87a4.5,4.5,0,0,0,3.46-1.09L232.86,18a1.19,1.19,0,0,1,.89-.28l3.66.34a1.16,1.16,0,0,1,.79.41l8.2,9.5a1.5,1.5,0,0,1,.37.95l1,45.85Z"/><path class="cls-2" d="M249.84,75l-1.19-47.4a1,1,0,0,0-.21-.59l-8.32-10.74a.75.75,0,0,0-.51-.28l-6.44-.62a.74.74,0,0,0-.49.12l-3.09,2.16a2.58,2.58,0,0,1-1.75.46l-69.36-6.89a3,3,0,0,1-2.23-1.33l-1.47-2.13,9.49-4.49.21.46-8.95,4.23,1.13,1.65a2.58,2.58,0,0,0,1.87,1.11l69.36,6.89a2.12,2.12,0,0,0,1.42-.37L232.4,15a1.25,1.25,0,0,1,.82-.21l6.44.62a1.27,1.27,0,0,1,.85.48l8.32,10.73a1.51,1.51,0,0,1,.32.89L250.34,75Z"/><polygon class="cls-2" points="232.84 15.37 232.63 14.91 241.53 10.85 241.74 11.31 232.84 15.37"/><polygon class="cls-2" points="239.97 16.07 239.74 15.62 248.29 11.15 248.52 11.6 239.97 16.07"/><polygon class="cls-2" points="248.99 27.37 248.79 26.91 258.27 22.71 258.47 23.17 248.99 27.37"/><rect class="cls-2" x="151.42" y="4.08" width="0.5" height="6.98" transform="translate(133.34 158.32) rotate(-85.92)"/><rect class="cls-2" x="160.81" y="45.97" width="22.43" height="1" transform="translate(-4.38 71.63) rotate(-23.24)"/><path class="cls-2" d="M208.43,154.55c-1.44-11.71-2.39-39.08-2.56-44.45a7.54,7.54,0,0,1,.13-1.71l1.77-9.57a8,8,0,0,1,4.36-5.72l83.65-39.36.42.91L212.56,94a7,7,0,0,0-3.81,5L207,108.57a6.8,6.8,0,0,0-.11,1.49c.17,5.37,1.12,32.7,2.55,44.36Z"/><path class="cls-2" d="M155.26,120.87l-21-3.09-1.63-6a2.59,2.59,0,0,0-2.13-1.87l-22.75-3.28-8.79-12a2.57,2.57,0,0,1-.48-1.82l1.21-10.62a2.59,2.59,0,0,1,1.61-2.11l32.58-12.94h0a4.12,4.12,0,0,1,1.4-.3l19.89-.94,64.73,8.56,5,4.35a1,1,0,0,1-.21,1.58L195.89,94.19l-1.6,12.91L183.4,117.86,160,114.1a1.33,1.33,0,0,0-1.37.66Zm-20.25-4,19.71,2.9,3.07-5.51a2.33,2.33,0,0,1,2.4-1.16l22.87,3.69,10.28-10.16L195,93.52l29.3-14-4.82-4.06-64.35-8.52-19.81.93a3.26,3.26,0,0,0-1.07.24h0L101.63,81a1.59,1.59,0,0,0-1,1.29L99.43,92.94a1.59,1.59,0,0,0,.3,1.12l8.54,11.68L130.61,109a3.57,3.57,0,0,1,2.94,2.6Z"/><path class="cls-2" d="M158.07,115.16l-16.77-2.32a1.13,1.13,0,0,1-1-.92l-.65-3.59a2.54,2.54,0,0,0-2.17-2.08l-23.41-3.17-6.88-9.92a4.46,4.46,0,0,1-.74-3.36l1.24-6.93a4.48,4.48,0,0,1,2.86-3.43l24.1-9a4.65,4.65,0,0,1,1.27-.27L154.74,69a4.81,4.81,0,0,1,.85,0L218,76.86a3.79,3.79,0,0,1,2.21,1.07L223,80.71l-.7.72-2.84-2.79a2.82,2.82,0,0,0-1.64-.79L155.47,70a4.85,4.85,0,0,0-.66,0L136,71.22a3.37,3.37,0,0,0-1,.21L111,80.37A3.53,3.53,0,0,0,108.72,83L107.49,90a3.46,3.46,0,0,0,.57,2.61l6.63,9.56,23,3.1a3.56,3.56,0,0,1,3,2.9l.64,3.59a.14.14,0,0,0,.11.11l16.77,2.32Z"/><path class="cls-2" d="M21.37,93.88h-.88A2.75,2.75,0,0,1,19,93.46l-4.53-2.85a5.74,5.74,0,0,1-1.79-1.78L3.59,74.41a3.56,3.56,0,0,1-.38-3.11,2.84,2.84,0,0,1,1.87-1.65l.33.94a1.89,1.89,0,0,0-1.26,1.06,2.87,2.87,0,0,0,.3,2.25l9.11,14.39A4.86,4.86,0,0,0,15,89.77l4.53,2.84a1.76,1.76,0,0,0,.92.27H21l-.17-11.5,1.55-9.78a2.45,2.45,0,0,1,1.27-1.79l5.53-3-5.58-.46a1.67,1.67,0,0,1-.48-.11L10.25,60.8l.39-.92,12.91,5.41a.33.33,0,0,0,.17,0l6.48.53a.73.73,0,0,1,.3,1.37l-6.34,3.46a1.45,1.45,0,0,0-.75,1.07l-1.55,9.69L22,93.19a.65.65,0,0,1-.19.48A.68.68,0,0,1,21.37,93.88Z"/><path class="cls-2" d="M238.62,64.83l-67.07-8.38a7.3,7.3,0,0,0-3.64.47l-2.84,1.15-.37-.93L167.54,56a8.34,8.34,0,0,1,4.13-.54l67.07,8.38Z"/><rect class="cls-2" x="158.02" y="228.91" width="0.5" height="8.38"/><rect class="cls-2" x="205.36" y="238.64" width="0.5" height="7.66"/><path class="cls-2" d="M306.83,133.37a4,4,0,0,1-.49,0l-20.78-2.26a1.43,1.43,0,0,1-1.28-1.42v-9.33l1.91-14.16,5.18-3.3a4.11,4.11,0,0,1,2.67-.61l10.87,1.24,30.24.85,60.22-37.76.53.85-60.47,37.92h-.15l-30.45-.86-10.91-1.24a3.11,3.11,0,0,0-2,.47l-4.79,3-1.84,13.62v9.27a.44.44,0,0,0,.38.43l20.79,2.26a3.72,3.72,0,0,0,1.52-.17l36-12.3,59.65-39.66.55.84-59.76,39.72-.06,0-36.08,12.32A4.48,4.48,0,0,1,306.83,133.37Z"/><polygon class="cls-2" points="228.95 115.59 228.87 115.58 213.38 113.85 213.44 113.36 228.85 115.08 233.16 112.79 233.39 113.23 228.95 115.59"/><path class="cls-2" d="M286.73,168.68l-.71-2.82a21.08,21.08,0,0,1-.64-5.13v-12a1.87,1.87,0,0,1,1.87-1.87H302.6a7.71,7.71,0,0,0,2.48-.4l39.58-13.21a7.64,7.64,0,0,0,1.92-1l55.67-37.67.57.82-55.68,37.68a9.25,9.25,0,0,1-2.16,1.07L305.4,147.4a8.87,8.87,0,0,1-2.8.45H287.25a.87.87,0,0,0-.87.87v12a20.16,20.16,0,0,0,.61,4.89l.71,2.82Z"/><path class="cls-2" d="M308.22,169.22a18.75,18.75,0,0,1-2.8-.21l-12.78-2a1,1,0,0,0-.48.06l-4.05,1.8a1.94,1.94,0,0,1-.95.15c-13.9-1.5-13.9-1.51-13.9-2.13,0-.07-.18-.8-.59-2.48a1.8,1.8,0,0,0-1-1.19L271,163a2.78,2.78,0,0,1-1.67-2.47l-.4-19.05,1,0,.4,19a1.78,1.78,0,0,0,1.07,1.58l.69.3a2.75,2.75,0,0,1,1.59,1.86c.32,1.31.47,2,.55,2.32,1.19.2,6.14.78,13.08,1.53a.8.8,0,0,0,.43-.07l4.05-1.79a2,2,0,0,1,1-.14l12.78,2a17.61,17.61,0,0,0,7.57-.49l17.51-5.09a18.59,18.59,0,0,0,5.68-2.76l4.62-3.32,49.39-36,.94.58-49.74,36.24-4.63,3.32a19.36,19.36,0,0,1-6,2.91l-17.5,5.09A18.61,18.61,0,0,1,308.22,169.22Z"/><path class="cls-2" d="M55.8,185.6a2.32,2.32,0,0,1-.46,0l-15.28-2.22A3.13,3.13,0,0,1,39,183l-8.3-5.3,1.19-.45,7.62,4.9a2.23,2.23,0,0,0,.74.25l15.28,2.22a2.17,2.17,0,0,0,2.05-.83l17.67-23,1.12.18-18,23.38A3.17,3.17,0,0,1,55.8,185.6Z"/><path class="cls-2" d="M299.43,273.88a5.83,5.83,0,0,1-1.18-.12L261.75,266a5.66,5.66,0,0,1-3.47-2.26l-1.66-2.32,1.62-1.17,1.66,2.32a3.78,3.78,0,0,0,2.26,1.48l36.5,7.71a4,4,0,0,0,.91.08l24.78-.92a3.68,3.68,0,0,0,2.32-.93l46.67-41.16a3.74,3.74,0,0,0,1.23-2.36l4-34.16,3.67-2.58L389.4,122a2.24,2.24,0,0,1,1.07-1.68l5-3a.28.28,0,0,0,.09-.1l4-8.23L401,96.31a2.24,2.24,0,0,1,1-1.61l2.41-1.63a.26.26,0,0,0,.1-.19v-.13l.22-1.74-1.47.87V81.37a.24.24,0,0,0-.24-.23,2.23,2.23,0,0,1-2.23-2.23V73.76a1,1,0,0,0-.32-.74l-5.52-5.28a1.06,1.06,0,0,0-.49-.26l-21.08-4.65-.11,0-19.57-2.06a1,1,0,0,0-.72.2l-2.54,1.89a3.1,3.1,0,0,1-2.15.58l-50.74-5.73a2.63,2.63,0,0,1-2.34-2.61,1,1,0,0,0-.87-1l-11-1.28a1.07,1.07,0,0,0-.63.14l-1,.61-23.36-2.89.24-2,22.67,2.8.38-.24a3,3,0,0,1,1.92-.42l11,1.28a3,3,0,0,1,2.64,3,.64.64,0,0,0,.57.63l50.73,5.72a1,1,0,0,0,.73-.2l2.54-1.89a3.07,3.07,0,0,1,2.13-.58l19.57,2.06.34,0,21.07,4.66a3,3,0,0,1,1.44.76l5.52,5.28a3,3,0,0,1,.94,2.19v5.15a.23.23,0,0,0,.23.23,2.23,2.23,0,0,1,2.24,2.23v7.15a1.58,1.58,0,0,1,1.22.59,1.56,1.56,0,0,1,.32,1.31L406.49,93a2.23,2.23,0,0,1-1,1.78l-2.41,1.63a.25.25,0,0,0-.11.17l-1.37,12.54a2.15,2.15,0,0,1-.21.75l-4.05,8.23a2.21,2.21,0,0,1-.86.93l-5,3a.2.2,0,0,0-.11.17L384.27,190a2,2,0,0,1-.86,1.45l-2.94,2.08-3.91,33.26a5.72,5.72,0,0,1-1.9,3.63L328,271.53a5.77,5.77,0,0,1-3.58,1.43l-24.78.92Z"/><path class="cls-2" d="M257.48,260.94l-30.1-42a3.91,3.91,0,0,0-2.47-1.58L109.27,194.91a3.94,3.94,0,0,0-3.88,1.45L83,225l-.77-.65,22.35-28.59a5,5,0,0,1,4.87-1.81l115.64,22.41a5,5,0,0,1,3.08,2l30.1,42Z"/><path class="cls-2" d="M79.33,227.76a6,6,0,0,1-1.11-.11l-28.15-5.49a5.44,5.44,0,0,1-1.94-.77L37.3,214.6a5.7,5.7,0,0,1-2.63-4L30,178.45l-1.82-1a3.67,3.67,0,0,1-1.83-2.66l-8.89-58.82,2-.3,8.89,58.82a1.66,1.66,0,0,0,.84,1.22l2.67,1.52,4.81,33.09a3.71,3.71,0,0,0,1.71,2.62l10.83,6.79a3.82,3.82,0,0,0,1.26.5l28.16,5.49a3.72,3.72,0,0,0,3.64-1.36l1.58,1.23A5.74,5.74,0,0,1,79.33,227.76Z"/><path class="cls-2" d="M257.2,261.85l-22.67-5.39a6.84,6.84,0,0,1-4.22-3.08l-6.52-10.72L203.31,239v9.58a1.58,1.58,0,0,1-.6,1.24,1.55,1.55,0,0,1-1.33.3L181,245.5a1.57,1.57,0,0,1-1.23-1.54v-9.88l-23-4.45v9.59a1.61,1.61,0,0,1-.57,1.22,1.56,1.56,0,0,1-1.31.32L134,236.66a1.58,1.58,0,0,1-1.27-1.55V224.93l-16.93-2.77-4.6,5.78a6.72,6.72,0,0,1-6.65,2.41l-21.7-4.43.4-2,21.7,4.44a4.77,4.77,0,0,0,4.69-1.71l4.75-6a1.58,1.58,0,0,1,1.49-.57L133.39,223a1.59,1.59,0,0,1,1.33,1.56v10.19l20,3.94v-9.58a1.58,1.58,0,0,1,1.88-1.55l23.85,4.61a1.57,1.57,0,0,1,1.28,1.55v9.89L201.31,248V238a1.18,1.18,0,0,1,1.39-1.17l21.64,3.91a1.56,1.56,0,0,1,1.06.74L232,252.35a4.8,4.8,0,0,0,3,2.16l22.67,5.39Z"/><path class="cls-2" d="M37.9,128.72H31.15a3.61,3.61,0,0,1-2.57-1.09l-17-17.52a6,6,0,0,1-1-1.35l-4.06-7.52A3.29,3.29,0,0,1,6.09,100L5.3,93.4a6.06,6.06,0,0,0-1-2.63L2.13,87.59a5.46,5.46,0,0,1-1-3.1V72.72a3.24,3.24,0,0,1,1.05-2.43,3.85,3.85,0,0,1,2.11-1V67.8a6.63,6.63,0,0,1,1.75-4.49l2.45-2.68a6.64,6.64,0,0,1,2.74-1.79l81.25-28A4.07,4.07,0,0,1,94,30.62l26,.92L134.17,33a4,4,0,0,1,3.34,3.23l3.45.15-.08,2-5.28-.23v-1a2,2,0,0,0-1.69-2.2l-14-1.5-25.95-.91a2,2,0,0,0-.74.1l-81.25,28A4.81,4.81,0,0,0,10,62L7.55,64.66A4.68,4.68,0,0,0,6.33,67.8v1.91a1.57,1.57,0,0,1-1.54,1.57,1.89,1.89,0,0,0-1.24.5,1.26,1.26,0,0,0-.38.94V84.49a3.45,3.45,0,0,0,.61,2L6,89.64a7.94,7.94,0,0,1,1.32,3.52l.8,6.6a1.37,1.37,0,0,0,.15.53l4.06,7.52a4.28,4.28,0,0,0,.67.91L30,126.24a1.62,1.62,0,0,0,1.14.48H37.9Z"/><path class="cls-2" d="M238.58,48.47l-38.43-4a3.53,3.53,0,0,1-2.71-1.79,1.51,1.51,0,0,0-1.15-.77L187,40.81a1.48,1.48,0,0,0-1,.21l-3.19,1.89a3.53,3.53,0,0,1-2.27.46l-19.92-2.66.27-2,19.92,2.66a1.48,1.48,0,0,0,1-.2L185,39.3a3.45,3.45,0,0,1,2.22-.47L196.53,40a3.55,3.55,0,0,1,2.66,1.78,1.51,1.51,0,0,0,1.17.78l38.42,4Z"/><path class="cls-2" d="M327.14,233.48l-25.72-.19L280.56,230a3,3,0,0,1-1.89-1.15l-28.32-38.26,1.33.12,27.8,37.54a1.88,1.88,0,0,0,1.23.76l21.15,3.35,25.28.16a1.91,1.91,0,0,0,.94-.25l10.62-4.83a2,2,0,0,0,.87-1.24l10.95-51.66a1.75,1.75,0,0,1,.74-1.11L370,160.53a1.8,1.8,0,0,1,2.81,1.4l1.54,32.39a.51.51,0,0,0,.3.45.49.49,0,0,0,.54,0l3.37-2.38,1.23.37-4,2.83a1.54,1.54,0,0,1-2.42-1.19L371.84,162a.8.8,0,0,0-1.25-.62l-18.76,12.85a.79.79,0,0,0-.33.5l-11,51.66a2.88,2.88,0,0,1-1.38,1.91l-10.62,4.83A2.84,2.84,0,0,1,327.14,233.48Z"/><path class="cls-2" d="M250.21,76H250l-11.93-1.37a2,2,0,0,1-1.38-3.29l1-1.27V43.19l-5.89-6.76-70.38-7.76L162.85,53l2.44,2.5a2,2,0,0,1,.58,1.4v.7a2,2,0,0,1-1.16,1.87L155.18,64a2,2,0,0,1-1.14.19l-11.63-1.5a2,2,0,0,1-1.78-1.94l-1.82-43.93a2,2,0,0,1,.53-1.47l7.83-8.51a2.14,2.14,0,0,1,.56-.43l9.74-5.08a2.08,2.08,0,0,1,.95-.23h3.87a2.09,2.09,0,0,1,1.25.42L165,2.67,239,10l1.29-.42a4.27,4.27,0,0,1,1.84-.19l5.77.65a2,2,0,0,1,1.28.67l9.7,10.89a2,2,0,0,1,.52,1.32l.88,47.25a2.05,2.05,0,0,1-1.19,1.89l-8,3.71A2.16,2.16,0,0,1,250.21,76Zm-88.8-49.29h.22L232,34.43a2,2,0,0,1,1.31.68l5.89,6.73a2.09,2.09,0,0,1,.5,1.35V70a2.06,2.06,0,0,1-.43,1.26l-1,1.27,12,1.44,8-3.72L257.37,23,247.66,12l-5.78-.66a2.21,2.21,0,0,0-1,.1l-1.7.56L239,12,164.81,4.67a2.07,2.07,0,0,1-1-.42l-1.46-1.12h-3.89l-9.76,5.09-7.84,8.52,1.81,44,11.67,1.54,9.56-4.57v-.73l-2.44-2.5a2.1,2.1,0,0,1-.58-1.31l-1.48-24.27a2,2,0,0,1,.63-1.61A2.06,2.06,0,0,1,161.41,26.67Z"/><polygon class="cls-2" points="232.29 116.06 231.59 115.88 234.61 113.97 234.88 114.4 232.29 116.06"/><polygon class="cls-2" points="82.28 94.44 66.27 92.18 66.11 91.78 67.8 89.67 68.34 89.78 66.76 91.74 82.36 93.94 82.28 94.44"/><path class="cls-2" d="M68.17,146.11c-1.41-5.41-1.72-48.89-1.67-54H67c0,5.1.25,48.5,1.65,53.86Z"/><path class="cls-2" d="M55.07,145c-3-14-3.35-51.16-3.3-54.94h.5c-.05,3.5.25,35.74,2.69,51.5-.35-11.15-1.45-46.15-1.48-48.57a2.77,2.77,0,0,1,.81-2.31,1.83,1.83,0,0,1,1.52-.33l11,1.5-.07.49-11-1.5a1.46,1.46,0,0,0-1.12.24A2.31,2.31,0,0,0,54,93c0,2.86,1.57,51.45,1.58,51.94Z"/><path class="cls-2" d="M80.35,162.35a3.71,3.71,0,0,1-.73-.08l-36.56-7.44a4.37,4.37,0,0,1-3.26-4.52l.19-4.64-.78-.12a1.4,1.4,0,0,1-1.13-1.35L36.9,117.13a1.52,1.52,0,0,1,.4-1.1,1.3,1.3,0,0,1,.92-.4h0l-.39-26.35a5.24,5.24,0,0,1,.86-3.43A2.27,2.27,0,0,1,40.46,85h.12l15.07,2.09a1,1,0,0,1,.65.4l.63.88,10.17,1.2a4.63,4.63,0,0,0,.47-.34c.32-.26.54-.44.9-.41l16.45,2.57a1.39,1.39,0,0,1,.72.27L87.33,93l-.62.79L85,92.39a.23.23,0,0,0-.28,0L83,94a.5.5,0,0,0-.19.4l-.12,30.37h.1l.16-.43a1.1,1.1,0,0,1,1-.74h1.2l1.42,29.28a1.22,1.22,0,0,1-1,1.3l-1.12.15-.15,3.75a4.57,4.57,0,0,1-1.68,3.45A3.65,3.65,0,0,1,80.35,162.35ZM38.22,116.63a.26.26,0,0,0-.2.1.49.49,0,0,0-.12.36l1.18,27.06a.42.42,0,0,0,.28.41l1.67.26-.23,5.53a3.36,3.36,0,0,0,2.46,3.5l36.56,7.44a2.62,2.62,0,0,0,2.19-.54,3.59,3.59,0,0,0,1.3-2.71l.18-4.59,2-.26a.23.23,0,0,0,.15-.26L84.23,124.6H84s-.06,0-.08.09l-.4,1.09H81.7l.12-31.38a1.5,1.5,0,0,1,.54-1.15l1.16-1.08L68.33,89.79a7.94,7.94,0,0,1-1.25.77L56.77,89.33a1,1,0,0,1-.66-.4l-.63-.88L40.49,86a1.5,1.5,0,0,0-1,.53,4.44,4.44,0,0,0-.63,2.73l.41,27.41Z"/><polygon class="cls-2" points="52.08 90.34 51.99 90.33 38.31 88.58 38.37 88.08 51.97 89.82 55.76 87.54 56.02 87.97 52.08 90.34"/><polygon class="cls-2" points="55.24 90.65 54.29 90.7 57.04 88.73 57.33 89.14 55.24 90.65"/></svg>