<svg id="Layer_1" data-name="Layer 1" xmlns="http://www.w3.org/2000/svg" viewBox="0 0 201 397"><defs><style>.cls-1{fill:#9fb1c8;}.cls-2{fill:#226c93;}</style></defs><title>Artboard 1</title><path class="cls-1" d="M52.27,121.42h0c-1.27,0-2.43-1-3.29-2.91a16.33,16.33,0,0,1-1.26-6.75c0-5.39,2.06-9.61,4.63-9.61h0c1.26,0,2.43,1,3.28,2.91a16.49,16.49,0,0,1,1.27,6.75C56.88,117.2,54.84,121.42,52.27,121.42Zm.07-18.77c-2.21,0-4.11,4.17-4.13,9.11a15.94,15.94,0,0,0,1.21,6.54c.77,1.69,1.78,2.62,2.84,2.62h0c2.22,0,4.11-4.17,4.14-9.11a15.94,15.94,0,0,0-1.22-6.54c-.77-1.69-1.78-2.62-2.84-2.62Z"/><rect class="cls-1" x="51.68" y="196.94" width="12.23" height="0.5" transform="translate(-87.64 52.02) rotate(-28.72)"/><path class="cls-1" d="M122.13,395.55h-.23a43.59,43.59,0,0,1-43.31-43.76l.53-104.48h2L80.59,351.8a41.53,41.53,0,1,0,83.06.43L164.18,248h2l-.53,104.24a43.55,43.55,0,0,1-43.52,43.31Z"/><path class="cls-2" d="M68.81,203.42h-1l.47-91.5c0-.14,0-13.18-5.52-18.83a8.32,8.32,0,0,0-6.07-2.58h0c-2.46,0-4.36,1.93-5.81,5.9-.13.37-1.1,1-1.1,1l-.25-.07c1.61-5.17,4-7.78,7.16-7.78h0a9.26,9.26,0,0,1,6.78,2.88c5.87,6,5.81,19,5.81,19.53Z"/><path class="cls-2" d="M66.44,203.75l-.49-.06.46-91.78c0-.21.06-20.44-11-21.51l0-.49c4.76.46,8.25,4.42,10.08,11.47a46.47,46.47,0,0,1,1.33,10.53Z"/><path class="cls-2" d="M52.81,128.08h0c-2.08,0-4-1.74-5.45-4.87a30.83,30.83,0,0,1,.11-22.9c1.46-3.1,3.41-4.81,5.49-4.81h0c2.09,0,4,1.74,5.46,4.87a30.87,30.87,0,0,1-.12,22.89C56.84,126.37,54.89,128.08,52.81,128.08ZM52.94,96c-1.88,0-3.66,1.6-5,4.52A30.39,30.39,0,0,0,47.79,123c1.35,2.94,3.12,4.57,5,4.58h0c1.88,0,3.67-1.61,5-4.53a27.53,27.53,0,0,0,2.21-11.23A27.33,27.33,0,0,0,58,100.58c-1.34-3-3.12-4.57-5-4.58Z"/><path class="cls-2" d="M55.3,128.09H52.79v-.3l.57-.2H55.3c1.88,0,3.66-1.61,5-4.53a30.36,30.36,0,0,0,.11-22.47c-1.35-2.94-3.12-4.57-5-4.58H53.86l-.9-.24V95.5h2.49c2.08,0,4,1.74,5.45,4.87a27.9,27.9,0,0,1,2.15,11.46,28.22,28.22,0,0,1-2.26,11.44C59.33,126.38,57.38,128.09,55.3,128.09Z"/><path class="cls-2" d="M131.54,35.54a362,362,0,0,1-71.09-7l.21-1c16.57,3.44,75.28,13.65,135.05.34l.22,1A297.52,297.52,0,0,1,131.54,35.54Z"/><path class="cls-2" d="M21.2,26.17h0A6.57,6.57,0,0,1,21.23,13a6.57,6.57,0,0,1,0,13.14ZM21.2,14a5.57,5.57,0,0,0,0,11.14h0a5.57,5.57,0,0,0,0-11.14Z"/><path class="cls-2" d="M20.58,147.38h0a6.57,6.57,0,1,1,6.6-6.54h0A6.58,6.58,0,0,1,20.58,147.38Zm0-12.14a5.57,5.57,0,0,0,0,11.14h0a5.57,5.57,0,0,0,0-11.14Z"/><polygon class="cls-2" points="48.72 158.44 47.72 158.43 47.9 123.93 48.9 125.23 48.72 158.44"/><path class="cls-2" d="M127.63,219.71a439.71,439.71,0,0,1-80.29-7.41l.21-1c.8.17,80.39,16.5,149.62.07l.05-11.16h1l-.06,12-.38.09C174.46,217.85,149.94,219.71,127.63,219.71Z"/><path class="cls-2" d="M129.45,226.82A437.82,437.82,0,0,1,53.24,220a8.21,8.21,0,0,1-6.73-8.14l.2-52.38-27.19-.14A18.16,18.16,0,0,1,1.45,141l.61-121.5A18.18,18.18,0,0,1,20.32,1.45L156,2.14A18.19,18.19,0,0,1,174.07,20.4h-2A16.2,16.2,0,0,0,156,4.14L20.31,3.45h-.08A16.19,16.19,0,0,0,4.06,19.54L3.45,141a16.15,16.15,0,0,0,16.08,16.25l29.19.15-.21,54.38a6.24,6.24,0,0,0,5.1,6.17c17.84,3.29,80.52,13.08,138.1.88a6.29,6.29,0,0,0,4.95-6.08l.06-12.57h2l-.06,12.57a8.28,8.28,0,0,1-6.53,8C171.11,225.28,149.41,226.82,129.45,226.82Z"/><path class="cls-2" d="M124.06,251.52A315.19,315.19,0,0,1,79,248.28l-3.41-.49a13.09,13.09,0,0,1-11.17-13L64.47,221h2l-.07,13.81a11.08,11.08,0,0,0,9.46,11l3.4.49a312.9,312.9,0,0,0,86.45.44l3.41-.46a11.09,11.09,0,0,0,9.57-10.88l.07-13.81h2l-.07,13.81a13.08,13.08,0,0,1-11.31,12.85l-3.41.46A314.53,314.53,0,0,1,124.06,251.52Z"/><path class="cls-2" d="M63.61,203.25l-.53,0c-.9-.05-8.85-.59-11-2.5l-.16-.15.33-66.17,11.7.06Zm-10.68-3.14c1.7,1.23,7.11,1.88,9.68,2.08L63,135.46l-9.69-.05Z"/><path class="cls-2" d="M189.33,23c-57.59-14.86-104.49-5.59-122-.91a13.64,13.64,0,0,0-10.08,13.1L57,90h2l.28-54.8A11.64,11.64,0,0,1,67.87,24c17.34-4.64,63.83-13.82,121,.91a11.64,11.64,0,0,1,8.72,11.35l-.82,163.28c-2.89,1.18-18.41,6.42-65.14,6.41-34.27,0-55.72-2.3-65.46-3.64L66,203.69v.65C75.77,205.7,97.3,208,131.58,208h.48c52.74,0,65.61-6.6,66.14-6.88l.52-.28.83-164.52A13.61,13.61,0,0,0,189.33,23Z"/></svg>