<svg id="Layer_1" data-name="Layer 1" xmlns="http://www.w3.org/2000/svg" viewBox="0 0 231 72"><defs><style>.cls-1{fill:#4583a9;}.cls-2{fill:#226c93;}</style></defs><title>Artboard 1</title><path class="cls-1" d="M3.81,20.08S-.84,37.86,17,48.08s34.42,1,34.42,1,6.39-3.5,9.77,3.33.08,12.66-10.87,16.49C30.86,75.75-8.57,62.74,3.81,20.08Z"/><path class="cls-2" d="M18,29.16s.38-8.92,10.55-11.82,16.81,1.29,16.81,1.29S49.69,7.32,37.54,2.5C26-2.08,11.29,8,7.87,15.89L10.28,30.4l6.78,1.19Z"/><path class="cls-1" d="M175.51,27.88A12.44,12.44,0,0,0,162.7,39.93a12.7,12.7,0,0,0,25.37.27A12.44,12.44,0,0,0,175.51,27.88Zm-.21,20A7.64,7.64,0,0,1,168,40a7.53,7.53,0,0,1,7.34-7.74,7.64,7.64,0,0,1,7.27,7.9A7.53,7.53,0,0,1,175.3,47.92Z"/><path class="cls-1" d="M120.68,27a10.81,10.81,0,0,0-10.93,10.7l-.15,13.38,5.39.05.15-14.26A5.43,5.43,0,1,1,126,37l-.15,14.27,5.38.06.15-13.38A10.83,10.83,0,0,0,120.68,27Z"/><path class="cls-1" d="M102.85,40.49l3.07,0a11.9,11.9,0,0,0,.07-1.2,12.7,12.7,0,0,0-25.37-.27A12.44,12.44,0,0,0,93.17,51.39a12.63,12.63,0,0,0,12.26-8.6l-5.26-.06a7.59,7.59,0,0,1-6.93,4.43,7.78,7.78,0,0,1-7.49-6.85l15.12.16ZM86,36.76a7.56,7.56,0,0,1,14.62.16Z"/><path class="cls-1" d="M226.41,41.81l3.06,0a11.69,11.69,0,0,0,.08-1.19,12.7,12.7,0,0,0-25.38-.27A12.44,12.44,0,0,0,216.73,52.7,12.64,12.64,0,0,0,229,44.1l-5.26-.05a7.65,7.65,0,0,1-6.93,4.43,7.79,7.79,0,0,1-7.49-6.86l15.12.17ZM209.6,38.07a7.55,7.55,0,0,1,14.61.16Z"/><path class="cls-1" d="M154.88,41.84a7.41,7.41,0,0,1-7.13,5.76,7.56,7.56,0,0,1-7.22-7.86A7.55,7.55,0,0,1,147.91,32a7.4,7.4,0,0,1,7,5.83l5.47.06a12.74,12.74,0,0,0-25.23,1.72,12.73,12.73,0,0,0,25.18,2.26Z"/><path class="cls-1" d="M203.2,28.63h-.33c-6-.06-10.84,2.89-10.92,9.92l-.14,13.38,5.38.06.15-14a5.45,5.45,0,0,1,5.49-5.38l.33,0Z"/><path class="cls-1" d="M85.26,15l2,0,.13-12.07,2.83,0s1.86.23,1.91,1.81-.23,2.55-3.07,3.28l4.49,7.57,1.58-1L91.47,8.57a3.33,3.33,0,0,0,2.66-3.49A3.5,3.5,0,0,0,91.2,1.53l-5.79-.06Z"/><path class="cls-1" d="M103.17,4.42l-1.45,0-4.6,10.78,2.24,0,1-3,3.86,0,1.28,3.12,2.07,0ZM100.93,11,102.42,7l1.3,4Z"/><path class="cls-1" d="M131.38,4.72l-1.45,0-4.6,10.78,2.24,0,1-3,3.86,0,1.28,3.12,2.07,0Zm-2.24,6.53,1.49-3.92,1.3,3.95Z"/><path class="cls-1" d="M156.58,5l-1.45,0-4.6,10.78,2.25,0,1-3,3.86,0,1.28,3.12,2.07,0Zm-2.23,6.52,1.48-3.91,1.3,3.94Z"/><polygon class="cls-1" points="109.98 15.32 111.81 15.34 112.3 8.79 115.56 15.38 116.84 15.39 119.95 8.87 120.5 15.43 122.09 15.45 121.31 4.61 119.79 4.59 116.39 12.7 112.82 4.52 111.24 4.5 109.98 15.32"/><path class="cls-1" d="M143.71,5.19l-4.41,0-.11,10.48,4.2,0a4.94,4.94,0,0,0,4.67-5.19C148.05,5.52,143.71,5.19,143.71,5.19Zm-.37,9-2.62,0,.08-7.59,1.79,0s4-.06,3.89,3.83S143.34,14.22,143.34,14.22Z"/><path class="cls-1" d="M45.39,18.63S49.69,7.32,37.54,2.5C26-2.08,11.29,8,7.87,15.89c0,0,9.33-7.93,27.23-4.17A17.06,17.06,0,0,1,45.39,18.63Z"/><path class="cls-1" d="M8.34,35.17c-2.55-5-3.21-11.44-.47-19.28,0,0,5.68,20.56,26.86,14.56,7.75-2.2,11.75-6.38,13.7-10.82l.86,13.92L34.65,42.68,18.17,44.06Z"/><path class="cls-2" d="M8.34,35.17C33.87,54.39,48.43,19.63,48.43,19.63c3.43-7.82.47-16.45.47-16.45S65,9.36,63.37,26.29s-17.09,23-28.67,23.43C26.48,50,13.52,45.39,8.34,35.17"/></svg>