<svg id="Layer_1" data-name="Layer 1" xmlns="http://www.w3.org/2000/svg" viewBox="0 0 140 140"><defs><style>.cls-1{fill:#4583a9;}</style></defs><title>Artboard 1</title><path class="cls-1" d="M70.58,67.41a11.86,11.86,0,1,1-.66-11.48H80.05a21,21,0,1,0,.34,11.48Z"/><polygon class="cls-1" points="91.67 65.63 78.1 91.02 63.55 65.63 53.73 65.63 78.36 107.74 101.32 65.63 91.67 65.63"/><path class="cls-1" d="M57.33,125.67a6.85,6.85,0,0,1,6.84-6.84,6.64,6.64,0,0,1,2.1.33L18,70.88l52-52,52,52L73.89,119a6.49,6.49,0,0,1,1.54-.18,6.85,6.85,0,0,1,6.84,6.84,6.69,6.69,0,0,1-.43,2.37L139,70.89l-69-69-69,69,56.57,56.57A6.54,6.54,0,0,1,57.33,125.67Z"/><rect class="cls-1" x="68.48" y="114.63" width="2.96" height="6.25"/><circle class="cls-1" cx="75.43" cy="125.67" r="4.15"/><circle class="cls-1" cx="69.96" cy="133.96" r="4.15"/><circle class="cls-1" cx="64.17" cy="125.67" r="4.15"/></svg>