<svg id="Layer_1" data-name="Layer 1" xmlns="http://www.w3.org/2000/svg" viewBox="0 0 205 74"><defs><style>.cls-1{fill:#4583a9;}</style></defs><title>Artboard 1</title><path class="cls-1" d="M32.61,57.31c-7.65,0-15.29,0-22.94,0-.68,0-1.09-.13-1.13-.88a2.78,2.78,0,0,0-.21-1,2.68,2.68,0,0,1,.57-3C11.72,49,13.09,44.85,14,40.55c.7-3.45,1.17-6.95,1.78-10.42a24.45,24.45,0,0,1,2.78-8.69c2-3.28,4.66-5.78,8.51-6.71a2.66,2.66,0,0,0,1.7-1.16,4.9,4.9,0,0,1,7.76-.06,3,3,0,0,0,1.85,1.26c4.26,1.08,7,4,9,7.72a24.14,24.14,0,0,1,2.1,7.07c.68,4,1.24,8,2.09,11.9a26.39,26.39,0,0,0,5.07,11.35A2,2,0,0,1,57.08,55a7.17,7.17,0,0,0-.34,1.54c-.09.59-.4.78-1,.78-5.83,0-11.66,0-17.49,0Zm0-4H51c.44,0,.57-.22.36-.61l-.27-.5a36.11,36.11,0,0,1-3.19-7c-1.27-4.08-1.66-8.31-2.24-12.51a31.67,31.67,0,0,0-1.78-7.61,9.83,9.83,0,0,0-7.14-6.23,16.39,16.39,0,0,0-8.57.1,9.38,9.38,0,0,0-6.08,4.71,20.35,20.35,0,0,0-2,6.29c-.5,3.09-.86,6.19-1.32,9.28A32.76,32.76,0,0,1,15,50.7c-.32.56-.63,1.14-.94,1.71-.4.74-.32.88.49.89H32.62Z"/><path class="cls-1" d="M71,42.59c-.27,1.42-.6,2.84-.79,4.28C69.8,50,69.45,53.23,69,56.41c0,.18-.22.49-.34.49-1.3,0-2.6,0-4,0,.19-.78.36-1.47.52-2.16C66.11,50.88,67,47,67.9,43.11c.56-2.51,1-5,1.55-7.56.09-.46.28-.56.73-.54a20.42,20.42,0,0,0,2.71,0,1.05,1.05,0,0,1,1,.52q4.35,6,8.72,11.9c.54.73,1.11,1.44,1.64,2.17.31.42.56.44.88,0q5.25-7,10.5-14A1.17,1.17,0,0,1,96.9,35a11.79,11.79,0,0,0,2.52,0c.62-.07.8.18.88.68.28,1.65.55,3.29.84,4.93.47,2.6.9,5.2,1.42,7.78s1.13,5.37,1.7,8.05a2.46,2.46,0,0,1,0,.43c-.24,0-.44,0-.64,0-2.11,0-4.22,0-6.34,0-.53,0-.74-.14-.8-.68q-.57-4.53-1.2-9c-.21-1.52-.47-3-.73-4.56a1.5,1.5,0,0,0-.21-.42,2.23,2.23,0,0,0-.48.36c-1.23,1.64-2.46,3.28-3.66,4.94Q87.1,51.89,84,56.25a1.71,1.71,0,0,1-2.59,0q-4.75-6.48-9.52-13c-.2-.28-.43-.53-.64-.8Z"/><path class="cls-1" d="M100,71.24h97.42c.16,0,.33,0,.5,0,.64-.06.63.36.65.81s-.11.79-.67.73c-.19,0-.38,0-.57,0H2.33a.84.84,0,0,1-.77-1.31.51.51,0,0,1,.35-.21,3.29,3.29,0,0,1,.63,0Z"/><path class="cls-1" d="M182.47,43.77c.48-.29.76-.45,1-.63a12.23,12.23,0,0,1,10.56-1.4A4.68,4.68,0,0,1,197.5,46c.08.73.11,1.47.12,2.21,0,2.66,0,5.32,0,8,0,.41,0,.75-.58.74-1.82,0-3.63,0-5.45,0-.51,0-.58-.27-.58-.68,0-2.45,0-4.9,0-7.35a13.12,13.12,0,0,0-.27-2.57,3,3,0,0,0-2.55-2.48,5.21,5.21,0,0,0-3.17.26,3.87,3.87,0,0,0-2.22,3.76c-.1,2.62-.07,5.24-.08,7.86,0,1.34,0,1.19-1.2,1.18-1.56,0-3.12,0-4.68,0-.56,0-.75-.15-.75-.71q0-7,0-14.07c0-.52.17-.69.7-.68,1.67,0,3.34,0,5,0,.54,0,.72.17.69.69S182.47,43.11,182.47,43.77Z"/><path class="cls-1" d="M160.86,57.37a18.7,18.7,0,0,1-7.63-1.66c-5.66-2.8-5-9.66-.62-12.47a13.43,13.43,0,0,1,6.53-2,19.66,19.66,0,0,1,8.54,1,7.66,7.66,0,0,1,4.68,4.09,7.11,7.11,0,0,1-2,8A10.89,10.89,0,0,1,165,56.87C163.63,57.13,162.24,57.21,160.86,57.37Zm-4.69-7.51c.11.61.23,1.75.51,2.85a4.09,4.09,0,0,0,3.57,3.21,4.22,4.22,0,0,0,4.54-2.53,11.11,11.11,0,0,0,.54-8,3.86,3.86,0,0,0-3.59-2.92,4.33,4.33,0,0,0-4.57,2.16C156.36,46.12,156.27,47.73,156.17,49.86Z"/><path class="cls-1" d="M126,57.27a17.16,17.16,0,0,1-6.41-1c-.44-.17-.59-.37-.44-.85s.22-1.12.39-1.66c.08-.25.28-.64.46-.65a1.24,1.24,0,0,1,1,.29c1.52,2.18,5,2.86,7.41,2a4.35,4.35,0,0,0,1.26-.71,1.15,1.15,0,0,0,0-2,11.84,11.84,0,0,0-2.52-1.11c-1.83-.63-3.7-1.14-5.52-1.82a3.92,3.92,0,0,1-2.34-2.19A3.84,3.84,0,0,1,120.68,43a9.13,9.13,0,0,1,4.59-1.68,16.81,16.81,0,0,1,8,1c.89.35.89.36.54,1.21a14.53,14.53,0,0,1-.62,1.46.92.92,0,0,1-.65.44,1.19,1.19,0,0,1-.91-.34A5,5,0,0,0,128,42.76a5.67,5.67,0,0,0-3.46.43,1.57,1.57,0,0,0-1.06,1.38,1.37,1.37,0,0,0,1,1.36c1.14.43,2.33.75,3.49,1.13a47.36,47.36,0,0,1,4.7,1.62,3.62,3.62,0,0,1,2.25,3.71,3.89,3.89,0,0,1-1.72,3A10.45,10.45,0,0,1,128,57.14C127.22,57.24,126.42,57.24,126,57.27Z"/><path class="cls-1" d="M115.07,49.22v6.9c0,.83,0,.82-.8.81-1.69,0-3.38,0-5.07,0-.56,0-.73-.17-.73-.72q0-7,0-14.06c0-.52.17-.69.7-.68,1.75,0,3.5,0,5.25,0,.5,0,.66.15.66.65C115.06,44.48,115.07,46.85,115.07,49.22Z"/><path class="cls-1" d="M145.18,49.19c0,2.33,0,4.65,0,7,0,.62-.19.79-.8.78-1.69,0-3.38,0-5.06,0-.6,0-.78-.19-.77-.76q0-7,0-13.93c0-.62.21-.79.81-.77,1.71,0,3.42,0,5.13,0,.53,0,.7.17.69.68C145.17,44.51,145.18,46.85,145.18,49.19Z"/><path class="cls-1" d="M148.05,12.15c0,1.18,0,2.37,0,3.55,0,.54-.17.71-.69.66a6.46,6.46,0,0,0-1.39,0c-.59.07-.73-.17-.69-.71.05-.84,0-1.69.06-2.53,0-.48-.15-.72-.64-.71s-1,0-1.46,0-.68.23-.66.7c0,.87,0,1.73.07,2.59,0,.5-.07.71-.61.67a11.89,11.89,0,0,0-1.58,0c-.41,0-.56-.13-.56-.55,0-2.42,0-4.85,0-7.27,0-.42.15-.56.56-.54s1.1,0,1.65,0,.59.15.55.59c-.05.71-.06,1.43-.09,2.15,0,.43.18.61.6.6s1.06,0,1.58,0,.6-.2.58-.62c0-.74,0-1.48-.06-2.22,0-.37.12-.53.52-.51a13.78,13.78,0,0,0,1.7,0c.44,0,.54.17.54.56,0,1.21,0,2.41,0,3.61Z"/><path class="cls-1" d="M155.09,16.51c-2-.08-3.62-.61-4.52-2.4a4.26,4.26,0,0,1,3-6.15,6,6,0,0,1,4.29.52,4,4,0,0,1,2,4.47,4,4,0,0,1-3.43,3.4C155.9,16.42,155.42,16.47,155.09,16.51Zm2-4.15c-.07-.72-.11-1.27-.19-1.81a2,2,0,0,0-1.9-1.85c-1.05,0-1.68.56-2,1.75a7.55,7.55,0,0,0,0,3.63,1.89,1.89,0,0,0,1.75,1.56,1.66,1.66,0,0,0,1.88-1.34A15.85,15.85,0,0,0,157.14,12.36Z"/><path class="cls-1" d="M32.64,59.19h5.13c.76,0,.84.12.58.81a5.74,5.74,0,0,1-3.41,3.19,6.35,6.35,0,0,1-7.18-1.81A5.11,5.11,0,0,1,27,60.1c-.31-.7-.15-.91.61-.91Z"/><path class="cls-1" d="M169.43,12.38c0-1.27,0-2.54,0-3.8,0-.48.14-.63.61-.62,1.52,0,3,0,4.56,0,.41,0,.57.12.58.54s-.19.54-.58.53c-.61,0-1.23,0-1.84,0-.42,0-.63.15-.61.59s0,.63,0,1c0,1,0,1,1,.95.45,0,.89-.05,1.33-.09s.56.16.57.56-.12.59-.54.56c-.59,0-1.19,0-1.78-.06-.43,0-.6.18-.59.61s0,1.1,0,1.65.21.64.66.62c.61,0,1.22,0,1.83-.06.39,0,.55.09.54.49s-.06.6-.51.59c-1.54,0-3.08,0-4.63,0-.42,0-.53-.16-.53-.57,0-1.14,0-2.28,0-3.42Z"/><path class="cls-1" d="M185,12.11c0-1.2,0-2.4,0-3.61,0-.43.16-.55.56-.54,1.52,0,3,0,4.56,0,.37,0,.54.11.55.5s-.14.59-.56.57c-.59,0-1.18,0-1.77,0s-.7.2-.67.68V10c0,1.6,0,1.6,1.63,1.47l.63-.06c.43-.05.66.05.67.56s-.28.57-.68.55c-.57,0-1.14,0-1.71,0q-.54,0-.54.54,0,.83,0,1.65c0,.47.19.7.68.68s1.18,0,1.77,0c.38,0,.55.09.55.49s-.1.59-.54.58q-2.28,0-4.56,0c-.44,0-.53-.2-.52-.58,0-1.23,0-2.45,0-3.68Z"/><path class="cls-1" d="M197.7,10c-.1-.15-.21-.29-.3-.43a1.55,1.55,0,0,0-1.9-.77,1.21,1.21,0,0,0-.77.69,1.12,1.12,0,0,0,.47.9,16.42,16.42,0,0,0,1.94.92A2.41,2.41,0,0,1,198.61,14a2.42,2.42,0,0,1-2.13,2.32,14,14,0,0,1-2.89-.05c-.75-.07-.82-.26-.69-1l.18-1,.2,0,.37.47a2,2,0,0,0,2.24.74,1.09,1.09,0,0,0,.67-.64,1.14,1.14,0,0,0-.37-.91A11.18,11.18,0,0,0,194.5,13,2.65,2.65,0,0,1,193,9.42a2.5,2.5,0,0,1,2.28-1.56,12.27,12.27,0,0,1,2.62.27.6.6,0,0,1,.35.48,10.23,10.23,0,0,1-.34,1.32Z"/><path class="cls-1" d="M111.65,37.93a4.08,4.08,0,0,1-3-1,1.8,1.8,0,0,1,0-2.86,5,5,0,0,1,6.14,0,1.75,1.75,0,0,1,0,2.76A4.36,4.36,0,0,1,111.65,37.93Z"/><path class="cls-1" d="M141.78,37.93a4.07,4.07,0,0,1-3-1,1.8,1.8,0,0,1,0-2.82,4.93,4.93,0,0,1,6.18,0,1.73,1.73,0,0,1,0,2.72A4.32,4.32,0,0,1,141.78,37.93Z"/><path class="cls-1" d="M157.61,39a3.32,3.32,0,0,0,.37-.23l5.84-4.46a4.12,4.12,0,0,1,3.64-.78c.59.14,1.14.44,1.22,1.13s-.44,1.08-1,1.33c-1.29.58-2.6,1.12-3.9,1.67-1,.41-2,.76-3,1.23a7.05,7.05,0,0,1-3.08.34Z"/><path class="cls-1" d="M164.17,8c1,0,1.94,0,2.92,0,.46,0,.58.16.56.59s-.15.56-.58.53c-1.77-.17-1.62-.16-1.63,1.51s0,3.38.09,5.07c0,.52-.14.74-.68.68a8.07,8.07,0,0,0-1.39,0c-.55.06-.69-.16-.68-.67,0-1.92.05-3.85.05-5.77,0-.86-.06-.89-.91-.87a4.44,4.44,0,0,0-.63,0c-.4.07-.64,0-.66-.49s.15-.63.63-.61c1,0,1.94,0,2.91,0Z"/><path class="cls-1" d="M177.47,12.18c0-1.2,0-2.4,0-3.61,0-.43.12-.61.57-.58a11.9,11.9,0,0,0,1.58,0c.49,0,.62.16.61.62,0,1.9-.07,3.8-.08,5.7,0,1,0,1.06,1.07,1,.45,0,.89-.05,1.33-.08s.48.21.48.55-.05.57-.47.57q-2.28,0-4.56,0c-.44,0-.52-.2-.51-.58,0-1.2,0-2.41,0-3.61Z"/><rect class="cls-1" x="1.16" y="71.2" width="197.57" height="1.52"/><path class="cls-1" d="M199,22.75H62.53l-.2-.46a32.63,32.63,0,0,0-59.8,0l-1.39-.61A34.15,34.15,0,0,1,32.43,1.21h0a34.16,34.16,0,0,1,31.09,20H199Z"/><path id="_Compound_Path_" data-name="&lt;Compound Path&gt;" class="cls-1" d="M201.86,54.19c0,.32-.15.53-.58.53h-.41v-1h.34c.44,0,.65.12.65.49m.62,1.52a.4.4,0,0,1-.21.07c-.05,0-.09,0-.15-.13l-.37-.64a.8.8,0,0,0,.59-.83c0-.57-.43-.83-1.06-.83h-1.11v.35h.23v2.41h.47v-1h.42l.45.78a.45.45,0,0,0,.45.27.65.65,0,0,0,.27-.08Zm1-1a2.14,2.14,0,1,1-2.14-2.22,2,2,0,0,1,2.14,2.22m.42,0a2.57,2.57,0,1,0-2.56,2.58,2.42,2.42,0,0,0,2.56-2.58"/></svg>