<svg id="Layer_1" data-name="Layer 1" xmlns="http://www.w3.org/2000/svg" viewBox="0 0 152 122"><defs><style>.cls-1{fill:#4583a9;}</style></defs><title>Artboard 1</title><g id="logos"><path id="_Path_" data-name="&lt;Path&gt;" class="cls-1" d="M114,26c-1.53-8.1-9.9-6.61-12.21-6.12-4.25.89-8.29,1.85-12.15,2.88,2-6.44,4.34-12.7,7.91-21.18a12.94,12.94,0,0,0-5-.4,7.53,7.53,0,0,0-5.93,4.05c-2.28,4.33-4.75,11.14-7.46,20.63-5.62,1.83-10.78,3.8-15.53,5.87A176.74,176.74,0,0,1,72.87,6.34a11.92,11.92,0,0,0-3.13-.47c-3.84,0-6.08,1.45-7.82,5.23C59.2,17,56,26.86,53.56,36.62a131.07,131.07,0,0,0-12.77,7.76,7.08,7.08,0,0,0-3.13,4.81,6,6,0,0,0,.5,3c2.62-1.56,7.3-4.2,13.55-7.24C50.46,51.16,49,59.76,49,66.32c0,3.35,2.05,5.31,5,5.31a7.86,7.86,0,0,0,2.6-.42,215.74,215.74,0,0,1,4.88-30.7c4.66-2,9.81-4,15.35-5.9l-.41,1.55c-4.27,16.72-7.14,34.74-6.9,39.63a5.39,5.39,0,0,0,5.58,5.48A10.32,10.32,0,0,0,78,80.81a310.39,310.39,0,0,1,6.24-38c1.08-4.29,2-8,3-11.44A168.57,168.57,0,0,1,114,26Z"/><path id="_Path_2" data-name="&lt;Path&gt;" class="cls-1" d="M50.43,92.15A3,3,0,0,0,47.53,95a1.8,1.8,0,0,0,1.87,1.88A3,3,0,0,0,52.34,94,1.84,1.84,0,0,0,50.43,92.15Z"/><path id="_Path_3" data-name="&lt;Path&gt;" class="cls-1" d="M40.41,93.47,37,110.13c-.17.7-1.11,4.34,2.7,4.34h.58l5-24.24S41.22,89.48,40.41,93.47Z"/><path id="_Path_4" data-name="&lt;Path&gt;" class="cls-1" d="M46.35,101.9c-.84,3.93-1.7,8.23-1.7,8.23-.15.7-1.09,4.34,2.72,4.34h.56l3.25-15.76C51,98.69,47.18,98,46.35,101.9Z"/><path id="_Compound_Path_" data-name="&lt;Compound Path&gt;" class="cls-1" d="M29.2,98.44a8.8,8.8,0,0,0-5.7,2,10.8,10.8,0,0,0-3.73,8.41c0,3.72,2.55,5.64,6.09,5.64a8.84,8.84,0,0,0,5.7-2A10.87,10.87,0,0,0,35.29,104C35.29,100.32,32.74,98.44,29.2,98.44ZM29,110.16a3.4,3.4,0,0,1-2.64,1.51c-1.69,0-2.36-1.19-2.36-2.84a10.84,10.84,0,0,1,2-6.09,3.46,3.46,0,0,1,2.68-1.5c1.68,0,2.32,1.18,2.32,2.84A10.8,10.8,0,0,1,29,110.16Z"/><path id="_Path_5" data-name="&lt;Path&gt;" class="cls-1" d="M110.77,92.42c-.62,3-3.65,17.71-3.65,17.71-.19.85-1,4.34,2.71,4.34h.58l5.17-25.16A4,4,0,0,0,110.77,92.42Z"/><path id="_Path_6" data-name="&lt;Path&gt;" class="cls-1" d="M125.67,98.44a6.55,6.55,0,0,0-4.85,2.13s-.15-3.06-4.19-1.84c.73,2.14.33,2.9-.49,7.22l-.86,4.18c-.15.73-1.09,4.34,2.72,4.34h.56l1.5-7.27c.42-2,1.2-5.64,4.15-5.64,1.46,0,2.21.91,1.75,3.14l-1.12,5.43c-.16.69-1.12,4.34,2.71,4.34h.57l2-9.93C131.08,100.3,128.87,98.44,125.67,98.44Z"/><path id="_Path_7" data-name="&lt;Path&gt;" class="cls-1" d="M16,92.6c-.19.93-.61,2.93-1.29,6.23l-7,1.4,2.06-10a4.06,4.06,0,0,0-4.84,3.24c-.22,1.13-3.45,16.66-3.45,16.66-.16.81-1.1,4.34,2.7,4.34h.58l2-9.83,7-1.4-1.43,6.89c-.15.7-1.09,4.34,2.71,4.34h.58l5.2-25.16S16.79,88.59,16,92.6Z"/><path id="_Path_8" data-name="&lt;Path&gt;" class="cls-1" d="M142.94,98.44a6.55,6.55,0,0,0-4.85,2.13s-.15-3.06-4.19-1.84c.73,2.14.33,2.9-.49,7.22l-.86,4.18c-.15.73-1.09,4.34,2.71,4.34h.57l1.5-7.27c.42-2,1.2-5.64,4.14-5.64,1.47,0,2.22.91,1.76,3.14l-1.12,5.43c-.16.69-1.12,4.34,2.71,4.34h.57l2.05-9.93C148.35,100.3,146.14,98.44,142.94,98.44Z"/><path id="_Compound_Path_2" data-name="&lt;Compound Path&gt;" class="cls-1" d="M62.06,107.78a6.64,6.64,0,0,1-1.21,2.8,2.9,2.9,0,0,1-2.3,1c-1.43,0-2.28-1-2.28-2.8,0-3.7,2.63-7.68,5.88-7.68a3,3,0,0,1,1.24.24ZM65,93.54c-.37,1.9-1.08,5.23-1,5a7.74,7.74,0,0,0-1.59-.14A10.4,10.4,0,0,0,52,108.92c0,3.41,2.1,5.55,5.29,5.55a5.86,5.86,0,0,0,4.29-1.63,2.61,2.61,0,0,0,2.76,1.63h.57l5-24.24C69.52,90.18,65.77,89.63,65,93.54Z"/><path id="_Compound_Path_3" data-name="&lt;Compound Path&gt;" class="cls-1" d="M79.31,98.44A10.43,10.43,0,0,0,68.89,109c0,3.42,2,5.52,5.13,5.52a5.81,5.81,0,0,0,4.29-1.64,2.59,2.59,0,0,0,2.76,1.64h.57l3-14.57A11,11,0,0,0,79.31,98.44Zm-.48,9.34a6.49,6.49,0,0,1-1.17,2.8,3,3,0,0,1-2.34,1c-1.43,0-2.13-1-2.13-2.77,0-3.25,2.33-7.71,6-7.71a2.11,2.11,0,0,1,1,.23Z"/><path id="_Compound_Path_4" data-name="&lt;Compound Path&gt;" class="cls-1" d="M96.44,105.68c-.41,1.94-1.09,5.64-4.07,5.64-2.65,0-1.81-2.93-1.65-3.7l1.88-8.91a4.23,4.23,0,0,0-5,3.62c-.94,4.43-1.1,5.16-1.1,5.16a14.38,14.38,0,0,0-.38,2.68,4,4,0,0,0,1,2.77c-2.45.6-3.6,1.87-3.6,3.69,0,2.68,2.65,4.26,6.17,4.26a9,9,0,0,0,6.94-2.73,12.7,12.7,0,0,0,2.58-6l2.87-13.43s-4.06-.68-4.93,3.35S96.44,105.68,96.44,105.68Zm-1.87,8.44a6.64,6.64,0,0,1-1.72,3.15,4.36,4.36,0,0,1-3,1.17c-1.47,0-2.68-.7-2.68-1.94,0-1.59,1.56-2,3.85-2.23a7.23,7.23,0,0,0,3.88-1.3Z"/><path id="_Compound_Path_5" data-name="&lt;Compound Path&gt;" class="cls-1" d="M149.89,99.37c0,.15-.07.25-.26.25h-.19v-.47h.16c.2,0,.29,0,.29.22m.29.7a.19.19,0,0,1-.1,0s0,0-.07-.06l-.17-.29a.37.37,0,0,0,.27-.38c0-.27-.19-.39-.48-.39h-.51v.17h.1v1.1h.22v-.48h.19l.21.36a.2.2,0,0,0,.2.13.28.28,0,0,0,.13,0Zm.44-.45a1,1,0,1,1-1-1,.93.93,0,0,1,1,1m.19,0a1.18,1.18,0,1,0-1.17,1.18,1.11,1.11,0,0,0,1.17-1.18"/><path id="_Compound_Path_6" data-name="&lt;Compound Path&gt;" class="cls-1" d="M91.12,35.54c0,.15-.07.25-.27.25h-.19v-.47h.16c.2,0,.3,0,.3.22m.28.7-.09,0s0,0-.07-.06l-.17-.29a.37.37,0,0,0,.27-.38c0-.26-.2-.38-.49-.38h-.51v.16h.11v1.1h.21V36h.2l.2.35a.21.21,0,0,0,.21.13.25.25,0,0,0,.12,0Zm.44-.45a1,1,0,1,1-1-1,.93.93,0,0,1,1,1m.2,0A1.18,1.18,0,1,0,90.86,37,1.11,1.11,0,0,0,92,35.79"/></g></svg>