<svg id="Layer_1" data-name="Layer 1" xmlns="http://www.w3.org/2000/svg" viewBox="0 0 154 140"><defs><style>.cls-1{fill:#4583a9;}</style></defs><title>Artboard 1</title><path class="cls-1" d="M97,116.77c-6.36,0-10.37,4.49-10.37,10.79,0,6.91,5,11.34,11.83,11.34,2.83,0,6.36-.76,6.36-4.36v-.62c0-.14-.14-.21-.28-.21s-.07,0-.14.07A7.86,7.86,0,0,1,99.75,135c-4.43,0-7-2.63-7.54-6.57l13.28-1.87a12.19,12.19,0,0,0,.14-1.59C105.56,120,102,116.77,97,116.77Zm-4.84,8.44c.21-2.84,1.25-5.12,4.36-5.12,2.42,0,3.53,1.8,3.53,3.87Zm-19-18.47c2.83,0,6.36-.76,6.36-4.35v-.63a.18.18,0,0,0-.21-.2c-.07,0-.14,0-.14.07a7.85,7.85,0,0,1-4.63,1.24c-4.43,0-7.05-2.63-7.54-6.57l13.21-1.87a12,12,0,0,0,.14-1.59c0-5-3.53-8.23-8.58-8.23-6.36,0-10.37,4.5-10.37,10.79C61.3,102.32,66.35,106.74,73.13,106.74ZM71.19,87.86c2.42,0,3.6,1.8,3.6,3.88L66.9,93C67,90.15,68.08,87.86,71.19,87.86Zm15.7,46.47a.24.24,0,0,0-.28,0,4.23,4.23,0,0,1-2.56.76,3.21,3.21,0,0,1-3.52-3.45V121.26H86.2v-3.87H80.46v-4.15H74.65v4.15H72.23v3.87h2.42v10.52c0,4.49,2.76,7.12,7.19,7.12,2.21,0,5.19-1,5.19-3.67a2.59,2.59,0,0,0-.07-.76ZM100,99.55c0,4.5,2.76,7.12,7.19,7.12,2.21,0,5.19-1,5.19-3.66a2.56,2.56,0,0,0-.07-.76l-.14-.21a.21.21,0,0,0-.28,0,4.3,4.3,0,0,1-2.56.76,3.21,3.21,0,0,1-3.52-3.46V89h5.67V85.1H105.7V81H99.89V85.1H97.54V89H100Zm14.1,22.13h-.13v-.76a3.6,3.6,0,0,0-4-3.8,3.66,3.66,0,0,0-3.94,3.11l.07.2h.21a1.94,1.94,0,0,1,.83-.2c1,0,1.31,1,1.31,1.86v16.25h5.81V125.48c1.52-1.52,3.18-3.25,5.26-3.25a5.14,5.14,0,0,1,1.8.28l.34-5.67a5.2,5.2,0,0,0-1-.14c-3.11.07-4.84,2.49-6.57,5ZM144,135.3a1.59,1.59,0,0,1-.76.21c-1,0-1.25-.83-1.25-1.87V122.72c0-1.8-.14-3.6-1.59-4.84a4.59,4.59,0,0,0-3.18-1.11c-3.39,0-5.88,2.07-8.23,4.63h-.14v-4h-5.74v21h5.81V125.28c1.25-1.25,3-3.32,5.12-3.32a2,2,0,0,1,2.07,1.93V134c0,2.9,1.46,4.63,4.22,4.63,2.35,0,3.81-1.38,3.94-3.18a.26.26,0,0,0-.07-.21Zm-78.35-9.54c-1.94-1-3.46-1.8-3.46-3s1.11-2,3.25-2a14.76,14.76,0,0,1,3.87.55l.69-4a26,26,0,0,0-4.56-.41c-6.15,0-8.85,3.46-8.85,6.64,0,3.59,2.28,5,5,6.36,2,1,3.38,1.66,3.38,3,0,1.66-1.52,2.28-3.45,2.28a9.69,9.69,0,0,1-4.84-1.24.21.21,0,0,0-.28,0c-.07.07-.14.14-.14.21v.62c0,2.77,2.15,4.15,6,4.15,6.5,0,8.64-4,8.64-6.85C70.77,128.53,68.29,127.07,65.66,125.76Zm21.71-19c6.5,0,8.65-4,8.65-6.84,0-3.6-2.49-5.05-5.12-6.36-1.94-1-3.46-1.73-3.46-3.05,0-1.17,1.11-2.07,3.25-2.07a12.34,12.34,0,0,1,3.87.62l.7-4a25.23,25.23,0,0,0-4.57-.42c-6.15,0-8.85,3.46-8.85,6.64,0,3.6,2.28,5,5,6.36,1.93,1,3.32,1.66,3.32,3,0,1.66-1.52,2.28-3.46,2.28a9.7,9.7,0,0,1-4.84-1.25.24.24,0,0,0-.28,0c-.07.07-.14.14-.14.21v.62C81.49,105.29,83.64,106.74,87.37,106.74Zm-41,10C40,116.77,36,121.26,36,127.56c0,6.91,5,11.34,11.83,11.34,2.83,0,6.36-.76,6.36-4.36v-.62c0-.07-.07-.14-.07-.21a.21.21,0,0,0-.28,0A7.78,7.78,0,0,1,49.2,135c-4.43,0-7.05-2.63-7.54-6.57l13.21-1.87a12.19,12.19,0,0,0,.14-1.59C54.94,120,51.41,116.77,46.36,116.77Zm-4.84,8.44c.21-2.84,1.25-5.12,4.36-5.12,2.42,0,3.6,1.8,3.6,3.87Zm4.08-18.74c1,0,1.87,0,2.77-.07A19,19,0,0,0,54.46,105a8.8,8.8,0,0,0,5.11-6.78A7,7,0,0,0,59,94.09a7.14,7.14,0,0,0-3-3,11.88,11.88,0,0,0-2.63-1,7.56,7.56,0,0,0,3.18-2.7,5.33,5.33,0,0,0,1-3,4.91,4.91,0,0,0-.76-2.63A6.16,6.16,0,0,0,54,79.43c-2-1-4.08-1.32-7.4-1.32h0a56.36,56.36,0,0,0-9,.9h-.14v26.76h.14a51.82,51.82,0,0,0,8,.7ZM43.81,81.92c.69-.07,1.45-.14,2.14-.14A12.76,12.76,0,0,1,48.3,82a4.28,4.28,0,0,1,2.56,1.38,2.53,2.53,0,0,1,.62,1.94,4.37,4.37,0,0,1-2.07,3.32c-1.25.83-2.7,1.38-5.67,1.66Zm0,10.92a12.24,12.24,0,0,1,3.11-.41,9,9,0,0,1,2.35.28,4.53,4.53,0,0,1,3.53,3.87,5.39,5.39,0,0,1-.56,3,5.26,5.26,0,0,1-1.93,2.15,7.85,7.85,0,0,1-4.15,1,14.34,14.34,0,0,1-2.35-.2Zm-13.9,17.5a3.54,3.54,0,0,0-2.42,1,4.17,4.17,0,0,0-1.25,3l.07.21h.28a1.93,1.93,0,0,1,1.1-.14c1.46.21,2.15,2.7,2,7a30.63,30.63,0,0,1-1.45,7.82,10,10,0,0,1-1.59,3,3.11,3.11,0,0,1-2.08,1.24h-.07a1.72,1.72,0,0,1-.55-.06l-3.32-22.55H14.07l2.49,14.94a18.85,18.85,0,0,1-1.32,4.7c-.76,1.66-1.72,2.63-2.83,2.77-.21,0-.48.07-.69.07h-.35L8.05,110.89H1.48l4.57,27.52h.14a10.65,10.65,0,0,0,2.55.35,10.41,10.41,0,0,0,2.08-.21,7.78,7.78,0,0,0,4.42-2.83,11.42,11.42,0,0,0,2.29-4.08l1.1,6.84h.14a13.77,13.77,0,0,0,2.91.35h.76a8.43,8.43,0,0,0,4.63-1.38A11.88,11.88,0,0,0,30.53,134a25.74,25.74,0,0,0,3.18-7.68,37.35,37.35,0,0,0,1-8.3,11.94,11.94,0,0,0-1-5.39A4.15,4.15,0,0,0,29.91,110.34ZM149.82,133a2.84,2.84,0,1,0,2.69,2.7A2.85,2.85,0,0,0,149.82,133Zm0,5.26a2.43,2.43,0,1,1,2.21-2.63v.21a2.32,2.32,0,0,1-2.21,2.42Zm1.59-1.11h-.14c-.28,0-.62-.55-1-1.31a1.11,1.11,0,0,0,.76-1c0-.76-.76-1-1.38-1a4.53,4.53,0,0,0-1,.07v3.59h.55V136h.42c.34.83.69,1.59,1.38,1.59a.43.43,0,0,0,.42-.34h0v-.07Zm-1.87-1.52h-.35V134.4h.28c.42,0,.83.14.83.63s-.35.62-.76.62Z"/><path class="cls-1" d="M66.4,28.93c.06-1.26-.69-2.63-3-3.13a12.17,12.17,0,0,0-4.26-.06v7.75A10,10,0,0,0,64.46,32,4,4,0,0,0,66.4,28.93Z"/><path class="cls-1" d="M64.21,35.3a10,10,0,0,0-5.07.13v8.81c.75.13,1.57.19,2.32.25a7.06,7.06,0,0,0,3.75-.87,5,5,0,0,0,2.25-4.69A4.12,4.12,0,0,0,64.21,35.3Z"/><path class="cls-1" d="M103,44.56a1.38,1.38,0,1,0-.25,2.75,1.42,1.42,0,0,0,1-.32c-.45,0-.64-.45-.82-.93h-.25V47h-.31V44.93H103c.38,0,.82.13.82.56a.62.62,0,0,1-.44.57c.25.43.44.75.62.75a1.37,1.37,0,0,0,.32-.75v-.13A1.31,1.31,0,0,0,103,44.56Z"/><path class="cls-1" d="M102.85,45.12h-.19v.69h.19c.25,0,.5-.13.5-.38S103.1,45.12,102.85,45.12Z"/><path class="cls-1" d="M104.91,17.23A32.24,32.24,0,0,0,77,1.1,32.84,32.84,0,0,0,60.9,5.48a32.24,32.24,0,1,0,44,11.75ZM73.21,40.3a7.67,7.67,0,0,1-4.44,5.88,15.68,15.68,0,0,1-5.37,1.31,40.86,40.86,0,0,1-9.57-.56V23.42a48.64,48.64,0,0,1,8-.81A14.47,14.47,0,0,1,68.4,23.8a4.75,4.75,0,0,1,3,4.25c0,1.44-.88,3.75-4.06,5.13a11,11,0,0,1,2.75,1A5.77,5.77,0,0,1,73.21,40.3Zm25.89,3A8.52,8.52,0,0,1,92,47.49a11,11,0,0,1-3.25-.25l-1.13-6.69c-.75,3.13-3.06,6.07-6.06,6.76a8.89,8.89,0,0,1-4.07-.07l-4-24.19H79l2.93,20a3.57,3.57,0,0,0,1.13,0c2.31-.38,3.44-4.19,3.88-6.88L84.72,23.05h5.5l3,20.07a3.17,3.17,0,0,0,.75.06c3,0,4.63-6.75,4.75-10.88.13-3.56-.43-6.13-1.93-6.38a2.1,2.1,0,0,0-.88.07h-.19a.25.25,0,0,1-.06-.19,3.28,3.28,0,0,1,3.06-3.25c2.88,0,4,2.87,4,6.63C102.72,33.8,101.66,39.43,99.1,43.31Zm5.5,2.62a1.56,1.56,0,0,1-1.5,1.63s0,.06-.06,0a1.63,1.63,0,0,1-.13-3.25,1.64,1.64,0,0,1,1.69,1.56Z"/></svg>