<svg id="Layer_1" data-name="Layer 1" xmlns="http://www.w3.org/2000/svg" viewBox="0 0 68 68"><defs><style>.cls-1{fill:#55bff0;}</style></defs><path class="cls-1" d="M1,34A33,33,0,1,1,34,67,33,33,0,0,1,1,34Zm64.42,0A31.46,31.46,0,1,0,34,65.46,31.5,31.5,0,0,0,65.46,34Z"/><path class="cls-1" d="M22.3,24.11,33.22,13.19a1.1,1.1,0,0,1,1.56,0L45.7,24.11l-1.06,1.06L34,14.53,23.36,25.17Z"/><path class="cls-1" d="M22.3,43.89l1.06-1.06L34,53.47,44.64,42.83l1.06,1.06L34.78,54.81a1.11,1.11,0,0,1-1.56,0Zm11.42,9.86Zm.56,0Z"/></svg>