<svg id="Layer_1" data-name="Layer 1" xmlns="http://www.w3.org/2000/svg" viewBox="0 0 358 358"><defs><style>.cls-1{fill:#eef1f3;}</style></defs><title>Artboard 1</title><path class="cls-1" d="M179,2.35h1.46A176.65,176.65,0,0,1,179,355.65h-1.45A176.63,176.63,0,0,1,2.36,177.57,176.84,176.84,0,0,1,179,2.35M179,329.74a150.74,150.74,0,0,0,1.2-301.47H179A150.91,150.91,0,0,0,28.27,177.78c-.68,83.11,66.39,151.28,149.51,152H179M179,1.35A177.83,177.83,0,0,0,1.36,177.56c-.8,97.95,78.25,178.29,176.2,179.08H179c97.29,0,176.83-78.75,177.62-176.21A177.64,177.64,0,0,0,180.44,1.36ZM179,328.74h-1.23C95.22,328.06,28.6,260.35,29.27,177.79A149.92,149.92,0,0,1,179,29.26h1.24A149.73,149.73,0,0,1,328.73,180.21C328.07,262.37,261,328.74,179,328.74Z"/></svg>