<svg id="Layer_1" data-name="Layer 1" xmlns="http://www.w3.org/2000/svg" viewBox="0 0 68 68"><defs><style>.cls-1{fill:#55bff0;}</style></defs><title>Artboard 1</title><path class="cls-1" d="M34,67A33,33,0,1,1,67,34,33,33,0,0,1,34,67ZM34,2.54A31.46,31.46,0,1,0,65.46,34,31.5,31.5,0,0,0,34,2.54Z"/><path class="cls-1" d="M24.11,45.7,13.19,34.78a1.1,1.1,0,0,1,0-1.56L24.11,22.3l1.06,1.06L14.53,34,25.17,44.64Z"/><path class="cls-1" d="M43.89,45.7l-1.06-1.06L53.47,34,42.83,23.36l1.06-1.06L54.81,33.22a1.06,1.06,0,0,1,.32.78,1.1,1.1,0,0,1-.32.79Zm9.86-11.42Zm0-.56Z"/></svg>